# MagicaVoxel @ Ephtracy

# group
o 

# material
mtllib Office_Table_White_2x1_01.mtl
usemtl palette

# normals
vn -1 0 0
vn 1 0 0
vn 0 0 1
vn 0 0 -1
vn 0 -1 0
vn 0 1 0

# texcoords
vt 0.876953 0.5
vt 0.880859 0.5
vt 0.888672 0.5
vt 0.896484 0.5
vt 0.904297 0.5

# verts
v -1.6 1 0.5
v -1.6 1 -0.5
v -1.6 1.1 0.5
v -1.6 1.1 -0.5
v -1.5 0 0.4
v -1.5 0 0.3
v -1.5 0 -0.4
v -1.5 0 -0.5
v -1.5 0.1 0.4
v -1.5 0.1 0.3
v -1.5 0.1 -0.4
v -1.5 0.1 -0.5
v -1.5 1 0.6
v -1.5 1 0.5
v -1.5 1 0.4
v -1.5 1 0.3
v -1.5 1 -0.4
v -1.5 1 -0.5
v -1.5 1 -0.6
v -1.5 1.1 0.6
v -1.5 1.1 0.5
v -1.5 1.1 -0.5
v -1.5 1.1 -0.6
v 0.8 0 0.4
v 0.8 0 0.3
v 0.8 0 -0.4
v 0.8 0 -0.5
v 0.8 0.1 0.4
v 0.8 0.1 0.3
v 0.8 0.1 -0.4
v 0.8 0.1 -0.5
v 0.8 0.2 0.3
v 0.8 0.2 -0.4
v 0.8 1 0.4
v 0.8 1 0.3
v 0.8 1 -0.4
v 1.4 0 0.4
v 1.4 0 0.3
v 1.4 0 -0.4
v 1.4 0 -0.5
v 1.4 0.1 0.4
v 1.4 0.1 0.3
v 1.4 0.1 -0.4
v 1.4 0.1 -0.5
v -1.4 0 0.4
v -1.4 0 0.3
v -1.4 0 -0.4
v -1.4 0 -0.5
v -1.4 0.1 0.4
v -1.4 0.1 0.3
v -1.4 0.1 -0.4
v -1.4 0.1 -0.5
v -1.4 1 0.4
v -1.4 1 0.3
v -1.4 1 -0.4
v 0.9 0 0.4
v 0.9 0 0.3
v 0.9 0 -0.4
v 0.9 0 -0.5
v 0.9 0.1 0.4
v 0.9 0.1 0.3
v 0.9 0.1 -0.4
v 0.9 0.1 -0.5
v 1.5 0 0.4
v 1.5 0 0.3
v 1.5 0 -0.4
v 1.5 0 -0.5
v 1.5 0.1 0.4
v 1.5 0.1 0.3
v 1.5 0.1 -0.4
v 1.5 0.1 -0.5
v 1.5 0.2 0.3
v 1.5 0.2 -0.4
v 1.5 1 0.6
v 1.5 1 0.5
v 1.5 1 0.4
v 1.5 1 0.3
v 1.5 1 -0.4
v 1.5 1 -0.5
v 1.5 1 -0.6
v 1.5 1.1 0.6
v 1.5 1.1 0.5
v 1.5 1.1 -0.5
v 1.5 1.1 -0.6
v 1.6 1 0.5
v 1.6 1 -0.5
v 1.6 1.1 0.5
v 1.6 1.1 -0.5
v -1.5 1 0.6
v -1.5 1.1 0.6
v 1.5 1 0.6
v 1.5 1.1 0.6
v -1.6 1 0.5
v -1.6 1.1 0.5
v -1.5 1 0.5
v -1.5 1.1 0.5
v 1.5 1 0.5
v 1.5 1.1 0.5
v 1.6 1 0.5
v 1.6 1.1 0.5
v -1.5 0 0.4
v -1.5 0.1 0.4
v -1.5 1 0.4
v -1.4 0 0.4
v -1.4 0.1 0.4
v -1.4 1 0.4
v 0.8 0 0.4
v 0.8 0.1 0.4
v 0.8 1 0.4
v 0.9 0 0.4
v 0.9 0.1 0.4
v 0.9 0.2 0.4
v 0.9 0.6 0.4
v 0.9 0.7 0.4
v 0.9 1 0.4
v 1 0.3 0.4
v 1 0.4 0.4
v 1 0.8 0.4
v 1 0.9 0.4
v 1.3 0.3 0.4
v 1.3 0.4 0.4
v 1.3 0.8 0.4
v 1.3 0.9 0.4
v 1.4 0 0.4
v 1.4 0.1 0.4
v 1.4 0.2 0.4
v 1.4 0.6 0.4
v 1.4 0.7 0.4
v 1.4 1 0.4
v 1.5 0 0.4
v 1.5 0.1 0.4
v 1.5 1 0.4
v -1.5 0 -0.4
v -1.5 0.1 -0.4
v -1.4 0 -0.4
v -1.4 0.1 -0.4
v -1.4 1 -0.4
v 0.8 0 -0.4
v 0.8 0.1 -0.4
v 0.8 0.2 -0.4
v 0.8 1 -0.4
v 0.9 0 -0.4
v 0.9 0.1 -0.4
v 1.4 0 -0.4
v 1.4 0.1 -0.4
v 1.5 0 -0.4
v 1.5 0.1 -0.4
v -1.5 0 0.3
v -1.5 0.1 0.3
v -1.4 0 0.3
v -1.4 0.1 0.3
v 0.8 0 0.3
v 0.8 0.1 0.3
v 0.9 0 0.3
v 0.9 0.1 0.3
v 1.4 0 0.3
v 1.4 0.1 0.3
v 1.5 0 0.3
v 1.5 0.1 0.3
v -1.6 1 -0.5
v -1.6 1.1 -0.5
v -1.5 0 -0.5
v -1.5 0.1 -0.5
v -1.5 1 -0.5
v -1.5 1.1 -0.5
v -1.4 0 -0.5
v -1.4 0.1 -0.5
v -1.4 1 -0.5
v 0.8 0 -0.5
v 0.8 0.1 -0.5
v 0.8 1 -0.5
v 0.9 0 -0.5
v 0.9 0.1 -0.5
v 0.9 0.2 -0.5
v 0.9 1 -0.5
v 1.4 0 -0.5
v 1.4 0.1 -0.5
v 1.4 0.2 -0.5
v 1.4 1 -0.5
v 1.5 0 -0.5
v 1.5 0.1 -0.5
v 1.5 1 -0.5
v 1.5 1.1 -0.5
v 1.6 1 -0.5
v 1.6 1.1 -0.5
v -1.5 1 -0.6
v -1.5 1.1 -0.6
v 1.5 1 -0.6
v 1.5 1.1 -0.6
v -1.5 0 0.4
v -1.4 0 0.4
v 0.8 0 0.4
v 0.9 0 0.4
v 1.4 0 0.4
v 1.5 0 0.4
v -1.5 0 0.3
v -1.4 0 0.3
v 0.8 0 0.3
v 0.9 0 0.3
v 1.4 0 0.3
v 1.5 0 0.3
v -1.5 0 -0.4
v -1.4 0 -0.4
v 0.8 0 -0.4
v 0.9 0 -0.4
v 1.4 0 -0.4
v 1.5 0 -0.4
v -1.5 0 -0.5
v -1.4 0 -0.5
v 0.8 0 -0.5
v 0.9 0 -0.5
v 1.4 0 -0.5
v 1.5 0 -0.5
v 0.9 0.1 0.4
v 1.4 0.1 0.4
v -1.5 0.1 0.3
v -1.4 0.1 0.3
v 0.8 0.1 0.3
v 0.9 0.1 0.3
v 1.4 0.1 0.3
v 1.5 0.1 0.3
v -1.5 0.1 -0.4
v -1.4 0.1 -0.4
v 0.8 0.1 -0.4
v 0.9 0.1 -0.4
v 1.4 0.1 -0.4
v 1.5 0.1 -0.4
v -1.4 0.1 -0.5
v 0.8 0.1 -0.5
v 0.9 0.1 -0.5
v 1.4 0.1 -0.5
v -1.5 1 0.6
v 1.5 1 0.6
v -1.6 1 0.5
v -1.5 1 0.5
v 1.5 1 0.5
v 1.6 1 0.5
v -1.5 1 0.4
v -1.4 1 0.4
v 0.8 1 0.4
v 0.9 1 0.4
v 1.4 1 0.4
v 1.5 1 0.4
v -1.5 1 0.3
v -1.4 1 0.3
v 0.8 1 0.3
v 1.5 1 0.3
v -1.5 1 -0.4
v -1.4 1 -0.4
v 0.8 1 -0.4
v 1.5 1 -0.4
v -1.6 1 -0.5
v -1.5 1 -0.5
v -1.4 1 -0.5
v 0.8 1 -0.5
v 0.9 1 -0.5
v 1.4 1 -0.5
v 1.5 1 -0.5
v 1.6 1 -0.5
v -1.5 1 -0.6
v 1.5 1 -0.6
v -1.5 1.1 0.6
v 1.5 1.1 0.6
v -1.6 1.1 0.5
v -1.5 1.1 0.5
v 1.5 1.1 0.5
v 1.6 1.1 0.5
v -1.6 1.1 -0.5
v -1.5 1.1 -0.5
v 1.5 1.1 -0.5
v 1.6 1.1 -0.5
v -1.5 1.1 -0.6
v 1.5 1.1 -0.6

# faces
f 3/3/1 2/3/1 1/3/1
f 4/3/1 2/3/1 3/3/1
f 9/5/1 6/5/1 5/5/1
f 10/5/1 6/5/1 9/5/1
f 11/5/1 8/5/1 7/5/1
f 12/5/1 8/5/1 11/5/1
f 15/1/1 10/1/1 9/1/1
f 16/3/1 11/3/1 10/3/1
f 16/1/1 10/1/1 15/1/1
f 17/1/1 12/1/1 11/1/1
f 17/3/1 11/3/1 16/3/1
f 18/1/1 12/1/1 17/1/1
f 20/3/1 14/3/1 13/3/1
f 21/3/1 14/3/1 20/3/1
f 22/3/1 19/3/1 18/3/1
f 23/3/1 19/3/1 22/3/1
f 28/5/1 25/5/1 24/5/1
f 29/5/1 25/5/1 28/5/1
f 30/5/1 27/5/1 26/5/1
f 31/5/1 27/5/1 30/5/1
f 32/1/1 29/1/1 28/1/1
f 32/1/1 30/1/1 29/1/1
f 33/1/1 30/1/1 32/1/1
f 34/1/1 32/1/1 28/1/1
f 35/3/1 33/3/1 32/3/1
f 35/1/1 32/1/1 34/1/1
f 36/3/1 33/3/1 35/3/1
f 41/5/1 38/5/1 37/5/1
f 42/5/1 38/5/1 41/5/1
f 43/5/1 40/5/1 39/5/1
f 44/5/1 40/5/1 43/5/1
f 45/5/2 46/5/2 49/5/2
f 49/5/2 46/5/2 50/5/2
f 47/5/2 48/5/2 51/5/2
f 51/5/2 48/5/2 52/5/2
f 49/1/2 50/1/2 53/1/2
f 50/3/2 51/3/2 54/3/2
f 53/1/2 50/1/2 54/1/2
f 54/3/2 51/3/2 55/3/2
f 56/5/2 57/5/2 60/5/2
f 60/5/2 57/5/2 61/5/2
f 58/5/2 59/5/2 62/5/2
f 62/5/2 59/5/2 63/5/2
f 64/5/2 65/5/2 68/5/2
f 68/5/2 65/5/2 69/5/2
f 66/5/2 67/5/2 70/5/2
f 70/5/2 67/5/2 71/5/2
f 68/1/2 69/1/2 72/1/2
f 69/1/2 70/1/2 72/1/2
f 70/1/2 71/1/2 72/1/2
f 72/1/2 71/1/2 73/1/2
f 68/1/2 72/1/2 76/1/2
f 72/3/2 73/3/2 77/3/2
f 76/1/2 72/1/2 77/1/2
f 73/1/2 71/1/2 78/1/2
f 77/3/2 73/3/2 78/3/2
f 78/1/2 71/1/2 79/1/2
f 74/3/2 75/3/2 81/3/2
f 81/3/2 75/3/2 82/3/2
f 79/3/2 80/3/2 83/3/2
f 83/3/2 80/3/2 84/3/2
f 85/3/2 86/3/2 87/3/2
f 87/3/2 86/3/2 88/3/2
f 91/3/3 90/3/3 89/3/3
f 92/3/3 90/3/3 91/3/3
f 95/3/3 94/3/3 93/3/3
f 96/3/3 94/3/3 95/3/3
f 99/3/3 98/3/3 97/3/3
f 100/3/3 98/3/3 99/3/3
f 104/5/3 102/5/3 101/5/3
f 105/1/3 103/1/3 102/1/3
f 105/5/3 102/5/3 104/5/3
f 106/1/3 103/1/3 105/1/3
f 110/5/3 108/5/3 107/5/3
f 111/1/3 109/1/3 108/1/3
f 111/5/3 108/5/3 110/5/3
f 112/1/3 109/1/3 111/1/3
f 113/1/3 109/1/3 112/1/3
f 114/1/3 109/1/3 113/1/3
f 115/1/3 109/1/3 114/1/3
f 116/3/3 113/3/3 112/3/3
f 117/3/3 113/3/3 116/3/3
f 118/3/3 115/3/3 114/3/3
f 119/3/3 115/3/3 118/3/3
f 120/3/3 116/3/3 112/3/3
f 120/4/3 117/4/3 116/4/3
f 121/3/3 113/3/3 117/3/3
f 121/4/3 117/4/3 120/4/3
f 122/4/3 119/4/3 118/4/3
f 122/3/3 118/3/3 114/3/3
f 123/3/3 115/3/3 119/3/3
f 123/4/3 119/4/3 122/4/3
f 125/1/3 112/1/3 111/1/3
f 126/3/3 120/3/3 112/3/3
f 126/3/3 121/3/3 120/3/3
f 126/1/3 112/1/3 125/1/3
f 127/2/3 114/2/3 113/2/3
f 127/3/3 121/3/3 126/3/3
f 127/3/3 113/3/3 121/3/3
f 128/3/3 122/3/3 114/3/3
f 128/2/3 114/2/3 127/2/3
f 128/3/3 123/3/3 122/3/3
f 129/3/3 115/3/3 123/3/3
f 129/3/3 123/3/3 128/3/3
f 130/5/3 125/5/3 124/5/3
f 131/1/3 128/1/3 127/1/3
f 131/5/3 125/5/3 130/5/3
f 131/1/3 126/1/3 125/1/3
f 131/1/3 129/1/3 128/1/3
f 131/1/3 127/1/3 126/1/3
f 132/1/3 129/1/3 131/1/3
f 135/5/3 134/5/3 133/5/3
f 136/5/3 134/5/3 135/5/3
f 139/3/3 137/3/3 136/3/3
f 140/3/3 137/3/3 139/3/3
f 141/3/3 137/3/3 140/3/3
f 142/5/3 139/5/3 138/5/3
f 143/5/3 139/5/3 142/5/3
f 146/5/3 145/5/3 144/5/3
f 147/5/3 145/5/3 146/5/3
f 148/5/4 149/5/4 150/5/4
f 150/5/4 149/5/4 151/5/4
f 152/5/4 153/5/4 154/5/4
f 154/5/4 153/5/4 155/5/4
f 156/5/4 157/5/4 158/5/4
f 158/5/4 157/5/4 159/5/4
f 160/3/4 161/3/4 164/3/4
f 164/3/4 161/3/4 165/3/4
f 162/5/4 163/5/4 166/5/4
f 163/1/4 164/1/4 167/1/4
f 166/5/4 163/5/4 167/5/4
f 167/1/4 164/1/4 168/1/4
f 167/3/4 168/3/4 170/3/4
f 170/3/4 168/3/4 171/3/4
f 169/5/4 170/5/4 172/5/4
f 170/1/4 171/1/4 173/1/4
f 172/5/4 170/5/4 173/5/4
f 173/1/4 171/1/4 174/1/4
f 174/1/4 171/1/4 175/1/4
f 173/1/4 174/1/4 177/1/4
f 174/3/4 175/3/4 178/3/4
f 177/1/4 174/1/4 178/1/4
f 178/3/4 175/3/4 179/3/4
f 176/5/4 177/5/4 180/5/4
f 177/1/4 178/1/4 181/1/4
f 180/5/4 177/5/4 181/5/4
f 178/1/4 179/1/4 181/1/4
f 181/1/4 179/1/4 182/1/4
f 182/3/4 183/3/4 184/3/4
f 184/3/4 183/3/4 185/3/4
f 186/3/4 187/3/4 188/3/4
f 188/3/4 187/3/4 189/3/4
f 196/5/5 191/5/5 190/5/5
f 197/5/5 191/5/5 196/5/5
f 198/5/5 193/5/5 192/5/5
f 199/5/5 193/5/5 198/5/5
f 200/5/5 195/5/5 194/5/5
f 201/5/5 195/5/5 200/5/5
f 208/5/5 203/5/5 202/5/5
f 209/5/5 203/5/5 208/5/5
f 210/5/5 205/5/5 204/5/5
f 211/5/5 205/5/5 210/5/5
f 212/5/5 207/5/5 206/5/5
f 213/5/5 207/5/5 212/5/5
f 219/1/5 215/1/5 214/1/5
f 220/1/5 215/1/5 219/1/5
f 222/3/5 217/3/5 216/3/5
f 223/3/5 217/3/5 222/3/5
f 224/1/5 221/1/5 220/1/5
f 224/1/5 219/1/5 218/1/5
f 224/1/5 220/1/5 219/1/5
f 225/1/5 221/1/5 224/1/5
f 226/1/5 221/1/5 225/1/5
f 227/1/5 221/1/5 226/1/5
f 228/3/5 224/3/5 223/3/5
f 229/3/5 224/3/5 228/3/5
f 230/1/5 226/1/5 225/1/5
f 231/1/5 226/1/5 230/1/5
f 235/3/5 233/3/5 232/3/5
f 236/3/5 233/3/5 235/3/5
f 238/3/5 235/3/5 234/3/5
f 238/3/5 237/3/5 236/3/5
f 238/3/5 236/3/5 235/3/5
f 239/3/5 237/3/5 238/3/5
f 240/3/5 237/3/5 239/3/5
f 241/3/5 237/3/5 240/3/5
f 242/3/5 237/3/5 241/3/5
f 243/3/5 237/3/5 242/3/5
f 244/3/5 238/3/5 234/3/5
f 245/3/5 240/3/5 239/3/5
f 246/3/5 240/3/5 245/3/5
f 247/3/5 237/3/5 243/3/5
f 248/3/5 244/3/5 234/3/5
f 249/3/5 246/3/5 245/3/5
f 250/3/5 246/3/5 249/3/5
f 251/3/5 237/3/5 247/3/5
f 252/3/5 248/3/5 234/3/5
f 253/3/5 248/3/5 252/3/5
f 258/3/5 237/3/5 251/3/5
f 259/3/5 237/3/5 258/3/5
f 260/3/5 257/3/5 256/3/5
f 260/3/5 258/3/5 257/3/5
f 260/3/5 254/3/5 253/3/5
f 260/3/5 256/3/5 255/3/5
f 260/3/5 255/3/5 254/3/5
f 261/3/5 258/3/5 260/3/5
f 262/3/6 263/3/6 265/3/6
f 265/3/6 263/3/6 266/3/6
f 264/3/6 265/3/6 268/3/6
f 266/3/6 267/3/6 268/3/6
f 265/3/6 266/3/6 268/3/6
f 268/3/6 267/3/6 269/3/6
f 269/3/6 267/3/6 270/3/6
f 270/3/6 267/3/6 271/3/6
f 269/3/6 270/3/6 272/3/6
f 272/3/6 270/3/6 273/3/6
