# MagicaVoxel @ Ephtracy

# group
o 

# material
mtllib Office_Table_Brown_2x2_01.mtl
usemtl palette

# normals
vn -1 0 0
vn 1 0 0
vn 0 0 1
vn 0 0 -1
vn 0 -1 0
vn 0 1 0

# texcoords
vt 0.904297 0.5
vt 0.912109 0.5
vt 0.916016 0.5
vt 0.919922 0.5

# verts
v -1.4 1 1.5
v -1.4 1 -1.3
v -1.4 1.1 1.5
v -1.4 1.1 -1.3
v -1.3 0 1.5
v -1.3 0 1.4
v -1.3 0 -1.2
v -1.3 0 -1.3
v -1.3 0.1 1.5
v -1.3 0.1 1.4
v -1.3 0.1 -1.2
v -1.3 0.1 -1.3
v -1.3 1 1.6
v -1.3 1 1.5
v -1.3 1 1.4
v -1.3 1 -1.2
v -1.3 1 -1.3
v -1.3 1 -1.4
v -1.3 1.1 1.6
v -1.3 1.1 1.5
v -1.3 1.1 -1.3
v -1.3 1.1 -1.4
v -0.5 0 1.5
v -0.5 0 1.4
v -0.5 0.1 1.5
v -0.5 0.1 1.4
v 0.8 0 -0.4
v 0.8 0 -0.5
v 0.8 0 -1.2
v 0.8 0 -1.3
v 0.8 0.1 -0.4
v 0.8 0.1 -0.5
v 0.8 0.1 -1.2
v 0.8 0.1 -1.3
v 0.8 0.2 -0.5
v 0.8 0.2 -1.2
v 0.8 1 -0.4
v 0.8 1 -0.5
v 0.8 1 -1.2
v 1.4 0 -0.4
v 1.4 0 -0.5
v 1.4 0 -1.2
v 1.4 0 -1.3
v 1.4 0.1 -0.4
v 1.4 0.1 -0.5
v 1.4 0.1 -1.2
v 1.4 0.1 -1.3
v -1.2 0 1.5
v -1.2 0 1.4
v -1.2 0 -1.2
v -1.2 0 -1.3
v -1.2 0.1 1.5
v -1.2 0.1 1.4
v -1.2 0.1 -1.2
v -1.2 0.1 -1.3
v -1.2 1 1.4
v -1.2 1 -1.2
v -0.4 0 1.5
v -0.4 0 1.4
v -0.4 0.1 1.5
v -0.4 0.1 1.4
v -0.4 1 1.5
v -0.4 1 1.4
v -0.3 1 1.6
v -0.3 1 1.5
v -0.3 1.1 1.6
v -0.3 1.1 1.5
v -0.2 1 1.5
v -0.2 1 -0.2
v -0.2 1.1 1.5
v -0.2 1.1 -0.2
v 0.9 0 -0.4
v 0.9 0 -0.5
v 0.9 0 -1.2
v 0.9 0 -1.3
v 0.9 0.1 -0.4
v 0.9 0.1 -0.5
v 0.9 0.1 -1.2
v 0.9 0.1 -1.3
v 1.5 0 -0.4
v 1.5 0 -0.5
v 1.5 0 -1.2
v 1.5 0 -1.3
v 1.5 0.1 -0.4
v 1.5 0.1 -0.5
v 1.5 0.1 -1.2
v 1.5 0.1 -1.3
v 1.5 0.2 -0.5
v 1.5 0.2 -1.2
v 1.5 1 -0.2
v 1.5 1 -0.3
v 1.5 1 -0.4
v 1.5 1 -0.5
v 1.5 1 -1.2
v 1.5 1 -1.3
v 1.5 1 -1.4
v 1.5 1.1 -0.2
v 1.5 1.1 -0.3
v 1.5 1.1 -1.3
v 1.5 1.1 -1.4
v 1.6 1 -0.3
v 1.6 1 -1.3
v 1.6 1.1 -0.3
v 1.6 1.1 -1.3
v -1.3 1 1.6
v -1.3 1.1 1.6
v -0.3 1 1.6
v -0.3 1.1 1.6
v -1.4 1 1.5
v -1.4 1.1 1.5
v -1.3 0 1.5
v -1.3 0.1 1.5
v -1.3 1 1.5
v -1.3 1.1 1.5
v -1.2 0 1.5
v -1.2 0.1 1.5
v -1.2 1 1.5
v -0.5 0 1.5
v -0.5 0.1 1.5
v -0.5 1 1.5
v -0.4 0 1.5
v -0.4 0.1 1.5
v -0.4 1 1.5
v -0.3 1 1.5
v -0.3 1.1 1.5
v -0.2 1 1.5
v -0.2 1.1 1.5
v -0.2 1 -0.2
v -0.2 1.1 -0.2
v 1.5 1 -0.2
v 1.5 1.1 -0.2
v 1.5 1 -0.3
v 1.5 1.1 -0.3
v 1.6 1 -0.3
v 1.6 1.1 -0.3
v 0.8 0 -0.4
v 0.8 0.1 -0.4
v 0.8 1 -0.4
v 0.9 0 -0.4
v 0.9 0.1 -0.4
v 0.9 0.2 -0.4
v 0.9 0.6 -0.4
v 0.9 0.7 -0.4
v 0.9 1 -0.4
v 1 0.3 -0.4
v 1 0.4 -0.4
v 1 0.8 -0.4
v 1 0.9 -0.4
v 1.3 0.3 -0.4
v 1.3 0.4 -0.4
v 1.3 0.8 -0.4
v 1.3 0.9 -0.4
v 1.4 0 -0.4
v 1.4 0.1 -0.4
v 1.4 0.2 -0.4
v 1.4 0.6 -0.4
v 1.4 0.7 -0.4
v 1.4 1 -0.4
v 1.5 0 -0.4
v 1.5 0.1 -0.4
v 1.5 1 -0.4
v -1.3 0 -1.2
v -1.3 0.1 -1.2
v -1.2 0 -1.2
v -1.2 0.1 -1.2
v -1.2 1 -1.2
v 0.8 0 -1.2
v 0.8 0.1 -1.2
v 0.8 0.2 -1.2
v 0.8 1 -1.2
v 0.9 0 -1.2
v 0.9 0.1 -1.2
v 1.4 0 -1.2
v 1.4 0.1 -1.2
v 1.5 0 -1.2
v 1.5 0.1 -1.2
v -1.3 0 1.4
v -1.3 0.1 1.4
v -1.2 0 1.4
v -1.2 0.1 1.4
v -1.2 1 1.4
v -0.5 0 1.4
v -0.5 0.1 1.4
v -0.5 1 1.4
v -0.4 0 1.4
v -0.4 0.1 1.4
v -0.4 1 1.4
v 0.8 0 -0.5
v 0.8 0.1 -0.5
v 0.9 0 -0.5
v 0.9 0.1 -0.5
v 1.4 0 -0.5
v 1.4 0.1 -0.5
v 1.5 0 -0.5
v 1.5 0.1 -0.5
v -1.4 1 -1.3
v -1.4 1.1 -1.3
v -1.3 0 -1.3
v -1.3 0.1 -1.3
v -1.3 1 -1.3
v -1.3 1.1 -1.3
v -1.2 0 -1.3
v -1.2 0.1 -1.3
v -1.2 1 -1.3
v 0.8 0 -1.3
v 0.8 0.1 -1.3
v 0.8 1 -1.3
v 0.9 0 -1.3
v 0.9 0.1 -1.3
v 0.9 0.2 -1.3
v 0.9 1 -1.3
v 1.4 0 -1.3
v 1.4 0.1 -1.3
v 1.4 0.2 -1.3
v 1.4 1 -1.3
v 1.5 0 -1.3
v 1.5 0.1 -1.3
v 1.5 1 -1.3
v 1.5 1.1 -1.3
v 1.6 1 -1.3
v 1.6 1.1 -1.3
v -1.3 1 -1.4
v -1.3 1.1 -1.4
v 1.5 1 -1.4
v 1.5 1.1 -1.4
v -1.3 0 1.5
v -1.2 0 1.5
v -0.5 0 1.5
v -0.4 0 1.5
v -1.3 0 1.4
v -1.2 0 1.4
v -0.5 0 1.4
v -0.4 0 1.4
v 0.8 0 -0.4
v 0.9 0 -0.4
v 1.4 0 -0.4
v 1.5 0 -0.4
v 0.8 0 -0.5
v 0.9 0 -0.5
v 1.4 0 -0.5
v 1.5 0 -0.5
v -1.3 0 -1.2
v -1.2 0 -1.2
v 0.8 0 -1.2
v 0.9 0 -1.2
v 1.4 0 -1.2
v 1.5 0 -1.2
v -1.3 0 -1.3
v -1.2 0 -1.3
v 0.8 0 -1.3
v 0.9 0 -1.3
v 1.4 0 -1.3
v 1.5 0 -1.3
v -1.2 0.1 1.5
v -0.5 0.1 1.5
v -1.3 0.1 1.4
v -1.2 0.1 1.4
v -0.5 0.1 1.4
v 0.9 0.1 -0.4
v 1.4 0.1 -0.4
v 0.8 0.1 -0.5
v 0.9 0.1 -0.5
v 1.4 0.1 -0.5
v 1.5 0.1 -0.5
v -1.3 0.1 -1.2
v -1.2 0.1 -1.2
v 0.8 0.1 -1.2
v 0.9 0.1 -1.2
v 1.4 0.1 -1.2
v 1.5 0.1 -1.2
v -1.2 0.1 -1.3
v 0.8 0.1 -1.3
v 0.9 0.1 -1.3
v 1.4 0.1 -1.3
v -1.3 1 1.6
v -0.3 1 1.6
v -1.4 1 1.5
v -1.3 1 1.5
v -1.2 1 1.5
v -0.5 1 1.5
v -0.4 1 1.5
v -0.3 1 1.5
v -0.2 1 1.5
v -1.3 1 1.4
v -1.2 1 1.4
v -0.5 1 1.4
v -0.4 1 1.4
v -0.2 1 -0.2
v 1.5 1 -0.2
v 1.5 1 -0.3
v 1.6 1 -0.3
v 0.8 1 -0.4
v 0.9 1 -0.4
v 1.4 1 -0.4
v 1.5 1 -0.4
v 0.8 1 -0.5
v 1.5 1 -0.5
v -1.3 1 -1.2
v -1.2 1 -1.2
v 0.8 1 -1.2
v 1.5 1 -1.2
v -1.4 1 -1.3
v -1.3 1 -1.3
v -1.2 1 -1.3
v 0.8 1 -1.3
v 0.9 1 -1.3
v 1.4 1 -1.3
v 1.5 1 -1.3
v 1.6 1 -1.3
v -1.3 1 -1.4
v 1.5 1 -1.4
v -1.3 1.1 1.6
v -0.3 1.1 1.6
v -1.4 1.1 1.5
v -1.3 1.1 1.5
v -0.3 1.1 1.5
v -0.2 1.1 1.5
v -0.2 1.1 -0.2
v 1.5 1.1 -0.2
v 1.5 1.1 -0.3
v 1.6 1.1 -0.3
v -1.4 1.1 -1.3
v -1.3 1.1 -1.3
v 1.5 1.1 -1.3
v 1.6 1.1 -1.3
v -1.3 1.1 -1.4
v 1.5 1.1 -1.4

# faces
f 3/3/1 2/3/1 1/3/1
f 4/3/1 2/3/1 3/3/1
f 9/1/1 6/1/1 5/1/1
f 10/1/1 6/1/1 9/1/1
f 11/1/1 8/1/1 7/1/1
f 12/1/1 8/1/1 11/1/1
f 14/4/1 10/4/1 9/4/1
f 15/3/1 11/3/1 10/3/1
f 15/4/1 10/4/1 14/4/1
f 16/4/1 12/4/1 11/4/1
f 16/3/1 11/3/1 15/3/1
f 17/4/1 12/4/1 16/4/1
f 19/3/1 14/3/1 13/3/1
f 20/3/1 14/3/1 19/3/1
f 21/3/1 18/3/1 17/3/1
f 22/3/1 18/3/1 21/3/1
f 25/1/1 24/1/1 23/1/1
f 26/1/1 24/1/1 25/1/1
f 31/1/1 28/1/1 27/1/1
f 32/1/1 28/1/1 31/1/1
f 33/1/1 30/1/1 29/1/1
f 34/1/1 30/1/1 33/1/1
f 35/4/1 32/4/1 31/4/1
f 35/4/1 33/4/1 32/4/1
f 36/4/1 33/4/1 35/4/1
f 37/4/1 35/4/1 31/4/1
f 38/3/1 36/3/1 35/3/1
f 38/4/1 35/4/1 37/4/1
f 39/3/1 36/3/1 38/3/1
f 44/1/1 41/1/1 40/1/1
f 45/1/1 41/1/1 44/1/1
f 46/1/1 43/1/1 42/1/1
f 47/1/1 43/1/1 46/1/1
f 48/1/2 49/1/2 52/1/2
f 52/1/2 49/1/2 53/1/2
f 50/1/2 51/1/2 54/1/2
f 54/1/2 51/1/2 55/1/2
f 53/3/2 54/3/2 56/3/2
f 56/3/2 54/3/2 57/3/2
f 58/1/2 59/1/2 60/1/2
f 60/1/2 59/1/2 61/1/2
f 60/4/2 61/4/2 62/4/2
f 62/4/2 61/4/2 63/4/2
f 64/3/2 65/3/2 66/3/2
f 66/3/2 65/3/2 67/3/2
f 68/3/2 69/3/2 70/3/2
f 70/3/2 69/3/2 71/3/2
f 72/1/2 73/1/2 76/1/2
f 76/1/2 73/1/2 77/1/2
f 74/1/2 75/1/2 78/1/2
f 78/1/2 75/1/2 79/1/2
f 80/1/2 81/1/2 84/1/2
f 84/1/2 81/1/2 85/1/2
f 82/1/2 83/1/2 86/1/2
f 86/1/2 83/1/2 87/1/2
f 84/4/2 85/4/2 88/4/2
f 85/4/2 86/4/2 88/4/2
f 86/4/2 87/4/2 88/4/2
f 88/4/2 87/4/2 89/4/2
f 84/4/2 88/4/2 92/4/2
f 88/3/2 89/3/2 93/3/2
f 92/4/2 88/4/2 93/4/2
f 89/4/2 87/4/2 94/4/2
f 93/3/2 89/3/2 94/3/2
f 94/4/2 87/4/2 95/4/2
f 90/3/2 91/3/2 97/3/2
f 97/3/2 91/3/2 98/3/2
f 95/3/2 96/3/2 99/3/2
f 99/3/2 96/3/2 100/3/2
f 101/3/2 102/3/2 103/3/2
f 103/3/2 102/3/2 104/3/2
f 107/3/3 106/3/3 105/3/3
f 108/3/3 106/3/3 107/3/3
f 113/3/3 110/3/3 109/3/3
f 114/3/3 110/3/3 113/3/3
f 115/1/3 112/1/3 111/1/3
f 116/4/3 113/4/3 112/4/3
f 116/1/3 112/1/3 115/1/3
f 117/4/3 113/4/3 116/4/3
f 119/3/3 117/3/3 116/3/3
f 120/3/3 117/3/3 119/3/3
f 121/1/3 119/1/3 118/1/3
f 122/4/3 120/4/3 119/4/3
f 122/1/3 119/1/3 121/1/3
f 123/4/3 120/4/3 122/4/3
f 126/3/3 125/3/3 124/3/3
f 127/3/3 125/3/3 126/3/3
f 130/3/3 129/3/3 128/3/3
f 131/3/3 129/3/3 130/3/3
f 134/3/3 133/3/3 132/3/3
f 135/3/3 133/3/3 134/3/3
f 139/1/3 137/1/3 136/1/3
f 140/4/3 138/4/3 137/4/3
f 140/1/3 137/1/3 139/1/3
f 141/4/3 138/4/3 140/4/3
f 142/4/3 138/4/3 141/4/3
f 143/4/3 138/4/3 142/4/3
f 144/4/3 138/4/3 143/4/3
f 145/3/3 142/3/3 141/3/3
f 146/3/3 142/3/3 145/3/3
f 147/3/3 144/3/3 143/3/3
f 148/3/3 144/3/3 147/3/3
f 149/3/3 145/3/3 141/3/3
f 149/4/3 146/4/3 145/4/3
f 150/3/3 142/3/3 146/3/3
f 150/4/3 146/4/3 149/4/3
f 151/4/3 148/4/3 147/4/3
f 151/3/3 147/3/3 143/3/3
f 152/3/3 144/3/3 148/3/3
f 152/4/3 148/4/3 151/4/3
f 154/4/3 141/4/3 140/4/3
f 155/3/3 149/3/3 141/3/3
f 155/3/3 150/3/3 149/3/3
f 155/4/3 141/4/3 154/4/3
f 156/2/3 143/2/3 142/2/3
f 156/3/3 150/3/3 155/3/3
f 156/3/3 142/3/3 150/3/3
f 157/3/3 151/3/3 143/3/3
f 157/2/3 143/2/3 156/2/3
f 157/3/3 152/3/3 151/3/3
f 158/3/3 144/3/3 152/3/3
f 158/3/3 152/3/3 157/3/3
f 159/1/3 154/1/3 153/1/3
f 160/4/3 157/4/3 156/4/3
f 160/1/3 154/1/3 159/1/3
f 160/4/3 155/4/3 154/4/3
f 160/4/3 158/4/3 157/4/3
f 160/4/3 156/4/3 155/4/3
f 161/4/3 158/4/3 160/4/3
f 164/1/3 163/1/3 162/1/3
f 165/1/3 163/1/3 164/1/3
f 168/3/3 166/3/3 165/3/3
f 169/3/3 166/3/3 168/3/3
f 170/3/3 166/3/3 169/3/3
f 171/1/3 168/1/3 167/1/3
f 172/1/3 168/1/3 171/1/3
f 175/1/3 174/1/3 173/1/3
f 176/1/3 174/1/3 175/1/3
f 177/1/4 178/1/4 179/1/4
f 179/1/4 178/1/4 180/1/4
f 180/3/4 181/3/4 183/3/4
f 183/3/4 181/3/4 184/3/4
f 182/1/4 183/1/4 185/1/4
f 183/4/4 184/4/4 186/4/4
f 185/1/4 183/1/4 186/1/4
f 186/4/4 184/4/4 187/4/4
f 188/1/4 189/1/4 190/1/4
f 190/1/4 189/1/4 191/1/4
f 192/1/4 193/1/4 194/1/4
f 194/1/4 193/1/4 195/1/4
f 196/3/4 197/3/4 200/3/4
f 200/3/4 197/3/4 201/3/4
f 198/1/4 199/1/4 202/1/4
f 199/4/4 200/4/4 203/4/4
f 202/1/4 199/1/4 203/1/4
f 203/4/4 200/4/4 204/4/4
f 203/3/4 204/3/4 206/3/4
f 206/3/4 204/3/4 207/3/4
f 205/1/4 206/1/4 208/1/4
f 206/4/4 207/4/4 209/4/4
f 208/1/4 206/1/4 209/1/4
f 209/4/4 207/4/4 210/4/4
f 210/4/4 207/4/4 211/4/4
f 209/4/4 210/4/4 213/4/4
f 210/3/4 211/3/4 214/3/4
f 213/4/4 210/4/4 214/4/4
f 214/3/4 211/3/4 215/3/4
f 212/1/4 213/1/4 216/1/4
f 213/4/4 214/4/4 217/4/4
f 216/1/4 213/1/4 217/1/4
f 214/4/4 215/4/4 217/4/4
f 217/4/4 215/4/4 218/4/4
f 218/3/4 219/3/4 220/3/4
f 220/3/4 219/3/4 221/3/4
f 222/3/4 223/3/4 224/3/4
f 224/3/4 223/3/4 225/3/4
f 230/1/5 227/1/5 226/1/5
f 231/1/5 227/1/5 230/1/5
f 232/1/5 229/1/5 228/1/5
f 233/1/5 229/1/5 232/1/5
f 238/1/5 235/1/5 234/1/5
f 239/1/5 235/1/5 238/1/5
f 240/1/5 237/1/5 236/1/5
f 241/1/5 237/1/5 240/1/5
f 248/1/5 243/1/5 242/1/5
f 249/1/5 243/1/5 248/1/5
f 250/1/5 245/1/5 244/1/5
f 251/1/5 245/1/5 250/1/5
f 252/1/5 247/1/5 246/1/5
f 253/1/5 247/1/5 252/1/5
f 257/3/5 255/3/5 254/3/5
f 258/3/5 255/3/5 257/3/5
f 262/4/5 260/4/5 259/4/5
f 263/4/5 260/4/5 262/4/5
f 265/3/5 257/3/5 256/3/5
f 266/3/5 257/3/5 265/3/5
f 267/4/5 264/4/5 263/4/5
f 267/4/5 262/4/5 261/4/5
f 267/4/5 263/4/5 262/4/5
f 268/4/5 264/4/5 267/4/5
f 269/4/5 264/4/5 268/4/5
f 270/4/5 264/4/5 269/4/5
f 271/3/5 267/3/5 266/3/5
f 272/3/5 267/3/5 271/3/5
f 273/4/5 269/4/5 268/4/5
f 274/4/5 269/4/5 273/4/5
f 278/3/5 276/3/5 275/3/5
f 279/3/5 276/3/5 278/3/5
f 280/3/5 276/3/5 279/3/5
f 281/3/5 276/3/5 280/3/5
f 282/3/5 276/3/5 281/3/5
f 284/3/5 278/3/5 277/3/5
f 287/3/5 283/3/5 282/3/5
f 287/3/5 282/3/5 281/3/5
f 288/3/5 286/3/5 285/3/5
f 288/3/5 287/3/5 286/3/5
f 288/3/5 283/3/5 287/3/5
f 290/3/5 289/3/5 288/3/5
f 292/3/5 290/3/5 288/3/5
f 292/3/5 291/3/5 290/3/5
f 293/3/5 291/3/5 292/3/5
f 294/3/5 291/3/5 293/3/5
f 295/3/5 291/3/5 294/3/5
f 296/3/5 292/3/5 288/3/5
f 297/3/5 291/3/5 295/3/5
f 298/3/5 284/3/5 277/3/5
f 299/3/5 288/3/5 285/3/5
f 299/3/5 296/3/5 288/3/5
f 300/3/5 296/3/5 299/3/5
f 301/3/5 291/3/5 297/3/5
f 302/3/5 298/3/5 277/3/5
f 303/3/5 298/3/5 302/3/5
f 308/3/5 291/3/5 301/3/5
f 309/3/5 291/3/5 308/3/5
f 310/3/5 307/3/5 306/3/5
f 310/3/5 308/3/5 307/3/5
f 310/3/5 304/3/5 303/3/5
f 310/3/5 306/3/5 305/3/5
f 310/3/5 305/3/5 304/3/5
f 311/3/5 308/3/5 310/3/5
f 312/3/6 313/3/6 315/3/6
f 315/3/6 313/3/6 316/3/6
f 314/3/6 315/3/6 318/3/6
f 316/3/6 317/3/6 318/3/6
f 315/3/6 316/3/6 318/3/6
f 318/3/6 319/3/6 320/3/6
f 314/3/6 318/3/6 322/3/6
f 320/3/6 321/3/6 322/3/6
f 318/3/6 320/3/6 322/3/6
f 322/3/6 321/3/6 323/3/6
f 323/3/6 321/3/6 324/3/6
f 324/3/6 321/3/6 325/3/6
f 323/3/6 324/3/6 326/3/6
f 326/3/6 324/3/6 327/3/6
