# MagicaVoxel @ Ephtracy

# group
o 

# material
mtllib Office_Misc_PictureFrame_02.mtl
usemtl palette

# normals
vn -1 0 0
vn 1 0 0
vn 0 0 1
vn 0 0 -1
vn 0 -1 0
vn 0 1 0

# texcoords
vt 0.759766 0.5
vt 0.794922 0.5
vt 0.806641 0.5
vt 0.818359 0.5

# verts
v -0.2 0 0.1
v -0.2 0 -1.49012e-008
v -0.2 0.5 0.1
v -0.2 0.5 -1.49012e-008
v -0.1 0 -1.49012e-008
v -0.1 0 -0.1
v -0.1 0.4 -1.49012e-008
v -0.1 0.4 -0.1
v 0.1 0 -1.49012e-008
v 0.1 0 -0.1
v 0.1 0.4 -1.49012e-008
v 0.1 0.4 -0.1
v 0.2 0 0.1
v 0.2 0 -1.49012e-008
v 0.2 0.5 0.1
v 0.2 0.5 -1.49012e-008
v -0.2 0 0.1
v -0.2 0.5 0.1
v -0.1 0.1 0.1
v -0.1 0.2 0.1
v -0.1 0.4 0.1
v 0 0.3 0.1
v 0 0.4 0.1
v 0.1 0.1 0.1
v 0.1 0.2 0.1
v 0.1 0.3 0.1
v 0.1 0.4 0.1
v 0.2 0 0.1
v 0.2 0.5 0.1
v -0.2 0 -1.49012e-008
v -0.2 0.5 -1.49012e-008
v -0.1 0 -1.49012e-008
v -0.1 0.4 -1.49012e-008
v 0.1 0 -1.49012e-008
v 0.1 0.4 -1.49012e-008
v 0.2 0 -1.49012e-008
v 0.2 0.5 -1.49012e-008
v -0.1 0 -0.1
v -0.1 0.4 -0.1
v 0.1 0 -0.1
v 0.1 0.4 -0.1
v -0.2 0 0.1
v 0.2 0 0.1
v -0.2 0 -1.49012e-008
v -0.1 0 -1.49012e-008
v 0.1 0 -1.49012e-008
v 0.2 0 -1.49012e-008
v -0.1 0 -0.1
v 0.1 0 -0.1
v -0.1 0.4 -1.49012e-008
v 0.1 0.4 -1.49012e-008
v -0.1 0.4 -0.1
v 0.1 0.4 -0.1
v -0.2 0.5 0.1
v 0.2 0.5 0.1
v -0.2 0.5 -1.49012e-008
v 0.2 0.5 -1.49012e-008

# faces
f 3/2/1 2/2/1 1/2/1
f 4/2/1 2/2/1 3/2/1
f 7/2/1 6/2/1 5/2/1
f 8/2/1 6/2/1 7/2/1
f 9/2/2 10/2/2 11/2/2
f 11/2/2 10/2/2 12/2/2
f 13/2/2 14/2/2 15/2/2
f 15/2/2 14/2/2 16/2/2
f 19/2/3 18/2/3 17/2/3
f 20/2/3 18/2/3 19/2/3
f 21/2/3 18/2/3 20/2/3
f 22/3/3 21/3/3 20/3/3
f 23/2/3 18/2/3 21/2/3
f 23/3/3 21/3/3 22/3/3
f 24/2/3 19/2/3 17/2/3
f 24/4/3 20/4/3 19/4/3
f 25/3/3 22/3/3 20/3/3
f 25/4/3 20/4/3 24/4/3
f 26/1/3 23/1/3 22/1/3
f 26/3/3 22/3/3 25/3/3
f 27/2/3 18/2/3 23/2/3
f 27/1/3 23/1/3 26/1/3
f 28/2/3 26/2/3 25/2/3
f 28/2/3 25/2/3 24/2/3
f 28/2/3 27/2/3 26/2/3
f 28/2/3 24/2/3 17/2/3
f 29/2/3 18/2/3 27/2/3
f 29/2/3 27/2/3 28/2/3
f 30/2/4 31/2/4 32/2/4
f 32/2/4 31/2/4 33/2/4
f 33/2/4 31/2/4 35/2/4
f 34/2/4 35/2/4 36/2/4
f 35/2/4 31/2/4 37/2/4
f 36/2/4 35/2/4 37/2/4
f 38/2/4 39/2/4 40/2/4
f 40/2/4 39/2/4 41/2/4
f 44/2/5 43/2/5 42/2/5
f 45/2/5 43/2/5 44/2/5
f 46/2/5 43/2/5 45/2/5
f 47/2/5 43/2/5 46/2/5
f 48/2/5 46/2/5 45/2/5
f 49/2/5 46/2/5 48/2/5
f 50/2/6 51/2/6 52/2/6
f 52/2/6 51/2/6 53/2/6
f 54/2/6 55/2/6 56/2/6
f 56/2/6 55/2/6 57/2/6
