# MagicaVoxel @ Ephtracy

# group
o 

# material
mtllib Office_Misc_Cabinet_02.mtl
usemtl palette

# normals
vn -1 0 0
vn 1 0 0
vn 0 0 1
vn 0 0 -1
vn 0 -1 0
vn 0 1 0

# texcoords
vt 0.904297 0.5
vt 0.912109 0.5
vt 0.916016 0.5
vt 0.919922 0.5

# verts
v -0.6 0 2.23517e-008
v -0.6 0 -0.7
v -0.6 0.1 2.23517e-008
v -0.6 0.1 -0.1
v -0.6 0.1 -0.6
v -0.6 0.1 -0.7
v -0.6 2.1 2.23517e-008
v -0.6 2.1 -0.1
v -0.6 2.1 -0.6
v -0.6 2.1 -0.7
v -0.6 2.2 -0.1
v -0.6 2.2 -0.6
v -0.5 2.1 2.23517e-008
v -0.5 2.1 -0.1
v -0.5 2.1 -0.6
v -0.5 2.1 -0.7
v -0.5 2.2 2.23517e-008
v -0.5 2.2 -0.1
v -0.5 2.2 -0.6
v -0.5 2.2 -0.7
v -0.4 0.1 2.23517e-008
v -0.4 0.1 -0.1
v -0.4 0.5 2.23517e-008
v -0.4 0.5 -0.1
v -0.4 0.6 2.23517e-008
v -0.4 0.6 -0.1
v -0.4 1 2.23517e-008
v -0.4 1 -0.1
v -0.4 1.1 2.23517e-008
v -0.4 1.1 -0.1
v -0.4 1.5 2.23517e-008
v -0.4 1.5 -0.1
v -0.4 1.6 2.23517e-008
v -0.4 1.6 -0.1
v -0.4 2 2.23517e-008
v -0.4 2 -0.1
v 0.4 0.1 2.23517e-008
v 0.4 0.1 -0.1
v 0.4 0.5 -0.1
v 0.4 0.6 -0.1
v 0.4 1 -0.1
v 0.4 1.1 -0.1
v 0.4 1.5 -0.1
v 0.4 1.6 -0.1
v 0.4 2.1 2.23517e-008
v 0.4 2.1 -0.1
v -0.5 0.1 2.23517e-008
v -0.5 0.1 -0.1
v -0.5 0.5 -0.1
v -0.5 0.6 -0.1
v -0.5 1 -0.1
v -0.5 1.1 -0.1
v -0.5 1.5 -0.1
v -0.5 1.6 -0.1
v -0.5 2.1 2.23517e-008
v -0.5 2.1 -0.1
v 0.3 0.1 2.23517e-008
v 0.3 0.1 -0.1
v 0.3 0.5 2.23517e-008
v 0.3 0.5 -0.1
v 0.3 0.6 2.23517e-008
v 0.3 0.6 -0.1
v 0.3 1 2.23517e-008
v 0.3 1 -0.1
v 0.3 1.1 2.23517e-008
v 0.3 1.1 -0.1
v 0.3 1.5 2.23517e-008
v 0.3 1.5 -0.1
v 0.3 1.6 2.23517e-008
v 0.3 1.6 -0.1
v 0.3 2 2.23517e-008
v 0.3 2 -0.1
v 0.4 2.1 2.23517e-008
v 0.4 2.1 -0.1
v 0.4 2.1 -0.6
v 0.4 2.1 -0.7
v 0.4 2.2 2.23517e-008
v 0.4 2.2 -0.1
v 0.4 2.2 -0.6
v 0.4 2.2 -0.7
v 0.5 0 2.23517e-008
v 0.5 0 -0.7
v 0.5 0.1 2.23517e-008
v 0.5 0.1 -0.1
v 0.5 0.1 -0.6
v 0.5 0.1 -0.7
v 0.5 2.1 2.23517e-008
v 0.5 2.1 -0.1
v 0.5 2.1 -0.6
v 0.5 2.1 -0.7
v 0.5 2.2 -0.1
v 0.5 2.2 -0.6
v -0.6 0 2.23517e-008
v -0.6 0.1 2.23517e-008
v -0.6 2.1 2.23517e-008
v -0.5 0.1 2.23517e-008
v -0.5 2.1 2.23517e-008
v -0.5 2.2 2.23517e-008
v -0.4 0.1 2.23517e-008
v -0.4 0.5 2.23517e-008
v -0.4 0.6 2.23517e-008
v -0.4 1 2.23517e-008
v -0.4 1.1 2.23517e-008
v -0.4 1.5 2.23517e-008
v -0.4 1.6 2.23517e-008
v -0.4 2 2.23517e-008
v -0.2 0.2 2.23517e-008
v -0.2 0.3 2.23517e-008
v -0.2 0.7 2.23517e-008
v -0.2 0.8 2.23517e-008
v -0.2 1.2 2.23517e-008
v -0.2 1.3 2.23517e-008
v -0.2 1.7 2.23517e-008
v -0.2 1.8 2.23517e-008
v 0.1 0.2 2.23517e-008
v 0.1 0.3 2.23517e-008
v 0.1 0.7 2.23517e-008
v 0.1 0.8 2.23517e-008
v 0.1 1.2 2.23517e-008
v 0.1 1.3 2.23517e-008
v 0.1 1.7 2.23517e-008
v 0.1 1.8 2.23517e-008
v 0.3 0.1 2.23517e-008
v 0.3 0.5 2.23517e-008
v 0.3 0.6 2.23517e-008
v 0.3 1 2.23517e-008
v 0.3 1.1 2.23517e-008
v 0.3 1.5 2.23517e-008
v 0.3 1.6 2.23517e-008
v 0.3 2 2.23517e-008
v 0.4 0.1 2.23517e-008
v 0.4 2.1 2.23517e-008
v 0.4 2.2 2.23517e-008
v 0.5 0 2.23517e-008
v 0.5 0.1 2.23517e-008
v 0.5 2.1 2.23517e-008
v -0.6 2.1 -0.1
v -0.6 2.2 -0.1
v -0.5 0.1 -0.1
v -0.5 0.5 -0.1
v -0.5 0.6 -0.1
v -0.5 1 -0.1
v -0.5 1.1 -0.1
v -0.5 1.5 -0.1
v -0.5 1.6 -0.1
v -0.5 2.1 -0.1
v -0.5 2.2 -0.1
v -0.4 0.1 -0.1
v -0.4 0.5 -0.1
v -0.4 0.6 -0.1
v -0.4 1 -0.1
v -0.4 1.1 -0.1
v -0.4 1.5 -0.1
v -0.4 1.6 -0.1
v -0.4 2 -0.1
v 0.3 0.1 -0.1
v 0.3 0.5 -0.1
v 0.3 0.6 -0.1
v 0.3 1 -0.1
v 0.3 1.1 -0.1
v 0.3 1.5 -0.1
v 0.3 1.6 -0.1
v 0.3 2 -0.1
v 0.4 0.1 -0.1
v 0.4 0.5 -0.1
v 0.4 0.6 -0.1
v 0.4 1 -0.1
v 0.4 1.1 -0.1
v 0.4 1.5 -0.1
v 0.4 1.6 -0.1
v 0.4 2.1 -0.1
v 0.4 2.2 -0.1
v 0.5 2.1 -0.1
v 0.5 2.2 -0.1
v -0.6 2.1 -0.6
v -0.6 2.2 -0.6
v -0.5 2.1 -0.6
v -0.5 2.2 -0.6
v 0.4 2.1 -0.6
v 0.4 2.2 -0.6
v 0.5 2.1 -0.6
v 0.5 2.2 -0.6
v -0.6 0 -0.7
v -0.6 0.1 -0.7
v -0.6 2.1 -0.7
v -0.5 2.1 -0.7
v -0.5 2.2 -0.7
v 0.4 2.1 -0.7
v 0.4 2.2 -0.7
v 0.5 0 -0.7
v 0.5 0.1 -0.7
v 0.5 2.1 -0.7
v -0.6 0 2.23517e-008
v 0.5 0 2.23517e-008
v -0.6 0 -0.7
v 0.5 0 -0.7
v -0.5 2.1 2.23517e-008
v 0.4 2.1 2.23517e-008
v -0.5 2.1 -0.1
v 0.4 2.1 -0.1
v -0.5 0.1 2.23517e-008
v -0.4 0.1 2.23517e-008
v 0.3 0.1 2.23517e-008
v 0.4 0.1 2.23517e-008
v -0.5 0.1 -0.1
v -0.4 0.1 -0.1
v 0.3 0.1 -0.1
v 0.4 0.1 -0.1
v -0.4 2 2.23517e-008
v 0.3 2 2.23517e-008
v -0.4 2 -0.1
v 0.3 2 -0.1
v -0.6 2.1 2.23517e-008
v -0.5 2.1 2.23517e-008
v 0.4 2.1 2.23517e-008
v 0.5 2.1 2.23517e-008
v -0.6 2.1 -0.1
v -0.5 2.1 -0.1
v 0.4 2.1 -0.1
v 0.5 2.1 -0.1
v -0.6 2.1 -0.6
v -0.5 2.1 -0.6
v 0.4 2.1 -0.6
v 0.5 2.1 -0.6
v -0.6 2.1 -0.7
v -0.5 2.1 -0.7
v 0.4 2.1 -0.7
v 0.5 2.1 -0.7
v -0.5 2.2 2.23517e-008
v 0.4 2.2 2.23517e-008
v -0.6 2.2 -0.1
v -0.5 2.2 -0.1
v 0.4 2.2 -0.1
v 0.5 2.2 -0.1
v -0.6 2.2 -0.6
v -0.5 2.2 -0.6
v 0.4 2.2 -0.6
v 0.5 2.2 -0.6
v -0.5 2.2 -0.7
v 0.4 2.2 -0.7

# faces
f 3/1/1 2/1/1 1/1/1
f 4/1/1 2/1/1 3/1/1
f 5/1/1 2/1/1 4/1/1
f 6/1/1 2/1/1 5/1/1
f 7/4/1 4/4/1 3/4/1
f 8/3/1 5/3/1 4/3/1
f 8/4/1 4/4/1 7/4/1
f 9/4/1 6/4/1 5/4/1
f 9/3/1 5/3/1 8/3/1
f 10/4/1 6/4/1 9/4/1
f 11/4/1 9/4/1 8/4/1
f 12/4/1 9/4/1 11/4/1
f 17/4/1 14/4/1 13/4/1
f 18/4/1 14/4/1 17/4/1
f 19/4/1 16/4/1 15/4/1
f 20/4/1 16/4/1 19/4/1
f 23/3/1 22/3/1 21/3/1
f 24/3/1 22/3/1 23/3/1
f 25/4/1 24/4/1 23/4/1
f 26/4/1 24/4/1 25/4/1
f 27/3/1 26/3/1 25/3/1
f 28/3/1 26/3/1 27/3/1
f 29/4/1 28/4/1 27/4/1
f 30/4/1 28/4/1 29/4/1
f 31/3/1 30/3/1 29/3/1
f 32/3/1 30/3/1 31/3/1
f 33/4/1 32/4/1 31/4/1
f 34/4/1 32/4/1 33/4/1
f 35/3/1 34/3/1 33/3/1
f 36/3/1 34/3/1 35/3/1
f 39/4/1 38/4/1 37/4/1
f 40/4/1 39/4/1 37/4/1
f 41/4/1 40/4/1 37/4/1
f 42/4/1 41/4/1 37/4/1
f 43/4/1 42/4/1 37/4/1
f 44/4/1 43/4/1 37/4/1
f 45/4/1 44/4/1 37/4/1
f 46/4/1 44/4/1 45/4/1
f 47/4/2 48/4/2 49/4/2
f 47/4/2 49/4/2 50/4/2
f 47/4/2 50/4/2 51/4/2
f 47/4/2 51/4/2 52/4/2
f 47/4/2 52/4/2 53/4/2
f 47/4/2 53/4/2 54/4/2
f 47/4/2 54/4/2 55/4/2
f 55/4/2 54/4/2 56/4/2
f 57/3/2 58/3/2 59/3/2
f 59/3/2 58/3/2 60/3/2
f 59/4/2 60/4/2 61/4/2
f 61/4/2 60/4/2 62/4/2
f 61/3/2 62/3/2 63/3/2
f 63/3/2 62/3/2 64/3/2
f 63/4/2 64/4/2 65/4/2
f 65/4/2 64/4/2 66/4/2
f 65/3/2 66/3/2 67/3/2
f 67/3/2 66/3/2 68/3/2
f 67/4/2 68/4/2 69/4/2
f 69/4/2 68/4/2 70/4/2
f 69/3/2 70/3/2 71/3/2
f 71/3/2 70/3/2 72/3/2
f 73/4/2 74/4/2 77/4/2
f 77/4/2 74/4/2 78/4/2
f 75/4/2 76/4/2 79/4/2
f 79/4/2 76/4/2 80/4/2
f 81/1/2 82/1/2 83/1/2
f 83/1/2 82/1/2 84/1/2
f 84/1/2 82/1/2 85/1/2
f 85/1/2 82/1/2 86/1/2
f 83/4/2 84/4/2 87/4/2
f 84/3/2 85/3/2 88/3/2
f 87/4/2 84/4/2 88/4/2
f 85/4/2 86/4/2 89/4/2
f 88/3/2 85/3/2 89/3/2
f 89/4/2 86/4/2 90/4/2
f 88/4/2 89/4/2 91/4/2
f 91/4/2 89/4/2 92/4/2
f 96/1/3 94/1/3 93/1/3
f 96/4/3 95/4/3 94/4/3
f 97/4/3 95/4/3 96/4/3
f 99/1/3 96/1/3 93/1/3
f 107/3/3 100/3/3 99/3/3
f 108/3/3 100/3/3 107/3/3
f 109/3/3 102/3/3 101/3/3
f 110/3/3 102/3/3 109/3/3
f 111/3/3 104/3/3 103/3/3
f 112/3/3 104/3/3 111/3/3
f 113/3/3 106/3/3 105/3/3
f 114/3/3 106/3/3 113/3/3
f 115/3/3 107/3/3 99/3/3
f 115/2/3 108/2/3 107/2/3
f 116/3/3 100/3/3 108/3/3
f 116/2/3 108/2/3 115/2/3
f 117/3/3 109/3/3 101/3/3
f 117/2/3 110/2/3 109/2/3
f 118/3/3 102/3/3 110/3/3
f 118/2/3 110/2/3 117/2/3
f 119/3/3 111/3/3 103/3/3
f 119/2/3 112/2/3 111/2/3
f 120/3/3 104/3/3 112/3/3
f 120/2/3 112/2/3 119/2/3
f 121/2/3 114/2/3 113/2/3
f 121/3/3 113/3/3 105/3/3
f 122/3/3 106/3/3 114/3/3
f 122/2/3 114/2/3 121/2/3
f 123/1/3 99/1/3 93/1/3
f 123/3/3 115/3/3 99/3/3
f 123/3/3 116/3/3 115/3/3
f 124/4/3 101/4/3 100/4/3
f 124/3/3 116/3/3 123/3/3
f 124/3/3 100/3/3 116/3/3
f 125/3/3 117/3/3 101/3/3
f 125/4/3 101/4/3 124/4/3
f 125/3/3 118/3/3 117/3/3
f 126/4/3 103/4/3 102/4/3
f 126/3/3 118/3/3 125/3/3
f 126/3/3 102/3/3 118/3/3
f 127/3/3 119/3/3 103/3/3
f 127/4/3 103/4/3 126/4/3
f 127/3/3 120/3/3 119/3/3
f 128/4/3 105/4/3 104/4/3
f 128/3/3 120/3/3 127/3/3
f 128/3/3 104/3/3 120/3/3
f 129/3/3 122/3/3 121/3/3
f 129/4/3 105/4/3 128/4/3
f 129/3/3 121/3/3 105/3/3
f 130/3/3 106/3/3 122/3/3
f 130/3/3 122/3/3 129/3/3
f 131/1/3 123/1/3 93/1/3
f 132/4/3 98/4/3 97/4/3
f 133/4/3 98/4/3 132/4/3
f 134/1/3 131/1/3 93/1/3
f 135/4/3 132/4/3 131/4/3
f 135/1/3 131/1/3 134/1/3
f 136/4/3 132/4/3 135/4/3
f 146/4/3 138/4/3 137/4/3
f 147/4/3 138/4/3 146/4/3
f 148/3/3 140/3/3 139/3/3
f 149/4/3 141/4/3 140/4/3
f 149/3/3 140/3/3 148/3/3
f 150/3/3 142/3/3 141/3/3
f 150/4/3 141/4/3 149/4/3
f 151/4/3 143/4/3 142/4/3
f 151/3/3 142/3/3 150/3/3
f 152/3/3 144/3/3 143/3/3
f 152/4/3 143/4/3 151/4/3
f 153/4/3 145/4/3 144/4/3
f 153/3/3 144/3/3 152/3/3
f 154/3/3 146/3/3 145/3/3
f 154/4/3 145/4/3 153/4/3
f 155/3/3 146/3/3 154/3/3
f 163/3/3 146/3/3 155/3/3
f 164/3/3 157/3/3 156/3/3
f 165/4/3 158/4/3 157/4/3
f 165/3/3 157/3/3 164/3/3
f 166/3/3 159/3/3 158/3/3
f 166/4/3 158/4/3 165/4/3
f 167/4/3 160/4/3 159/4/3
f 167/3/3 159/3/3 166/3/3
f 168/3/3 161/3/3 160/3/3
f 168/4/3 160/4/3 167/4/3
f 169/4/3 162/4/3 161/4/3
f 169/3/3 161/3/3 168/3/3
f 170/3/3 163/3/3 162/3/3
f 170/4/3 162/4/3 169/4/3
f 171/3/3 146/3/3 163/3/3
f 171/3/3 163/3/3 170/3/3
f 173/4/3 172/4/3 171/4/3
f 174/4/3 172/4/3 173/4/3
f 175/4/4 176/4/4 177/4/4
f 177/4/4 176/4/4 178/4/4
f 179/4/4 180/4/4 181/4/4
f 181/4/4 180/4/4 182/4/4
f 184/4/4 185/4/4 186/4/4
f 184/4/4 186/4/4 188/4/4
f 186/4/4 187/4/4 188/4/4
f 188/4/4 187/4/4 189/4/4
f 183/1/4 184/1/4 190/1/4
f 184/4/4 188/4/4 191/4/4
f 190/1/4 184/1/4 191/1/4
f 191/4/4 188/4/4 192/4/4
f 195/1/5 194/1/5 193/1/5
f 196/1/5 194/1/5 195/1/5
f 199/4/5 198/4/5 197/4/5
f 200/4/5 198/4/5 199/4/5
f 201/1/6 202/1/6 205/1/6
f 205/1/6 202/1/6 206/1/6
f 203/1/6 204/1/6 207/1/6
f 207/1/6 204/1/6 208/1/6
f 209/3/6 210/3/6 211/3/6
f 211/3/6 210/3/6 212/3/6
f 213/4/6 214/4/6 217/4/6
f 217/4/6 214/4/6 218/4/6
f 215/4/6 216/4/6 219/4/6
f 219/4/6 216/4/6 220/4/6
f 221/4/6 222/4/6 225/4/6
f 225/4/6 222/4/6 226/4/6
f 223/4/6 224/4/6 227/4/6
f 227/4/6 224/4/6 228/4/6
f 229/4/6 230/4/6 232/4/6
f 232/4/6 230/4/6 233/4/6
f 231/4/6 232/4/6 235/4/6
f 232/3/6 233/3/6 236/3/6
f 235/4/6 232/4/6 236/4/6
f 233/4/6 234/4/6 237/4/6
f 236/3/6 233/3/6 237/3/6
f 237/4/6 234/4/6 238/4/6
f 236/4/6 237/4/6 239/4/6
f 239/4/6 237/4/6 240/4/6
