# MagicaVoxel @ Ephtracy

# group
o 

# material
mtllib Office_Misc_Whiteboard_02.mtl
usemtl palette

# normals
vn -1 0 0
vn 1 0 0
vn 0 0 1
vn 0 0 -1
vn 0 -1 0
vn 0 1 0

# texcoords
vt 0.763672 0.5
vt 0.791016 0.5
vt 0.802734 0.5
vt 0.806641 0.5
vt 0.810547 0.5
vt 0.904297 0.5

# verts
v -1.1 0.2 -0.7
v -1.1 0.2 -0.8
v -1.1 0.3 -0.7
v -1.1 0.3 -0.8
v -1.1 1.3 -0.7
v -1.1 1.3 -0.8
v -1.1 1.4 -0.7
v -1.1 1.4 -0.8
v -1 0.2 -0.6
v -1 0.2 -0.7
v -1 0.3 -0.6
v -1 0.3 -0.7
v -0.7 0.3 -0.6
v -0.7 0.3 -0.7
v -0.7 0.4 -0.6
v -0.7 0.4 -0.7
v -0.3 0.3 -0.6
v -0.3 0.3 -0.7
v -0.3 0.4 -0.6
v -0.3 0.4 -0.7
v 1 0.2 -0.6
v 1 0.2 -0.7
v 1 0.3 -0.6
v 1 0.3 -0.7
v 1.1 0.2 -0.7
v 1.1 0.2 -0.8
v 1.1 0.3 -0.7
v 1.1 0.3 -0.8
v 1.1 1.3 -0.7
v 1.1 1.3 -0.8
v 1.1 1.4 -0.7
v 1.1 1.4 -0.8
v -1 0.2 -0.6
v -1 0.3 -0.6
v -0.7 0.3 -0.6
v -0.7 0.4 -0.6
v -0.6 0.3 -0.6
v -0.6 0.4 -0.6
v -0.3 0.3 -0.6
v -0.3 0.4 -0.6
v 1 0.2 -0.6
v 1 0.3 -0.6
v -1.1 0.2 -0.7
v -1.1 0.3 -0.7
v -1.1 1.3 -0.7
v -1.1 1.4 -0.7
v -1 0.2 -0.7
v -1 0.3 -0.7
v -1 1.3 -0.7
v -1 1.4 -0.7
v -0.9 0.5 -0.7
v -0.9 0.6 -0.7
v -0.8 0.4 -0.7
v -0.8 0.5 -0.7
v -0.8 0.6 -0.7
v -0.8 0.9 -0.7
v -0.8 1.2 -0.7
v -0.7 0.3 -0.7
v -0.7 0.4 -0.7
v -0.7 0.5 -0.7
v -0.7 0.6 -0.7
v -0.7 0.7 -0.7
v -0.7 0.8 -0.7
v -0.7 0.9 -0.7
v -0.7 1.2 -0.7
v -0.6 0.4 -0.7
v -0.6 0.8 -0.7
v -0.6 0.9 -0.7
v -0.6 1 -0.7
v -0.5 0.8 -0.7
v -0.5 0.9 -0.7
v -0.5 1 -0.7
v -0.4 0.8 -0.7
v -0.4 0.9 -0.7
v -0.4 1.2 -0.7
v -0.3 0.3 -0.7
v -0.3 0.4 -0.7
v -0.3 0.9 -0.7
v -0.3 1.2 -0.7
v -0.2 0.9 -0.7
v -0.2 1.1 -0.7
v -0.1 0.5 -0.7
v -0.1 0.6 -0.7
v -0.1 0.8 -0.7
v -0.1 0.9 -0.7
v -0.1 1.1 -0.7
v -0.1 1.2 -0.7
v 0 0.6 -0.7
v 0 0.7 -0.7
v 0 0.8 -0.7
v 0 0.9 -0.7
v 0 1.1 -0.7
v 0 1.2 -0.7
v 0.1 0.9 -0.7
v 0.1 1.1 -0.7
v 0.2 0.7 -0.7
v 0.2 1.1 -0.7
v 0.3 0.7 -0.7
v 0.3 0.8 -0.7
v 0.3 0.9 -0.7
v 0.3 1 -0.7
v 0.4 0.7 -0.7
v 0.4 0.8 -0.7
v 0.4 0.9 -0.7
v 0.4 1 -0.7
v 0.4 1.1 -0.7
v 0.5 0.7 -0.7
v 0.5 0.8 -0.7
v 0.5 0.9 -0.7
v 0.5 1 -0.7
v 0.6 0.7 -0.7
v 0.6 1.1 -0.7
v 0.7 0.4 -0.7
v 0.7 0.5 -0.7
v 0.7 0.6 -0.7
v 0.7 0.7 -0.7
v 0.7 0.8 -0.7
v 0.7 0.9 -0.7
v 0.7 1.1 -0.7
v 0.8 0.4 -0.7
v 0.8 0.5 -0.7
v 0.8 0.6 -0.7
v 0.8 0.7 -0.7
v 0.8 0.8 -0.7
v 0.8 0.9 -0.7
v 0.8 1.1 -0.7
v 0.9 0.5 -0.7
v 0.9 0.6 -0.7
v 0.9 0.7 -0.7
v 0.9 0.8 -0.7
v 0.9 0.9 -0.7
v 0.9 1.1 -0.7
v 1 0.2 -0.7
v 1 0.3 -0.7
v 1 1.3 -0.7
v 1 1.4 -0.7
v 1.1 0.2 -0.7
v 1.1 0.3 -0.7
v 1.1 1.3 -0.7
v 1.1 1.4 -0.7
v -1.1 0.2 -0.8
v -1.1 0.3 -0.8
v -1.1 1.3 -0.8
v -1.1 1.4 -0.8
v -1 0.2 -0.8
v -1 0.3 -0.8
v -1 1.3 -0.8
v -1 1.4 -0.8
v -0.9 0.5 -0.8
v -0.9 0.6 -0.8
v -0.8 0.4 -0.8
v -0.8 0.5 -0.8
v -0.8 0.6 -0.8
v -0.8 0.9 -0.8
v -0.8 1.2 -0.8
v -0.7 0.4 -0.8
v -0.7 0.5 -0.8
v -0.7 0.6 -0.8
v -0.7 0.7 -0.8
v -0.7 0.8 -0.8
v -0.7 0.9 -0.8
v -0.7 1.2 -0.8
v -0.6 0.8 -0.8
v -0.6 0.9 -0.8
v -0.6 1 -0.8
v -0.5 0.8 -0.8
v -0.5 0.9 -0.8
v -0.5 1 -0.8
v -0.4 0.8 -0.8
v -0.4 0.9 -0.8
v -0.4 1.2 -0.8
v -0.3 0.9 -0.8
v -0.3 1.2 -0.8
v -0.2 0.9 -0.8
v -0.2 1.1 -0.8
v -0.1 0.5 -0.8
v -0.1 0.6 -0.8
v -0.1 0.8 -0.8
v -0.1 0.9 -0.8
v -0.1 1.1 -0.8
v -0.1 1.2 -0.8
v 0 0.6 -0.8
v 0 0.7 -0.8
v 0 0.8 -0.8
v 0 0.9 -0.8
v 0 1.1 -0.8
v 0 1.2 -0.8
v 0.1 0.9 -0.8
v 0.1 1.1 -0.8
v 0.2 0.7 -0.8
v 0.2 1.1 -0.8
v 0.3 0.7 -0.8
v 0.3 0.8 -0.8
v 0.3 0.9 -0.8
v 0.3 1 -0.8
v 0.4 0.7 -0.8
v 0.4 0.8 -0.8
v 0.4 0.9 -0.8
v 0.4 1 -0.8
v 0.4 1.1 -0.8
v 0.5 0.7 -0.8
v 0.5 0.8 -0.8
v 0.5 0.9 -0.8
v 0.5 1 -0.8
v 0.6 0.7 -0.8
v 0.6 1.1 -0.8
v 0.7 0.4 -0.8
v 0.7 0.5 -0.8
v 0.7 0.6 -0.8
v 0.7 0.7 -0.8
v 0.7 0.8 -0.8
v 0.7 0.9 -0.8
v 0.7 1.1 -0.8
v 0.8 0.4 -0.8
v 0.8 0.5 -0.8
v 0.8 0.6 -0.8
v 0.8 0.7 -0.8
v 0.8 0.8 -0.8
v 0.8 0.9 -0.8
v 0.8 1.1 -0.8
v 0.9 0.5 -0.8
v 0.9 0.6 -0.8
v 0.9 0.7 -0.8
v 0.9 0.8 -0.8
v 0.9 0.9 -0.8
v 0.9 1.1 -0.8
v 1 0.2 -0.8
v 1 0.3 -0.8
v 1 1.3 -0.8
v 1 1.4 -0.8
v 1.1 0.2 -0.8
v 1.1 0.3 -0.8
v 1.1 1.3 -0.8
v 1.1 1.4 -0.8
v -1 0.2 -0.6
v 1 0.2 -0.6
v -1.1 0.2 -0.7
v -1 0.2 -0.7
v 1 0.2 -0.7
v 1.1 0.2 -0.7
v -1.1 0.2 -0.8
v -1 0.2 -0.8
v 1 0.2 -0.8
v 1.1 0.2 -0.8
v -1 0.3 -0.6
v -0.7 0.3 -0.6
v -0.3 0.3 -0.6
v 1 0.3 -0.6
v -1 0.3 -0.7
v -0.7 0.3 -0.7
v -0.3 0.3 -0.7
v 1 0.3 -0.7
v -0.7 0.4 -0.6
v -0.6 0.4 -0.6
v -0.3 0.4 -0.6
v -0.7 0.4 -0.7
v -0.6 0.4 -0.7
v -0.3 0.4 -0.7
v -1.1 1.4 -0.7
v -1 1.4 -0.7
v 1 1.4 -0.7
v 1.1 1.4 -0.7
v -1.1 1.4 -0.8
v -1 1.4 -0.8
v 1 1.4 -0.8
v 1.1 1.4 -0.8

# faces
f 3/6/1 2/6/1 1/6/1
f 4/6/1 2/6/1 3/6/1
f 5/3/1 4/3/1 3/3/1
f 6/3/1 4/3/1 5/3/1
f 7/6/1 6/6/1 5/6/1
f 8/6/1 6/6/1 7/6/1
f 11/3/1 10/3/1 9/3/1
f 12/3/1 10/3/1 11/3/1
f 15/1/1 14/1/1 13/1/1
f 16/1/1 14/1/1 15/1/1
f 17/5/2 18/5/2 19/5/2
f 19/5/2 18/5/2 20/5/2
f 21/3/2 22/3/2 23/3/2
f 23/3/2 22/3/2 24/3/2
f 25/6/2 26/6/2 27/6/2
f 27/6/2 26/6/2 28/6/2
f 27/3/2 28/3/2 29/3/2
f 29/3/2 28/3/2 30/3/2
f 29/6/2 30/6/2 31/6/2
f 31/6/2 30/6/2 32/6/2
f 35/3/3 34/3/3 33/3/3
f 37/3/3 35/3/3 33/3/3
f 37/1/3 36/1/3 35/1/3
f 38/1/3 36/1/3 37/1/3
f 39/3/3 37/3/3 33/3/3
f 39/5/3 38/5/3 37/5/3
f 40/5/3 38/5/3 39/5/3
f 41/3/3 39/3/3 33/3/3
f 42/3/3 39/3/3 41/3/3
f 47/6/3 44/6/3 43/6/3
f 48/3/3 45/3/3 44/3/3
f 48/6/3 44/6/3 47/6/3
f 49/6/3 46/6/3 45/6/3
f 49/3/3 45/3/3 48/3/3
f 50/6/3 46/6/3 49/6/3
f 51/2/3 49/2/3 48/2/3
f 52/2/3 49/2/3 51/2/3
f 53/2/3 51/2/3 48/2/3
f 54/5/3 52/5/3 51/5/3
f 54/2/3 51/2/3 53/2/3
f 55/2/3 49/2/3 52/2/3
f 55/5/3 52/5/3 54/5/3
f 56/2/3 49/2/3 55/2/3
f 57/2/3 49/2/3 56/2/3
f 58/2/3 53/2/3 48/2/3
f 59/4/3 54/4/3 53/4/3
f 59/2/3 53/2/3 58/2/3
f 60/2/3 55/2/3 54/2/3
f 60/4/3 54/4/3 59/4/3
f 60/2/3 56/2/3 55/2/3
f 61/2/3 56/2/3 60/2/3
f 62/2/3 56/2/3 61/2/3
f 63/2/3 56/2/3 62/2/3
f 64/1/3 57/1/3 56/1/3
f 64/2/3 56/2/3 63/2/3
f 65/2/3 49/2/3 57/2/3
f 65/1/3 57/1/3 64/1/3
f 66/2/3 60/2/3 59/2/3
f 66/2/3 61/2/3 60/2/3
f 67/1/3 64/1/3 63/1/3
f 67/2/3 63/2/3 62/2/3
f 68/2/3 65/2/3 64/2/3
f 68/1/3 64/1/3 67/1/3
f 69/2/3 65/2/3 68/2/3
f 70/2/3 67/2/3 62/2/3
f 70/2/3 68/2/3 67/2/3
f 71/1/3 69/1/3 68/1/3
f 71/2/3 68/2/3 70/2/3
f 72/2/3 65/2/3 69/2/3
f 72/1/3 69/1/3 71/1/3
f 73/1/3 71/1/3 70/1/3
f 73/2/3 70/2/3 62/2/3
f 74/2/3 72/2/3 71/2/3
f 74/1/3 71/1/3 73/1/3
f 75/2/3 49/2/3 65/2/3
f 75/2/3 72/2/3 74/2/3
f 75/2/3 65/2/3 72/2/3
f 77/2/3 61/2/3 66/2/3
f 78/2/3 74/2/3 73/2/3
f 78/1/3 75/1/3 74/1/3
f 79/2/3 49/2/3 75/2/3
f 79/1/3 75/1/3 78/1/3
f 80/2/3 78/2/3 73/2/3
f 80/2/3 79/2/3 78/2/3
f 81/2/3 79/2/3 80/2/3
f 82/2/3 77/2/3 76/2/3
f 82/2/3 61/2/3 77/2/3
f 83/1/3 62/1/3 61/1/3
f 83/2/3 61/2/3 82/2/3
f 84/2/3 73/2/3 62/2/3
f 84/2/3 80/2/3 73/2/3
f 85/1/3 81/1/3 80/1/3
f 85/2/3 80/2/3 84/2/3
f 86/2/3 79/2/3 81/2/3
f 86/1/3 81/1/3 85/1/3
f 87/2/3 49/2/3 79/2/3
f 87/2/3 79/2/3 86/2/3
f 88/1/3 62/1/3 83/1/3
f 88/1/3 83/1/3 82/1/3
f 89/2/3 84/2/3 62/2/3
f 89/1/3 62/1/3 88/1/3
f 90/1/3 85/1/3 84/1/3
f 90/2/3 84/2/3 89/2/3
f 91/2/3 86/2/3 85/2/3
f 91/1/3 85/1/3 90/1/3
f 92/1/3 87/1/3 86/1/3
f 92/2/3 86/2/3 91/2/3
f 93/2/3 49/2/3 87/2/3
f 93/1/3 87/1/3 92/1/3
f 94/2/3 90/2/3 89/2/3
f 94/2/3 89/2/3 88/2/3
f 94/1/3 92/1/3 91/1/3
f 94/2/3 91/2/3 90/2/3
f 95/2/3 93/2/3 92/2/3
f 95/1/3 92/1/3 94/1/3
f 96/2/3 94/2/3 88/2/3
f 96/2/3 95/2/3 94/2/3
f 97/2/3 93/2/3 95/2/3
f 97/2/3 95/2/3 96/2/3
f 98/2/3 96/2/3 88/2/3
f 98/1/3 97/1/3 96/1/3
f 99/1/3 97/1/3 98/1/3
f 100/1/3 97/1/3 99/1/3
f 101/1/3 97/1/3 100/1/3
f 102/2/3 98/2/3 88/2/3
f 102/2/3 99/2/3 98/2/3
f 103/1/3 100/1/3 99/1/3
f 103/2/3 99/2/3 102/2/3
f 104/2/3 101/2/3 100/2/3
f 104/1/3 100/1/3 103/1/3
f 105/1/3 97/1/3 101/1/3
f 105/2/3 101/2/3 104/2/3
f 106/2/3 93/2/3 97/2/3
f 106/1/3 97/1/3 105/1/3
f 107/1/3 103/1/3 102/1/3
f 107/2/3 102/2/3 88/2/3
f 108/2/3 104/2/3 103/2/3
f 108/1/3 103/1/3 107/1/3
f 109/1/3 105/1/3 104/1/3
f 109/2/3 104/2/3 108/2/3
f 110/2/3 106/2/3 105/2/3
f 110/1/3 105/1/3 109/1/3
f 111/2/3 108/2/3 107/2/3
f 111/2/3 107/2/3 88/2/3
f 111/2/3 110/2/3 109/2/3
f 111/2/3 109/2/3 108/2/3
f 112/2/3 106/2/3 110/2/3
f 112/2/3 110/2/3 111/2/3
f 112/2/3 93/2/3 106/2/3
f 113/2/3 82/2/3 76/2/3
f 114/1/3 88/1/3 82/1/3
f 114/2/3 82/2/3 113/2/3
f 115/2/3 111/2/3 88/2/3
f 115/1/3 88/1/3 114/1/3
f 116/1/3 112/1/3 111/1/3
f 116/2/3 111/2/3 115/2/3
f 117/1/3 112/1/3 116/1/3
f 118/1/3 112/1/3 117/1/3
f 119/2/3 93/2/3 112/2/3
f 119/1/3 112/1/3 118/1/3
f 120/1/3 114/1/3 113/1/3
f 120/2/3 113/2/3 76/2/3
f 120/1/3 115/1/3 114/1/3
f 120/1/3 116/1/3 115/1/3
f 121/1/3 116/1/3 120/1/3
f 122/1/3 116/1/3 121/1/3
f 123/2/3 117/2/3 116/2/3
f 123/1/3 116/1/3 122/1/3
f 124/1/3 118/1/3 117/1/3
f 124/2/3 117/2/3 123/2/3
f 125/2/3 119/2/3 118/2/3
f 125/1/3 118/1/3 124/1/3
f 126/2/3 93/2/3 119/2/3
f 126/2/3 119/2/3 125/2/3
f 127/1/3 122/1/3 121/1/3
f 127/2/3 121/2/3 120/2/3
f 128/2/3 123/2/3 122/2/3
f 128/1/3 122/1/3 127/1/3
f 129/1/3 124/1/3 123/1/3
f 129/2/3 123/2/3 128/2/3
f 130/2/3 125/2/3 124/2/3
f 130/1/3 124/1/3 129/1/3
f 131/1/3 126/1/3 125/1/3
f 131/2/3 125/2/3 130/2/3
f 132/2/3 93/2/3 126/2/3
f 132/1/3 126/1/3 131/1/3
f 134/2/3 129/2/3 128/2/3
f 134/2/3 127/2/3 120/2/3
f 134/2/3 132/2/3 131/2/3
f 134/2/3 130/2/3 129/2/3
f 134/2/3 120/2/3 76/2/3
f 134/2/3 131/2/3 130/2/3
f 134/2/3 128/2/3 127/2/3
f 135/3/3 50/3/3 49/3/3
f 135/2/3 49/2/3 93/2/3
f 135/2/3 132/2/3 134/2/3
f 135/2/3 93/2/3 132/2/3
f 136/3/3 50/3/3 135/3/3
f 137/6/3 134/6/3 133/6/3
f 138/3/3 135/3/3 134/3/3
f 138/6/3 134/6/3 137/6/3
f 139/6/3 136/6/3 135/6/3
f 139/3/3 135/3/3 138/3/3
f 140/6/3 136/6/3 139/6/3
f 141/6/4 142/6/4 145/6/4
f 142/3/4 143/3/4 146/3/4
f 145/6/4 142/6/4 146/6/4
f 143/6/4 144/6/4 147/6/4
f 146/3/4 143/3/4 147/3/4
f 147/6/4 144/6/4 148/6/4
f 146/2/4 147/2/4 149/2/4
f 149/2/4 147/2/4 150/2/4
f 146/2/4 149/2/4 151/2/4
f 149/5/4 150/5/4 152/5/4
f 151/2/4 149/2/4 152/2/4
f 150/2/4 147/2/4 153/2/4
f 152/5/4 150/5/4 153/5/4
f 153/2/4 147/2/4 154/2/4
f 154/2/4 147/2/4 155/2/4
f 151/4/4 152/4/4 156/4/4
f 146/2/4 151/2/4 156/2/4
f 152/2/4 153/2/4 157/2/4
f 156/4/4 152/4/4 157/4/4
f 153/2/4 154/2/4 157/2/4
f 157/2/4 154/2/4 158/2/4
f 158/2/4 154/2/4 159/2/4
f 159/2/4 154/2/4 160/2/4
f 154/1/4 155/1/4 161/1/4
f 160/2/4 154/2/4 161/2/4
f 155/2/4 147/2/4 162/2/4
f 161/1/4 155/1/4 162/1/4
f 160/1/4 161/1/4 163/1/4
f 159/2/4 160/2/4 163/2/4
f 161/2/4 162/2/4 164/2/4
f 163/1/4 161/1/4 164/1/4
f 164/2/4 162/2/4 165/2/4
f 159/2/4 163/2/4 166/2/4
f 163/2/4 164/2/4 166/2/4
f 164/1/4 165/1/4 167/1/4
f 166/2/4 164/2/4 167/2/4
f 165/2/4 162/2/4 168/2/4
f 167/1/4 165/1/4 168/1/4
f 166/1/4 167/1/4 169/1/4
f 159/2/4 166/2/4 169/2/4
f 167/2/4 168/2/4 170/2/4
f 169/1/4 167/1/4 170/1/4
f 162/2/4 147/2/4 171/2/4
f 170/2/4 168/2/4 171/2/4
f 168/2/4 162/2/4 171/2/4
f 169/2/4 170/2/4 172/2/4
f 170/1/4 171/1/4 172/1/4
f 171/2/4 147/2/4 173/2/4
f 172/1/4 171/1/4 173/1/4
f 169/2/4 172/2/4 174/2/4
f 172/2/4 173/2/4 174/2/4
f 174/2/4 173/2/4 175/2/4
f 156/2/4 157/2/4 176/2/4
f 157/2/4 158/2/4 176/2/4
f 158/1/4 159/1/4 177/1/4
f 176/2/4 158/2/4 177/2/4
f 159/2/4 169/2/4 178/2/4
f 169/2/4 174/2/4 178/2/4
f 174/1/4 175/1/4 179/1/4
f 178/2/4 174/2/4 179/2/4
f 175/2/4 173/2/4 180/2/4
f 179/1/4 175/1/4 180/1/4
f 173/2/4 147/2/4 181/2/4
f 180/2/4 173/2/4 181/2/4
f 177/1/4 159/1/4 182/1/4
f 176/1/4 177/1/4 182/1/4
f 159/2/4 178/2/4 183/2/4
f 182/1/4 159/1/4 183/1/4
f 178/1/4 179/1/4 184/1/4
f 183/2/4 178/2/4 184/2/4
f 179/2/4 180/2/4 185/2/4
f 184/1/4 179/1/4 185/1/4
f 180/1/4 181/1/4 186/1/4
f 185/2/4 180/2/4 186/2/4
f 181/2/4 147/2/4 187/2/4
f 186/1/4 181/1/4 187/1/4
f 183/2/4 184/2/4 188/2/4
f 185/1/4 186/1/4 188/1/4
f 182/2/4 183/2/4 188/2/4
f 184/2/4 185/2/4 188/2/4
f 186/2/4 187/2/4 189/2/4
f 188/1/4 186/1/4 189/1/4
f 182/2/4 188/2/4 190/2/4
f 188/2/4 189/2/4 190/2/4
f 189/2/4 187/2/4 191/2/4
f 190/2/4 189/2/4 191/2/4
f 182/2/4 190/2/4 192/2/4
f 190/1/4 191/1/4 192/1/4
f 192/1/4 191/1/4 193/1/4
f 193/1/4 191/1/4 194/1/4
f 194/1/4 191/1/4 195/1/4
f 182/2/4 192/2/4 196/2/4
f 192/2/4 193/2/4 196/2/4
f 193/1/4 194/1/4 197/1/4
f 196/2/4 193/2/4 197/2/4
f 194/2/4 195/2/4 198/2/4
f 197/1/4 194/1/4 198/1/4
f 195/1/4 191/1/4 199/1/4
f 198/2/4 195/2/4 199/2/4
f 191/2/4 187/2/4 200/2/4
f 199/1/4 191/1/4 200/1/4
f 196/1/4 197/1/4 201/1/4
f 182/2/4 196/2/4 201/2/4
f 197/2/4 198/2/4 202/2/4
f 201/1/4 197/1/4 202/1/4
f 198/1/4 199/1/4 203/1/4
f 202/2/4 198/2/4 203/2/4
f 199/2/4 200/2/4 204/2/4
f 203/1/4 199/1/4 204/1/4
f 201/2/4 202/2/4 205/2/4
f 182/2/4 201/2/4 205/2/4
f 203/2/4 204/2/4 205/2/4
f 202/2/4 203/2/4 205/2/4
f 204/2/4 200/2/4 206/2/4
f 205/2/4 204/2/4 206/2/4
f 200/2/4 187/2/4 206/2/4
f 146/2/4 156/2/4 207/2/4
f 156/2/4 176/2/4 207/2/4
f 176/1/4 182/1/4 208/1/4
f 207/2/4 176/2/4 208/2/4
f 182/2/4 205/2/4 209/2/4
f 208/1/4 182/1/4 209/1/4
f 205/1/4 206/1/4 210/1/4
f 209/2/4 205/2/4 210/2/4
f 210/1/4 206/1/4 211/1/4
f 211/1/4 206/1/4 212/1/4
f 206/2/4 187/2/4 213/2/4
f 212/1/4 206/1/4 213/1/4
f 207/1/4 208/1/4 214/1/4
f 208/1/4 209/1/4 214/1/4
f 146/2/4 207/2/4 214/2/4
f 209/1/4 210/1/4 214/1/4
f 214/1/4 210/1/4 215/1/4
f 215/1/4 210/1/4 216/1/4
f 210/2/4 211/2/4 217/2/4
f 216/1/4 210/1/4 217/1/4
f 211/1/4 212/1/4 218/1/4
f 217/2/4 211/2/4 218/2/4
f 212/2/4 213/2/4 219/2/4
f 218/1/4 212/1/4 219/1/4
f 213/2/4 187/2/4 220/2/4
f 219/2/4 213/2/4 220/2/4
f 215/1/4 216/1/4 221/1/4
f 214/2/4 215/2/4 221/2/4
f 216/2/4 217/2/4 222/2/4
f 221/1/4 216/1/4 222/1/4
f 217/1/4 218/1/4 223/1/4
f 222/2/4 217/2/4 223/2/4
f 218/2/4 219/2/4 224/2/4
f 223/1/4 218/1/4 224/1/4
f 219/1/4 220/1/4 225/1/4
f 224/2/4 219/2/4 225/2/4
f 220/2/4 187/2/4 226/2/4
f 225/1/4 220/1/4 226/1/4
f 145/3/4 146/3/4 227/3/4
f 222/2/4 223/2/4 228/2/4
f 227/3/4 146/3/4 228/3/4
f 214/2/4 221/2/4 228/2/4
f 225/2/4 226/2/4 228/2/4
f 223/2/4 224/2/4 228/2/4
f 146/2/4 214/2/4 228/2/4
f 224/2/4 225/2/4 228/2/4
f 221/2/4 222/2/4 228/2/4
f 226/2/4 187/2/4 229/2/4
f 228/2/4 226/2/4 229/2/4
f 147/3/4 148/3/4 229/3/4
f 187/2/4 147/2/4 229/2/4
f 229/3/4 148/3/4 230/3/4
f 227/6/4 228/6/4 231/6/4
f 228/3/4 229/3/4 232/3/4
f 231/6/4 228/6/4 232/6/4
f 229/6/4 230/6/4 233/6/4
f 232/3/4 229/3/4 233/3/4
f 233/6/4 230/6/4 234/6/4
f 238/3/5 236/3/5 235/3/5
f 239/3/5 236/3/5 238/3/5
f 241/6/5 238/6/5 237/6/5
f 242/3/5 239/3/5 238/3/5
f 242/6/5 238/6/5 241/6/5
f 243/6/5 240/6/5 239/6/5
f 243/3/5 239/3/5 242/3/5
f 244/6/5 240/6/5 243/6/5
f 245/3/6 246/3/6 249/3/6
f 249/3/6 246/3/6 250/3/6
f 247/3/6 248/3/6 251/3/6
f 251/3/6 248/3/6 252/3/6
f 253/1/6 254/1/6 256/1/6
f 254/5/6 255/5/6 257/5/6
f 256/1/6 254/1/6 257/1/6
f 257/5/6 255/5/6 258/5/6
f 259/6/6 260/6/6 263/6/6
f 260/3/6 261/3/6 264/3/6
f 263/6/6 260/6/6 264/6/6
f 261/6/6 262/6/6 265/6/6
f 264/3/6 261/3/6 265/3/6
f 265/6/6 262/6/6 266/6/6
