# MagicaVoxel @ Ephtracy

# group
o 

# material
mtllib Office_Misc_Wall_Corkboard_02.mtl
usemtl palette

# normals
vn -1 0 0
vn 1 0 0
vn 0 0 1
vn 0 0 -1
vn 0 -1 0
vn 0 1 0

# texcoords
vt 0.806641 0.5
vt 0.810547 0.5
vt 0.822266 0.5
vt 0.826172 0.5
vt 0.841797 0.5
vt 0.876953 0.5
vt 0.904297 0.5
vt 0.916016 0.5
vt 0.919922 0.5

# verts
v -0.6 0.2 -0.7
v -0.6 0.2 -0.8
v -0.6 0.3 -0.7
v -0.6 0.3 -0.8
v -0.6 1.1 -0.7
v -0.6 1.1 -0.8
v -0.6 1.2 -0.7
v -0.6 1.2 -0.8
v 0.7 0.2 -0.7
v 0.7 0.2 -0.8
v 0.7 0.3 -0.7
v 0.7 0.3 -0.8
v 0.7 1.1 -0.7
v 0.7 1.1 -0.8
v 0.7 1.2 -0.7
v 0.7 1.2 -0.8
v -0.6 0.2 -0.7
v -0.6 0.3 -0.7
v -0.6 1.1 -0.7
v -0.6 1.2 -0.7
v -0.5 0.2 -0.7
v -0.5 0.3 -0.7
v -0.5 0.4 -0.7
v -0.5 0.5 -0.7
v -0.5 0.6 -0.7
v -0.5 0.7 -0.7
v -0.5 0.8 -0.7
v -0.5 0.9 -0.7
v -0.5 1.1 -0.7
v -0.5 1.2 -0.7
v -0.4 0.4 -0.7
v -0.4 0.5 -0.7
v -0.4 0.7 -0.7
v -0.4 0.8 -0.7
v -0.4 1 -0.7
v -0.4 1.1 -0.7
v -0.3 0.3 -0.7
v -0.3 0.4 -0.7
v -0.3 0.5 -0.7
v -0.3 0.7 -0.7
v -0.3 0.8 -0.7
v -0.3 0.9 -0.7
v -0.3 1 -0.7
v -0.3 1.1 -0.7
v -0.2 0.3 -0.7
v -0.2 0.4 -0.7
v -0.2 0.5 -0.7
v -0.2 0.6 -0.7
v -0.2 0.7 -0.7
v -0.2 0.8 -0.7
v -0.2 0.9 -0.7
v -0.2 1 -0.7
v -0.2 1.1 -0.7
v -0.1 0.3 -0.7
v -0.1 0.4 -0.7
v -0.1 0.5 -0.7
v -0.1 0.6 -0.7
v -0.1 0.7 -0.7
v -0.1 0.8 -0.7
v -0.1 0.9 -0.7
v -0.1 1 -0.7
v 0 0.3 -0.7
v 0 0.4 -0.7
v 0 0.5 -0.7
v 0 1 -0.7
v 0 1.1 -0.7
v 0.1 0.3 -0.7
v 0.1 0.4 -0.7
v 0.1 0.5 -0.7
v 0.1 0.6 -0.7
v 0.1 0.8 -0.7
v 0.1 0.9 -0.7
v 0.1 1 -0.7
v 0.1 1.1 -0.7
v 0.2 0.3 -0.7
v 0.2 0.4 -0.7
v 0.2 0.5 -0.7
v 0.2 0.6 -0.7
v 0.2 0.7 -0.7
v 0.2 0.9 -0.7
v 0.2 1 -0.7
v 0.2 1.1 -0.7
v 0.3 0.3 -0.7
v 0.3 0.4 -0.7
v 0.3 0.8 -0.7
v 0.3 0.9 -0.7
v 0.3 1 -0.7
v 0.4 0.3 -0.7
v 0.4 0.4 -0.7
v 0.4 0.8 -0.7
v 0.4 0.9 -0.7
v 0.4 1 -0.7
v 0.4 1.1 -0.7
v 0.5 0.3 -0.7
v 0.5 0.4 -0.7
v 0.5 0.5 -0.7
v 0.5 0.6 -0.7
v 0.5 0.7 -0.7
v 0.5 0.8 -0.7
v 0.5 1 -0.7
v 0.5 1.1 -0.7
v 0.6 0.2 -0.7
v 0.6 0.3 -0.7
v 0.6 0.4 -0.7
v 0.6 0.5 -0.7
v 0.6 0.6 -0.7
v 0.6 0.7 -0.7
v 0.6 0.8 -0.7
v 0.6 1 -0.7
v 0.6 1.1 -0.7
v 0.6 1.2 -0.7
v 0.7 0.2 -0.7
v 0.7 0.3 -0.7
v 0.7 1.1 -0.7
v 0.7 1.2 -0.7
v -0.6 0.2 -0.8
v -0.6 0.3 -0.8
v -0.6 1.1 -0.8
v -0.6 1.2 -0.8
v -0.5 0.2 -0.8
v -0.5 0.3 -0.8
v -0.5 0.4 -0.8
v -0.5 0.5 -0.8
v -0.5 0.6 -0.8
v -0.5 0.7 -0.8
v -0.5 0.8 -0.8
v -0.5 0.9 -0.8
v -0.5 1.1 -0.8
v -0.5 1.2 -0.8
v -0.4 0.4 -0.8
v -0.4 0.5 -0.8
v -0.4 0.7 -0.8
v -0.4 0.8 -0.8
v -0.4 1 -0.8
v -0.4 1.1 -0.8
v -0.3 0.3 -0.8
v -0.3 0.4 -0.8
v -0.3 0.5 -0.8
v -0.3 0.7 -0.8
v -0.3 0.8 -0.8
v -0.3 0.9 -0.8
v -0.3 1 -0.8
v -0.3 1.1 -0.8
v -0.2 0.3 -0.8
v -0.2 0.4 -0.8
v -0.2 0.5 -0.8
v -0.2 0.6 -0.8
v -0.2 0.7 -0.8
v -0.2 0.8 -0.8
v -0.2 0.9 -0.8
v -0.2 1 -0.8
v -0.2 1.1 -0.8
v -0.1 0.3 -0.8
v -0.1 0.4 -0.8
v -0.1 0.5 -0.8
v -0.1 0.6 -0.8
v -0.1 0.7 -0.8
v -0.1 0.8 -0.8
v -0.1 0.9 -0.8
v -0.1 1 -0.8
v 0 0.3 -0.8
v 0 0.4 -0.8
v 0 0.5 -0.8
v 0 1 -0.8
v 0 1.1 -0.8
v 0.1 0.3 -0.8
v 0.1 0.4 -0.8
v 0.1 0.5 -0.8
v 0.1 0.6 -0.8
v 0.1 0.8 -0.8
v 0.1 0.9 -0.8
v 0.1 1 -0.8
v 0.1 1.1 -0.8
v 0.2 0.3 -0.8
v 0.2 0.4 -0.8
v 0.2 0.5 -0.8
v 0.2 0.6 -0.8
v 0.2 0.7 -0.8
v 0.2 0.9 -0.8
v 0.2 1 -0.8
v 0.2 1.1 -0.8
v 0.3 0.3 -0.8
v 0.3 0.4 -0.8
v 0.3 0.8 -0.8
v 0.3 0.9 -0.8
v 0.3 1 -0.8
v 0.4 0.3 -0.8
v 0.4 0.4 -0.8
v 0.4 0.8 -0.8
v 0.4 0.9 -0.8
v 0.4 1 -0.8
v 0.4 1.1 -0.8
v 0.5 0.3 -0.8
v 0.5 0.4 -0.8
v 0.5 0.5 -0.8
v 0.5 0.6 -0.8
v 0.5 0.7 -0.8
v 0.5 0.8 -0.8
v 0.5 1 -0.8
v 0.5 1.1 -0.8
v 0.6 0.2 -0.8
v 0.6 0.3 -0.8
v 0.6 0.4 -0.8
v 0.6 0.5 -0.8
v 0.6 0.6 -0.8
v 0.6 0.7 -0.8
v 0.6 0.8 -0.8
v 0.6 1 -0.8
v 0.6 1.1 -0.8
v 0.6 1.2 -0.8
v 0.7 0.2 -0.8
v 0.7 0.3 -0.8
v 0.7 1.1 -0.8
v 0.7 1.2 -0.8
v -0.6 0.2 -0.7
v -0.5 0.2 -0.7
v 0.6 0.2 -0.7
v 0.7 0.2 -0.7
v -0.6 0.2 -0.8
v -0.5 0.2 -0.8
v 0.6 0.2 -0.8
v 0.7 0.2 -0.8
v -0.6 1.2 -0.7
v -0.5 1.2 -0.7
v 0.6 1.2 -0.7
v 0.7 1.2 -0.7
v -0.6 1.2 -0.8
v -0.5 1.2 -0.8
v 0.6 1.2 -0.8
v 0.7 1.2 -0.8

# faces
f 3/7/1 2/7/1 1/7/1
f 4/7/1 2/7/1 3/7/1
f 5/6/1 4/6/1 3/6/1
f 6/6/1 4/6/1 5/6/1
f 7/7/1 6/7/1 5/7/1
f 8/7/1 6/7/1 7/7/1
f 9/7/2 10/7/2 11/7/2
f 11/7/2 10/7/2 12/7/2
f 11/6/2 12/6/2 13/6/2
f 13/6/2 12/6/2 14/6/2
f 13/7/2 14/7/2 15/7/2
f 15/7/2 14/7/2 16/7/2
f 21/7/3 18/7/3 17/7/3
f 22/6/3 19/6/3 18/6/3
f 22/7/3 18/7/3 21/7/3
f 23/6/3 19/6/3 22/6/3
f 24/6/3 19/6/3 23/6/3
f 25/6/3 19/6/3 24/6/3
f 26/6/3 19/6/3 25/6/3
f 27/6/3 19/6/3 26/6/3
f 28/6/3 19/6/3 27/6/3
f 29/7/3 20/7/3 19/7/3
f 29/6/3 19/6/3 28/6/3
f 30/7/3 20/7/3 29/7/3
f 31/5/3 23/5/3 22/5/3
f 31/9/3 24/9/3 23/9/3
f 32/5/3 25/5/3 24/5/3
f 32/9/3 24/9/3 31/9/3
f 33/9/3 26/9/3 25/9/3
f 33/5/3 27/5/3 26/5/3
f 34/8/3 28/8/3 27/8/3
f 34/5/3 27/5/3 33/5/3
f 35/5/3 29/5/3 28/5/3
f 36/6/3 30/6/3 29/6/3
f 36/5/3 29/5/3 35/5/3
f 37/6/3 22/6/3 21/6/3
f 37/5/3 31/5/3 22/5/3
f 38/8/3 32/8/3 31/8/3
f 38/5/3 31/5/3 37/5/3
f 39/5/3 25/5/3 32/5/3
f 39/8/3 32/8/3 38/8/3
f 40/9/3 33/9/3 25/9/3
f 40/8/3 34/8/3 33/8/3
f 41/8/3 28/8/3 34/8/3
f 41/8/3 34/8/3 40/8/3
f 42/5/3 35/5/3 28/5/3
f 42/8/3 28/8/3 41/8/3
f 43/8/3 36/8/3 35/8/3
f 43/5/3 35/5/3 42/5/3
f 44/6/3 30/6/3 36/6/3
f 44/8/3 36/8/3 43/8/3
f 45/9/3 38/9/3 37/9/3
f 45/6/3 37/6/3 21/6/3
f 45/9/3 39/9/3 38/9/3
f 46/9/3 39/9/3 45/9/3
f 47/5/3 25/5/3 39/5/3
f 47/9/3 39/9/3 46/9/3
f 48/9/3 40/9/3 25/9/3
f 48/5/3 25/5/3 47/5/3
f 49/5/3 41/5/3 40/5/3
f 49/9/3 40/9/3 48/9/3
f 50/8/3 43/8/3 42/8/3
f 50/5/3 41/5/3 49/5/3
f 50/8/3 42/8/3 41/8/3
f 51/8/3 43/8/3 50/8/3
f 52/9/3 44/9/3 43/9/3
f 52/8/3 43/8/3 51/8/3
f 53/6/3 30/6/3 44/6/3
f 53/9/3 44/9/3 52/9/3
f 54/8/3 46/8/3 45/8/3
f 54/6/3 45/6/3 21/6/3
f 55/5/3 47/5/3 46/5/3
f 55/8/3 46/8/3 54/8/3
f 56/8/3 48/8/3 47/8/3
f 56/5/3 47/5/3 55/5/3
f 57/5/3 49/5/3 48/5/3
f 57/8/3 48/8/3 56/8/3
f 58/9/3 50/9/3 49/9/3
f 58/5/3 49/5/3 57/5/3
f 59/5/3 51/5/3 50/5/3
f 59/9/3 50/9/3 58/9/3
f 60/8/3 52/8/3 51/8/3
f 60/5/3 51/5/3 59/5/3
f 61/5/3 53/5/3 52/5/3
f 61/8/3 52/8/3 60/8/3
f 62/5/3 56/5/3 55/5/3
f 62/5/3 55/5/3 54/5/3
f 62/6/3 54/6/3 21/6/3
f 63/5/3 56/5/3 62/5/3
f 64/9/3 57/9/3 56/9/3
f 64/5/3 56/5/3 63/5/3
f 65/5/3 53/5/3 61/5/3
f 65/5/3 61/5/3 60/5/3
f 66/6/3 30/6/3 53/6/3
f 66/5/3 53/5/3 65/5/3
f 67/9/3 63/9/3 62/9/3
f 67/6/3 62/6/3 21/6/3
f 68/8/3 64/8/3 63/8/3
f 68/9/3 63/9/3 67/9/3
f 69/9/3 57/9/3 64/9/3
f 69/8/3 64/8/3 68/8/3
f 70/2/3 59/2/3 58/2/3
f 70/9/3 57/9/3 69/9/3
f 70/2/3 58/2/3 57/2/3
f 71/1/3 60/1/3 59/1/3
f 71/2/3 59/2/3 70/2/3
f 72/5/3 65/5/3 60/5/3
f 72/1/3 60/1/3 71/1/3
f 73/8/3 66/8/3 65/8/3
f 73/5/3 65/5/3 72/5/3
f 74/6/3 30/6/3 66/6/3
f 74/8/3 66/8/3 73/8/3
f 75/5/3 68/5/3 67/5/3
f 75/6/3 67/6/3 21/6/3
f 76/9/3 69/9/3 68/9/3
f 76/5/3 68/5/3 75/5/3
f 77/5/3 70/5/3 69/5/3
f 77/9/3 69/9/3 76/9/3
f 78/8/3 71/8/3 70/8/3
f 78/5/3 70/5/3 77/5/3
f 78/8/3 72/8/3 71/8/3
f 78/8/3 73/8/3 72/8/3
f 79/8/3 73/8/3 78/8/3
f 80/8/3 73/8/3 79/8/3
f 81/5/3 74/5/3 73/5/3
f 81/8/3 73/8/3 80/8/3
f 82/6/3 30/6/3 74/6/3
f 82/5/3 74/5/3 81/5/3
f 83/9/3 76/9/3 75/9/3
f 83/6/3 75/6/3 21/6/3
f 84/3/3 77/3/3 76/3/3
f 84/9/3 76/9/3 83/9/3
f 84/3/3 78/3/3 77/3/3
f 85/8/3 80/8/3 79/8/3
f 86/9/3 81/9/3 80/9/3
f 86/8/3 80/8/3 85/8/3
f 86/9/3 82/9/3 81/9/3
f 87/9/3 82/9/3 86/9/3
f 88/6/3 83/6/3 21/6/3
f 88/5/3 84/5/3 83/5/3
f 89/3/3 78/3/3 84/3/3
f 89/5/3 84/5/3 88/5/3
f 90/8/3 85/8/3 79/8/3
f 90/9/3 86/9/3 85/9/3
f 91/5/3 87/5/3 86/5/3
f 91/9/3 86/9/3 90/9/3
f 92/9/3 82/9/3 87/9/3
f 92/5/3 87/5/3 91/5/3
f 93/6/3 30/6/3 82/6/3
f 93/9/3 82/9/3 92/9/3
f 94/6/3 88/6/3 21/6/3
f 94/9/3 89/9/3 88/9/3
f 95/3/3 78/3/3 89/3/3
f 95/9/3 89/9/3 94/9/3
f 96/3/3 78/3/3 95/3/3
f 97/4/3 79/4/3 78/4/3
f 97/3/3 78/3/3 96/3/3
f 98/8/3 91/8/3 90/8/3
f 98/4/3 79/4/3 97/4/3
f 98/8/3 92/8/3 91/8/3
f 98/8/3 90/8/3 79/8/3
f 98/8/3 93/8/3 92/8/3
f 99/8/3 93/8/3 98/8/3
f 100/8/3 93/8/3 99/8/3
f 101/6/3 30/6/3 93/6/3
f 101/8/3 93/8/3 100/8/3
f 102/6/3 94/6/3 21/6/3
f 103/8/3 95/8/3 94/8/3
f 103/6/3 94/6/3 102/6/3
f 104/5/3 96/5/3 95/5/3
f 104/8/3 95/8/3 103/8/3
f 105/9/3 97/9/3 96/9/3
f 105/5/3 96/5/3 104/5/3
f 106/8/3 98/8/3 97/8/3
f 106/9/3 97/9/3 105/9/3
f 107/5/3 99/5/3 98/5/3
f 107/8/3 98/8/3 106/8/3
f 108/9/3 100/9/3 99/9/3
f 108/5/3 99/5/3 107/5/3
f 109/5/3 101/5/3 100/5/3
f 109/9/3 100/9/3 108/9/3
f 110/6/3 30/6/3 101/6/3
f 110/5/3 101/5/3 109/5/3
f 111/6/3 30/6/3 110/6/3
f 112/7/3 103/7/3 102/7/3
f 113/6/3 104/6/3 103/6/3
f 113/7/3 103/7/3 112/7/3
f 113/6/3 109/6/3 108/6/3
f 113/6/3 107/6/3 106/6/3
f 113/6/3 110/6/3 109/6/3
f 113/6/3 108/6/3 107/6/3
f 113/6/3 106/6/3 105/6/3
f 113/6/3 105/6/3 104/6/3
f 114/7/3 111/7/3 110/7/3
f 114/6/3 110/6/3 113/6/3
f 115/7/3 111/7/3 114/7/3
f 116/7/4 117/7/4 120/7/4
f 117/6/4 118/6/4 121/6/4
f 120/7/4 117/7/4 121/7/4
f 121/6/4 118/6/4 122/6/4
f 122/6/4 118/6/4 123/6/4
f 123/6/4 118/6/4 124/6/4
f 124/6/4 118/6/4 125/6/4
f 125/6/4 118/6/4 126/6/4
f 126/6/4 118/6/4 127/6/4
f 118/7/4 119/7/4 128/7/4
f 127/6/4 118/6/4 128/6/4
f 128/7/4 119/7/4 129/7/4
f 121/5/4 122/5/4 130/5/4
f 122/9/4 123/9/4 130/9/4
f 123/5/4 124/5/4 131/5/4
f 130/9/4 123/9/4 131/9/4
f 124/9/4 125/9/4 132/9/4
f 125/5/4 126/5/4 132/5/4
f 126/8/4 127/8/4 133/8/4
f 132/5/4 126/5/4 133/5/4
f 127/5/4 128/5/4 134/5/4
f 128/6/4 129/6/4 135/6/4
f 134/5/4 128/5/4 135/5/4
f 120/6/4 121/6/4 136/6/4
f 121/5/4 130/5/4 136/5/4
f 130/8/4 131/8/4 137/8/4
f 136/5/4 130/5/4 137/5/4
f 131/5/4 124/5/4 138/5/4
f 137/8/4 131/8/4 138/8/4
f 124/9/4 132/9/4 139/9/4
f 132/8/4 133/8/4 139/8/4
f 133/8/4 127/8/4 140/8/4
f 139/8/4 133/8/4 140/8/4
f 127/5/4 134/5/4 141/5/4
f 140/8/4 127/8/4 141/8/4
f 134/8/4 135/8/4 142/8/4
f 141/5/4 134/5/4 142/5/4
f 135/6/4 129/6/4 143/6/4
f 142/8/4 135/8/4 143/8/4
f 136/9/4 137/9/4 144/9/4
f 120/6/4 136/6/4 144/6/4
f 137/9/4 138/9/4 144/9/4
f 144/9/4 138/9/4 145/9/4
f 138/5/4 124/5/4 146/5/4
f 145/9/4 138/9/4 146/9/4
f 124/9/4 139/9/4 147/9/4
f 146/5/4 124/5/4 147/5/4
f 139/5/4 140/5/4 148/5/4
f 147/9/4 139/9/4 148/9/4
f 141/8/4 142/8/4 149/8/4
f 148/5/4 140/5/4 149/5/4
f 140/8/4 141/8/4 149/8/4
f 149/8/4 142/8/4 150/8/4
f 142/9/4 143/9/4 151/9/4
f 150/8/4 142/8/4 151/8/4
f 143/6/4 129/6/4 152/6/4
f 151/9/4 143/9/4 152/9/4
f 144/8/4 145/8/4 153/8/4
f 120/6/4 144/6/4 153/6/4
f 145/5/4 146/5/4 154/5/4
f 153/8/4 145/8/4 154/8/4
f 146/8/4 147/8/4 155/8/4
f 154/5/4 146/5/4 155/5/4
f 147/5/4 148/5/4 156/5/4
f 155/8/4 147/8/4 156/8/4
f 148/9/4 149/9/4 157/9/4
f 156/5/4 148/5/4 157/5/4
f 149/5/4 150/5/4 158/5/4
f 157/9/4 149/9/4 158/9/4
f 150/8/4 151/8/4 159/8/4
f 158/5/4 150/5/4 159/5/4
f 151/5/4 152/5/4 160/5/4
f 159/8/4 151/8/4 160/8/4
f 154/5/4 155/5/4 161/5/4
f 153/5/4 154/5/4 161/5/4
f 120/6/4 153/6/4 161/6/4
f 161/5/4 155/5/4 162/5/4
f 155/9/4 156/9/4 163/9/4
f 162/5/4 155/5/4 163/5/4
f 160/5/4 152/5/4 164/5/4
f 159/5/4 160/5/4 164/5/4
f 152/6/4 129/6/4 165/6/4
f 164/5/4 152/5/4 165/5/4
f 161/9/4 162/9/4 166/9/4
f 120/6/4 161/6/4 166/6/4
f 162/8/4 163/8/4 167/8/4
f 166/9/4 162/9/4 167/9/4
f 163/9/4 156/9/4 168/9/4
f 167/8/4 163/8/4 168/8/4
f 157/2/4 158/2/4 169/2/4
f 168/9/4 156/9/4 169/9/4
f 156/2/4 157/2/4 169/2/4
f 158/1/4 159/1/4 170/1/4
f 169/2/4 158/2/4 170/2/4
f 159/5/4 164/5/4 171/5/4
f 170/1/4 159/1/4 171/1/4
f 164/8/4 165/8/4 172/8/4
f 171/5/4 164/5/4 172/5/4
f 165/6/4 129/6/4 173/6/4
f 172/8/4 165/8/4 173/8/4
f 166/5/4 167/5/4 174/5/4
f 120/6/4 166/6/4 174/6/4
f 167/9/4 168/9/4 175/9/4
f 174/5/4 167/5/4 175/5/4
f 168/5/4 169/5/4 176/5/4
f 175/9/4 168/9/4 176/9/4
f 169/8/4 170/8/4 177/8/4
f 176/5/4 169/5/4 177/5/4
f 170/8/4 171/8/4 177/8/4
f 171/8/4 172/8/4 177/8/4
f 177/8/4 172/8/4 178/8/4
f 178/8/4 172/8/4 179/8/4
f 172/5/4 173/5/4 180/5/4
f 179/8/4 172/8/4 180/8/4
f 173/6/4 129/6/4 181/6/4
f 180/5/4 173/5/4 181/5/4
f 174/9/4 175/9/4 182/9/4
f 120/6/4 174/6/4 182/6/4
f 175/3/4 176/3/4 183/3/4
f 182/9/4 175/9/4 183/9/4
f 176/3/4 177/3/4 183/3/4
f 178/8/4 179/8/4 184/8/4
f 179/9/4 180/9/4 185/9/4
f 184/8/4 179/8/4 185/8/4
f 180/9/4 181/9/4 185/9/4
f 185/9/4 181/9/4 186/9/4
f 120/6/4 182/6/4 187/6/4
f 182/5/4 183/5/4 187/5/4
f 183/3/4 177/3/4 188/3/4
f 187/5/4 183/5/4 188/5/4
f 178/8/4 184/8/4 189/8/4
f 184/9/4 185/9/4 189/9/4
f 185/5/4 186/5/4 190/5/4
f 189/9/4 185/9/4 190/9/4
f 186/9/4 181/9/4 191/9/4
f 190/5/4 186/5/4 191/5/4
f 181/6/4 129/6/4 192/6/4
f 191/9/4 181/9/4 192/9/4
f 120/6/4 187/6/4 193/6/4
f 187/9/4 188/9/4 193/9/4
f 188/3/4 177/3/4 194/3/4
f 193/9/4 188/9/4 194/9/4
f 194/3/4 177/3/4 195/3/4
f 177/4/4 178/4/4 196/4/4
f 195/3/4 177/3/4 196/3/4
f 189/8/4 190/8/4 197/8/4
f 196/4/4 178/4/4 197/4/4
f 190/8/4 191/8/4 197/8/4
f 178/8/4 189/8/4 197/8/4
f 191/8/4 192/8/4 197/8/4
f 197/8/4 192/8/4 198/8/4
f 198/8/4 192/8/4 199/8/4
f 192/6/4 129/6/4 200/6/4
f 199/8/4 192/8/4 200/8/4
f 120/6/4 193/6/4 201/6/4
f 193/8/4 194/8/4 202/8/4
f 201/6/4 193/6/4 202/6/4
f 194/5/4 195/5/4 203/5/4
f 202/8/4 194/8/4 203/8/4
f 195/9/4 196/9/4 204/9/4
f 203/5/4 195/5/4 204/5/4
f 196/8/4 197/8/4 205/8/4
f 204/9/4 196/9/4 205/9/4
f 197/5/4 198/5/4 206/5/4
f 205/8/4 197/8/4 206/8/4
f 198/9/4 199/9/4 207/9/4
f 206/5/4 198/5/4 207/5/4
f 199/5/4 200/5/4 208/5/4
f 207/9/4 199/9/4 208/9/4
f 200/6/4 129/6/4 209/6/4
f 208/5/4 200/5/4 209/5/4
f 209/6/4 129/6/4 210/6/4
f 201/7/4 202/7/4 211/7/4
f 202/6/4 203/6/4 212/6/4
f 211/7/4 202/7/4 212/7/4
f 207/6/4 208/6/4 212/6/4
f 205/6/4 206/6/4 212/6/4
f 208/6/4 209/6/4 212/6/4
f 206/6/4 207/6/4 212/6/4
f 204/6/4 205/6/4 212/6/4
f 203/6/4 204/6/4 212/6/4
f 209/7/4 210/7/4 213/7/4
f 212/6/4 209/6/4 213/6/4
f 213/7/4 210/7/4 214/7/4
f 219/7/5 216/7/5 215/7/5
f 220/6/5 217/6/5 216/6/5
f 220/7/5 216/7/5 219/7/5
f 221/7/5 218/7/5 217/7/5
f 221/6/5 217/6/5 220/6/5
f 222/7/5 218/7/5 221/7/5
f 223/7/6 224/7/6 227/7/6
f 224/6/6 225/6/6 228/6/6
f 227/7/6 224/7/6 228/7/6
f 225/7/6 226/7/6 229/7/6
f 228/6/6 225/6/6 229/6/6
f 229/7/6 226/7/6 230/7/6
