# MagicaVoxel @ Ephtracy

# group
o 

# material
mtllib Office_Misc_Plant_01.mtl
usemtl palette

# normals
vn -1 0 0
vn 1 0 0
vn 0 0 1
vn 0 0 -1
vn 0 -1 0
vn 0 1 0

# texcoords
vt 0.791016 0.5
vt 0.798828 0.5

# verts
v -0.2 0 0.2
v -0.2 0 -0.3
v -0.2 0.5 0.2
v -0.2 0.5 -0.3
v -0.1 0.5 0
v -0.1 0.5 -0.2
v -0.1 0.7 -0.1
v -0.1 0.7 -0.2
v -0.1 0.8 0
v -0.1 0.8 -0.1
v 0 0.3 0.1
v 0 0.3 0
v 0 0.5 0.1
v 0 0.7 0.1
v 0 0.7 0
v 0.2 0.3 0.1
v 0.2 0.3 -0.2
v 0.2 0.4 0.1
v 0.2 0.4 0
v 0.2 0.5 0
v 0.2 0.5 -0.2
v -0.1 0.3 0.1
v -0.1 0.3 0
v -0.1 0.5 0.1
v -0.1 0.5 0
v 0 0.3 0
v 0 0.3 -0.2
v 0 0.5 -0.2
v 0 0.7 0
v 0 0.7 -0.1
v 0 0.7 -0.2
v 0 0.8 0
v 0 0.8 -0.1
v 0.1 0.3 0.1
v 0.1 0.3 0
v 0.1 0.4 0.1
v 0.1 0.4 0
v 0.1 0.6 0.1
v 0.1 0.6 0
v 0.1 0.7 0.1
v 0.1 0.7 0
v 0.2 0.5 0.1
v 0.2 0.5 0
v 0.2 0.6 0.1
v 0.2 0.6 0
v 0.3 0 0.2
v 0.3 0 -0.3
v 0.3 0.5 0.2
v 0.3 0.5 -0.3
v -0.2 0 0.2
v -0.2 0.5 0.2
v 0.3 0 0.2
v 0.3 0.5 0.2
v 0 0.5 0.1
v 0 0.7 0.1
v 0.1 0.6 0.1
v 0.1 0.7 0.1
v 0.2 0.5 0.1
v 0.2 0.6 0.1
v -0.1 0.3 0
v -0.1 0.5 0
v -0.1 0.8 0
v 0 0.3 0
v 0 0.7 0
v 0 0.8 0
v 0 0.3 -0.2
v 0 0.5 -0.2
v 0.2 0.3 -0.2
v 0.2 0.5 -0.2
v -0.1 0.3 0.1
v -0.1 0.5 0.1
v 0 0.3 0.1
v 0 0.5 0.1
v 0.1 0.3 0.1
v 0.1 0.4 0.1
v 0.2 0.3 0.1
v 0.2 0.4 0.1
v 0 0.3 0
v 0 0.7 0
v 0.1 0.3 0
v 0.1 0.4 0
v 0.1 0.6 0
v 0.1 0.7 0
v 0.2 0.4 0
v 0.2 0.5 0
v 0.2 0.6 0
v -0.1 0.7 -0.1
v -0.1 0.8 -0.1
v 0 0.7 -0.1
v 0 0.8 -0.1
v -0.1 0.5 -0.2
v -0.1 0.7 -0.2
v 0 0.5 -0.2
v 0 0.7 -0.2
v -0.2 0 -0.3
v -0.2 0.5 -0.3
v 0.3 0 -0.3
v 0.3 0.5 -0.3
v -0.2 0 0.2
v 0.3 0 0.2
v -0.2 0 -0.3
v 0.3 0 -0.3
v 0.1 0.4 0.1
v 0.2 0.4 0.1
v 0.1 0.4 0
v 0.2 0.4 0
v -0.1 0.3 0.1
v 0 0.3 0.1
v 0.1 0.3 0.1
v 0.2 0.3 0.1
v -0.1 0.3 0
v 0 0.3 0
v 0.1 0.3 0
v 0 0.3 -0.2
v 0.2 0.3 -0.2
v -0.2 0.5 0.2
v 0.3 0.5 0.2
v -0.1 0.5 0.1
v 0 0.5 0.1
v 0.2 0.5 0.1
v -0.1 0.5 0
v 0.2 0.5 0
v -0.1 0.5 -0.2
v 0 0.5 -0.2
v 0.2 0.5 -0.2
v -0.2 0.5 -0.3
v 0.3 0.5 -0.3
v 0.1 0.6 0.1
v 0.2 0.6 0.1
v 0.1 0.6 0
v 0.2 0.6 0
v 0 0.7 0.1
v 0.1 0.7 0.1
v 0 0.7 0
v 0.1 0.7 0
v -0.1 0.7 -0.1
v 0 0.7 -0.1
v -0.1 0.7 -0.2
v 0 0.7 -0.2
v -0.1 0.8 0
v 0 0.8 0
v -0.1 0.8 -0.1
v 0 0.8 -0.1

# faces
f 3/1/1 2/1/1 1/1/1
f 4/1/1 2/1/1 3/1/1
f 7/2/1 6/2/1 5/2/1
f 8/2/1 6/2/1 7/2/1
f 9/2/1 7/2/1 5/2/1
f 10/2/1 7/2/1 9/2/1
f 13/2/1 12/2/1 11/2/1
f 14/2/1 12/2/1 13/2/1
f 15/2/1 12/2/1 14/2/1
f 18/1/1 17/1/1 16/1/1
f 19/1/1 17/1/1 18/1/1
f 20/1/1 17/1/1 19/1/1
f 21/1/1 17/1/1 20/1/1
f 22/1/2 23/1/2 24/1/2
f 24/1/2 23/1/2 25/1/2
f 26/2/2 27/2/2 28/2/2
f 26/2/2 28/2/2 29/2/2
f 29/2/2 28/2/2 30/2/2
f 30/2/2 28/2/2 31/2/2
f 29/2/2 30/2/2 32/2/2
f 32/2/2 30/2/2 33/2/2
f 34/2/2 35/2/2 36/2/2
f 36/2/2 35/2/2 37/2/2
f 38/2/2 39/2/2 40/2/2
f 40/2/2 39/2/2 41/2/2
f 42/2/2 43/2/2 44/2/2
f 44/2/2 43/2/2 45/2/2
f 46/1/2 47/1/2 48/1/2
f 48/1/2 47/1/2 49/1/2
f 52/1/3 51/1/3 50/1/3
f 53/1/3 51/1/3 52/1/3
f 56/2/3 55/2/3 54/2/3
f 57/2/3 55/2/3 56/2/3
f 58/2/3 56/2/3 54/2/3
f 59/2/3 56/2/3 58/2/3
f 63/2/3 61/2/3 60/2/3
f 63/2/3 62/2/3 61/2/3
f 64/2/3 62/2/3 63/2/3
f 65/2/3 62/2/3 64/2/3
f 68/1/3 67/1/3 66/1/3
f 69/1/3 67/1/3 68/1/3
f 70/1/4 71/1/4 72/1/4
f 72/1/4 71/1/4 73/1/4
f 74/1/4 75/1/4 76/1/4
f 76/1/4 75/1/4 77/1/4
f 78/2/4 79/2/4 80/2/4
f 80/2/4 79/2/4 81/2/4
f 81/2/4 79/2/4 82/2/4
f 82/2/4 79/2/4 83/2/4
f 81/2/4 82/2/4 84/2/4
f 84/2/4 82/2/4 85/2/4
f 85/2/4 82/2/4 86/2/4
f 87/2/4 88/2/4 89/2/4
f 89/2/4 88/2/4 90/2/4
f 91/2/4 92/2/4 93/2/4
f 93/2/4 92/2/4 94/2/4
f 95/1/4 96/1/4 97/1/4
f 97/1/4 96/1/4 98/1/4
f 101/1/5 100/1/5 99/1/5
f 102/1/5 100/1/5 101/1/5
f 105/2/5 104/2/5 103/2/5
f 106/2/5 104/2/5 105/2/5
f 107/1/6 108/1/6 111/1/6
f 111/1/6 108/1/6 112/1/6
f 109/1/6 110/1/6 113/1/6
f 112/1/6 113/1/6 114/1/6
f 113/1/6 110/1/6 115/1/6
f 114/1/6 113/1/6 115/1/6
f 116/1/6 117/1/6 118/1/6
f 118/1/6 117/1/6 119/1/6
f 119/1/6 117/1/6 120/1/6
f 116/1/6 118/1/6 121/1/6
f 120/1/6 117/1/6 122/1/6
f 116/1/6 121/1/6 123/1/6
f 122/1/6 117/1/6 125/1/6
f 123/1/6 124/1/6 126/1/6
f 124/1/6 125/1/6 126/1/6
f 116/1/6 123/1/6 126/1/6
f 125/1/6 117/1/6 127/1/6
f 126/1/6 125/1/6 127/1/6
f 128/2/6 129/2/6 130/2/6
f 130/2/6 129/2/6 131/2/6
f 132/2/6 133/2/6 134/2/6
f 134/2/6 133/2/6 135/2/6
f 136/2/6 137/2/6 138/2/6
f 138/2/6 137/2/6 139/2/6
f 140/2/6 141/2/6 142/2/6
f 142/2/6 141/2/6 143/2/6
