# MagicaVoxel @ Ephtracy

# group
o 

# material
mtllib Office_Misc_Wall_Clock_02.mtl
usemtl palette

# normals
vn -1 0 0
vn 1 0 0
vn 0 0 1
vn 0 0 -1
vn 0 -1 0
vn 0 1 0

# texcoords
vt 0.751953 0.5
vt 0.755859 0.5
vt 0.759766 0.5
vt 0.904297 0.5

# verts
v -0.5 0.6 -0.7
v -0.5 0.6 -0.8
v -0.5 1.1 -0.7
v -0.5 1.1 -0.8
v -0.4 0.5 -0.7
v -0.4 0.5 -0.8
v -0.4 0.6 -0.7
v -0.4 0.6 -0.8
v -0.4 1.1 -0.7
v -0.4 1.1 -0.8
v -0.4 1.2 -0.7
v -0.4 1.2 -0.8
v 0.5 0.5 -0.7
v 0.5 0.5 -0.8
v 0.5 0.6 -0.7
v 0.5 0.6 -0.8
v 0.5 1.1 -0.7
v 0.5 1.1 -0.8
v 0.5 1.2 -0.7
v 0.5 1.2 -0.8
v 0.6 0.6 -0.7
v 0.6 0.6 -0.8
v 0.6 1.1 -0.7
v 0.6 1.1 -0.8
v -0.5 0.6 -0.7
v -0.5 1.1 -0.7
v -0.4 0.5 -0.7
v -0.4 0.6 -0.7
v -0.4 0.7 -0.7
v -0.4 1 -0.7
v -0.4 1.1 -0.7
v -0.4 1.2 -0.7
v -0.3 0.6 -0.7
v -0.3 0.7 -0.7
v -0.3 1 -0.7
v -0.3 1.1 -0.7
v -0.2 0.7 -0.7
v -0.2 1 -0.7
v -0.1 0.7 -0.7
v -0.1 0.8 -0.7
v -0.1 0.9 -0.7
v -0.1 1 -0.7
v 0 0.7 -0.7
v 0 0.8 -0.7
v 0 0.9 -0.7
v 0 1 -0.7
v 0.1 0.7 -0.7
v 0.1 1 -0.7
v 0.2 0.7 -0.7
v 0.2 1 -0.7
v 0.3 0.7 -0.7
v 0.3 1 -0.7
v 0.4 0.6 -0.7
v 0.4 0.7 -0.7
v 0.4 1 -0.7
v 0.4 1.1 -0.7
v 0.5 0.5 -0.7
v 0.5 0.6 -0.7
v 0.5 0.7 -0.7
v 0.5 1 -0.7
v 0.5 1.1 -0.7
v 0.5 1.2 -0.7
v 0.6 0.6 -0.7
v 0.6 1.1 -0.7
v -0.5 0.6 -0.8
v -0.5 1.1 -0.8
v -0.4 0.5 -0.8
v -0.4 0.6 -0.8
v -0.4 0.7 -0.8
v -0.4 1 -0.8
v -0.4 1.1 -0.8
v -0.4 1.2 -0.8
v -0.3 0.6 -0.8
v -0.3 0.7 -0.8
v -0.3 1 -0.8
v -0.3 1.1 -0.8
v -0.2 0.7 -0.8
v -0.2 1 -0.8
v -0.1 0.7 -0.8
v -0.1 0.8 -0.8
v -0.1 0.9 -0.8
v -0.1 1 -0.8
v 0 0.7 -0.8
v 0 0.8 -0.8
v 0 0.9 -0.8
v 0 1 -0.8
v 0.1 0.7 -0.8
v 0.1 1 -0.8
v 0.2 0.7 -0.8
v 0.2 1 -0.8
v 0.3 0.7 -0.8
v 0.3 1 -0.8
v 0.4 0.6 -0.8
v 0.4 0.7 -0.8
v 0.4 1 -0.8
v 0.4 1.1 -0.8
v 0.5 0.5 -0.8
v 0.5 0.6 -0.8
v 0.5 0.7 -0.8
v 0.5 1 -0.8
v 0.5 1.1 -0.8
v 0.5 1.2 -0.8
v 0.6 0.6 -0.8
v 0.6 1.1 -0.8
v -0.4 0.5 -0.7
v 0.5 0.5 -0.7
v -0.4 0.5 -0.8
v 0.5 0.5 -0.8
v -0.5 0.6 -0.7
v -0.4 0.6 -0.7
v 0.5 0.6 -0.7
v 0.6 0.6 -0.7
v -0.5 0.6 -0.8
v -0.4 0.6 -0.8
v 0.5 0.6 -0.8
v 0.6 0.6 -0.8
v -0.5 1.1 -0.7
v -0.4 1.1 -0.7
v 0.5 1.1 -0.7
v 0.6 1.1 -0.7
v -0.5 1.1 -0.8
v -0.4 1.1 -0.8
v 0.5 1.1 -0.8
v 0.6 1.1 -0.8
v -0.4 1.2 -0.7
v 0.5 1.2 -0.7
v -0.4 1.2 -0.8
v 0.5 1.2 -0.8

# faces
f 3/4/1 2/4/1 1/4/1
f 4/4/1 2/4/1 3/4/1
f 7/4/1 6/4/1 5/4/1
f 8/4/1 6/4/1 7/4/1
f 11/4/1 10/4/1 9/4/1
f 12/4/1 10/4/1 11/4/1
f 13/4/2 14/4/2 15/4/2
f 15/4/2 14/4/2 16/4/2
f 17/4/2 18/4/2 19/4/2
f 19/4/2 18/4/2 20/4/2
f 21/4/2 22/4/2 23/4/2
f 23/4/2 22/4/2 24/4/2
f 28/4/3 26/4/3 25/4/3
f 29/4/3 26/4/3 28/4/3
f 30/4/3 26/4/3 29/4/3
f 31/4/3 26/4/3 30/4/3
f 33/4/3 28/4/3 27/4/3
f 33/3/3 29/3/3 28/3/3
f 34/2/3 30/2/3 29/2/3
f 34/3/3 29/3/3 33/3/3
f 35/3/3 31/3/3 30/3/3
f 35/2/3 30/2/3 34/2/3
f 36/4/3 32/4/3 31/4/3
f 36/3/3 31/3/3 35/3/3
f 37/1/3 35/1/3 34/1/3
f 37/2/3 34/2/3 33/2/3
f 38/2/3 36/2/3 35/2/3
f 38/1/3 35/1/3 37/1/3
f 39/2/3 37/2/3 33/2/3
f 39/2/3 38/2/3 37/2/3
f 40/2/3 38/2/3 39/2/3
f 41/2/3 38/2/3 40/2/3
f 42/2/3 36/2/3 38/2/3
f 42/2/3 38/2/3 41/2/3
f 43/2/3 39/2/3 33/2/3
f 43/1/3 40/1/3 39/1/3
f 44/2/3 41/2/3 40/2/3
f 44/1/3 40/1/3 43/1/3
f 45/1/3 42/1/3 41/1/3
f 45/2/3 41/2/3 44/2/3
f 46/2/3 36/2/3 42/2/3
f 46/1/3 42/1/3 45/1/3
f 47/2/3 43/2/3 33/2/3
f 47/2/3 45/2/3 44/2/3
f 47/2/3 46/2/3 45/2/3
f 47/2/3 44/2/3 43/2/3
f 48/2/3 36/2/3 46/2/3
f 48/2/3 46/2/3 47/2/3
f 49/2/3 47/2/3 33/2/3
f 49/1/3 48/1/3 47/1/3
f 50/2/3 36/2/3 48/2/3
f 50/1/3 48/1/3 49/1/3
f 51/2/3 49/2/3 33/2/3
f 51/2/3 50/2/3 49/2/3
f 52/2/3 36/2/3 50/2/3
f 52/2/3 50/2/3 51/2/3
f 53/2/3 51/2/3 33/2/3
f 53/4/3 33/4/3 27/4/3
f 54/1/3 52/1/3 51/1/3
f 54/2/3 51/2/3 53/2/3
f 55/2/3 36/2/3 52/2/3
f 55/1/3 52/1/3 54/1/3
f 56/4/3 32/4/3 36/4/3
f 56/2/3 36/2/3 55/2/3
f 57/4/3 53/4/3 27/4/3
f 58/3/3 54/3/3 53/3/3
f 58/4/3 53/4/3 57/4/3
f 59/2/3 55/2/3 54/2/3
f 59/3/3 54/3/3 58/3/3
f 60/3/3 56/3/3 55/3/3
f 60/2/3 55/2/3 59/2/3
f 61/4/3 32/4/3 56/4/3
f 61/3/3 56/3/3 60/3/3
f 62/4/3 32/4/3 61/4/3
f 63/4/3 60/4/3 59/4/3
f 63/4/3 61/4/3 60/4/3
f 63/4/3 59/4/3 58/4/3
f 64/4/3 61/4/3 63/4/3
f 65/4/4 66/4/4 68/4/4
f 68/4/4 66/4/4 69/4/4
f 69/4/4 66/4/4 70/4/4
f 70/4/4 66/4/4 71/4/4
f 67/4/4 68/4/4 73/4/4
f 68/3/4 69/3/4 73/3/4
f 69/2/4 70/2/4 74/2/4
f 73/3/4 69/3/4 74/3/4
f 70/3/4 71/3/4 75/3/4
f 74/2/4 70/2/4 75/2/4
f 71/4/4 72/4/4 76/4/4
f 75/3/4 71/3/4 76/3/4
f 74/1/4 75/1/4 77/1/4
f 73/2/4 74/2/4 77/2/4
f 75/2/4 76/2/4 78/2/4
f 77/1/4 75/1/4 78/1/4
f 73/2/4 77/2/4 79/2/4
f 77/2/4 78/2/4 79/2/4
f 79/2/4 78/2/4 80/2/4
f 80/2/4 78/2/4 81/2/4
f 78/2/4 76/2/4 82/2/4
f 81/2/4 78/2/4 82/2/4
f 73/2/4 79/2/4 83/2/4
f 79/1/4 80/1/4 83/1/4
f 80/2/4 81/2/4 84/2/4
f 83/1/4 80/1/4 84/1/4
f 81/1/4 82/1/4 85/1/4
f 84/2/4 81/2/4 85/2/4
f 82/2/4 76/2/4 86/2/4
f 85/1/4 82/1/4 86/1/4
f 73/2/4 83/2/4 87/2/4
f 84/2/4 85/2/4 87/2/4
f 85/2/4 86/2/4 87/2/4
f 83/2/4 84/2/4 87/2/4
f 86/2/4 76/2/4 88/2/4
f 87/2/4 86/2/4 88/2/4
f 73/2/4 87/2/4 89/2/4
f 87/1/4 88/1/4 89/1/4
f 88/2/4 76/2/4 90/2/4
f 89/1/4 88/1/4 90/1/4
f 73/2/4 89/2/4 91/2/4
f 89/2/4 90/2/4 91/2/4
f 90/2/4 76/2/4 92/2/4
f 91/2/4 90/2/4 92/2/4
f 73/2/4 91/2/4 93/2/4
f 67/4/4 73/4/4 93/4/4
f 91/1/4 92/1/4 94/1/4
f 93/2/4 91/2/4 94/2/4
f 92/2/4 76/2/4 95/2/4
f 94/1/4 92/1/4 95/1/4
f 76/4/4 72/4/4 96/4/4
f 95/2/4 76/2/4 96/2/4
f 67/4/4 93/4/4 97/4/4
f 93/3/4 94/3/4 98/3/4
f 97/4/4 93/4/4 98/4/4
f 94/2/4 95/2/4 99/2/4
f 98/3/4 94/3/4 99/3/4
f 95/3/4 96/3/4 100/3/4
f 99/2/4 95/2/4 100/2/4
f 96/4/4 72/4/4 101/4/4
f 100/3/4 96/3/4 101/3/4
f 101/4/4 72/4/4 102/4/4
f 99/4/4 100/4/4 103/4/4
f 100/4/4 101/4/4 103/4/4
f 98/4/4 99/4/4 103/4/4
f 103/4/4 101/4/4 104/4/4
f 107/4/5 106/4/5 105/4/5
f 108/4/5 106/4/5 107/4/5
f 113/4/5 110/4/5 109/4/5
f 114/4/5 110/4/5 113/4/5
f 115/4/5 112/4/5 111/4/5
f 116/4/5 112/4/5 115/4/5
f 117/4/6 118/4/6 121/4/6
f 121/4/6 118/4/6 122/4/6
f 119/4/6 120/4/6 123/4/6
f 123/4/6 120/4/6 124/4/6
f 125/4/6 126/4/6 127/4/6
f 127/4/6 126/4/6 128/4/6
