# MagicaVoxel @ Ephtracy

# group
o 

# material
mtllib Office_Chair_White_02.mtl
usemtl palette

# normals
vn -1 0 0
vn 1 0 0
vn 0 0 1
vn 0 0 -1
vn 0 -1 0
vn 0 1 0

# texcoords
vt 0.876953 0.5
vt 0.892578 0.5
vt 0.927734 0.5
vt 0.931641 0.5

# verts
v -0.5 0.3 0.5
v -0.5 0.3 -0.4
v -0.5 0.4 0.4
v -0.5 0.4 -0.3
v -0.5 0.6 0.5
v -0.5 0.6 0.4
v -0.5 0.7 0.5
v -0.5 0.7 0.4
v -0.5 0.7 -0.3
v -0.5 0.8 0.4
v -0.5 0.8 -0.3
v -0.5 1.4 -0.3
v -0.5 1.4 -0.4
v -0.4 0 0.1
v -0.4 0 0
v -0.4 0.1 0.1
v -0.4 0.1 0
v -0.4 0.2 0.1
v -0.4 0.2 0
v -0.4 0.4 0.4
v -0.4 0.4 -0.3
v -0.4 0.5 0.4
v -0.4 0.5 -0.2
v -0.4 0.7 -0.2
v -0.4 0.7 -0.3
v -0.4 0.8 -0.2
v -0.4 0.8 -0.3
v -0.4 1.4 -0.2
v -0.4 1.4 -0.3
v -0.4 1.4 -0.4
v -0.4 1.5 -0.3
v -0.4 1.5 -0.4
v -0.3 0.4 0.5
v -0.3 0.4 0.4
v -0.3 0.5 0.5
v -0.3 0.5 0.4
v -0.3 1.4 -0.2
v -0.3 1.4 -0.3
v -0.3 1.5 -0.2
v -0.3 1.5 -0.3
v -0.1 0 0.4
v -0.1 0 0.3
v -0.1 0 -0.2
v -0.1 0 -0.3
v -0.1 0.1 0.4
v -0.1 0.1 0.3
v -0.1 0.1 0.1
v -0.1 0.1 0
v -0.1 0.1 -0.2
v -0.1 0.1 -0.3
v -0.1 0.2 0.4
v -0.1 0.2 0.1
v -0.1 0.2 0
v -0.1 0.2 -0.3
v -0.1 0.3 0.1
v -0.1 0.3 0
v 0.2 0 0.1
v 0.2 0 0
v 0.2 0.1 0.1
v 0.2 0.1 0
v 0.3 0.4 0.5
v 0.3 0.4 0.4
v 0.3 0.5 0.4
v 0.3 0.6 0.5
v 0.3 0.6 0.4
v 0.3 0.7 0.5
v 0.3 0.7 0.4
v 0.3 0.7 -0.2
v 0.3 0.8 0.4
v 0.3 0.8 -0.2
v -0.4 0.4 0.5
v -0.4 0.4 0.4
v -0.4 0.5 0.4
v -0.4 0.6 0.5
v -0.4 0.6 0.4
v -0.4 0.7 0.5
v -0.4 0.7 0.4
v -0.4 0.7 -0.2
v -0.4 0.8 0.4
v -0.4 0.8 -0.2
v -0.3 0 0.1
v -0.3 0 0
v -0.3 0.1 0.1
v -0.3 0.1 0
v 0 0 0.4
v 0 0 0.3
v 0 0 -0.2
v 0 0 -0.3
v 0 0.1 0.4
v 0 0.1 0.3
v 0 0.1 0.1
v 0 0.1 0
v 0 0.1 -0.2
v 0 0.1 -0.3
v 0 0.2 0.4
v 0 0.2 0.1
v 0 0.2 0
v 0 0.2 -0.3
v 0 0.3 0.1
v 0 0.3 0
v 0.2 0.4 0.5
v 0.2 0.4 0.4
v 0.2 0.5 0.5
v 0.2 0.5 0.4
v 0.2 1.4 -0.2
v 0.2 1.4 -0.3
v 0.2 1.5 -0.2
v 0.2 1.5 -0.3
v 0.3 0 0.1
v 0.3 0 0
v 0.3 0.1 0.1
v 0.3 0.1 0
v 0.3 0.2 0.1
v 0.3 0.2 0
v 0.3 0.4 0.4
v 0.3 0.4 -0.3
v 0.3 0.5 0.4
v 0.3 0.5 -0.2
v 0.3 0.7 -0.2
v 0.3 0.7 -0.3
v 0.3 0.8 -0.2
v 0.3 0.8 -0.3
v 0.3 1.4 -0.2
v 0.3 1.4 -0.3
v 0.3 1.4 -0.4
v 0.3 1.5 -0.3
v 0.3 1.5 -0.4
v 0.4 0.3 0.5
v 0.4 0.3 -0.4
v 0.4 0.4 0.4
v 0.4 0.4 -0.3
v 0.4 0.6 0.5
v 0.4 0.6 0.4
v 0.4 0.7 0.5
v 0.4 0.7 0.4
v 0.4 0.7 -0.3
v 0.4 0.8 0.4
v 0.4 0.8 -0.3
v 0.4 1.4 -0.3
v 0.4 1.4 -0.4
v -0.5 0.3 0.5
v -0.5 0.6 0.5
v -0.5 0.7 0.5
v -0.4 0.4 0.5
v -0.4 0.6 0.5
v -0.4 0.7 0.5
v -0.3 0.4 0.5
v -0.3 0.5 0.5
v 0.2 0.4 0.5
v 0.2 0.5 0.5
v 0.3 0.4 0.5
v 0.3 0.6 0.5
v 0.3 0.7 0.5
v 0.4 0.3 0.5
v 0.4 0.6 0.5
v 0.4 0.7 0.5
v -0.5 0.7 0.4
v -0.5 0.8 0.4
v -0.4 0.4 0.4
v -0.4 0.5 0.4
v -0.4 0.7 0.4
v -0.4 0.8 0.4
v -0.3 0.4 0.4
v -0.3 0.5 0.4
v -0.1 0 0.4
v -0.1 0.1 0.4
v -0.1 0.2 0.4
v 0 0 0.4
v 0 0.1 0.4
v 0 0.2 0.4
v 0.2 0.4 0.4
v 0.2 0.5 0.4
v 0.3 0.4 0.4
v 0.3 0.5 0.4
v 0.3 0.7 0.4
v 0.3 0.8 0.4
v 0.4 0.7 0.4
v 0.4 0.8 0.4
v -0.4 0 0.1
v -0.4 0.1 0.1
v -0.4 0.2 0.1
v -0.3 0 0.1
v -0.3 0.1 0.1
v -0.1 0.1 0.1
v -0.1 0.2 0.1
v -0.1 0.3 0.1
v 0 0.1 0.1
v 0 0.2 0.1
v 0 0.3 0.1
v 0.2 0 0.1
v 0.2 0.1 0.1
v 0.3 0 0.1
v 0.3 0.1 0.1
v 0.3 0.2 0.1
v -0.4 0.5 -0.2
v -0.4 0.7 -0.2
v -0.4 0.8 -0.2
v -0.4 1.4 -0.2
v -0.3 1.4 -0.2
v -0.3 1.5 -0.2
v -0.1 0 -0.2
v -0.1 0.1 -0.2
v 0 0 -0.2
v 0 0.1 -0.2
v 0.2 1.4 -0.2
v 0.2 1.5 -0.2
v 0.3 0.5 -0.2
v 0.3 0.7 -0.2
v 0.3 0.8 -0.2
v 0.3 1.4 -0.2
v -0.5 0.4 -0.3
v -0.5 0.7 -0.3
v -0.5 0.8 -0.3
v -0.5 1.4 -0.3
v -0.4 0.4 -0.3
v -0.4 0.7 -0.3
v -0.4 0.8 -0.3
v -0.4 1.4 -0.3
v -0.4 1.5 -0.3
v -0.3 1.4 -0.3
v -0.3 1.5 -0.3
v 0.2 1.4 -0.3
v 0.2 1.5 -0.3
v 0.3 0.4 -0.3
v 0.3 0.7 -0.3
v 0.3 0.8 -0.3
v 0.3 1.4 -0.3
v 0.3 1.5 -0.3
v 0.4 0.4 -0.3
v 0.4 0.7 -0.3
v 0.4 0.8 -0.3
v 0.4 1.4 -0.3
v -0.5 0.4 0.4
v -0.5 0.6 0.4
v -0.5 0.7 0.4
v -0.4 0.4 0.4
v -0.4 0.5 0.4
v -0.4 0.6 0.4
v -0.4 0.7 0.4
v 0.3 0.4 0.4
v 0.3 0.5 0.4
v 0.3 0.6 0.4
v 0.3 0.7 0.4
v 0.4 0.4 0.4
v 0.4 0.6 0.4
v 0.4 0.7 0.4
v -0.1 0 0.3
v -0.1 0.1 0.3
v 0 0 0.3
v 0 0.1 0.3
v -0.4 0 0
v -0.4 0.1 0
v -0.4 0.2 0
v -0.3 0 0
v -0.3 0.1 0
v -0.1 0.1 0
v -0.1 0.2 0
v -0.1 0.3 0
v 0 0.1 0
v 0 0.2 0
v 0 0.3 0
v 0.2 0 0
v 0.2 0.1 0
v 0.3 0 0
v 0.3 0.1 0
v 0.3 0.2 0
v -0.1 0 -0.3
v -0.1 0.1 -0.3
v -0.1 0.2 -0.3
v 0 0 -0.3
v 0 0.1 -0.3
v 0 0.2 -0.3
v -0.5 0.3 -0.4
v -0.5 1.4 -0.4
v -0.4 1.4 -0.4
v -0.4 1.5 -0.4
v 0.3 1.4 -0.4
v 0.3 1.5 -0.4
v 0.4 0.3 -0.4
v 0.4 1.4 -0.4
v -0.1 0 0.4
v 0 0 0.4
v -0.1 0 0.3
v 0 0 0.3
v -0.4 0 0.1
v -0.3 0 0.1
v 0.2 0 0.1
v 0.3 0 0.1
v -0.4 0 0
v -0.3 0 0
v 0.2 0 0
v 0.3 0 0
v -0.1 0 -0.2
v 0 0 -0.2
v -0.1 0 -0.3
v 0 0 -0.3
v -0.1 0.1 0.3
v 0 0.1 0.3
v -0.3 0.1 0.1
v -0.1 0.1 0.1
v 0 0.1 0.1
v 0.2 0.1 0.1
v -0.3 0.1 0
v -0.1 0.1 0
v 0 0.1 0
v 0.2 0.1 0
v -0.1 0.1 -0.2
v 0 0.1 -0.2
v -0.5 0.3 0.5
v 0.4 0.3 0.5
v -0.1 0.3 0.1
v 0 0.3 0.1
v -0.1 0.3 0
v 0 0.3 0
v -0.5 0.3 -0.4
v 0.4 0.3 -0.4
v -0.5 0.7 0.4
v -0.4 0.7 0.4
v 0.3 0.7 0.4
v 0.4 0.7 0.4
v -0.4 0.7 -0.2
v 0.3 0.7 -0.2
v -0.5 0.7 -0.3
v -0.4 0.7 -0.3
v 0.3 0.7 -0.3
v 0.4 0.7 -0.3
v -0.1 0.2 0.4
v 0 0.2 0.4
v -0.4 0.2 0.1
v -0.1 0.2 0.1
v 0 0.2 0.1
v 0.3 0.2 0.1
v -0.4 0.2 0
v -0.1 0.2 0
v 0 0.2 0
v 0.3 0.2 0
v -0.1 0.2 -0.3
v 0 0.2 -0.3
v -0.4 0.4 0.5
v -0.3 0.4 0.5
v 0.2 0.4 0.5
v 0.3 0.4 0.5
v -0.5 0.4 0.4
v -0.4 0.4 0.4
v -0.3 0.4 0.4
v 0.2 0.4 0.4
v 0.3 0.4 0.4
v 0.4 0.4 0.4
v -0.5 0.4 -0.3
v -0.4 0.4 -0.3
v 0.3 0.4 -0.3
v 0.4 0.4 -0.3
v -0.3 0.5 0.5
v 0.2 0.5 0.5
v -0.4 0.5 0.4
v -0.3 0.5 0.4
v 0.2 0.5 0.4
v 0.3 0.5 0.4
v -0.4 0.5 -0.2
v 0.3 0.5 -0.2
v -0.5 0.7 0.5
v -0.4 0.7 0.5
v 0.3 0.7 0.5
v 0.4 0.7 0.5
v -0.5 0.7 0.4
v -0.4 0.7 0.4
v 0.3 0.7 0.4
v 0.4 0.7 0.4
v -0.5 0.8 0.4
v -0.4 0.8 0.4
v 0.3 0.8 0.4
v 0.4 0.8 0.4
v -0.4 0.8 -0.2
v 0.3 0.8 -0.2
v -0.5 0.8 -0.3
v -0.4 0.8 -0.3
v 0.3 0.8 -0.3
v 0.4 0.8 -0.3
v -0.4 1.4 -0.2
v -0.3 1.4 -0.2
v 0.2 1.4 -0.2
v 0.3 1.4 -0.2
v -0.5 1.4 -0.3
v -0.4 1.4 -0.3
v -0.3 1.4 -0.3
v 0.2 1.4 -0.3
v 0.3 1.4 -0.3
v 0.4 1.4 -0.3
v -0.5 1.4 -0.4
v -0.4 1.4 -0.4
v 0.3 1.4 -0.4
v 0.4 1.4 -0.4
v -0.3 1.5 -0.2
v 0.2 1.5 -0.2
v -0.4 1.5 -0.3
v -0.3 1.5 -0.3
v 0.2 1.5 -0.3
v 0.3 1.5 -0.3
v -0.4 1.5 -0.4
v 0.3 1.5 -0.4

# faces
f 3/1/1 2/1/1 1/1/1
f 4/1/1 2/1/1 3/1/1
f 5/1/1 3/1/1 1/1/1
f 6/1/1 3/1/1 5/1/1
f 7/4/1 6/4/1 5/4/1
f 8/4/1 6/4/1 7/4/1
f 9/1/1 2/1/1 4/1/1
f 10/4/1 9/4/1 8/4/1
f 11/1/1 2/1/1 9/1/1
f 11/4/1 9/4/1 10/4/1
f 12/1/1 2/1/1 11/1/1
f 13/1/1 2/1/1 12/1/1
f 16/4/1 15/4/1 14/4/1
f 17/4/1 15/4/1 16/4/1
f 18/3/1 17/3/1 16/3/1
f 19/3/1 17/3/1 18/3/1
f 22/2/1 21/2/1 20/2/1
f 23/2/1 21/2/1 22/2/1
f 24/2/1 21/2/1 23/2/1
f 25/2/1 21/2/1 24/2/1
f 28/2/1 27/2/1 26/2/1
f 29/2/1 27/2/1 28/2/1
f 31/1/1 30/1/1 29/1/1
f 32/1/1 30/1/1 31/1/1
f 35/2/1 34/2/1 33/2/1
f 36/2/1 34/2/1 35/2/1
f 39/2/1 38/2/1 37/2/1
f 40/2/1 38/2/1 39/2/1
f 45/4/1 42/4/1 41/4/1
f 46/4/1 42/4/1 45/4/1
f 49/4/1 44/4/1 43/4/1
f 50/4/1 44/4/1 49/4/1
f 51/3/1 47/3/1 46/3/1
f 51/3/1 46/3/1 45/3/1
f 52/3/1 47/3/1 51/3/1
f 53/3/1 50/3/1 49/3/1
f 53/3/1 49/3/1 48/3/1
f 54/3/1 50/3/1 53/3/1
f 55/3/1 53/3/1 52/3/1
f 56/3/1 53/3/1 55/3/1
f 59/4/1 58/4/1 57/4/1
f 60/4/1 58/4/1 59/4/1
f 63/1/1 62/1/1 61/1/1
f 64/1/1 63/1/1 61/1/1
f 65/1/1 63/1/1 64/1/1
f 66/4/1 65/4/1 64/4/1
f 67/4/1 65/4/1 66/4/1
f 69/4/1 68/4/1 67/4/1
f 70/4/1 68/4/1 69/4/1
f 71/1/2 72/1/2 73/1/2
f 71/1/2 73/1/2 74/1/2
f 74/1/2 73/1/2 75/1/2
f 74/4/2 75/4/2 76/4/2
f 76/4/2 75/4/2 77/4/2
f 77/4/2 78/4/2 79/4/2
f 79/4/2 78/4/2 80/4/2
f 81/4/2 82/4/2 83/4/2
f 83/4/2 82/4/2 84/4/2
f 85/4/2 86/4/2 89/4/2
f 89/4/2 86/4/2 90/4/2
f 87/4/2 88/4/2 93/4/2
f 93/4/2 88/4/2 94/4/2
f 90/3/2 91/3/2 95/3/2
f 89/3/2 90/3/2 95/3/2
f 95/3/2 91/3/2 96/3/2
f 93/3/2 94/3/2 97/3/2
f 92/3/2 93/3/2 97/3/2
f 97/3/2 94/3/2 98/3/2
f 96/3/2 97/3/2 99/3/2
f 99/3/2 97/3/2 100/3/2
f 101/2/2 102/2/2 103/2/2
f 103/2/2 102/2/2 104/2/2
f 105/2/2 106/2/2 107/2/2
f 107/2/2 106/2/2 108/2/2
f 109/4/2 110/4/2 111/4/2
f 111/4/2 110/4/2 112/4/2
f 111/3/2 112/3/2 113/3/2
f 113/3/2 112/3/2 114/3/2
f 115/2/2 116/2/2 117/2/2
f 117/2/2 116/2/2 118/2/2
f 118/2/2 116/2/2 119/2/2
f 119/2/2 116/2/2 120/2/2
f 121/2/2 122/2/2 123/2/2
f 123/2/2 122/2/2 124/2/2
f 124/1/2 125/1/2 126/1/2
f 126/1/2 125/1/2 127/1/2
f 128/1/2 129/1/2 130/1/2
f 130/1/2 129/1/2 131/1/2
f 128/1/2 130/1/2 132/1/2
f 132/1/2 130/1/2 133/1/2
f 132/4/2 133/4/2 134/4/2
f 134/4/2 133/4/2 135/4/2
f 131/1/2 129/1/2 136/1/2
f 135/4/2 136/4/2 137/4/2
f 136/1/2 129/1/2 138/1/2
f 137/4/2 136/4/2 138/4/2
f 138/1/2 129/1/2 139/1/2
f 139/1/2 129/1/2 140/1/2
f 144/1/3 142/1/3 141/1/3
f 145/4/3 143/4/3 142/4/3
f 145/1/3 142/1/3 144/1/3
f 146/4/3 143/4/3 145/4/3
f 147/1/3 144/1/3 141/1/3
f 149/1/3 147/1/3 141/1/3
f 149/2/3 148/2/3 147/2/3
f 150/2/3 148/2/3 149/2/3
f 151/1/3 149/1/3 141/1/3
f 154/1/3 151/1/3 141/1/3
f 154/1/3 152/1/3 151/1/3
f 155/4/3 153/4/3 152/4/3
f 155/1/3 152/1/3 154/1/3
f 156/4/3 153/4/3 155/4/3
f 161/4/3 158/4/3 157/4/3
f 162/4/3 158/4/3 161/4/3
f 163/2/3 160/2/3 159/2/3
f 164/2/3 160/2/3 163/2/3
f 168/4/3 166/4/3 165/4/3
f 169/3/3 167/3/3 166/3/3
f 169/4/3 166/4/3 168/4/3
f 170/3/3 167/3/3 169/3/3
f 173/2/3 172/2/3 171/2/3
f 174/2/3 172/2/3 173/2/3
f 177/4/3 176/4/3 175/4/3
f 178/4/3 176/4/3 177/4/3
f 182/4/3 180/4/3 179/4/3
f 183/3/3 181/3/3 180/3/3
f 183/4/3 180/4/3 182/4/3
f 184/3/3 181/3/3 183/3/3
f 185/3/3 181/3/3 184/3/3
f 188/3/3 186/3/3 185/3/3
f 189/3/3 186/3/3 188/3/3
f 191/3/3 188/3/3 187/3/3
f 192/4/3 191/4/3 190/4/3
f 193/3/3 188/3/3 191/3/3
f 193/4/3 191/4/3 192/4/3
f 194/3/3 188/3/3 193/3/3
f 199/2/3 196/2/3 195/2/3
f 199/2/3 198/2/3 197/2/3
f 199/2/3 197/2/3 196/2/3
f 203/4/3 202/4/3 201/4/3
f 204/4/3 202/4/3 203/4/3
f 205/2/3 199/2/3 195/2/3
f 205/2/3 200/2/3 199/2/3
f 206/2/3 200/2/3 205/2/3
f 207/2/3 205/2/3 195/2/3
f 208/2/3 205/2/3 207/2/3
f 209/2/3 205/2/3 208/2/3
f 210/2/3 205/2/3 209/2/3
f 215/1/3 212/1/3 211/1/3
f 216/1/3 212/1/3 215/1/3
f 217/1/3 214/1/3 213/1/3
f 218/1/3 214/1/3 217/1/3
f 220/1/3 219/1/3 218/1/3
f 221/1/3 219/1/3 220/1/3
f 227/1/3 223/1/3 222/1/3
f 228/1/3 223/1/3 227/1/3
f 229/1/3 225/1/3 224/1/3
f 230/1/3 225/1/3 229/1/3
f 231/1/3 227/1/3 226/1/3
f 232/1/3 227/1/3 231/1/3
f 233/1/4 234/1/4 236/1/4
f 236/1/4 234/1/4 237/1/4
f 234/4/4 235/4/4 238/4/4
f 237/1/4 234/1/4 238/1/4
f 238/4/4 235/4/4 239/4/4
f 240/1/4 241/1/4 244/1/4
f 241/1/4 242/1/4 244/1/4
f 242/4/4 243/4/4 245/4/4
f 244/1/4 242/1/4 245/1/4
f 245/4/4 243/4/4 246/4/4
f 247/4/4 248/4/4 249/4/4
f 249/4/4 248/4/4 250/4/4
f 251/4/4 252/4/4 254/4/4
f 252/3/4 253/3/4 255/3/4
f 254/4/4 252/4/4 255/4/4
f 255/3/4 253/3/4 256/3/4
f 256/3/4 253/3/4 257/3/4
f 257/3/4 258/3/4 260/3/4
f 260/3/4 258/3/4 261/3/4
f 259/3/4 260/3/4 263/3/4
f 262/4/4 263/4/4 264/4/4
f 263/3/4 260/3/4 265/3/4
f 264/4/4 263/4/4 265/4/4
f 265/3/4 260/3/4 266/3/4
f 267/4/4 268/4/4 270/4/4
f 268/3/4 269/3/4 271/3/4
f 270/4/4 268/4/4 271/4/4
f 271/3/4 269/3/4 272/3/4
f 273/1/4 274/1/4 275/1/4
f 273/1/4 275/1/4 277/1/4
f 275/1/4 276/1/4 277/1/4
f 277/1/4 276/1/4 278/1/4
f 273/1/4 277/1/4 279/1/4
f 279/1/4 277/1/4 280/1/4
f 283/4/5 282/4/5 281/4/5
f 284/4/5 282/4/5 283/4/5
f 289/4/5 286/4/5 285/4/5
f 290/4/5 286/4/5 289/4/5
f 291/4/5 288/4/5 287/4/5
f 292/4/5 288/4/5 291/4/5
f 295/4/5 294/4/5 293/4/5
f 296/4/5 294/4/5 295/4/5
f 300/3/5 298/3/5 297/3/5
f 301/3/5 298/3/5 300/3/5
f 303/3/5 300/3/5 299/3/5
f 303/3/5 302/3/5 301/3/5
f 303/3/5 301/3/5 300/3/5
f 304/3/5 302/3/5 303/3/5
f 305/3/5 302/3/5 304/3/5
f 306/3/5 302/3/5 305/3/5
f 307/3/5 305/3/5 304/3/5
f 308/3/5 305/3/5 307/3/5
f 311/1/5 310/1/5 309/1/5
f 312/1/5 310/1/5 311/1/5
f 313/1/5 311/1/5 309/1/5
f 314/1/5 310/1/5 312/1/5
f 315/1/5 313/1/5 309/1/5
f 315/1/5 314/1/5 313/1/5
f 316/1/5 310/1/5 314/1/5
f 316/1/5 314/1/5 315/1/5
f 321/4/5 318/4/5 317/4/5
f 322/4/5 320/4/5 319/4/5
f 323/4/5 321/4/5 317/4/5
f 324/4/5 321/4/5 323/4/5
f 325/4/5 320/4/5 322/4/5
f 326/4/5 320/4/5 325/4/5
f 327/3/6 328/3/6 330/3/6
f 330/3/6 328/3/6 331/3/6
f 329/3/6 330/3/6 333/3/6
f 333/3/6 330/3/6 334/3/6
f 331/3/6 332/3/6 335/3/6
f 335/3/6 332/3/6 336/3/6
f 334/3/6 335/3/6 337/3/6
f 337/3/6 335/3/6 338/3/6
f 339/1/6 340/1/6 344/1/6
f 344/1/6 340/1/6 345/1/6
f 341/1/6 342/1/6 346/1/6
f 346/1/6 342/1/6 347/1/6
f 343/1/6 344/1/6 349/1/6
f 349/1/6 344/1/6 350/1/6
f 347/1/6 348/1/6 351/1/6
f 351/1/6 348/1/6 352/1/6
f 353/2/6 354/2/6 356/2/6
f 356/2/6 354/2/6 357/2/6
f 355/2/6 356/2/6 359/2/6
f 357/2/6 358/2/6 359/2/6
f 356/2/6 357/2/6 359/2/6
f 359/2/6 358/2/6 360/2/6
f 361/4/6 362/4/6 365/4/6
f 365/4/6 362/4/6 366/4/6
f 363/4/6 364/4/6 367/4/6
f 367/4/6 364/4/6 368/4/6
f 369/4/6 370/4/6 373/4/6
f 371/4/6 372/4/6 374/4/6
f 369/4/6 373/4/6 375/4/6
f 375/4/6 373/4/6 376/4/6
f 374/4/6 372/4/6 377/4/6
f 377/4/6 372/4/6 378/4/6
f 379/2/6 380/2/6 384/2/6
f 384/2/6 380/2/6 385/2/6
f 381/2/6 382/2/6 386/2/6
f 386/2/6 382/2/6 387/2/6
f 383/1/6 384/1/6 389/1/6
f 389/1/6 384/1/6 390/1/6
f 387/1/6 388/1/6 391/1/6
f 391/1/6 388/1/6 392/1/6
f 393/2/6 394/2/6 396/2/6
f 396/2/6 394/2/6 397/2/6
f 395/1/6 396/1/6 399/1/6
f 397/1/6 398/1/6 399/1/6
f 396/1/6 397/1/6 399/1/6
f 399/1/6 398/1/6 400/1/6
