# MagicaVoxel @ Ephtracy

# group
o 

# material
mtllib Office_Chair_Brown_02.mtl
usemtl palette

# normals
vn -1 0 0
vn 1 0 0
vn 0 0 1
vn 0 0 -1
vn 0 -1 0
vn 0 1 0

# texcoords
vt 0.916016 0.5
vt 0.919922 0.5
vt 0.931641 0.5

# verts
v -0.5 0.3 0.5
v -0.5 0.3 0.4
v -0.5 0.3 -0.3
v -0.5 0.3 -0.4
v -0.5 0.4 0.5
v -0.5 0.4 0.4
v -0.5 0.4 0.3
v -0.5 0.4 0.2
v -0.5 0.4 0.1
v -0.5 0.4 0
v -0.5 0.4 -0.1
v -0.5 0.4 -0.2
v -0.5 0.7 0.5
v -0.5 0.7 0.4
v -0.5 0.7 0.3
v -0.5 0.7 0.2
v -0.5 0.7 0.1
v -0.5 0.7 0
v -0.5 0.7 -0.1
v -0.5 0.7 -0.2
v -0.5 0.7 -0.3
v -0.5 0.8 0.4
v -0.5 0.8 -0.3
v -0.5 1.4 -0.3
v -0.5 1.4 -0.4
v -0.4 0 0.1
v -0.4 0 0
v -0.4 0.1 0.1
v -0.4 0.1 0
v -0.4 0.2 0.1
v -0.4 0.2 0
v -0.4 0.3 0.4
v -0.4 0.3 -0.3
v -0.4 0.4 0.4
v -0.4 0.4 0.3
v -0.4 0.4 0.2
v -0.4 0.4 0.1
v -0.4 0.4 0
v -0.4 0.4 -0.1
v -0.4 0.4 -0.2
v -0.4 0.4 -0.3
v -0.4 0.5 0.4
v -0.4 0.5 0.3
v -0.4 0.5 0.2
v -0.4 0.5 0.1
v -0.4 0.5 0
v -0.4 0.5 -0.1
v -0.4 0.7 -0.2
v -0.4 0.7 -0.3
v -0.4 0.8 -0.2
v -0.4 0.8 -0.3
v -0.4 1.4 -0.2
v -0.4 1.4 -0.3
v -0.4 1.4 -0.4
v -0.4 1.5 -0.3
v -0.4 1.5 -0.4
v -0.3 0.4 0.5
v -0.3 0.4 0.4
v -0.3 0.5 0.5
v -0.3 0.5 0.4
v -0.3 0.5 -0.3
v -0.3 0.5 -0.4
v -0.3 1.3 -0.3
v -0.3 1.3 -0.4
v -0.3 1.4 -0.2
v -0.3 1.4 -0.3
v -0.3 1.5 -0.2
v -0.3 1.5 -0.3
v -0.1 0 0.4
v -0.1 0 0.3
v -0.1 0 -0.2
v -0.1 0 -0.3
v -0.1 0.1 0.4
v -0.1 0.1 0.3
v -0.1 0.1 0.1
v -0.1 0.1 0
v -0.1 0.1 -0.2
v -0.1 0.1 -0.3
v -0.1 0.2 0.4
v -0.1 0.2 0.1
v -0.1 0.2 0
v -0.1 0.2 -0.3
v -0.1 0.3 0.1
v -0.1 0.3 0
v -0.1 0.5 -0.3
v -0.1 0.5 -0.4
v -0.1 1.4 -0.3
v -0.1 1.4 -0.4
v 0.1 0.5 -0.3
v 0.1 0.5 -0.4
v 0.1 1.4 -0.3
v 0.1 1.4 -0.4
v 0.2 0 0.1
v 0.2 0 0
v 0.2 0.1 0.1
v 0.2 0.1 0
v 0.3 0.3 -0.3
v 0.3 0.3 -0.4
v 0.3 0.4 0.5
v 0.3 0.4 0.4
v 0.3 0.4 -0.3
v 0.3 0.4 -0.4
v 0.3 0.5 0.4
v 0.3 0.5 0.3
v 0.3 0.5 0.2
v 0.3 0.5 0.1
v 0.3 0.5 0
v 0.3 0.5 -0.1
v 0.3 0.5 -0.2
v 0.3 0.5 -0.3
v 0.3 0.5 -0.4
v 0.3 0.7 0.5
v 0.3 0.7 0.4
v 0.3 0.7 0.3
v 0.3 0.7 0.2
v 0.3 0.7 0.1
v 0.3 0.7 0
v 0.3 0.7 -0.1
v 0.3 0.7 -0.2
v 0.3 0.8 0.4
v 0.3 0.8 -0.2
v 0.3 1.3 -0.3
v 0.3 1.3 -0.4
v -0.4 0.3 -0.3
v -0.4 0.3 -0.4
v -0.4 0.4 0.5
v -0.4 0.4 0.4
v -0.4 0.4 -0.3
v -0.4 0.4 -0.4
v -0.4 0.5 0.4
v -0.4 0.5 0.3
v -0.4 0.5 0.2
v -0.4 0.5 0.1
v -0.4 0.5 0
v -0.4 0.5 -0.1
v -0.4 0.5 -0.2
v -0.4 0.5 -0.3
v -0.4 0.5 -0.4
v -0.4 0.7 0.5
v -0.4 0.7 0.4
v -0.4 0.7 0.3
v -0.4 0.7 0.2
v -0.4 0.7 0.1
v -0.4 0.7 0
v -0.4 0.7 -0.1
v -0.4 0.7 -0.2
v -0.4 0.8 0.4
v -0.4 0.8 -0.2
v -0.4 1.3 -0.3
v -0.4 1.3 -0.4
v -0.3 0 0.1
v -0.3 0 0
v -0.3 0.1 0.1
v -0.3 0.1 0
v -0.2 0.5 -0.3
v -0.2 0.5 -0.4
v -0.2 1.4 -0.3
v -0.2 1.4 -0.4
v 0 0 0.4
v 0 0 0.3
v 0 0 -0.2
v 0 0 -0.3
v 0 0.1 0.4
v 0 0.1 0.3
v 0 0.1 0.1
v 0 0.1 0
v 0 0.1 -0.2
v 0 0.1 -0.3
v 0 0.2 0.4
v 0 0.2 0.1
v 0 0.2 0
v 0 0.2 -0.3
v 0 0.3 0.1
v 0 0.3 0
v 0 0.5 -0.3
v 0 0.5 -0.4
v 0 1.4 -0.3
v 0 1.4 -0.4
v 0.2 0.4 0.5
v 0.2 0.4 0.4
v 0.2 0.5 0.5
v 0.2 0.5 0.4
v 0.2 0.5 -0.3
v 0.2 0.5 -0.4
v 0.2 1.3 -0.3
v 0.2 1.3 -0.4
v 0.2 1.4 -0.2
v 0.2 1.4 -0.3
v 0.2 1.5 -0.2
v 0.2 1.5 -0.3
v 0.3 0 0.1
v 0.3 0 0
v 0.3 0.1 0.1
v 0.3 0.1 0
v 0.3 0.2 0.1
v 0.3 0.2 0
v 0.3 0.3 0.4
v 0.3 0.3 -0.3
v 0.3 0.4 0.4
v 0.3 0.4 0.3
v 0.3 0.4 0.2
v 0.3 0.4 0.1
v 0.3 0.4 0
v 0.3 0.4 -0.1
v 0.3 0.4 -0.2
v 0.3 0.4 -0.3
v 0.3 0.5 0.4
v 0.3 0.5 0.3
v 0.3 0.5 0.2
v 0.3 0.5 0.1
v 0.3 0.5 0
v 0.3 0.5 -0.1
v 0.3 0.7 -0.2
v 0.3 0.7 -0.3
v 0.3 0.8 -0.2
v 0.3 0.8 -0.3
v 0.3 1.4 -0.2
v 0.3 1.4 -0.3
v 0.3 1.4 -0.4
v 0.3 1.5 -0.3
v 0.3 1.5 -0.4
v 0.4 0.3 0.5
v 0.4 0.3 0.4
v 0.4 0.3 -0.3
v 0.4 0.3 -0.4
v 0.4 0.4 0.5
v 0.4 0.4 0.4
v 0.4 0.4 0.3
v 0.4 0.4 0.2
v 0.4 0.4 0.1
v 0.4 0.4 0
v 0.4 0.4 -0.1
v 0.4 0.4 -0.2
v 0.4 0.7 0.5
v 0.4 0.7 0.4
v 0.4 0.7 0.3
v 0.4 0.7 0.2
v 0.4 0.7 0.1
v 0.4 0.7 0
v 0.4 0.7 -0.1
v 0.4 0.7 -0.2
v 0.4 0.7 -0.3
v 0.4 0.8 0.4
v 0.4 0.8 -0.3
v 0.4 1.4 -0.3
v 0.4 1.4 -0.4
v -0.5 0.3 0.5
v -0.5 0.4 0.5
v -0.5 0.7 0.5
v -0.4 0.4 0.5
v -0.4 0.7 0.5
v -0.3 0.4 0.5
v -0.3 0.5 0.5
v 0.2 0.4 0.5
v 0.2 0.5 0.5
v 0.3 0.4 0.5
v 0.3 0.7 0.5
v 0.4 0.3 0.5
v 0.4 0.4 0.5
v 0.4 0.7 0.5
v -0.5 0.7 0.4
v -0.5 0.8 0.4
v -0.4 0.4 0.4
v -0.4 0.5 0.4
v -0.4 0.7 0.4
v -0.4 0.8 0.4
v -0.3 0.4 0.4
v -0.3 0.5 0.4
v -0.1 0 0.4
v -0.1 0.1 0.4
v -0.1 0.2 0.4
v 0 0 0.4
v 0 0.1 0.4
v 0 0.2 0.4
v 0.2 0.4 0.4
v 0.2 0.5 0.4
v 0.3 0.4 0.4
v 0.3 0.5 0.4
v 0.3 0.7 0.4
v 0.3 0.8 0.4
v 0.4 0.7 0.4
v 0.4 0.8 0.4
v -0.5 0.4 0.3
v -0.5 0.7 0.3
v -0.4 0.4 0.3
v -0.4 0.5 0.3
v -0.4 0.7 0.3
v 0.3 0.4 0.3
v 0.3 0.5 0.3
v 0.3 0.7 0.3
v 0.4 0.4 0.3
v 0.4 0.7 0.3
v -0.5 0.4 0.1
v -0.5 0.7 0.1
v -0.4 0 0.1
v -0.4 0.1 0.1
v -0.4 0.2 0.1
v -0.4 0.4 0.1
v -0.4 0.5 0.1
v -0.4 0.7 0.1
v -0.3 0 0.1
v -0.3 0.1 0.1
v -0.1 0.1 0.1
v -0.1 0.2 0.1
v -0.1 0.3 0.1
v 0 0.1 0.1
v 0 0.2 0.1
v 0 0.3 0.1
v 0.2 0 0.1
v 0.2 0.1 0.1
v 0.3 0 0.1
v 0.3 0.1 0.1
v 0.3 0.2 0.1
v 0.3 0.4 0.1
v 0.3 0.5 0.1
v 0.3 0.7 0.1
v 0.4 0.4 0.1
v 0.4 0.7 0.1
v -0.5 0.4 -0.1
v -0.5 0.7 -0.1
v -0.4 0.4 -0.1
v -0.4 0.5 -0.1
v -0.4 0.7 -0.1
v 0.3 0.4 -0.1
v 0.3 0.5 -0.1
v 0.3 0.7 -0.1
v 0.4 0.4 -0.1
v 0.4 0.7 -0.1
v -0.4 0.5 -0.2
v -0.4 0.7 -0.2
v -0.4 0.8 -0.2
v -0.4 1.4 -0.2
v -0.3 1.4 -0.2
v -0.3 1.5 -0.2
v -0.1 0 -0.2
v -0.1 0.1 -0.2
v 0 0 -0.2
v 0 0.1 -0.2
v 0.2 1.4 -0.2
v 0.2 1.5 -0.2
v 0.3 0.5 -0.2
v 0.3 0.7 -0.2
v 0.3 0.8 -0.2
v 0.3 1.4 -0.2
v -0.5 0.3 -0.3
v -0.5 0.7 -0.3
v -0.5 0.8 -0.3
v -0.5 1.4 -0.3
v -0.4 0.3 -0.3
v -0.4 0.4 -0.3
v -0.4 0.7 -0.3
v -0.4 0.8 -0.3
v -0.4 1.4 -0.3
v -0.4 1.5 -0.3
v -0.3 1.4 -0.3
v -0.3 1.5 -0.3
v 0.2 1.4 -0.3
v 0.2 1.5 -0.3
v 0.3 0.3 -0.3
v 0.3 0.4 -0.3
v 0.3 0.7 -0.3
v 0.3 0.8 -0.3
v 0.3 1.4 -0.3
v 0.3 1.5 -0.3
v 0.4 0.3 -0.3
v 0.4 0.7 -0.3
v 0.4 0.8 -0.3
v 0.4 1.4 -0.3
v -0.5 0.3 0.4
v -0.5 0.4 0.4
v -0.5 0.7 0.4
v -0.4 0.3 0.4
v -0.4 0.4 0.4
v -0.4 0.5 0.4
v -0.4 0.7 0.4
v 0.3 0.3 0.4
v 0.3 0.4 0.4
v 0.3 0.5 0.4
v 0.3 0.7 0.4
v 0.4 0.3 0.4
v 0.4 0.4 0.4
v 0.4 0.7 0.4
v -0.1 0 0.3
v -0.1 0.1 0.3
v 0 0 0.3
v 0 0.1 0.3
v -0.5 0.4 0.2
v -0.5 0.7 0.2
v -0.4 0.4 0.2
v -0.4 0.5 0.2
v -0.4 0.7 0.2
v 0.3 0.4 0.2
v 0.3 0.5 0.2
v 0.3 0.7 0.2
v 0.4 0.4 0.2
v 0.4 0.7 0.2
v -0.5 0.4 0
v -0.5 0.7 0
v -0.4 0 0
v -0.4 0.1 0
v -0.4 0.2 0
v -0.4 0.4 0
v -0.4 0.5 0
v -0.4 0.7 0
v -0.3 0 0
v -0.3 0.1 0
v -0.1 0.1 0
v -0.1 0.2 0
v -0.1 0.3 0
v 0 0.1 0
v 0 0.2 0
v 0 0.3 0
v 0.2 0 0
v 0.2 0.1 0
v 0.3 0 0
v 0.3 0.1 0
v 0.3 0.2 0
v 0.3 0.4 0
v 0.3 0.5 0
v 0.3 0.7 0
v 0.4 0.4 0
v 0.4 0.7 0
v -0.5 0.4 -0.2
v -0.5 0.7 -0.2
v -0.4 0.4 -0.2
v -0.4 0.7 -0.2
v 0.3 0.4 -0.2
v 0.3 0.7 -0.2
v 0.4 0.4 -0.2
v 0.4 0.7 -0.2
v -0.4 0.3 -0.3
v -0.4 0.4 -0.3
v -0.4 0.5 -0.3
v -0.4 1.3 -0.3
v -0.3 0.5 -0.3
v -0.3 1.3 -0.3
v -0.2 0.5 -0.3
v -0.2 1.4 -0.3
v -0.1 0 -0.3
v -0.1 0.1 -0.3
v -0.1 0.2 -0.3
v -0.1 0.5 -0.3
v -0.1 1.4 -0.3
v 0 0 -0.3
v 0 0.1 -0.3
v 0 0.2 -0.3
v 0 0.5 -0.3
v 0 1.4 -0.3
v 0.1 0.5 -0.3
v 0.1 1.4 -0.3
v 0.2 0.5 -0.3
v 0.2 1.3 -0.3
v 0.3 0.3 -0.3
v 0.3 0.4 -0.3
v 0.3 0.5 -0.3
v 0.3 1.3 -0.3
v -0.5 0.3 -0.4
v -0.5 1.4 -0.4
v -0.4 0.3 -0.4
v -0.4 0.4 -0.4
v -0.4 0.5 -0.4
v -0.4 1.3 -0.4
v -0.4 1.4 -0.4
v -0.4 1.5 -0.4
v -0.3 0.5 -0.4
v -0.3 1.3 -0.4
v -0.2 0.5 -0.4
v -0.2 1.4 -0.4
v -0.1 0.5 -0.4
v -0.1 1.4 -0.4
v 0 0.5 -0.4
v 0 1.4 -0.4
v 0.1 0.5 -0.4
v 0.1 1.4 -0.4
v 0.2 0.5 -0.4
v 0.2 1.3 -0.4
v 0.3 0.3 -0.4
v 0.3 0.4 -0.4
v 0.3 0.5 -0.4
v 0.3 1.3 -0.4
v 0.3 1.4 -0.4
v 0.3 1.5 -0.4
v 0.4 0.3 -0.4
v 0.4 1.4 -0.4
v -0.1 0 0.4
v 0 0 0.4
v -0.1 0 0.3
v 0 0 0.3
v -0.4 0 0.1
v -0.3 0 0.1
v 0.2 0 0.1
v 0.3 0 0.1
v -0.4 0 0
v -0.3 0 0
v 0.2 0 0
v 0.3 0 0
v -0.1 0 -0.2
v 0 0 -0.2
v -0.1 0 -0.3
v 0 0 -0.3
v -0.1 0.1 0.3
v 0 0.1 0.3
v -0.3 0.1 0.1
v -0.1 0.1 0.1
v 0 0.1 0.1
v 0.2 0.1 0.1
v -0.3 0.1 0
v -0.1 0.1 0
v 0 0.1 0
v 0.2 0.1 0
v -0.1 0.1 -0.2
v 0 0.1 -0.2
v -0.5 0.3 0.5
v 0.4 0.3 0.5
v -0.5 0.3 0.4
v -0.4 0.3 0.4
v 0.3 0.3 0.4
v 0.4 0.3 0.4
v -0.1 0.3 0.1
v 0 0.3 0.1
v -0.1 0.3 0
v 0 0.3 0
v -0.5 0.3 -0.3
v -0.4 0.3 -0.3
v 0.3 0.3 -0.3
v 0.4 0.3 -0.3
v -0.5 0.3 -0.4
v -0.4 0.3 -0.4
v 0.3 0.3 -0.4
v 0.4 0.3 -0.4
v -0.5 0.4 0.3
v -0.4 0.4 0.3
v 0.3 0.4 0.3
v 0.4 0.4 0.3
v -0.5 0.4 0.2
v -0.4 0.4 0.2
v 0.3 0.4 0.2
v 0.4 0.4 0.2
v -0.5 0.4 0.1
v -0.4 0.4 0.1
v 0.3 0.4 0.1
v 0.4 0.4 0.1
v -0.5 0.4 0
v -0.4 0.4 0
v 0.3 0.4 0
v 0.4 0.4 0
v -0.5 0.4 -0.1
v -0.4 0.4 -0.1
v 0.3 0.4 -0.1
v 0.4 0.4 -0.1
v -0.5 0.4 -0.2
v -0.4 0.4 -0.2
v 0.3 0.4 -0.2
v 0.4 0.4 -0.2
v -0.4 0.4 -0.3
v 0.3 0.4 -0.3
v -0.4 0.4 -0.4
v 0.3 0.4 -0.4
v -0.5 0.7 0.4
v -0.4 0.7 0.4
v 0.3 0.7 0.4
v 0.4 0.7 0.4
v -0.5 0.7 0.3
v -0.4 0.7 0.3
v 0.3 0.7 0.3
v 0.4 0.7 0.3
v -0.5 0.7 0.2
v -0.4 0.7 0.2
v 0.3 0.7 0.2
v 0.4 0.7 0.2
v -0.5 0.7 0.1
v -0.4 0.7 0.1
v 0.3 0.7 0.1
v 0.4 0.7 0.1
v -0.5 0.7 0
v -0.4 0.7 0
v 0.3 0.7 0
v 0.4 0.7 0
v -0.5 0.7 -0.1
v -0.4 0.7 -0.1
v 0.3 0.7 -0.1
v 0.4 0.7 -0.1
v -0.5 0.7 -0.2
v -0.4 0.7 -0.2
v 0.3 0.7 -0.2
v 0.4 0.7 -0.2
v -0.5 0.7 -0.3
v -0.4 0.7 -0.3
v 0.3 0.7 -0.3
v 0.4 0.7 -0.3
v -0.4 1.3 -0.3
v -0.3 1.3 -0.3
v 0.2 1.3 -0.3
v 0.3 1.3 -0.3
v -0.4 1.3 -0.4
v -0.3 1.3 -0.4
v 0.2 1.3 -0.4
v 0.3 1.3 -0.4
v -0.2 1.4 -0.3
v -0.1 1.4 -0.3
v 0 1.4 -0.3
v 0.1 1.4 -0.3
v -0.2 1.4 -0.4
v -0.1 1.4 -0.4
v 0 1.4 -0.4
v 0.1 1.4 -0.4
v -0.1 0.2 0.4
v 0 0.2 0.4
v -0.4 0.2 0.1
v -0.1 0.2 0.1
v 0 0.2 0.1
v 0.3 0.2 0.1
v -0.4 0.2 0
v -0.1 0.2 0
v 0 0.2 0
v 0.3 0.2 0
v -0.1 0.2 -0.3
v 0 0.2 -0.3
v -0.4 0.4 0.5
v -0.3 0.4 0.5
v 0.2 0.4 0.5
v 0.3 0.4 0.5
v -0.4 0.4 0.4
v -0.3 0.4 0.4
v 0.2 0.4 0.4
v 0.3 0.4 0.4
v -0.3 0.5 0.5
v 0.2 0.5 0.5
v -0.4 0.5 0.4
v -0.3 0.5 0.4
v 0.2 0.5 0.4
v 0.3 0.5 0.4
v -0.4 0.5 0.3
v 0.3 0.5 0.3
v -0.4 0.5 0.2
v 0.3 0.5 0.2
v -0.4 0.5 0.1
v 0.3 0.5 0.1
v -0.4 0.5 0
v 0.3 0.5 0
v -0.4 0.5 -0.1
v 0.3 0.5 -0.1
v -0.4 0.5 -0.2
v 0.3 0.5 -0.2
v -0.4 0.5 -0.3
v -0.3 0.5 -0.3
v -0.2 0.5 -0.3
v -0.1 0.5 -0.3
v 0 0.5 -0.3
v 0.1 0.5 -0.3
v 0.2 0.5 -0.3
v 0.3 0.5 -0.3
v -0.4 0.5 -0.4
v -0.3 0.5 -0.4
v -0.2 0.5 -0.4
v -0.1 0.5 -0.4
v 0 0.5 -0.4
v 0.1 0.5 -0.4
v 0.2 0.5 -0.4
v 0.3 0.5 -0.4
v -0.5 0.7 0.5
v -0.4 0.7 0.5
v 0.3 0.7 0.5
v 0.4 0.7 0.5
v -0.5 0.7 0.4
v -0.4 0.7 0.4
v 0.3 0.7 0.4
v 0.4 0.7 0.4
v -0.5 0.8 0.4
v -0.4 0.8 0.4
v 0.3 0.8 0.4
v 0.4 0.8 0.4
v -0.4 0.8 -0.2
v 0.3 0.8 -0.2
v -0.5 0.8 -0.3
v -0.4 0.8 -0.3
v 0.3 0.8 -0.3
v 0.4 0.8 -0.3
v -0.4 1.4 -0.2
v -0.3 1.4 -0.2
v 0.2 1.4 -0.2
v 0.3 1.4 -0.2
v -0.5 1.4 -0.3
v -0.4 1.4 -0.3
v -0.3 1.4 -0.3
v 0.2 1.4 -0.3
v 0.3 1.4 -0.3
v 0.4 1.4 -0.3
v -0.5 1.4 -0.4
v -0.4 1.4 -0.4
v 0.3 1.4 -0.4
v 0.4 1.4 -0.4
v -0.3 1.5 -0.2
v 0.2 1.5 -0.2
v -0.4 1.5 -0.3
v -0.3 1.5 -0.3
v 0.2 1.5 -0.3
v 0.3 1.5 -0.3
v -0.4 1.5 -0.4
v 0.3 1.5 -0.4

# faces
f 5/1/1 2/1/1 1/1/1
f 6/1/1 2/1/1 5/1/1
f 13/2/1 6/2/1 5/2/1
f 14/2/1 6/2/1 13/2/1
f 15/1/1 8/1/1 7/1/1
f 16/1/1 8/1/1 15/1/1
f 17/1/1 10/1/1 9/1/1
f 18/1/1 10/1/1 17/1/1
f 19/1/1 12/1/1 11/1/1
f 20/1/1 12/1/1 19/1/1
f 21/1/1 4/1/1 3/1/1
f 22/2/1 20/2/1 19/2/1
f 22/2/1 21/2/1 20/2/1
f 22/2/1 18/2/1 17/2/1
f 22/2/1 19/2/1 18/2/1
f 22/2/1 16/2/1 15/2/1
f 22/2/1 17/2/1 16/2/1
f 22/2/1 15/2/1 14/2/1
f 23/1/1 4/1/1 21/1/1
f 23/2/1 21/2/1 22/2/1
f 24/1/1 4/1/1 23/1/1
f 25/1/1 4/1/1 24/1/1
f 28/3/1 27/3/1 26/3/1
f 29/3/1 27/3/1 28/3/1
f 30/2/1 29/2/1 28/2/1
f 31/2/1 29/2/1 30/2/1
f 34/1/1 33/1/1 32/1/1
f 35/1/1 33/1/1 34/1/1
f 36/1/1 33/1/1 35/1/1
f 37/1/1 33/1/1 36/1/1
f 38/1/1 33/1/1 37/1/1
f 39/1/1 33/1/1 38/1/1
f 40/1/1 33/1/1 39/1/1
f 41/1/1 33/1/1 40/1/1
f 42/3/1 35/3/1 34/3/1
f 43/3/1 35/3/1 42/3/1
f 44/3/1 37/3/1 36/3/1
f 45/3/1 37/3/1 44/3/1
f 46/3/1 39/3/1 38/3/1
f 47/3/1 39/3/1 46/3/1
f 48/3/1 41/3/1 40/3/1
f 49/3/1 41/3/1 48/3/1
f 52/3/1 51/3/1 50/3/1
f 53/3/1 51/3/1 52/3/1
f 55/1/1 54/1/1 53/1/1
f 56/1/1 54/1/1 55/1/1
f 59/3/1 58/3/1 57/3/1
f 60/3/1 58/3/1 59/3/1
f 63/1/1 62/1/1 61/1/1
f 64/1/1 62/1/1 63/1/1
f 67/3/1 66/3/1 65/3/1
f 68/3/1 66/3/1 67/3/1
f 73/3/1 70/3/1 69/3/1
f 74/3/1 70/3/1 73/3/1
f 77/3/1 72/3/1 71/3/1
f 78/3/1 72/3/1 77/3/1
f 79/2/1 75/2/1 74/2/1
f 79/2/1 74/2/1 73/2/1
f 80/2/1 75/2/1 79/2/1
f 81/2/1 78/2/1 77/2/1
f 81/2/1 77/2/1 76/2/1
f 82/2/1 78/2/1 81/2/1
f 83/2/1 81/2/1 80/2/1
f 84/2/1 81/2/1 83/2/1
f 87/1/1 86/1/1 85/1/1
f 88/1/1 86/1/1 87/1/1
f 91/1/1 90/1/1 89/1/1
f 92/1/1 90/1/1 91/1/1
f 95/3/1 94/3/1 93/3/1
f 96/3/1 94/3/1 95/3/1
f 101/1/1 98/1/1 97/1/1
f 102/1/1 98/1/1 101/1/1
f 103/2/1 100/2/1 99/2/1
f 112/2/1 103/2/1 99/2/1
f 113/2/1 103/2/1 112/2/1
f 114/1/1 105/1/1 104/1/1
f 115/1/1 105/1/1 114/1/1
f 116/1/1 107/1/1 106/1/1
f 117/1/1 107/1/1 116/1/1
f 118/1/1 109/1/1 108/1/1
f 119/1/1 109/1/1 118/1/1
f 120/2/1 115/2/1 114/2/1
f 120/2/1 119/2/1 118/2/1
f 120/2/1 118/2/1 117/2/1
f 120/2/1 117/2/1 116/2/1
f 120/2/1 116/2/1 115/2/1
f 120/2/1 114/2/1 113/2/1
f 121/2/1 119/2/1 120/2/1
f 122/1/1 111/1/1 110/1/1
f 123/1/1 111/1/1 122/1/1
f 124/1/2 125/1/2 128/1/2
f 128/1/2 125/1/2 129/1/2
f 126/2/2 127/2/2 130/2/2
f 126/2/2 130/2/2 139/2/2
f 139/2/2 130/2/2 140/2/2
f 131/1/2 132/1/2 141/1/2
f 141/1/2 132/1/2 142/1/2
f 133/1/2 134/1/2 143/1/2
f 143/1/2 134/1/2 144/1/2
f 135/1/2 136/1/2 145/1/2
f 145/1/2 136/1/2 146/1/2
f 141/2/2 142/2/2 147/2/2
f 145/2/2 146/2/2 147/2/2
f 144/2/2 145/2/2 147/2/2
f 143/2/2 144/2/2 147/2/2
f 142/2/2 143/2/2 147/2/2
f 140/2/2 141/2/2 147/2/2
f 147/2/2 146/2/2 148/2/2
f 137/1/2 138/1/2 149/1/2
f 149/1/2 138/1/2 150/1/2
f 151/3/2 152/3/2 153/3/2
f 153/3/2 152/3/2 154/3/2
f 155/1/2 156/1/2 157/1/2
f 157/1/2 156/1/2 158/1/2
f 159/3/2 160/3/2 163/3/2
f 163/3/2 160/3/2 164/3/2
f 161/3/2 162/3/2 167/3/2
f 167/3/2 162/3/2 168/3/2
f 164/2/2 165/2/2 169/2/2
f 163/2/2 164/2/2 169/2/2
f 169/2/2 165/2/2 170/2/2
f 167/2/2 168/2/2 171/2/2
f 166/2/2 167/2/2 171/2/2
f 171/2/2 168/2/2 172/2/2
f 170/2/2 171/2/2 173/2/2
f 173/2/2 171/2/2 174/2/2
f 175/1/2 176/1/2 177/1/2
f 177/1/2 176/1/2 178/1/2
f 179/3/2 180/3/2 181/3/2
f 181/3/2 180/3/2 182/3/2
f 183/1/2 184/1/2 185/1/2
f 185/1/2 184/1/2 186/1/2
f 187/3/2 188/3/2 189/3/2
f 189/3/2 188/3/2 190/3/2
f 191/3/2 192/3/2 193/3/2
f 193/3/2 192/3/2 194/3/2
f 193/2/2 194/2/2 195/2/2
f 195/2/2 194/2/2 196/2/2
f 197/1/2 198/1/2 199/1/2
f 199/1/2 198/1/2 200/1/2
f 200/1/2 198/1/2 201/1/2
f 201/1/2 198/1/2 202/1/2
f 202/1/2 198/1/2 203/1/2
f 203/1/2 198/1/2 204/1/2
f 204/1/2 198/1/2 205/1/2
f 205/1/2 198/1/2 206/1/2
f 199/3/2 200/3/2 207/3/2
f 207/3/2 200/3/2 208/3/2
f 201/3/2 202/3/2 209/3/2
f 209/3/2 202/3/2 210/3/2
f 203/3/2 204/3/2 211/3/2
f 211/3/2 204/3/2 212/3/2
f 205/3/2 206/3/2 213/3/2
f 213/3/2 206/3/2 214/3/2
f 215/3/2 216/3/2 217/3/2
f 217/3/2 216/3/2 218/3/2
f 218/1/2 219/1/2 220/1/2
f 220/1/2 219/1/2 221/1/2
f 222/1/2 223/1/2 226/1/2
f 226/1/2 223/1/2 227/1/2
f 226/2/2 227/2/2 234/2/2
f 234/2/2 227/2/2 235/2/2
f 228/1/2 229/1/2 236/1/2
f 236/1/2 229/1/2 237/1/2
f 230/1/2 231/1/2 238/1/2
f 238/1/2 231/1/2 239/1/2
f 232/1/2 233/1/2 240/1/2
f 240/1/2 233/1/2 241/1/2
f 224/1/2 225/1/2 242/1/2
f 240/2/2 241/2/2 243/2/2
f 241/2/2 242/2/2 243/2/2
f 238/2/2 239/2/2 243/2/2
f 239/2/2 240/2/2 243/2/2
f 236/2/2 237/2/2 243/2/2
f 237/2/2 238/2/2 243/2/2
f 235/2/2 236/2/2 243/2/2
f 242/1/2 225/1/2 244/1/2
f 243/2/2 242/2/2 244/2/2
f 244/1/2 225/1/2 245/1/2
f 245/1/2 225/1/2 246/1/2
f 250/1/3 248/1/3 247/1/3
f 250/2/3 249/2/3 248/2/3
f 251/2/3 249/2/3 250/2/3
f 252/1/3 250/1/3 247/1/3
f 254/1/3 252/1/3 247/1/3
f 254/3/3 253/3/3 252/3/3
f 255/3/3 253/3/3 254/3/3
f 256/1/3 254/1/3 247/1/3
f 258/1/3 256/1/3 247/1/3
f 259/2/3 257/2/3 256/2/3
f 259/1/3 256/1/3 258/1/3
f 260/2/3 257/2/3 259/2/3
f 265/2/3 262/2/3 261/2/3
f 266/2/3 262/2/3 265/2/3
f 267/3/3 264/3/3 263/3/3
f 268/3/3 264/3/3 267/3/3
f 272/3/3 270/3/3 269/3/3
f 273/2/3 271/2/3 270/2/3
f 273/3/3 270/3/3 272/3/3
f 274/2/3 271/2/3 273/2/3
f 277/3/3 276/3/3 275/3/3
f 278/3/3 276/3/3 277/3/3
f 281/2/3 280/2/3 279/2/3
f 282/2/3 280/2/3 281/2/3
f 285/1/3 284/1/3 283/1/3
f 286/1/3 284/1/3 285/1/3
f 287/1/3 284/1/3 286/1/3
f 291/1/3 289/1/3 288/1/3
f 291/1/3 290/1/3 289/1/3
f 292/1/3 290/1/3 291/1/3
f 298/1/3 294/1/3 293/1/3
f 299/1/3 294/1/3 298/1/3
f 300/1/3 294/1/3 299/1/3
f 301/3/3 296/3/3 295/3/3
f 302/2/3 297/2/3 296/2/3
f 302/3/3 296/3/3 301/3/3
f 303/2/3 297/2/3 302/2/3
f 304/2/3 297/2/3 303/2/3
f 307/2/3 305/2/3 304/2/3
f 308/2/3 305/2/3 307/2/3
f 310/2/3 307/2/3 306/2/3
f 311/3/3 310/3/3 309/3/3
f 312/2/3 307/2/3 310/2/3
f 312/3/3 310/3/3 311/3/3
f 313/2/3 307/2/3 312/2/3
f 317/1/3 316/1/3 315/1/3
f 317/1/3 315/1/3 314/1/3
f 318/1/3 316/1/3 317/1/3
f 321/1/3 320/1/3 319/1/3
f 322/1/3 320/1/3 321/1/3
f 323/1/3 320/1/3 322/1/3
f 327/1/3 325/1/3 324/1/3
f 327/1/3 326/1/3 325/1/3
f 328/1/3 326/1/3 327/1/3
f 333/3/3 330/3/3 329/3/3
f 333/3/3 332/3/3 331/3/3
f 333/3/3 331/3/3 330/3/3
f 337/3/3 336/3/3 335/3/3
f 338/3/3 336/3/3 337/3/3
f 339/3/3 333/3/3 329/3/3
f 339/3/3 334/3/3 333/3/3
f 340/3/3 334/3/3 339/3/3
f 341/3/3 339/3/3 329/3/3
f 342/3/3 339/3/3 341/3/3
f 343/3/3 339/3/3 342/3/3
f 344/3/3 339/3/3 343/3/3
f 349/1/3 346/1/3 345/1/3
f 350/1/3 346/1/3 349/1/3
f 351/1/3 346/1/3 350/1/3
f 352/1/3 348/1/3 347/1/3
f 353/1/3 348/1/3 352/1/3
f 355/1/3 354/1/3 353/1/3
f 356/1/3 354/1/3 355/1/3
f 363/1/3 358/1/3 357/1/3
f 364/1/3 358/1/3 363/1/3
f 365/1/3 361/1/3 360/1/3
f 365/1/3 360/1/3 359/1/3
f 366/1/3 361/1/3 365/1/3
f 367/1/3 363/1/3 362/1/3
f 368/1/3 363/1/3 367/1/3
f 369/1/4 370/1/4 372/1/4
f 370/2/4 371/2/4 373/2/4
f 372/1/4 370/1/4 373/1/4
f 373/2/4 371/2/4 374/2/4
f 374/2/4 371/2/4 375/2/4
f 376/1/4 377/1/4 380/1/4
f 378/2/4 379/2/4 381/2/4
f 380/1/4 377/1/4 381/1/4
f 377/2/4 378/2/4 381/2/4
f 381/2/4 379/2/4 382/2/4
f 383/3/4 384/3/4 385/3/4
f 385/3/4 384/3/4 386/3/4
f 387/1/4 388/1/4 389/1/4
f 389/1/4 388/1/4 390/1/4
f 390/1/4 388/1/4 391/1/4
f 392/1/4 393/1/4 395/1/4
f 393/1/4 394/1/4 395/1/4
f 395/1/4 394/1/4 396/1/4
f 397/1/4 398/1/4 402/1/4
f 402/1/4 398/1/4 403/1/4
f 403/1/4 398/1/4 404/1/4
f 399/3/4 400/3/4 405/3/4
f 400/2/4 401/2/4 406/2/4
f 405/3/4 400/3/4 406/3/4
f 406/2/4 401/2/4 407/2/4
f 407/2/4 401/2/4 408/2/4
f 408/2/4 409/2/4 411/2/4
f 411/2/4 409/2/4 412/2/4
f 410/2/4 411/2/4 414/2/4
f 413/3/4 414/3/4 415/3/4
f 414/2/4 411/2/4 416/2/4
f 415/3/4 414/3/4 416/3/4
f 416/2/4 411/2/4 417/2/4
f 419/1/4 420/1/4 421/1/4
f 418/1/4 419/1/4 421/1/4
f 421/1/4 420/1/4 422/1/4
f 423/1/4 424/1/4 425/1/4
f 425/1/4 424/1/4 426/1/4
f 427/1/4 428/1/4 429/1/4
f 429/1/4 428/1/4 430/1/4
f 433/3/4 434/3/4 435/3/4
f 435/3/4 434/3/4 436/3/4
f 437/3/4 438/3/4 442/3/4
f 442/3/4 438/3/4 443/3/4
f 439/3/4 440/3/4 444/3/4
f 440/2/4 441/2/4 445/2/4
f 444/3/4 440/3/4 445/3/4
f 445/2/4 441/2/4 446/2/4
f 447/3/4 448/3/4 449/3/4
f 449/3/4 448/3/4 450/3/4
f 431/1/4 432/1/4 453/1/4
f 453/1/4 432/1/4 454/1/4
f 451/3/4 452/3/4 455/3/4
f 455/3/4 452/3/4 456/3/4
f 457/1/4 458/1/4 459/1/4
f 459/1/4 458/1/4 460/1/4
f 460/1/4 458/1/4 461/1/4
f 461/1/4 458/1/4 462/1/4
f 462/1/4 458/1/4 463/1/4
f 460/1/4 461/1/4 465/1/4
f 463/1/4 464/1/4 466/1/4
f 462/1/4 463/1/4 466/1/4
f 460/1/4 465/1/4 467/1/4
f 465/1/4 466/1/4 467/1/4
f 466/1/4 464/1/4 468/1/4
f 467/1/4 466/1/4 468/1/4
f 460/1/4 467/1/4 469/1/4
f 468/1/4 464/1/4 470/1/4
f 460/1/4 469/1/4 471/1/4
f 469/1/4 470/1/4 471/1/4
f 470/1/4 464/1/4 472/1/4
f 471/1/4 470/1/4 472/1/4
f 460/1/4 471/1/4 473/1/4
f 472/1/4 464/1/4 474/1/4
f 460/1/4 473/1/4 475/1/4
f 473/1/4 474/1/4 475/1/4
f 475/1/4 474/1/4 476/1/4
f 460/1/4 475/1/4 478/1/4
f 478/1/4 475/1/4 479/1/4
f 476/1/4 474/1/4 480/1/4
f 474/1/4 464/1/4 481/1/4
f 480/1/4 474/1/4 481/1/4
f 481/1/4 464/1/4 482/1/4
f 479/1/4 480/1/4 483/1/4
f 478/1/4 479/1/4 483/1/4
f 480/1/4 481/1/4 483/1/4
f 477/1/4 478/1/4 483/1/4
f 483/1/4 481/1/4 484/1/4
f 487/3/5 486/3/5 485/3/5
f 488/3/5 486/3/5 487/3/5
f 493/3/5 490/3/5 489/3/5
f 494/3/5 490/3/5 493/3/5
f 495/3/5 492/3/5 491/3/5
f 496/3/5 492/3/5 495/3/5
f 499/3/5 498/3/5 497/3/5
f 500/3/5 498/3/5 499/3/5
f 504/2/5 502/2/5 501/2/5
f 505/2/5 502/2/5 504/2/5
f 507/2/5 504/2/5 503/2/5
f 507/2/5 506/2/5 505/2/5
f 507/2/5 505/2/5 504/2/5
f 508/2/5 506/2/5 507/2/5
f 509/2/5 506/2/5 508/2/5
f 510/2/5 506/2/5 509/2/5
f 511/2/5 509/2/5 508/2/5
f 512/2/5 509/2/5 511/2/5
f 515/1/5 514/1/5 513/1/5
f 516/1/5 514/1/5 515/1/5
f 517/1/5 514/1/5 516/1/5
f 518/1/5 514/1/5 517/1/5
f 519/1/5 517/1/5 516/1/5
f 520/1/5 517/1/5 519/1/5
f 521/1/5 519/1/5 516/1/5
f 522/1/5 517/1/5 520/1/5
f 524/1/5 521/1/5 516/1/5
f 524/1/5 522/1/5 521/1/5
f 525/1/5 517/1/5 522/1/5
f 525/1/5 522/1/5 524/1/5
f 527/1/5 524/1/5 523/1/5
f 528/1/5 524/1/5 527/1/5
f 529/1/5 526/1/5 525/1/5
f 530/1/5 526/1/5 529/1/5
f 535/1/5 532/1/5 531/1/5
f 536/1/5 532/1/5 535/1/5
f 537/1/5 534/1/5 533/1/5
f 538/1/5 534/1/5 537/1/5
f 543/1/5 540/1/5 539/1/5
f 544/1/5 540/1/5 543/1/5
f 545/1/5 542/1/5 541/1/5
f 546/1/5 542/1/5 545/1/5
f 551/1/5 548/1/5 547/1/5
f 552/1/5 548/1/5 551/1/5
f 553/1/5 550/1/5 549/1/5
f 554/1/5 550/1/5 553/1/5
f 557/1/5 556/1/5 555/1/5
f 558/1/5 556/1/5 557/1/5
f 563/2/5 560/2/5 559/2/5
f 564/2/5 560/2/5 563/2/5
f 565/2/5 562/2/5 561/2/5
f 566/2/5 562/2/5 565/2/5
f 571/2/5 568/2/5 567/2/5
f 572/2/5 568/2/5 571/2/5
f 573/2/5 570/2/5 569/2/5
f 574/2/5 570/2/5 573/2/5
f 579/2/5 576/2/5 575/2/5
f 580/2/5 576/2/5 579/2/5
f 581/2/5 578/2/5 577/2/5
f 582/2/5 578/2/5 581/2/5
f 587/2/5 584/2/5 583/2/5
f 588/2/5 584/2/5 587/2/5
f 589/2/5 586/2/5 585/2/5
f 590/2/5 586/2/5 589/2/5
f 595/1/5 592/1/5 591/1/5
f 596/1/5 592/1/5 595/1/5
f 597/1/5 594/1/5 593/1/5
f 598/1/5 594/1/5 597/1/5
f 603/1/5 600/1/5 599/1/5
f 604/1/5 600/1/5 603/1/5
f 605/1/5 602/1/5 601/1/5
f 606/1/5 602/1/5 605/1/5
f 607/2/6 608/2/6 610/2/6
f 610/2/6 608/2/6 611/2/6
f 609/2/6 610/2/6 613/2/6
f 613/2/6 610/2/6 614/2/6
f 611/2/6 612/2/6 615/2/6
f 615/2/6 612/2/6 616/2/6
f 614/2/6 615/2/6 617/2/6
f 617/2/6 615/2/6 618/2/6
f 619/1/6 620/1/6 623/1/6
f 623/1/6 620/1/6 624/1/6
f 621/1/6 622/1/6 625/1/6
f 625/1/6 622/1/6 626/1/6
f 627/3/6 628/3/6 630/3/6
f 630/3/6 628/3/6 631/3/6
f 629/3/6 630/3/6 633/3/6
f 631/3/6 632/3/6 633/3/6
f 630/3/6 631/3/6 633/3/6
f 633/3/6 632/3/6 634/3/6
f 633/3/6 634/3/6 635/3/6
f 635/3/6 634/3/6 636/3/6
f 635/3/6 636/3/6 637/3/6
f 637/3/6 636/3/6 638/3/6
f 637/3/6 638/3/6 639/3/6
f 639/3/6 638/3/6 640/3/6
f 639/3/6 640/3/6 641/3/6
f 641/3/6 640/3/6 642/3/6
f 641/3/6 642/3/6 643/3/6
f 643/3/6 642/3/6 644/3/6
f 645/1/6 646/1/6 653/1/6
f 653/1/6 646/1/6 654/1/6
f 647/1/6 648/1/6 655/1/6
f 655/1/6 648/1/6 656/1/6
f 649/1/6 650/1/6 657/1/6
f 657/1/6 650/1/6 658/1/6
f 651/1/6 652/1/6 659/1/6
f 659/1/6 652/1/6 660/1/6
f 661/2/6 662/2/6 665/2/6
f 665/2/6 662/2/6 666/2/6
f 663/2/6 664/2/6 667/2/6
f 667/2/6 664/2/6 668/2/6
f 669/2/6 670/2/6 673/2/6
f 671/2/6 672/2/6 674/2/6
f 669/2/6 673/2/6 675/2/6
f 675/2/6 673/2/6 676/2/6
f 674/2/6 672/2/6 677/2/6
f 677/2/6 672/2/6 678/2/6
f 679/3/6 680/3/6 684/3/6
f 684/3/6 680/3/6 685/3/6
f 681/3/6 682/3/6 686/3/6
f 686/3/6 682/3/6 687/3/6
f 683/1/6 684/1/6 689/1/6
f 689/1/6 684/1/6 690/1/6
f 687/1/6 688/1/6 691/1/6
f 691/1/6 688/1/6 692/1/6
f 693/3/6 694/3/6 696/3/6
f 696/3/6 694/3/6 697/3/6
f 695/1/6 696/1/6 699/1/6
f 697/1/6 698/1/6 699/1/6
f 696/1/6 697/1/6 699/1/6
f 699/1/6 698/1/6 700/1/6
