# MagicaVoxel @ Ephtracy

# group
o 

# material
mtllib Bed.mtl
usemtl palette

# normals
vn -1 0 0
vn 1 0 0
vn 0 0 1
vn 0 0 -1
vn 0 -1 0
vn 0 1 0

# texcoords
vt 0.138672 0.5
vt 0.244141 0.5
vt 0.537109 0.5
vt 0.962891 0.5

# verts
v -2 0.8 1.7
v -2 0.8 -1.1
v -2 1.9 1.7
v -2 1.9 1.5
v -2 1.9 -0.8
v -2 1.9 -1.1
v -2 2.3 1.5
v -2 2.3 -0.8
v -1.9 0 1.7
v -1.9 0 1.4
v -1.9 0 -0.8
v -1.9 0 -1.1
v -1.9 0.5 1.4
v -1.9 0.5 -0.8
v -1.9 0.8 1.7
v -1.9 0.8 -1.1
v 1.5 0 1.7
v 1.5 0 1.4
v 1.5 0 -0.8
v 1.5 0 -1.1
v 1.5 0.5 1.7
v 1.5 0.5 1.4
v 1.5 0.5 -0.8
v 1.5 0.5 -1.1
v 1.9 0 1.4
v 1.9 0 -0.8
v 1.9 0.5 1.4
v 1.9 0.5 -0.8
v -1.7 1 1.7
v -1.7 1 1.5
v -1.7 1 -0.9
v -1.7 1 -1.1
v -1.7 1.3 1.5
v -1.7 1.3 -0.9
v -1.7 1.5 1.5
v -1.7 1.5 -0.9
v -1.7 1.9 1.7
v -1.7 1.9 1.5
v -1.7 1.9 -0.8
v -1.7 1.9 -1.1
v -1.7 2.3 1.5
v -1.7 2.3 -0.8
v -1.5 0 1.7
v -1.5 0 1.4
v -1.5 0 -0.8
v -1.5 0 -1.1
v -1.5 0.5 1.7
v -1.5 0.5 1.4
v -1.5 0.5 -0.8
v -1.5 0.5 -1.1
v -1 1.3 1.5
v -1 1.3 -0.9
v -1 1.5 1.5
v -1 1.5 -0.9
v 1.9 0 1.7
v 1.9 0 1.4
v 1.9 0 -0.8
v 1.9 0 -1.1
v 1.9 1 1.7
v 1.9 1 1.5
v 1.9 1 1.4
v 1.9 1 -0.8
v 1.9 1 -0.9
v 1.9 1 -1.1
v 1.9 1.3 1.5
v 1.9 1.3 1.4
v 1.9 1.3 -0.8
v 1.9 1.3 -0.9
v 2 0 1.4
v 2 0 -0.8
v 2 1.3 1.4
v 2 1.3 -0.8
v -2 0.8 1.7
v -2 1.9 1.7
v -1.9 0 1.7
v -1.9 0.8 1.7
v -1.7 1 1.7
v -1.7 1.9 1.7
v -1.5 0 1.7
v -1.5 0.5 1.7
v 1.5 0 1.7
v 1.5 0.5 1.7
v 1.9 0 1.7
v 1.9 1 1.7
v -2 1.9 1.5
v -2 2.3 1.5
v -1.7 1 1.5
v -1.7 1.3 1.5
v -1.7 1.5 1.5
v -1.7 1.9 1.5
v -1.7 2.3 1.5
v -1 1.3 1.5
v -1 1.5 1.5
v 1.9 1 1.5
v 1.9 1.3 1.5
v 1.9 0 1.4
v 1.9 1 1.4
v 1.9 1.3 1.4
v 2 0 1.4
v 2 1.3 1.4
v -1.9 0 -0.8
v -1.9 0.5 -0.8
v -1.5 0 -0.8
v -1.5 0.5 -0.8
v 1.5 0 -0.8
v 1.5 0.5 -0.8
v 1.9 0 -0.8
v 1.9 0.5 -0.8
v -1.9 0 1.4
v -1.9 0.5 1.4
v -1.5 0 1.4
v -1.5 0.5 1.4
v 1.5 0 1.4
v 1.5 0.5 1.4
v 1.9 0 1.4
v 1.9 0.5 1.4
v -2 1.9 -0.8
v -2 2.3 -0.8
v -1.7 1.9 -0.8
v -1.7 2.3 -0.8
v 1.9 0 -0.8
v 1.9 1 -0.8
v 1.9 1.3 -0.8
v 2 0 -0.8
v 2 1.3 -0.8
v -1.7 1 -0.9
v -1.7 1.3 -0.9
v -1.7 1.5 -0.9
v -1 1.3 -0.9
v -1 1.5 -0.9
v 1.9 1 -0.9
v 1.9 1.3 -0.9
v -2 0.8 -1.1
v -2 1.9 -1.1
v -1.9 0 -1.1
v -1.9 0.8 -1.1
v -1.7 1 -1.1
v -1.7 1.9 -1.1
v -1.5 0 -1.1
v -1.5 0.5 -1.1
v 1.5 0 -1.1
v 1.5 0.5 -1.1
v 1.9 0 -1.1
v 1.9 1 -1.1
v -1.9 0 1.7
v -1.5 0 1.7
v 1.5 0 1.7
v 1.9 0 1.7
v -1.9 0 1.4
v -1.5 0 1.4
v 1.5 0 1.4
v 1.9 0 1.4
v 2 0 1.4
v -1.9 0 -0.8
v -1.5 0 -0.8
v 1.5 0 -0.8
v 1.9 0 -0.8
v 2 0 -0.8
v -1.9 0 -1.1
v -1.5 0 -1.1
v 1.5 0 -1.1
v 1.9 0 -1.1
v -1.5 0.5 1.7
v 1.5 0.5 1.7
v -1.9 0.5 1.4
v -1.5 0.5 1.4
v 1.5 0.5 1.4
v 1.9 0.5 1.4
v -1.9 0.5 -0.8
v -1.5 0.5 -0.8
v 1.5 0.5 -0.8
v 1.9 0.5 -0.8
v -1.5 0.5 -1.1
v 1.5 0.5 -1.1
v -2 0.8 1.7
v -1.9 0.8 1.7
v -2 0.8 -1.1
v -1.9 0.8 -1.1
v -1.7 1 1.7
v 1.9 1 1.7
v -1.7 1 1.5
v 1.9 1 1.5
v -1.7 1 -0.9
v 1.9 1 -0.9
v -1.7 1 -1.1
v 1.9 1 -1.1
v -1 1.3 1.5
v 1.9 1.3 1.5
v 1.9 1.3 1.4
v 2 1.3 1.4
v 1.9 1.3 -0.8
v 2 1.3 -0.8
v -1 1.3 -0.9
v 1.9 1.3 -0.9
v -1.7 1.5 1.5
v -1 1.5 1.5
v -1.7 1.5 -0.9
v -1 1.5 -0.9
v -2 1.9 1.7
v -1.7 1.9 1.7
v -2 1.9 1.5
v -1.7 1.9 1.5
v -2 1.9 -0.8
v -1.7 1.9 -0.8
v -2 1.9 -1.1
v -1.7 1.9 -1.1
v -2 2.3 1.5
v -1.7 2.3 1.5
v -2 2.3 -0.8
v -1.7 2.3 -0.8

# faces
f 3/3/1 2/3/1 1/3/1
f 4/3/1 2/3/1 3/3/1
f 5/3/1 2/3/1 4/3/1
f 6/3/1 2/3/1 5/3/1
f 7/3/1 5/3/1 4/3/1
f 8/3/1 5/3/1 7/3/1
f 13/3/1 10/3/1 9/3/1
f 14/3/1 12/3/1 11/3/1
f 15/3/1 13/3/1 9/3/1
f 15/3/1 14/3/1 13/3/1
f 16/3/1 12/3/1 14/3/1
f 16/3/1 14/3/1 15/3/1
f 21/3/1 18/3/1 17/3/1
f 22/3/1 18/3/1 21/3/1
f 23/3/1 20/3/1 19/3/1
f 24/3/1 20/3/1 23/3/1
f 27/3/1 26/3/1 25/3/1
f 28/3/1 26/3/1 27/3/1
f 29/3/2 30/3/2 33/3/2
f 31/3/2 32/3/2 34/3/2
f 29/3/2 33/3/2 35/3/2
f 34/3/2 32/3/2 36/3/2
f 29/3/2 35/3/2 37/3/2
f 35/3/2 36/3/2 37/3/2
f 37/3/2 36/3/2 38/3/2
f 38/3/2 36/3/2 39/3/2
f 36/3/2 32/3/2 40/3/2
f 39/3/2 36/3/2 40/3/2
f 38/3/2 39/3/2 41/3/2
f 41/3/2 39/3/2 42/3/2
f 43/3/2 44/3/2 47/3/2
f 47/3/2 44/3/2 48/3/2
f 45/3/2 46/3/2 49/3/2
f 49/3/2 46/3/2 50/3/2
f 51/4/2 52/4/2 53/4/2
f 53/4/2 52/4/2 54/4/2
f 55/3/2 56/3/2 59/3/2
f 59/3/2 56/3/2 60/3/2
f 60/3/2 56/3/2 61/3/2
f 57/3/2 58/3/2 62/3/2
f 62/3/2 58/3/2 63/3/2
f 63/3/2 58/3/2 64/3/2
f 60/2/2 61/2/2 65/2/2
f 65/2/2 61/2/2 66/2/2
f 62/2/2 63/2/2 67/2/2
f 67/2/2 63/2/2 68/2/2
f 69/3/2 70/3/2 71/3/2
f 71/3/2 70/3/2 72/3/2
f 76/3/3 74/3/3 73/3/3
f 77/3/3 74/3/3 76/3/3
f 77/3/3 76/3/3 75/3/3
f 78/3/3 74/3/3 77/3/3
f 79/3/3 77/3/3 75/3/3
f 80/3/3 77/3/3 79/3/3
f 82/3/3 77/3/3 80/3/3
f 83/3/3 82/3/3 81/3/3
f 84/3/3 77/3/3 82/3/3
f 84/3/3 82/3/3 83/3/3
f 90/3/3 86/3/3 85/3/3
f 91/3/3 86/3/3 90/3/3
f 92/4/3 89/4/3 88/4/3
f 92/2/3 88/2/3 87/2/3
f 93/4/3 89/4/3 92/4/3
f 94/2/3 92/2/3 87/2/3
f 95/2/3 92/2/3 94/2/3
f 99/3/3 97/3/3 96/3/3
f 99/3/3 98/3/3 97/3/3
f 100/3/3 98/3/3 99/3/3
f 103/3/3 102/3/3 101/3/3
f 104/3/3 102/3/3 103/3/3
f 107/3/3 106/3/3 105/3/3
f 108/3/3 106/3/3 107/3/3
f 109/3/4 110/3/4 111/3/4
f 111/3/4 110/3/4 112/3/4
f 113/3/4 114/3/4 115/3/4
f 115/3/4 114/3/4 116/3/4
f 117/3/4 118/3/4 119/3/4
f 119/3/4 118/3/4 120/3/4
f 121/3/4 122/3/4 124/3/4
f 122/3/4 123/3/4 124/3/4
f 124/3/4 123/3/4 125/3/4
f 126/2/4 127/2/4 129/2/4
f 127/4/4 128/4/4 129/4/4
f 129/4/4 128/4/4 130/4/4
f 126/2/4 129/2/4 131/2/4
f 131/2/4 129/2/4 132/2/4
f 133/3/4 134/3/4 136/3/4
f 136/3/4 134/3/4 137/3/4
f 135/3/4 136/3/4 137/3/4
f 137/3/4 134/3/4 138/3/4
f 135/3/4 137/3/4 139/3/4
f 139/3/4 137/3/4 140/3/4
f 140/3/4 137/3/4 142/3/4
f 141/3/4 142/3/4 143/3/4
f 142/3/4 137/3/4 144/3/4
f 143/3/4 142/3/4 144/3/4
f 149/3/5 146/3/5 145/3/5
f 150/3/5 146/3/5 149/3/5
f 151/3/5 148/3/5 147/3/5
f 152/3/5 148/3/5 151/3/5
f 157/3/5 153/3/5 152/3/5
f 158/3/5 153/3/5 157/3/5
f 159/3/5 155/3/5 154/3/5
f 160/3/5 155/3/5 159/3/5
f 161/3/5 157/3/5 156/3/5
f 162/3/5 157/3/5 161/3/5
f 166/3/5 164/3/5 163/3/5
f 167/3/5 164/3/5 166/3/5
f 169/3/5 166/3/5 165/3/5
f 169/3/5 168/3/5 167/3/5
f 169/3/5 167/3/5 166/3/5
f 170/3/5 168/3/5 169/3/5
f 171/3/5 168/3/5 170/3/5
f 172/3/5 168/3/5 171/3/5
f 173/3/5 171/3/5 170/3/5
f 174/3/5 171/3/5 173/3/5
f 177/3/5 176/3/5 175/3/5
f 178/3/5 176/3/5 177/3/5
f 179/3/6 180/3/6 181/3/6
f 181/3/6 180/3/6 182/3/6
f 183/3/6 184/3/6 185/3/6
f 185/3/6 184/3/6 186/3/6
f 187/2/6 188/2/6 189/2/6
f 187/2/6 189/2/6 191/2/6
f 189/3/6 190/3/6 191/3/6
f 191/3/6 190/3/6 192/3/6
f 187/2/6 191/2/6 193/2/6
f 193/2/6 191/2/6 194/2/6
f 195/4/6 196/4/6 197/4/6
f 197/4/6 196/4/6 198/4/6
f 199/3/6 200/3/6 201/3/6
f 201/3/6 200/3/6 202/3/6
f 203/3/6 204/3/6 205/3/6
f 205/3/6 204/3/6 206/3/6
f 207/3/6 208/3/6 209/3/6
f 209/3/6 208/3/6 210/3/6
