# MagicaVoxel @ Ephtracy

# group
o 

# material
mtllib Bedside cabinet.mtl
usemtl palette

# normals
vn -1 0 0
vn 1 0 0
vn 0 0 1
vn 0 0 -1
vn 0 -1 0
vn 0 1 0

# texcoords
vt 0.0214844 0.5
vt 0.919922 0.5

# verts
v -1.2 0 0.6
v -1.2 0 -0.7
v -1.2 1.1 0.6
v -1.2 1.1 -0.7
v -0.8 0.2 0.7
v -0.8 0.2 0.6
v -0.8 0.4 0.7
v -0.8 0.4 0.6
v -0.8 0.7 0.7
v -0.8 0.7 0.6
v -0.8 0.9 0.7
v -0.8 0.9 0.6
v -0.5 0.2 0.7
v -0.5 0.2 0.6
v -0.5 0.4 0.7
v -0.5 0.4 0.6
v -0.5 0.7 0.7
v -0.5 0.7 0.6
v -0.5 0.9 0.7
v -0.5 0.9 0.6
v -0.0999999 0 0.6
v -0.0999999 0 -0.7
v -0.0999999 1.1 0.6
v -0.0999999 1.1 -0.7
v -0.8 0.2 0.7
v -0.8 0.4 0.7
v -0.8 0.7 0.7
v -0.8 0.9 0.7
v -0.5 0.2 0.7
v -0.5 0.4 0.7
v -0.5 0.7 0.7
v -0.5 0.9 0.7
v -1.2 0 0.6
v -1.2 1.1 0.6
v -1.1 0.1 0.6
v -1.1 0.5 0.6
v -1.1 0.6 0.6
v -1.1 1 0.6
v -0.8 0.2 0.6
v -0.8 0.4 0.6
v -0.8 0.7 0.6
v -0.8 0.9 0.6
v -0.5 0.2 0.6
v -0.5 0.4 0.6
v -0.5 0.7 0.6
v -0.5 0.9 0.6
v -0.2 0.1 0.6
v -0.2 0.5 0.6
v -0.2 0.6 0.6
v -0.2 1 0.6
v -0.0999999 0 0.6
v -0.0999999 1.1 0.6
v -1.2 0 -0.7
v -1.2 1.1 -0.7
v -0.0999999 0 -0.7
v -0.0999999 1.1 -0.7
v -1.2 0 0.6
v -0.0999999 0 0.6
v -1.2 0 -0.7
v -0.0999999 0 -0.7
v -0.8 0.2 0.7
v -0.5 0.2 0.7
v -0.8 0.2 0.6
v -0.5 0.2 0.6
v -0.8 0.7 0.7
v -0.5 0.7 0.7
v -0.8 0.7 0.6
v -0.5 0.7 0.6
v -0.8 0.4 0.7
v -0.5 0.4 0.7
v -0.8 0.4 0.6
v -0.5 0.4 0.6
v -0.8 0.9 0.7
v -0.5 0.9 0.7
v -0.8 0.9 0.6
v -0.5 0.9 0.6
v -1.2 1.1 0.6
v -0.0999999 1.1 0.6
v -1.2 1.1 -0.7
v -0.0999999 1.1 -0.7

# faces
f 3/2/1 2/2/1 1/2/1
f 4/2/1 2/2/1 3/2/1
f 7/1/1 6/1/1 5/1/1
f 8/1/1 6/1/1 7/1/1
f 11/1/1 10/1/1 9/1/1
f 12/1/1 10/1/1 11/1/1
f 13/1/2 14/1/2 15/1/2
f 15/1/2 14/1/2 16/1/2
f 17/1/2 18/1/2 19/1/2
f 19/1/2 18/1/2 20/1/2
f 21/2/2 22/2/2 23/2/2
f 23/2/2 22/2/2 24/2/2
f 29/1/3 26/1/3 25/1/3
f 30/1/3 26/1/3 29/1/3
f 31/1/3 28/1/3 27/1/3
f 32/1/3 28/1/3 31/1/3
f 35/2/3 34/2/3 33/2/3
f 36/2/3 34/2/3 35/2/3
f 37/2/3 34/2/3 36/2/3
f 38/2/3 34/2/3 37/2/3
f 39/1/3 36/1/3 35/1/3
f 40/1/3 36/1/3 39/1/3
f 41/1/3 38/1/3 37/1/3
f 42/1/3 38/1/3 41/1/3
f 43/1/3 39/1/3 35/1/3
f 44/1/3 36/1/3 40/1/3
f 45/1/3 41/1/3 37/1/3
f 46/1/3 38/1/3 42/1/3
f 47/2/3 35/2/3 33/2/3
f 47/1/3 43/1/3 35/1/3
f 47/1/3 44/1/3 43/1/3
f 48/2/3 37/2/3 36/2/3
f 48/1/3 44/1/3 47/1/3
f 48/1/3 36/1/3 44/1/3
f 49/1/3 46/1/3 45/1/3
f 49/2/3 37/2/3 48/2/3
f 49/1/3 45/1/3 37/1/3
f 50/2/3 34/2/3 38/2/3
f 50/1/3 46/1/3 49/1/3
f 50/1/3 38/1/3 46/1/3
f 51/2/3 48/2/3 47/2/3
f 51/2/3 49/2/3 48/2/3
f 51/2/3 50/2/3 49/2/3
f 51/2/3 47/2/3 33/2/3
f 52/2/3 34/2/3 50/2/3
f 52/2/3 50/2/3 51/2/3
f 53/2/4 54/2/4 55/2/4
f 55/2/4 54/2/4 56/2/4
f 59/2/5 58/2/5 57/2/5
f 60/2/5 58/2/5 59/2/5
f 63/1/5 62/1/5 61/1/5
f 64/1/5 62/1/5 63/1/5
f 67/1/5 66/1/5 65/1/5
f 68/1/5 66/1/5 67/1/5
f 69/1/6 70/1/6 71/1/6
f 71/1/6 70/1/6 72/1/6
f 73/1/6 74/1/6 75/1/6
f 75/1/6 74/1/6 76/1/6
f 77/2/6 78/2/6 79/2/6
f 79/2/6 78/2/6 80/2/6
