# MagicaVoxel @ Ephtracy

# group
o 

# material
mtllib Bone.mtl
usemtl palette

# normals
vn -1 0 0
vn 1 0 0
vn 0 0 1
vn 0 0 -1
vn 0 -1 0
vn 0 1 0

# texcoords
vt 0.00195313 0.5
vt 0.00585938 0.5

# verts
v 0 2 -0.1
v 0 2 -0.2
v 0 2 -0.3
v 0 2 -0.4
v 0 2.1 -0.1
v 0 2.1 -0.2
v 0 2.1 -0.3
v 0 2.1 -0.4
v 0.1 2 -0.2
v 0.1 2 -0.3
v 0.1 2.1 -0.2
v 0.1 2.1 -0.3
v 0.5 2 -0.1
v 0.5 2 -0.2
v 0.5 2.1 -0.1
v 0.5 2.1 -0.2
v 0.8 2 0
v 0.8 2 -0.1
v 0.8 2 -0.2
v 0.8 2 -0.3
v 0.8 2.1 0
v 0.8 2.1 -0.1
v 0.8 2.1 -0.2
v 0.8 2.1 -0.3
v 0.1 2 -0.1
v 0.1 2 -0.2
v 0.1 2 -0.3
v 0.1 2 -0.4
v 0.1 2.1 -0.1
v 0.1 2.1 -0.2
v 0.1 2.1 -0.3
v 0.1 2.1 -0.4
v 0.5 2 -0.2
v 0.5 2 -0.3
v 0.5 2.1 -0.2
v 0.5 2.1 -0.3
v 0.8 2 -0.1
v 0.8 2 -0.2
v 0.8 2.1 -0.1
v 0.8 2.1 -0.2
v 0.9 2 0
v 0.9 2 -0.1
v 0.9 2 -0.2
v 0.9 2 -0.3
v 0.9 2.1 0
v 0.9 2.1 -0.1
v 0.9 2.1 -0.2
v 0.9 2.1 -0.3
v 0.8 2 0
v 0.8 2.1 0
v 0.9 2 0
v 0.9 2.1 0
v 0 2 -0.1
v 0 2.1 -0.1
v 0.1 2 -0.1
v 0.1 2.1 -0.1
v 0.5 2 -0.1
v 0.5 2.1 -0.1
v 0.6 2 -0.1
v 0.6 2.1 -0.1
v 0.8 2 -0.1
v 0.8 2.1 -0.1
v 0.1 2 -0.2
v 0.1 2.1 -0.2
v 0.2 2 -0.2
v 0.2 2.1 -0.2
v 0.4 2 -0.2
v 0.4 2.1 -0.2
v 0.5 2 -0.2
v 0.5 2.1 -0.2
v 0.8 2 -0.2
v 0.8 2.1 -0.2
v 0.9 2 -0.2
v 0.9 2.1 -0.2
v 0 2 -0.3
v 0 2.1 -0.3
v 0.1 2 -0.3
v 0.1 2.1 -0.3
v 0.8 2 -0.1
v 0.8 2.1 -0.1
v 0.9 2 -0.1
v 0.9 2.1 -0.1
v 0 2 -0.2
v 0 2.1 -0.2
v 0.1 2 -0.2
v 0.1 2.1 -0.2
v 0.5 2 -0.2
v 0.5 2.1 -0.2
v 0.6 2 -0.2
v 0.6 2.1 -0.2
v 0.8 2 -0.2
v 0.8 2.1 -0.2
v 0.1 2 -0.3
v 0.1 2.1 -0.3
v 0.2 2 -0.3
v 0.2 2.1 -0.3
v 0.4 2 -0.3
v 0.4 2.1 -0.3
v 0.5 2 -0.3
v 0.5 2.1 -0.3
v 0.8 2 -0.3
v 0.8 2.1 -0.3
v 0.9 2 -0.3
v 0.9 2.1 -0.3
v 0 2 -0.4
v 0 2.1 -0.4
v 0.1 2 -0.4
v 0.1 2.1 -0.4
v 0.8 2 0
v 0.9 2 0
v 0 2 -0.1
v 0.1 2 -0.1
v 0.5 2 -0.1
v 0.6 2 -0.1
v 0.8 2 -0.1
v 0.9 2 -0.1
v 0 2 -0.2
v 0.1 2 -0.2
v 0.2 2 -0.2
v 0.4 2 -0.2
v 0.5 2 -0.2
v 0.6 2 -0.2
v 0.8 2 -0.2
v 0.9 2 -0.2
v 0 2 -0.3
v 0.1 2 -0.3
v 0.2 2 -0.3
v 0.4 2 -0.3
v 0.5 2 -0.3
v 0.8 2 -0.3
v 0.9 2 -0.3
v 0 2 -0.4
v 0.1 2 -0.4
v 0.8 2.1 0
v 0.9 2.1 0
v 0 2.1 -0.1
v 0.1 2.1 -0.1
v 0.5 2.1 -0.1
v 0.6 2.1 -0.1
v 0.8 2.1 -0.1
v 0.9 2.1 -0.1
v 0 2.1 -0.2
v 0.1 2.1 -0.2
v 0.2 2.1 -0.2
v 0.4 2.1 -0.2
v 0.5 2.1 -0.2
v 0.6 2.1 -0.2
v 0.8 2.1 -0.2
v 0.9 2.1 -0.2
v 0 2.1 -0.3
v 0.1 2.1 -0.3
v 0.2 2.1 -0.3
v 0.4 2.1 -0.3
v 0.5 2.1 -0.3
v 0.8 2.1 -0.3
v 0.9 2.1 -0.3
v 0 2.1 -0.4
v 0.1 2.1 -0.4

# faces
f 5/2/1 2/2/1 1/2/1
f 6/2/1 2/2/1 5/2/1
f 7/2/1 4/2/1 3/2/1
f 8/2/1 4/2/1 7/2/1
f 11/1/1 10/1/1 9/1/1
f 12/1/1 10/1/1 11/1/1
f 15/1/1 14/1/1 13/1/1
f 16/1/1 14/1/1 15/1/1
f 21/2/1 18/2/1 17/2/1
f 22/2/1 18/2/1 21/2/1
f 23/1/1 20/1/1 19/1/1
f 24/1/1 20/1/1 23/1/1
f 25/2/2 26/2/2 29/2/2
f 29/2/2 26/2/2 30/2/2
f 27/2/2 28/2/2 31/2/2
f 31/2/2 28/2/2 32/2/2
f 33/1/2 34/1/2 35/1/2
f 35/1/2 34/1/2 36/1/2
f 37/2/2 38/2/2 39/2/2
f 39/2/2 38/2/2 40/2/2
f 41/2/2 42/2/2 45/2/2
f 45/2/2 42/2/2 46/2/2
f 43/1/2 44/1/2 47/1/2
f 47/1/2 44/1/2 48/1/2
f 51/2/3 50/2/3 49/2/3
f 52/2/3 50/2/3 51/2/3
f 55/2/3 54/2/3 53/2/3
f 56/2/3 54/2/3 55/2/3
f 59/1/3 58/1/3 57/1/3
f 60/1/3 58/1/3 59/1/3
f 61/2/3 60/2/3 59/2/3
f 62/2/3 60/2/3 61/2/3
f 65/1/3 64/1/3 63/1/3
f 66/1/3 64/1/3 65/1/3
f 67/2/3 66/2/3 65/2/3
f 68/2/3 66/2/3 67/2/3
f 69/1/3 68/1/3 67/1/3
f 70/1/3 68/1/3 69/1/3
f 73/1/3 72/1/3 71/1/3
f 74/1/3 72/1/3 73/1/3
f 77/2/3 76/2/3 75/2/3
f 78/2/3 76/2/3 77/2/3
f 79/2/4 80/2/4 81/2/4
f 81/2/4 80/2/4 82/2/4
f 83/2/4 84/2/4 85/2/4
f 85/2/4 84/2/4 86/2/4
f 87/1/4 88/1/4 89/1/4
f 89/1/4 88/1/4 90/1/4
f 89/2/4 90/2/4 91/2/4
f 91/2/4 90/2/4 92/2/4
f 93/1/4 94/1/4 95/1/4
f 95/1/4 94/1/4 96/1/4
f 95/2/4 96/2/4 97/2/4
f 97/2/4 96/2/4 98/2/4
f 97/1/4 98/1/4 99/1/4
f 99/1/4 98/1/4 100/1/4
f 101/1/4 102/1/4 103/1/4
f 103/1/4 102/1/4 104/1/4
f 105/2/4 106/2/4 107/2/4
f 107/2/4 106/2/4 108/2/4
f 115/2/5 110/2/5 109/2/5
f 116/2/5 110/2/5 115/2/5
f 117/2/5 112/2/5 111/2/5
f 118/2/5 112/2/5 117/2/5
f 121/1/5 114/1/5 113/1/5
f 122/2/5 115/2/5 114/2/5
f 122/1/5 114/1/5 121/1/5
f 123/2/5 115/2/5 122/2/5
f 126/1/5 119/1/5 118/1/5
f 127/2/5 120/2/5 119/2/5
f 127/1/5 119/1/5 126/1/5
f 128/1/5 121/1/5 120/1/5
f 128/2/5 120/2/5 127/2/5
f 129/1/5 121/1/5 128/1/5
f 130/1/5 124/1/5 123/1/5
f 131/1/5 124/1/5 130/1/5
f 132/2/5 126/2/5 125/2/5
f 133/2/5 126/2/5 132/2/5
f 134/2/6 135/2/6 140/2/6
f 140/2/6 135/2/6 141/2/6
f 136/2/6 137/2/6 142/2/6
f 142/2/6 137/2/6 143/2/6
f 138/1/6 139/1/6 146/1/6
f 139/2/6 140/2/6 147/2/6
f 146/1/6 139/1/6 147/1/6
f 147/2/6 140/2/6 148/2/6
f 143/1/6 144/1/6 151/1/6
f 144/2/6 145/2/6 152/2/6
f 151/1/6 144/1/6 152/1/6
f 145/1/6 146/1/6 153/1/6
f 152/2/6 145/2/6 153/2/6
f 153/1/6 146/1/6 154/1/6
f 148/1/6 149/1/6 155/1/6
f 155/1/6 149/1/6 156/1/6
f 150/2/6 151/2/6 157/2/6
f 157/2/6 151/2/6 158/2/6
