# MagicaVoxel @ Ephtracy

# group
o 

# material
mtllib Office_Misc_TV_Stand_03.mtl
usemtl palette

# normals
vn -1 0 0
vn 1 0 0
vn 0 0 1
vn 0 0 -1
vn 0 -1 0
vn 0 1 0

# texcoords
vt 0.658203 0.5
vt 0.740234 0.5
vt 0.771484 0.5
vt 0.775391 0.5
vt 0.783203 0.5
vt 0.787109 0.5
vt 0.794922 0.5
vt 0.810547 0.5
vt 0.822266 0.5
vt 0.826172 0.5
vt 0.912109 0.5

# verts
v -1.1 0.2 0.1
v -1.1 0.2 -1.49012e-008
v -1.1 0.3 0.1
v -1.1 0.3 -1.49012e-008
v -1.1 1.3 0.1
v -1.1 1.3 -1.49012e-008
v -1.1 1.4 0.1
v -1.1 1.4 -1.49012e-008
v -1 0.3 -1.49012e-008
v -1 0.3 -0.1
v -1 0.4 -1.49012e-008
v -1 0.4 -0.1
v -1 1.2 -1.49012e-008
v -1 1.2 -0.1
v -1 1.3 -1.49012e-008
v -1 1.3 -0.1
v -0.3 0 -0.1
v -0.3 0 -0.2
v -0.3 0.1 -0.1
v -0.3 0.1 -0.2
v -0.2 0 -1.49012e-008
v -0.2 0 -0.1
v -0.2 0 -0.2
v -0.2 0 -0.3
v -0.2 0.1 -1.49012e-008
v -0.2 0.1 -0.1
v -0.2 0.1 -0.2
v -0.2 0.1 -0.3
v -0.2 0.3 -0.1
v -0.2 0.5 -0.1
v -0.2 0.5 -0.2
v -0.1 0 -0.3
v -0.1 0 -0.4
v -0.1 0.1 -0.2
v -0.1 0.1 -0.3
v -0.1 0.1 -0.4
v -0.1 0.5 -0.1
v -0.1 0.5 -0.2
v -0.1 0.5 -0.3
v -0.1 0.6 -0.1
v -0.1 0.6 -0.2
v 0.1 0 -0.3
v 0.1 0 -0.4
v 0.1 0.1 -0.2
v 0.1 0.1 -0.3
v 0.1 0.1 -0.4
v 0.1 0.5 -0.1
v 0.1 0.5 -0.2
v 0.1 0.5 -0.3
v 0.1 0.6 -0.1
v 0.1 0.6 -0.2
v 0.2 0 -1.49012e-008
v 0.2 0 -0.1
v 0.2 0 -0.2
v 0.2 0 -0.3
v 0.2 0.1 -1.49012e-008
v 0.2 0.1 -0.1
v 0.2 0.1 -0.2
v 0.2 0.1 -0.3
v 0.2 0.3 -0.1
v 0.2 0.5 -0.1
v 0.2 0.5 -0.2
v 0.3 0 -0.1
v 0.3 0 -0.2
v 0.3 0.1 -0.1
v 0.3 0.1 -0.2
v 1 0.3 -1.49012e-008
v 1 0.3 -0.1
v 1 0.4 -1.49012e-008
v 1 0.4 -0.1
v 1 1.2 -1.49012e-008
v 1 1.2 -0.1
v 1 1.3 -1.49012e-008
v 1 1.3 -0.1
v 1.1 0.2 0.1
v 1.1 0.2 -1.49012e-008
v 1.1 0.3 0.1
v 1.1 0.3 -1.49012e-008
v 1.1 1.3 0.1
v 1.1 1.3 -1.49012e-008
v 1.1 1.4 0.1
v 1.1 1.4 -1.49012e-008
v -1.1 0.2 0.1
v -1.1 0.3 0.1
v -1.1 1.3 0.1
v -1.1 1.4 0.1
v -1 0.2 0.1
v -1 0.3 0.1
v -1 0.4 0.1
v -1 0.5 0.1
v -1 0.7 0.1
v -1 1.3 0.1
v -1 1.4 0.1
v -0.9 0.5 0.1
v -0.9 0.7 0.1
v -0.9 0.9 0.1
v -0.9 1 0.1
v -0.8 1 0.1
v -0.8 1.1 0.1
v -0.7 0.6 0.1
v -0.7 0.7 0.1
v -0.6 0.3 0.1
v -0.6 0.4 0.1
v -0.6 0.5 0.1
v -0.6 0.6 0.1
v -0.6 0.7 0.1
v -0.6 1 0.1
v -0.6 1.1 0.1
v -0.5 0.3 0.1
v -0.5 0.5 0.1
v -0.5 0.6 0.1
v -0.5 0.9 0.1
v -0.5 1 0.1
v -0.4 0.8 0.1
v -0.4 0.9 0.1
v -0.3 0.8 0.1
v -0.3 0.9 0.1
v -0.2 0.8 0.1
v -0.2 0.9 0.1
v -0.1 0.3 0.1
v -0.1 0.5 0.1
v -0.1 0.6 0.1
v -0.1 1.1 0.1
v -0.1 1.2 0.1
v 0 0.7 0.1
v 0 0.8 0.1
v 0.2 0.7 0.1
v 0.2 0.8 0.1
v 0.2 1.1 0.1
v 0.2 1.2 0.1
v 0.3 0.9 0.1
v 0.3 1 0.1
v 0.5 0.9 0.1
v 0.5 1 0.1
v 0.7 0.3 0.1
v 0.7 0.7 0.1
v 0.7 0.8 0.1
v 0.8 0.8 0.1
v 0.8 0.9 0.1
v 0.9 0.8 0.1
v 0.9 0.9 0.1
v 1 0.2 0.1
v 1 0.3 0.1
v 1 0.7 0.1
v 1 0.8 0.1
v 1 1.3 0.1
v 1 1.4 0.1
v 1.1 0.2 0.1
v 1.1 0.3 0.1
v 1.1 1.3 0.1
v 1.1 1.4 0.1
v -0.2 0 -1.49012e-008
v -0.2 0.1 -1.49012e-008
v 0.2 0 -1.49012e-008
v 0.2 0.1 -1.49012e-008
v -0.3 0 -0.1
v -0.3 0.1 -0.1
v -0.2 0 -0.1
v -0.2 0.1 -0.1
v -0.2 0.3 -0.1
v 0.2 0 -0.1
v 0.2 0.1 -0.1
v 0.2 0.3 -0.1
v 0.3 0 -0.1
v 0.3 0.1 -0.1
v -1.1 0.2 -1.49012e-008
v -1.1 0.3 -1.49012e-008
v -1.1 1.3 -1.49012e-008
v -1.1 1.4 -1.49012e-008
v -1 0.2 -1.49012e-008
v -1 0.3 -1.49012e-008
v -1 0.4 -1.49012e-008
v -1 1.2 -1.49012e-008
v -1 1.3 -1.49012e-008
v -1 1.4 -1.49012e-008
v -0.9 0.3 -1.49012e-008
v -0.9 1.3 -1.49012e-008
v 0.9 0.3 -1.49012e-008
v 0.9 1.3 -1.49012e-008
v 1 0.2 -1.49012e-008
v 1 0.3 -1.49012e-008
v 1 0.4 -1.49012e-008
v 1 1.2 -1.49012e-008
v 1 1.3 -1.49012e-008
v 1 1.4 -1.49012e-008
v 1.1 0.2 -1.49012e-008
v 1.1 0.3 -1.49012e-008
v 1.1 1.3 -1.49012e-008
v 1.1 1.4 -1.49012e-008
v -1 0.3 -0.1
v -1 0.4 -0.1
v -1 1.2 -0.1
v -1 1.3 -0.1
v -0.9 0.3 -0.1
v -0.9 0.4 -0.1
v -0.9 1.2 -0.1
v -0.9 1.3 -0.1
v -0.2 0.3 -0.1
v -0.2 0.5 -0.1
v -0.1 0.5 -0.1
v -0.1 0.6 -0.1
v 0.1 0.5 -0.1
v 0.1 0.6 -0.1
v 0.2 0.3 -0.1
v 0.2 0.5 -0.1
v 0.9 0.3 -0.1
v 0.9 0.4 -0.1
v 0.9 1.2 -0.1
v 0.9 1.3 -0.1
v 1 0.3 -0.1
v 1 0.4 -0.1
v 1 1.2 -0.1
v 1 1.3 -0.1
v -0.3 0 -0.2
v -0.3 0.1 -0.2
v -0.2 0 -0.2
v -0.2 0.1 -0.2
v -0.2 0.5 -0.2
v -0.1 0.1 -0.2
v -0.1 0.5 -0.2
v -0.1 0.6 -0.2
v 0.1 0.1 -0.2
v 0.1 0.5 -0.2
v 0.1 0.6 -0.2
v 0.2 0 -0.2
v 0.2 0.1 -0.2
v 0.2 0.5 -0.2
v 0.3 0 -0.2
v 0.3 0.1 -0.2
v -0.2 0 -0.3
v -0.2 0.1 -0.3
v -0.1 0 -0.3
v -0.1 0.1 -0.3
v -0.1 0.5 -0.3
v 0.1 0 -0.3
v 0.1 0.1 -0.3
v 0.1 0.5 -0.3
v 0.2 0 -0.3
v 0.2 0.1 -0.3
v -0.1 0 -0.4
v -0.1 0.1 -0.4
v 0.1 0 -0.4
v 0.1 0.1 -0.4
v -0.2 0 -1.49012e-008
v 0.2 0 -1.49012e-008
v -0.3 0 -0.1
v -0.2 0 -0.1
v 0.2 0 -0.1
v 0.3 0 -0.1
v -0.3 0 -0.2
v -0.2 0 -0.2
v 0.2 0 -0.2
v 0.3 0 -0.2
v -0.2 0 -0.3
v -0.1 0 -0.3
v 0.1 0 -0.3
v 0.2 0 -0.3
v -0.1 0 -0.4
v 0.1 0 -0.4
v -1.1 0.2 0.1
v -1 0.2 0.1
v 1 0.2 0.1
v 1.1 0.2 0.1
v -1.1 0.2 -1.49012e-008
v -1 0.2 -1.49012e-008
v 1 0.2 -1.49012e-008
v 1.1 0.2 -1.49012e-008
v -1 0.3 -1.49012e-008
v -0.9 0.3 -1.49012e-008
v 0.9 0.3 -1.49012e-008
v 1 0.3 -1.49012e-008
v -1 0.3 -0.1
v -0.9 0.3 -0.1
v -0.2 0.3 -0.1
v 0.2 0.3 -0.1
v 0.9 0.3 -0.1
v 1 0.3 -0.1
v -0.2 0.1 -1.49012e-008
v 0.2 0.1 -1.49012e-008
v -0.3 0.1 -0.1
v -0.2 0.1 -0.1
v 0.2 0.1 -0.1
v 0.3 0.1 -0.1
v -0.3 0.1 -0.2
v -0.2 0.1 -0.2
v -0.1 0.1 -0.2
v 0.1 0.1 -0.2
v 0.2 0.1 -0.2
v 0.3 0.1 -0.2
v -0.2 0.1 -0.3
v -0.1 0.1 -0.3
v 0.1 0.1 -0.3
v 0.2 0.1 -0.3
v -0.1 0.1 -0.4
v 0.1 0.1 -0.4
v -0.2 0.5 -0.1
v -0.1 0.5 -0.1
v 0.1 0.5 -0.1
v 0.2 0.5 -0.1
v -0.2 0.5 -0.2
v -0.1 0.5 -0.2
v 0.1 0.5 -0.2
v 0.2 0.5 -0.2
v -0.1 0.5 -0.3
v 0.1 0.5 -0.3
v -0.1 0.6 -0.1
v 0.1 0.6 -0.1
v -0.1 0.6 -0.2
v 0.1 0.6 -0.2
v -1 1.3 -1.49012e-008
v -0.9 1.3 -1.49012e-008
v 0.9 1.3 -1.49012e-008
v 1 1.3 -1.49012e-008
v -1 1.3 -0.1
v -0.9 1.3 -0.1
v 0.9 1.3 -0.1
v 1 1.3 -0.1
v -1.1 1.4 0.1
v -1 1.4 0.1
v 1 1.4 0.1
v 1.1 1.4 0.1
v -1.1 1.4 -1.49012e-008
v -1 1.4 -1.49012e-008
v 1 1.4 -1.49012e-008
v 1.1 1.4 -1.49012e-008

# faces
f 3/4/1 2/4/1 1/4/1
f 4/4/1 2/4/1 3/4/1
f 5/3/1 4/3/1 3/3/1
f 6/3/1 4/3/1 5/3/1
f 7/4/1 6/4/1 5/4/1
f 8/4/1 6/4/1 7/4/1
f 11/4/1 10/4/1 9/4/1
f 12/4/1 10/4/1 11/4/1
f 13/3/1 12/3/1 11/3/1
f 14/3/1 12/3/1 13/3/1
f 15/4/1 14/4/1 13/4/1
f 16/4/1 14/4/1 15/4/1
f 19/3/1 18/3/1 17/3/1
f 20/3/1 18/3/1 19/3/1
f 25/3/1 22/3/1 21/3/1
f 26/3/1 22/3/1 25/3/1
f 27/3/1 24/3/1 23/3/1
f 28/3/1 24/3/1 27/3/1
f 29/3/1 27/3/1 26/3/1
f 30/3/1 27/3/1 29/3/1
f 31/3/1 27/3/1 30/3/1
f 35/3/1 33/3/1 32/3/1
f 36/3/1 33/3/1 35/3/1
f 38/3/1 35/3/1 34/3/1
f 39/3/1 35/3/1 38/3/1
f 40/3/1 38/3/1 37/3/1
f 41/3/1 38/3/1 40/3/1
f 42/3/2 43/3/2 45/3/2
f 45/3/2 43/3/2 46/3/2
f 44/3/2 45/3/2 48/3/2
f 48/3/2 45/3/2 49/3/2
f 47/3/2 48/3/2 50/3/2
f 50/3/2 48/3/2 51/3/2
f 52/3/2 53/3/2 56/3/2
f 56/3/2 53/3/2 57/3/2
f 54/3/2 55/3/2 58/3/2
f 58/3/2 55/3/2 59/3/2
f 57/3/2 58/3/2 60/3/2
f 60/3/2 58/3/2 61/3/2
f 61/3/2 58/3/2 62/3/2
f 63/3/2 64/3/2 65/3/2
f 65/3/2 64/3/2 66/3/2
f 67/4/2 68/4/2 69/4/2
f 69/4/2 68/4/2 70/4/2
f 69/3/2 70/3/2 71/3/2
f 71/3/2 70/3/2 72/3/2
f 71/4/2 72/4/2 73/4/2
f 73/4/2 72/4/2 74/4/2
f 75/4/2 76/4/2 77/4/2
f 77/4/2 76/4/2 78/4/2
f 77/3/2 78/3/2 79/3/2
f 79/3/2 78/3/2 80/3/2
f 79/4/2 80/4/2 81/4/2
f 81/4/2 80/4/2 82/4/2
f 87/4/3 84/4/3 83/4/3
f 88/3/3 85/3/3 84/3/3
f 88/4/3 84/4/3 87/4/3
f 89/3/3 85/3/3 88/3/3
f 90/3/3 85/3/3 89/3/3
f 91/3/3 85/3/3 90/3/3
f 92/4/3 86/4/3 85/4/3
f 92/3/3 85/3/3 91/3/3
f 93/4/3 86/4/3 92/4/3
f 94/5/3 91/5/3 90/5/3
f 94/6/3 90/6/3 89/6/3
f 95/1/3 92/1/3 91/1/3
f 95/5/3 91/5/3 94/5/3
f 96/1/3 92/1/3 95/1/3
f 97/1/3 92/1/3 96/1/3
f 98/8/3 97/8/3 96/8/3
f 98/1/3 92/1/3 97/1/3
f 99/1/3 92/1/3 98/1/3
f 100/1/3 95/1/3 94/1/3
f 100/1/3 96/1/3 95/1/3
f 101/1/3 96/1/3 100/1/3
f 102/3/3 88/3/3 87/3/3
f 102/7/3 89/7/3 88/7/3
f 103/6/3 94/6/3 89/6/3
f 103/7/3 89/7/3 102/7/3
f 104/1/3 100/1/3 94/1/3
f 104/6/3 94/6/3 103/6/3
f 105/2/3 101/2/3 100/2/3
f 105/1/3 100/1/3 104/1/3
f 106/1/3 96/1/3 101/1/3
f 106/2/3 101/2/3 105/2/3
f 107/8/3 99/8/3 98/8/3
f 107/8/3 98/8/3 96/8/3
f 108/1/3 92/1/3 99/1/3
f 108/8/3 99/8/3 107/8/3
f 109/1/3 105/1/3 104/1/3
f 109/1/3 104/1/3 103/1/3
f 109/3/3 102/3/3 87/3/3
f 109/1/3 103/1/3 102/1/3
f 109/1/3 106/1/3 105/1/3
f 110/1/3 106/1/3 109/1/3
f 111/1/3 106/1/3 110/1/3
f 112/1/3 96/1/3 106/1/3
f 112/1/3 106/1/3 111/1/3
f 112/8/3 107/8/3 96/8/3
f 113/1/3 108/1/3 107/1/3
f 113/8/3 107/8/3 112/8/3
f 114/1/3 112/1/3 111/1/3
f 114/1/3 113/1/3 112/1/3
f 115/1/3 113/1/3 114/1/3
f 116/1/3 114/1/3 111/1/3
f 116/10/3 115/10/3 114/10/3
f 117/1/3 113/1/3 115/1/3
f 117/10/3 115/10/3 116/10/3
f 118/1/3 116/1/3 111/1/3
f 118/9/3 117/9/3 116/9/3
f 119/1/3 113/1/3 117/1/3
f 119/9/3 117/9/3 118/9/3
f 120/7/3 110/7/3 109/7/3
f 120/3/3 109/3/3 87/3/3
f 121/6/3 111/6/3 110/6/3
f 121/7/3 110/7/3 120/7/3
f 122/1/3 119/1/3 118/1/3
f 122/6/3 111/6/3 121/6/3
f 122/1/3 118/1/3 111/1/3
f 123/1/3 92/1/3 108/1/3
f 123/1/3 119/1/3 122/1/3
f 123/1/3 108/1/3 113/1/3
f 123/1/3 113/1/3 119/1/3
f 124/1/3 92/1/3 123/1/3
f 125/1/3 122/1/3 121/1/3
f 125/1/3 121/1/3 120/1/3
f 125/1/3 123/1/3 122/1/3
f 126/1/3 123/1/3 125/1/3
f 127/1/3 125/1/3 120/1/3
f 127/10/3 126/10/3 125/10/3
f 128/1/3 123/1/3 126/1/3
f 128/10/3 126/10/3 127/10/3
f 129/8/3 124/8/3 123/8/3
f 129/1/3 123/1/3 128/1/3
f 130/1/3 92/1/3 124/1/3
f 130/8/3 124/8/3 129/8/3
f 131/1/3 129/1/3 128/1/3
f 131/1/3 128/1/3 127/1/3
f 131/1/3 130/1/3 129/1/3
f 132/1/3 130/1/3 131/1/3
f 133/1/3 131/1/3 127/1/3
f 133/10/3 132/10/3 131/10/3
f 134/1/3 130/1/3 132/1/3
f 134/10/3 132/10/3 133/10/3
f 135/1/3 127/1/3 120/1/3
f 135/3/3 120/3/3 87/3/3
f 135/1/3 134/1/3 133/1/3
f 135/1/3 133/1/3 127/1/3
f 136/1/3 134/1/3 135/1/3
f 137/1/3 134/1/3 136/1/3
f 138/6/3 137/6/3 136/6/3
f 138/1/3 134/1/3 137/1/3
f 139/1/3 134/1/3 138/1/3
f 140/6/3 138/6/3 136/6/3
f 140/11/3 139/11/3 138/11/3
f 141/1/3 134/1/3 139/1/3
f 141/11/3 139/11/3 140/11/3
f 142/3/3 135/3/3 87/3/3
f 143/7/3 136/7/3 135/7/3
f 143/3/3 135/3/3 142/3/3
f 144/6/3 140/6/3 136/6/3
f 144/7/3 136/7/3 143/7/3
f 145/1/3 141/1/3 140/1/3
f 145/6/3 140/6/3 144/6/3
f 146/1/3 92/1/3 130/1/3
f 146/1/3 141/1/3 145/1/3
f 146/1/3 130/1/3 134/1/3
f 146/3/3 93/3/3 92/3/3
f 146/1/3 134/1/3 141/1/3
f 147/3/3 93/3/3 146/3/3
f 148/4/3 143/4/3 142/4/3
f 149/3/3 145/3/3 144/3/3
f 149/4/3 143/4/3 148/4/3
f 149/3/3 144/3/3 143/3/3
f 149/3/3 146/3/3 145/3/3
f 150/4/3 147/4/3 146/4/3
f 150/3/3 146/3/3 149/3/3
f 151/4/3 147/4/3 150/4/3
f 154/3/3 153/3/3 152/3/3
f 155/3/3 153/3/3 154/3/3
f 158/3/3 157/3/3 156/3/3
f 159/3/3 157/3/3 158/3/3
f 162/3/3 160/3/3 159/3/3
f 163/3/3 160/3/3 162/3/3
f 164/3/3 162/3/3 161/3/3
f 165/3/3 162/3/3 164/3/3
f 166/4/4 167/4/4 170/4/4
f 167/3/4 168/3/4 171/3/4
f 170/4/4 167/4/4 171/4/4
f 171/3/4 168/3/4 172/3/4
f 172/3/4 168/3/4 173/3/4
f 168/4/4 169/4/4 174/4/4
f 173/3/4 168/3/4 174/3/4
f 174/4/4 169/4/4 175/4/4
f 170/3/4 171/3/4 176/3/4
f 174/3/4 175/3/4 177/3/4
f 170/3/4 176/3/4 178/3/4
f 177/3/4 175/3/4 179/3/4
f 170/3/4 178/3/4 180/3/4
f 180/3/4 178/3/4 181/3/4
f 179/3/4 175/3/4 184/3/4
f 184/3/4 175/3/4 185/3/4
f 180/4/4 181/4/4 186/4/4
f 182/3/4 183/3/4 187/3/4
f 186/4/4 181/4/4 187/4/4
f 181/3/4 182/3/4 187/3/4
f 183/3/4 184/3/4 187/3/4
f 184/4/4 185/4/4 188/4/4
f 187/3/4 184/3/4 188/3/4
f 188/4/4 185/4/4 189/4/4
f 190/4/4 191/4/4 194/4/4
f 191/3/4 192/3/4 195/3/4
f 194/4/4 191/4/4 195/4/4
f 192/4/4 193/4/4 196/4/4
f 195/3/4 192/3/4 196/3/4
f 196/4/4 193/4/4 197/4/4
f 194/3/4 195/3/4 198/3/4
f 195/3/4 196/3/4 198/3/4
f 196/3/4 197/3/4 198/3/4
f 198/3/4 197/3/4 199/3/4
f 199/3/4 197/3/4 200/3/4
f 200/3/4 197/3/4 201/3/4
f 201/3/4 197/3/4 203/3/4
f 202/3/4 203/3/4 205/3/4
f 204/3/4 205/3/4 206/3/4
f 206/3/4 205/3/4 207/3/4
f 203/3/4 197/3/4 208/3/4
f 207/3/4 205/3/4 208/3/4
f 205/3/4 203/3/4 208/3/4
f 208/3/4 197/3/4 209/3/4
f 206/4/4 207/4/4 210/4/4
f 207/3/4 208/3/4 211/3/4
f 210/4/4 207/4/4 211/4/4
f 208/4/4 209/4/4 212/4/4
f 211/3/4 208/3/4 212/3/4
f 212/4/4 209/4/4 213/4/4
f 214/3/4 215/3/4 216/3/4
f 216/3/4 215/3/4 217/3/4
f 217/3/4 218/3/4 219/3/4
f 219/3/4 218/3/4 220/3/4
f 220/3/4 221/3/4 223/3/4
f 223/3/4 221/3/4 224/3/4
f 222/3/4 223/3/4 226/3/4
f 226/3/4 223/3/4 227/3/4
f 225/3/4 226/3/4 228/3/4
f 228/3/4 226/3/4 229/3/4
f 230/3/4 231/3/4 232/3/4
f 232/3/4 231/3/4 233/3/4
f 233/3/4 234/3/4 236/3/4
f 236/3/4 234/3/4 237/3/4
f 235/3/4 236/3/4 238/3/4
f 238/3/4 236/3/4 239/3/4
f 240/3/4 241/3/4 242/3/4
f 242/3/4 241/3/4 243/3/4
f 247/3/5 245/3/5 244/3/5
f 248/3/5 245/3/5 247/3/5
f 250/3/5 247/3/5 246/3/5
f 250/3/5 249/3/5 248/3/5
f 250/3/5 248/3/5 247/3/5
f 251/3/5 249/3/5 250/3/5
f 252/3/5 249/3/5 251/3/5
f 253/3/5 249/3/5 252/3/5
f 254/3/5 252/3/5 251/3/5
f 255/3/5 252/3/5 254/3/5
f 256/3/5 252/3/5 255/3/5
f 257/3/5 252/3/5 256/3/5
f 258/3/5 256/3/5 255/3/5
f 259/3/5 256/3/5 258/3/5
f 264/4/5 261/4/5 260/4/5
f 265/3/5 262/3/5 261/3/5
f 265/4/5 261/4/5 264/4/5
f 266/4/5 263/4/5 262/4/5
f 266/3/5 262/3/5 265/3/5
f 267/4/5 263/4/5 266/4/5
f 272/4/5 269/4/5 268/4/5
f 273/3/5 270/3/5 269/3/5
f 273/4/5 269/4/5 272/4/5
f 274/3/5 270/3/5 273/3/5
f 275/3/5 270/3/5 274/3/5
f 276/4/5 271/4/5 270/4/5
f 276/3/5 270/3/5 275/3/5
f 277/4/5 271/4/5 276/4/5
f 278/3/6 279/3/6 281/3/6
f 281/3/6 279/3/6 282/3/6
f 280/3/6 281/3/6 284/3/6
f 284/3/6 281/3/6 285/3/6
f 282/3/6 283/3/6 288/3/6
f 288/3/6 283/3/6 289/3/6
f 285/3/6 286/3/6 290/3/6
f 290/3/6 286/3/6 291/3/6
f 287/3/6 288/3/6 292/3/6
f 292/3/6 288/3/6 293/3/6
f 291/3/6 292/3/6 294/3/6
f 294/3/6 292/3/6 295/3/6
f 296/3/6 297/3/6 300/3/6
f 300/3/6 297/3/6 301/3/6
f 298/3/6 299/3/6 302/3/6
f 302/3/6 299/3/6 303/3/6
f 301/3/6 302/3/6 304/3/6
f 304/3/6 302/3/6 305/3/6
f 306/3/6 307/3/6 308/3/6
f 308/3/6 307/3/6 309/3/6
f 310/4/6 311/4/6 314/4/6
f 311/3/6 312/3/6 315/3/6
f 314/4/6 311/4/6 315/4/6
f 312/4/6 313/4/6 316/4/6
f 315/3/6 312/3/6 316/3/6
f 316/4/6 313/4/6 317/4/6
f 318/4/6 319/4/6 322/4/6
f 319/3/6 320/3/6 323/3/6
f 322/4/6 319/4/6 323/4/6
f 320/4/6 321/4/6 324/4/6
f 323/3/6 320/3/6 324/3/6
f 324/4/6 321/4/6 325/4/6
