# MagicaVoxel @ Ephtracy

# group
o 

# material
mtllib Teddy Bear.mtl
usemtl palette

# normals
vn -1 0 0
vn 1 0 0
vn 0 0 1
vn 0 0 -1
vn 0 -1 0
vn 0 1 0

# texcoords
vt 0.0410156 0.5
vt 0.205078 0.5
vt 0.208984 0.5
vt 0.236328 0.5
vt 0.248047 0.5
vt 0.396484 0.5
vt 0.451172 0.5
vt 0.966797 0.5
vt 0.994141 0.5

# verts
v -0.8 0.5 -0.2
v -0.8 0.5 -0.5
v -0.8 0.8 -0.2
v -0.8 0.8 -0.5
v -0.5 0 0.4
v -0.5 0 -0.8
v -0.5 0.2 0.4
v -0.5 0.2 0.3
v -0.5 0.3 0.4
v -0.5 0.3 0.3
v -0.5 0.3 0.1
v -0.5 0.4 0.1
v -0.5 0.4 -0.8
v -0.5 0.5 -0.2
v -0.5 0.5 -0.5
v -0.5 0.8 -0.2
v -0.5 0.8 -0.5
v -0.5 0.9 0.1
v -0.5 0.9 -0.8
v -0.4 0.9 0
v -0.4 0.9 -0.7
v -0.4 1.5 0
v -0.4 1.5 -0.4
v -0.4 1.5 -0.6
v -0.4 1.5 -0.7
v -0.4 1.6 -0.4
v -0.4 1.6 -0.6
v -0.2 1 0.1
v -0.2 1 0
v -0.2 1.2 0.1
v -0.2 1.2 0
v 5.96046e-08 0 0.4
v 5.96046e-08 0 0.1
v 5.96046e-08 0.3 0.4
v 5.96046e-08 0.3 0.1
v 0.1 1.5 -0.4
v 0.1 1.5 -0.6
v 0.1 1.6 -0.4
v 0.1 1.6 -0.6
v -0.2 1.5 -0.4
v -0.2 1.5 -0.6
v -0.2 1.6 -0.4
v -0.2 1.6 -0.6
v -0.1 0 0.4
v -0.1 0 0.1
v -0.1 0.3 0.4
v -0.1 0.3 0.1
v 0.1 1 0.1
v 0.1 1 0
v 0.1 1.2 0.1
v 0.1 1.2 0
v 0.3 0.9 0
v 0.3 0.9 -0.7
v 0.3 1.5 0
v 0.3 1.5 -0.4
v 0.3 1.5 -0.6
v 0.3 1.5 -0.7
v 0.3 1.6 -0.4
v 0.3 1.6 -0.6
v 0.4 0 0.4
v 0.4 0 -0.8
v 0.4 0.2 0.4
v 0.4 0.2 0.3
v 0.4 0.3 0.4
v 0.4 0.3 0.3
v 0.4 0.3 0.1
v 0.4 0.4 0.1
v 0.4 0.4 -0.8
v 0.4 0.5 -0.2
v 0.4 0.5 -0.5
v 0.4 0.8 -0.2
v 0.4 0.8 -0.5
v 0.4 0.9 0.1
v 0.4 0.9 -0.8
v 0.7 0.5 -0.2
v 0.7 0.5 -0.5
v 0.7 0.8 -0.2
v 0.7 0.8 -0.5
v -0.5 0 0.4
v -0.5 0.2 0.4
v -0.5 0.3 0.4
v -0.4 0.2 0.4
v -0.4 0.3 0.4
v -0.3 0.2 0.4
v -0.3 0.3 0.4
v -0.2 0.2 0.4
v -0.2 0.3 0.4
v -0.1 0 0.4
v -0.1 0.3 0.4
v 5.96046e-08 0 0.4
v 5.96046e-08 0.3 0.4
v 0.1 0.2 0.4
v 0.1 0.3 0.4
v 0.2 0.2 0.4
v 0.2 0.3 0.4
v 0.3 0.2 0.4
v 0.3 0.3 0.4
v 0.4 0 0.4
v 0.4 0.2 0.4
v 0.4 0.3 0.4
v -0.5 0.3 0.1
v -0.5 0.4 0.1
v -0.5 0.9 0.1
v -0.2 0.6 0.1
v -0.2 0.7 0.1
v -0.2 1 0.1
v -0.2 1.2 0.1
v -0.1 0 0.1
v -0.1 0.3 0.1
v -0.1 0.5 0.1
v -0.1 0.6 0.1
v -0.1 0.7 0.1
v -0.1 0.8 0.1
v -0.1 1.1 0.1
v -0.1 1.2 0.1
v 5.96046e-08 0 0.1
v 5.96046e-08 0.3 0.1
v 5.96046e-08 0.5 0.1
v 5.96046e-08 0.6 0.1
v 5.96046e-08 0.7 0.1
v 5.96046e-08 0.8 0.1
v 5.96046e-08 1.1 0.1
v 5.96046e-08 1.2 0.1
v 0.1 0.6 0.1
v 0.1 0.7 0.1
v 0.1 1 0.1
v 0.1 1.2 0.1
v 0.4 0.3 0.1
v 0.4 0.4 0.1
v 0.4 0.9 0.1
v -0.4 0.9 0
v -0.4 1.5 0
v -0.3 1.2 0
v -0.3 1.3 0
v -0.2 1 0
v -0.2 1.2 0
v -0.2 1.3 0
v -0.1 1.2 0
v 5.96046e-08 1.2 0
v 0.1 1 0
v 0.1 1.2 0
v 0.1 1.3 0
v 0.2 1.2 0
v 0.2 1.3 0
v 0.3 0.9 0
v 0.3 1.5 0
v -0.8 0.5 -0.2
v -0.8 0.8 -0.2
v -0.7 0.5 -0.2
v -0.7 0.8 -0.2
v -0.5 0.5 -0.2
v -0.5 0.8 -0.2
v 0.4 0.5 -0.2
v 0.4 0.8 -0.2
v 0.6 0.5 -0.2
v 0.6 0.8 -0.2
v 0.7 0.5 -0.2
v 0.7 0.8 -0.2
v -0.4 1.5 -0.4
v -0.4 1.6 -0.4
v -0.2 1.5 -0.4
v -0.2 1.6 -0.4
v 0.1 1.5 -0.4
v 0.1 1.6 -0.4
v 0.3 1.5 -0.4
v 0.3 1.6 -0.4
v -0.8 0.5 -0.5
v -0.8 0.8 -0.5
v -0.7 0.5 -0.5
v -0.7 0.8 -0.5
v -0.5 0.5 -0.5
v -0.5 0.8 -0.5
v 0.4 0.5 -0.5
v 0.4 0.8 -0.5
v 0.6 0.5 -0.5
v 0.6 0.8 -0.5
v 0.7 0.5 -0.5
v 0.7 0.8 -0.5
v -0.4 1.5 -0.6
v -0.4 1.6 -0.6
v -0.2 1.5 -0.6
v -0.2 1.6 -0.6
v 0.1 1.5 -0.6
v 0.1 1.6 -0.6
v 0.3 1.5 -0.6
v 0.3 1.6 -0.6
v -0.4 0.9 -0.7
v -0.4 1.5 -0.7
v 0.3 0.9 -0.7
v 0.3 1.5 -0.7
v -0.5 0 -0.8
v -0.5 0.4 -0.8
v -0.5 0.9 -0.8
v 0.4 0 -0.8
v 0.4 0.4 -0.8
v 0.4 0.9 -0.8
v -0.5 0 0.4
v -0.1 0 0.4
v 5.96046e-08 0 0.4
v 0.4 0 0.4
v -0.1 0 0.1
v 5.96046e-08 0 0.1
v -0.5 0 -0.8
v 0.4 0 -0.8
v -0.8 0.5 -0.2
v -0.7 0.5 -0.2
v -0.5 0.5 -0.2
v 0.4 0.5 -0.2
v 0.6 0.5 -0.2
v 0.7 0.5 -0.2
v -0.8 0.5 -0.5
v -0.7 0.5 -0.5
v -0.5 0.5 -0.5
v 0.4 0.5 -0.5
v 0.6 0.5 -0.5
v 0.7 0.5 -0.5
v -0.2 1 0.1
v 0.1 1 0.1
v -0.2 1 0
v 0.1 1 0
v -0.5 0.3 0.4
v -0.4 0.3 0.4
v -0.3 0.3 0.4
v -0.2 0.3 0.4
v -0.1 0.3 0.4
v 5.96046e-08 0.3 0.4
v 0.1 0.3 0.4
v 0.2 0.3 0.4
v 0.3 0.3 0.4
v 0.4 0.3 0.4
v -0.5 0.3 0.3
v -0.4 0.3 0.3
v -0.3 0.3 0.3
v -0.2 0.3 0.3
v 0.1 0.3 0.3
v 0.2 0.3 0.3
v 0.3 0.3 0.3
v 0.4 0.3 0.3
v -0.5 0.3 0.1
v -0.1 0.3 0.1
v 5.96046e-08 0.3 0.1
v 0.4 0.3 0.1
v -0.8 0.8 -0.2
v -0.7 0.8 -0.2
v -0.5 0.8 -0.2
v 0.4 0.8 -0.2
v 0.6 0.8 -0.2
v 0.7 0.8 -0.2
v -0.8 0.8 -0.5
v -0.7 0.8 -0.5
v -0.5 0.8 -0.5
v 0.4 0.8 -0.5
v 0.6 0.8 -0.5
v 0.7 0.8 -0.5
v -0.5 0.9 0.1
v 0.4 0.9 0.1
v -0.4 0.9 0
v 0.3 0.9 0
v -0.4 0.9 -0.7
v 0.3 0.9 -0.7
v -0.5 0.9 -0.8
v 0.4 0.9 -0.8
v -0.2 1.2 0.1
v -0.1 1.2 0.1
v 5.96046e-08 1.2 0.1
v 0.1 1.2 0.1
v -0.2 1.2 0
v -0.1 1.2 0
v 5.96046e-08 1.2 0
v 0.1 1.2 0
v -0.4 1.5 0
v 0.3 1.5 0
v -0.4 1.5 -0.4
v -0.2 1.5 -0.4
v 0.1 1.5 -0.4
v 0.3 1.5 -0.4
v -0.4 1.5 -0.6
v -0.2 1.5 -0.6
v 0.1 1.5 -0.6
v 0.3 1.5 -0.6
v -0.4 1.5 -0.7
v 0.3 1.5 -0.7
v -0.4 1.6 -0.4
v -0.2 1.6 -0.4
v 0.1 1.6 -0.4
v 0.3 1.6 -0.4
v -0.4 1.6 -0.6
v -0.2 1.6 -0.6
v 0.1 1.6 -0.6
v 0.3 1.6 -0.6

# faces
f 3/3/1 2/3/1 1/3/1
f 4/3/1 2/3/1 3/3/1
f 7/3/1 6/3/1 5/3/1
f 8/3/1 6/3/1 7/3/1
f 9/2/1 8/2/1 7/2/1
f 10/3/1 6/3/1 8/3/1
f 10/2/1 8/2/1 9/2/1
f 11/3/1 6/3/1 10/3/1
f 12/3/1 6/3/1 11/3/1
f 13/3/1 6/3/1 12/3/1
f 14/4/1 13/4/1 12/4/1
f 15/4/1 13/4/1 14/4/1
f 16/4/1 14/4/1 12/4/1
f 17/4/1 13/4/1 15/4/1
f 18/4/1 16/4/1 12/4/1
f 18/4/1 17/4/1 16/4/1
f 19/4/1 13/4/1 17/4/1
f 19/4/1 17/4/1 18/4/1
f 22/3/1 21/3/1 20/3/1
f 23/3/1 21/3/1 22/3/1
f 24/3/1 21/3/1 23/3/1
f 25/3/1 21/3/1 24/3/1
f 26/3/1 24/3/1 23/3/1
f 27/3/1 24/3/1 26/3/1
f 30/8/1 29/8/1 28/8/1
f 31/8/1 29/8/1 30/8/1
f 34/3/1 33/3/1 32/3/1
f 35/3/1 33/3/1 34/3/1
f 38/3/1 37/3/1 36/3/1
f 39/3/1 37/3/1 38/3/1
f 40/3/2 41/3/2 42/3/2
f 42/3/2 41/3/2 43/3/2
f 44/3/2 45/3/2 46/3/2
f 46/3/2 45/3/2 47/3/2
f 48/8/2 49/8/2 50/8/2
f 50/8/2 49/8/2 51/8/2
f 52/3/2 53/3/2 54/3/2
f 54/3/2 53/3/2 55/3/2
f 55/3/2 53/3/2 56/3/2
f 56/3/2 53/3/2 57/3/2
f 55/3/2 56/3/2 58/3/2
f 58/3/2 56/3/2 59/3/2
f 60/3/2 61/3/2 62/3/2
f 62/3/2 61/3/2 63/3/2
f 62/2/2 63/2/2 64/2/2
f 63/3/2 61/3/2 65/3/2
f 64/2/2 63/2/2 65/2/2
f 65/3/2 61/3/2 66/3/2
f 66/3/2 61/3/2 67/3/2
f 67/3/2 61/3/2 68/3/2
f 67/4/2 68/4/2 69/4/2
f 69/4/2 68/4/2 70/4/2
f 67/4/2 69/4/2 71/4/2
f 70/4/2 68/4/2 72/4/2
f 67/4/2 71/4/2 73/4/2
f 71/4/2 72/4/2 73/4/2
f 72/4/2 68/4/2 74/4/2
f 73/4/2 72/4/2 74/4/2
f 75/3/2 76/3/2 77/3/2
f 77/3/2 76/3/2 78/3/2
f 82/3/3 80/3/3 79/3/3
f 82/2/3 81/2/3 80/2/3
f 83/2/3 81/2/3 82/2/3
f 84/3/3 82/3/3 79/3/3
f 84/3/3 83/3/3 82/3/3
f 85/3/3 83/3/3 84/3/3
f 86/3/3 84/3/3 79/3/3
f 86/2/3 85/2/3 84/2/3
f 87/2/3 85/2/3 86/2/3
f 88/3/3 86/3/3 79/3/3
f 88/3/3 87/3/3 86/3/3
f 89/3/3 87/3/3 88/3/3
f 92/3/3 91/3/3 90/3/3
f 93/3/3 91/3/3 92/3/3
f 94/3/3 92/3/3 90/3/3
f 94/2/3 93/2/3 92/2/3
f 95/2/3 93/2/3 94/2/3
f 96/3/3 94/3/3 90/3/3
f 96/3/3 95/3/3 94/3/3
f 97/3/3 95/3/3 96/3/3
f 98/3/3 96/3/3 90/3/3
f 99/2/3 97/2/3 96/2/3
f 99/3/3 96/3/3 98/3/3
f 100/2/3 97/2/3 99/2/3
f 104/4/3 103/4/3 102/4/3
f 105/4/3 103/4/3 104/4/3
f 109/3/3 102/3/3 101/3/3
f 110/4/3 104/4/3 102/4/3
f 111/7/3 105/7/3 104/7/3
f 111/4/3 104/4/3 110/4/3
f 112/4/3 103/4/3 105/4/3
f 112/7/3 105/7/3 111/7/3
f 113/4/3 103/4/3 112/4/3
f 114/8/3 107/8/3 106/8/3
f 115/8/3 107/8/3 114/8/3
f 116/3/3 109/3/3 108/3/3
f 117/3/3 102/3/3 109/3/3
f 117/3/3 109/3/3 116/3/3
f 118/4/3 110/4/3 102/4/3
f 118/7/3 111/7/3 110/7/3
f 119/1/3 112/1/3 111/1/3
f 119/7/3 111/7/3 118/7/3
f 120/7/3 113/7/3 112/7/3
f 120/1/3 112/1/3 119/1/3
f 121/4/3 103/4/3 113/4/3
f 121/7/3 113/7/3 120/7/3
f 122/8/3 114/8/3 106/8/3
f 122/6/3 115/6/3 114/6/3
f 123/6/3 115/6/3 122/6/3
f 124/7/3 120/7/3 119/7/3
f 124/4/3 119/4/3 118/4/3
f 125/4/3 121/4/3 120/4/3
f 125/7/3 120/7/3 124/7/3
f 126/8/3 123/8/3 122/8/3
f 126/8/3 122/8/3 106/8/3
f 127/8/3 123/8/3 126/8/3
f 128/3/3 102/3/3 117/3/3
f 129/4/3 118/4/3 102/4/3
f 129/3/3 102/3/3 128/3/3
f 129/4/3 125/4/3 124/4/3
f 129/4/3 124/4/3 118/4/3
f 130/4/3 121/4/3 125/4/3
f 130/4/3 125/4/3 129/4/3
f 130/4/3 103/4/3 121/4/3
f 133/3/3 132/3/3 131/3/3
f 134/3/3 132/3/3 133/3/3
f 135/3/3 133/3/3 131/3/3
f 136/9/3 134/9/3 133/9/3
f 136/3/3 133/3/3 135/3/3
f 137/3/3 132/3/3 134/3/3
f 137/9/3 134/9/3 136/9/3
f 138/3/3 137/3/3 136/3/3
f 139/3/3 137/3/3 138/3/3
f 140/3/3 135/3/3 131/3/3
f 141/3/3 137/3/3 139/3/3
f 142/3/3 132/3/3 137/3/3
f 142/3/3 137/3/3 141/3/3
f 143/3/3 141/3/3 140/3/3
f 143/9/3 142/9/3 141/9/3
f 144/3/3 132/3/3 142/3/3
f 144/9/3 142/9/3 143/9/3
f 145/3/3 143/3/3 140/3/3
f 145/3/3 140/3/3 131/3/3
f 145/3/3 144/3/3 143/3/3
f 146/3/3 132/3/3 144/3/3
f 146/3/3 144/3/3 145/3/3
f 149/3/3 148/3/3 147/3/3
f 150/3/3 148/3/3 149/3/3
f 151/4/3 150/4/3 149/4/3
f 152/4/3 150/4/3 151/4/3
f 155/4/3 154/4/3 153/4/3
f 156/4/3 154/4/3 155/4/3
f 157/3/3 156/3/3 155/3/3
f 158/3/3 156/3/3 157/3/3
f 161/3/3 160/3/3 159/3/3
f 162/3/3 160/3/3 161/3/3
f 165/3/3 164/3/3 163/3/3
f 166/3/3 164/3/3 165/3/3
f 167/3/4 168/3/4 169/3/4
f 169/3/4 168/3/4 170/3/4
f 169/4/4 170/4/4 171/4/4
f 171/4/4 170/4/4 172/4/4
f 173/4/4 174/4/4 175/4/4
f 175/4/4 174/4/4 176/4/4
f 175/3/4 176/3/4 177/3/4
f 177/3/4 176/3/4 178/3/4
f 179/3/4 180/3/4 181/3/4
f 181/3/4 180/3/4 182/3/4
f 183/3/4 184/3/4 185/3/4
f 185/3/4 184/3/4 186/3/4
f 187/3/4 188/3/4 189/3/4
f 189/3/4 188/3/4 190/3/4
f 191/3/4 192/3/4 194/3/4
f 192/4/4 193/4/4 195/4/4
f 194/3/4 192/3/4 195/3/4
f 195/4/4 193/4/4 196/4/4
f 201/3/5 198/3/5 197/3/5
f 202/3/5 200/3/5 199/3/5
f 203/3/5 201/3/5 197/3/5
f 203/3/5 202/3/5 201/3/5
f 204/3/5 200/3/5 202/3/5
f 204/3/5 202/3/5 203/3/5
f 211/3/5 206/3/5 205/3/5
f 212/4/5 207/4/5 206/4/5
f 212/3/5 206/3/5 211/3/5
f 213/4/5 207/4/5 212/4/5
f 214/4/5 209/4/5 208/4/5
f 215/3/5 210/3/5 209/3/5
f 215/4/5 209/4/5 214/4/5
f 216/3/5 210/3/5 215/3/5
f 219/8/5 218/8/5 217/8/5
f 220/8/5 218/8/5 219/8/5
f 221/2/6 222/2/6 231/2/6
f 222/3/6 223/3/6 232/3/6
f 231/2/6 222/2/6 232/2/6
f 223/2/6 224/2/6 233/2/6
f 232/3/6 223/3/6 233/3/6
f 224/3/6 225/3/6 234/3/6
f 233/2/6 224/2/6 234/2/6
f 226/3/6 227/3/6 235/3/6
f 227/2/6 228/2/6 235/2/6
f 228/3/6 229/3/6 236/3/6
f 235/2/6 228/2/6 236/2/6
f 229/2/6 230/2/6 237/2/6
f 236/3/6 229/3/6 237/3/6
f 237/2/6 230/2/6 238/2/6
f 231/3/6 232/3/6 239/3/6
f 232/3/6 233/3/6 239/3/6
f 233/3/6 234/3/6 239/3/6
f 234/3/6 225/3/6 240/3/6
f 239/3/6 234/3/6 240/3/6
f 235/3/6 236/3/6 241/3/6
f 237/3/6 238/3/6 241/3/6
f 226/3/6 235/3/6 241/3/6
f 236/3/6 237/3/6 241/3/6
f 241/3/6 238/3/6 242/3/6
f 243/3/6 244/3/6 249/3/6
f 244/4/6 245/4/6 250/4/6
f 249/3/6 244/3/6 250/3/6
f 250/4/6 245/4/6 251/4/6
f 246/4/6 247/4/6 252/4/6
f 247/3/6 248/3/6 253/3/6
f 252/4/6 247/4/6 253/4/6
f 253/3/6 248/3/6 254/3/6
f 255/4/6 256/4/6 257/4/6
f 257/4/6 256/4/6 258/4/6
f 255/4/6 257/4/6 259/4/6
f 258/4/6 256/4/6 260/4/6
f 255/4/6 259/4/6 261/4/6
f 259/4/6 260/4/6 261/4/6
f 260/4/6 256/4/6 262/4/6
f 261/4/6 260/4/6 262/4/6
f 263/8/6 264/8/6 267/8/6
f 264/6/6 265/6/6 268/6/6
f 267/8/6 264/8/6 268/8/6
f 265/8/6 266/8/6 269/8/6
f 268/6/6 265/6/6 269/6/6
f 269/8/6 266/8/6 270/8/6
f 271/3/6 272/3/6 273/3/6
f 273/3/6 272/3/6 274/3/6
f 274/3/6 272/3/6 275/3/6
f 275/3/6 272/3/6 276/3/6
f 274/3/6 275/3/6 278/3/6
f 278/3/6 275/3/6 279/3/6
f 277/3/6 278/3/6 281/3/6
f 279/3/6 280/3/6 281/3/6
f 278/3/6 279/3/6 281/3/6
f 281/3/6 280/3/6 282/3/6
f 283/3/6 284/3/6 287/3/6
f 287/3/6 284/3/6 288/3/6
f 285/3/6 286/3/6 289/3/6
f 289/3/6 286/3/6 290/3/6
