# MagicaVoxel @ Ephtracy

# group
o 

# material
mtllib Office_Table_Piece_White_06.mtl
usemtl palette

# normals
vn -1 0 0
vn 1 0 0
vn 0 0 1
vn 0 0 -1
vn 0 -1 0
vn 0 1 0

# texcoords
vt 0.876953 0.5
vt 0.888672 0.5
vt 0.904297 0.5

# verts
v -0.8 0.1 -0.4
v -0.8 0.1 -0.5
v -0.8 1 0.6
v -0.8 1 -0.4
v -0.8 1 -0.5
v -0.8 1 -0.6
v -0.8 1.1 0.6
v -0.8 1.1 -0.6
v -0.6 1 0.8
v -0.6 1 0.6
v -0.6 1.1 0.8
v -0.6 1.1 0.6
v -0.5 0 -0.4
v -0.5 0 -0.5
v -0.5 0.1 0.8
v -0.5 0.1 -0.4
v -0.5 0.1 -0.5
v -0.5 1 0.8
v -0.5 1 -0.4
v -0.4 0 -0.4
v -0.4 0 -0.5
v -0.4 0.1 0.8
v -0.4 0.1 -0.4
v -0.4 0.1 -0.5
v -0.4 1 0.8
v -0.4 1 -0.4
v 0.6 1 0.8
v 0.6 1 0.6
v 0.6 1.1 0.8
v 0.6 1.1 0.6
v 0.8 0.1 -0.4
v 0.8 0.1 -0.5
v 0.8 1 0.6
v 0.8 1 -0.4
v 0.8 1 -0.5
v 0.8 1 -0.6
v 0.8 1.1 0.6
v 0.8 1.1 -0.6
v -0.6 1 0.8
v -0.6 1.1 0.8
v -0.5 0.1 0.8
v -0.5 1 0.8
v -0.4 0.1 0.8
v -0.4 1 0.8
v 0.6 1 0.8
v 0.6 1.1 0.8
v -0.8 1 0.6
v -0.8 1.1 0.6
v -0.6 1 0.6
v -0.6 1.1 0.6
v 0.6 1 0.6
v 0.6 1.1 0.6
v 0.8 1 0.6
v 0.8 1.1 0.6
v -0.8 0.1 -0.4
v -0.8 1 -0.4
v -0.5 0 -0.4
v -0.5 0.1 -0.4
v -0.5 1 -0.4
v -0.4 0 -0.4
v -0.4 0.1 -0.4
v -0.4 1 -0.4
v 0.8 0.1 -0.4
v 0.8 1 -0.4
v -0.8 0.1 -0.5
v -0.8 1 -0.5
v -0.5 0 -0.5
v -0.5 0.1 -0.5
v -0.5 1 -0.5
v -0.4 0 -0.5
v -0.4 0.1 -0.5
v -0.4 1 -0.5
v 0.8 0.1 -0.5
v 0.8 1 -0.5
v -0.8 1 -0.6
v -0.8 1.1 -0.6
v 0.8 1 -0.6
v 0.8 1.1 -0.6
v -0.5 0 -0.4
v -0.4 0 -0.4
v -0.5 0 -0.5
v -0.4 0 -0.5
v -0.5 0.1 0.8
v -0.4 0.1 0.8
v -0.8 0.1 -0.4
v -0.5 0.1 -0.4
v -0.4 0.1 -0.4
v 0.8 0.1 -0.4
v -0.8 0.1 -0.5
v -0.5 0.1 -0.5
v -0.4 0.1 -0.5
v 0.8 0.1 -0.5
v -0.6 1 0.8
v -0.5 1 0.8
v -0.4 1 0.8
v 0.6 1 0.8
v -0.8 1 0.6
v -0.6 1 0.6
v 0.6 1 0.6
v 0.8 1 0.6
v -0.8 1 -0.4
v -0.5 1 -0.4
v -0.4 1 -0.4
v 0.8 1 -0.4
v -0.8 1 -0.5
v -0.5 1 -0.5
v -0.4 1 -0.5
v 0.8 1 -0.5
v -0.8 1 -0.6
v 0.8 1 -0.6
v -0.6 1.1 0.8
v 0.6 1.1 0.8
v -0.8 1.1 0.6
v -0.6 1.1 0.6
v 0.6 1.1 0.6
v 0.8 1.1 0.6
v -0.8 1.1 -0.6
v 0.8 1.1 -0.6

# faces
f 4/2/1 2/2/1 1/2/1
f 5/2/1 2/2/1 4/2/1
f 7/2/1 4/2/1 3/2/1
f 7/2/1 6/2/1 5/2/1
f 7/2/1 5/2/1 4/2/1
f 8/2/1 6/2/1 7/2/1
f 11/2/1 10/2/1 9/2/1
f 12/2/1 10/2/1 11/2/1
f 16/3/1 14/3/1 13/3/1
f 17/3/1 14/3/1 16/3/1
f 18/2/1 16/2/1 15/2/1
f 19/2/1 16/2/1 18/2/1
f 20/3/2 21/3/2 23/3/2
f 23/3/2 21/3/2 24/3/2
f 22/2/2 23/2/2 25/2/2
f 25/2/2 23/2/2 26/2/2
f 27/2/2 28/2/2 29/2/2
f 29/2/2 28/2/2 30/2/2
f 31/2/2 32/2/2 34/2/2
f 34/2/2 32/2/2 35/2/2
f 33/2/2 34/2/2 37/2/2
f 35/2/2 36/2/2 37/2/2
f 34/2/2 35/2/2 37/2/2
f 37/2/2 36/2/2 38/2/2
f 42/2/3 40/2/3 39/2/3
f 43/2/3 42/2/3 41/2/3
f 44/2/3 40/2/3 42/2/3
f 44/2/3 42/2/3 43/2/3
f 45/2/3 40/2/3 44/2/3
f 46/2/3 40/2/3 45/2/3
f 49/2/3 48/2/3 47/2/3
f 50/2/3 48/2/3 49/2/3
f 53/2/3 52/2/3 51/2/3
f 54/2/3 52/2/3 53/2/3
f 58/2/3 56/2/3 55/2/3
f 59/2/3 56/2/3 58/2/3
f 60/3/3 58/3/3 57/3/3
f 61/3/3 58/3/3 60/3/3
f 63/2/3 62/2/3 61/2/3
f 64/2/3 62/2/3 63/2/3
f 65/2/4 66/2/4 68/2/4
f 68/2/4 66/2/4 69/2/4
f 67/3/4 68/3/4 70/3/4
f 68/1/4 69/1/4 71/1/4
f 70/3/4 68/3/4 71/3/4
f 71/1/4 69/1/4 72/1/4
f 71/2/4 72/2/4 73/2/4
f 73/2/4 72/2/4 74/2/4
f 75/2/4 76/2/4 77/2/4
f 77/2/4 76/2/4 78/2/4
f 81/3/5 80/3/5 79/3/5
f 82/3/5 80/3/5 81/3/5
f 86/2/5 84/2/5 83/2/5
f 87/2/5 84/2/5 86/2/5
f 89/2/5 86/2/5 85/2/5
f 90/2/5 86/2/5 89/2/5
f 91/2/5 88/2/5 87/2/5
f 92/2/5 88/2/5 91/2/5
f 98/2/5 94/2/5 93/2/5
f 99/2/5 96/2/5 95/2/5
f 101/2/5 98/2/5 97/2/5
f 102/2/5 94/2/5 98/2/5
f 102/2/5 98/2/5 101/2/5
f 103/2/5 100/2/5 99/2/5
f 103/2/5 99/2/5 95/2/5
f 104/2/5 100/2/5 103/2/5
f 109/2/5 106/2/5 105/2/5
f 109/2/5 108/2/5 107/2/5
f 109/2/5 107/2/5 106/2/5
f 110/2/5 108/2/5 109/2/5
f 111/2/6 112/2/6 114/2/6
f 114/2/6 112/2/6 115/2/6
f 113/2/6 114/2/6 117/2/6
f 115/2/6 116/2/6 117/2/6
f 114/2/6 115/2/6 117/2/6
f 117/2/6 116/2/6 118/2/6
