# MagicaVoxel @ Ephtracy

# group
o 

# material
mtllib Office_Table_Piece_Brown_01.mtl
usemtl palette

# normals
vn -1 0 0
vn 1 0 0
vn 0 0 1
vn 0 0 -1
vn 0 -1 0
vn 0 1 0

# texcoords
vt 0.904297 0.5
vt 0.916016 0.5
vt 0.919922 0.5

# verts
v -0.8 1 0.5
v -0.8 1 -0.5
v -0.8 1.1 0.5
v -0.8 1.1 -0.5
v -0.7 0 0.4
v -0.7 0 0.3
v -0.7 0 -0.4
v -0.7 0 -0.5
v -0.7 0.1 0.4
v -0.7 0.1 0.3
v -0.7 0.1 -0.4
v -0.7 0.1 -0.5
v -0.7 1 0.6
v -0.7 1 0.5
v -0.7 1 0.4
v -0.7 1 0.3
v -0.7 1 -0.4
v -0.7 1 -0.5
v -0.7 1 -0.6
v -0.7 1.1 0.6
v -0.7 1.1 0.5
v -0.7 1.1 -0.5
v -0.7 1.1 -0.6
v -0.6 0 0.4
v -0.6 0 0.3
v -0.6 0 -0.4
v -0.6 0 -0.5
v -0.6 0.1 0.4
v -0.6 0.1 0.3
v -0.6 0.1 -0.4
v -0.6 0.1 -0.5
v -0.6 1 0.4
v -0.6 1 0.3
v -0.6 1 -0.4
v 0.8 0.1 -0.4
v 0.8 0.1 -0.5
v 0.8 1 0.6
v 0.8 1 -0.4
v 0.8 1 -0.5
v 0.8 1 -0.6
v 0.8 1.1 0.6
v 0.8 1.1 -0.6
v -0.7 1 0.6
v -0.7 1.1 0.6
v 0.8 1 0.6
v 0.8 1.1 0.6
v -0.8 1 0.5
v -0.8 1.1 0.5
v -0.7 1 0.5
v -0.7 1.1 0.5
v -0.7 0 0.4
v -0.7 0.1 0.4
v -0.7 1 0.4
v -0.6 0 0.4
v -0.6 0.1 0.4
v -0.6 1 0.4
v -0.7 0 -0.4
v -0.7 0.1 -0.4
v -0.6 0 -0.4
v -0.6 0.1 -0.4
v -0.6 1 -0.4
v 0.8 0.1 -0.4
v 0.8 1 -0.4
v -0.7 0 0.3
v -0.7 0.1 0.3
v -0.6 0 0.3
v -0.6 0.1 0.3
v -0.8 1 -0.5
v -0.8 1.1 -0.5
v -0.7 0 -0.5
v -0.7 0.1 -0.5
v -0.7 1 -0.5
v -0.7 1.1 -0.5
v -0.6 0 -0.5
v -0.6 0.1 -0.5
v -0.6 1 -0.5
v 0.8 0.1 -0.5
v 0.8 1 -0.5
v -0.7 1 -0.6
v -0.7 1.1 -0.6
v 0.8 1 -0.6
v 0.8 1.1 -0.6
v -0.7 0 0.4
v -0.6 0 0.4
v -0.7 0 0.3
v -0.6 0 0.3
v -0.7 0 -0.4
v -0.6 0 -0.4
v -0.7 0 -0.5
v -0.6 0 -0.5
v -0.7 0.1 0.3
v -0.6 0.1 0.3
v -0.7 0.1 -0.4
v -0.6 0.1 -0.4
v 0.8 0.1 -0.4
v -0.6 0.1 -0.5
v 0.8 0.1 -0.5
v -0.7 1 0.6
v 0.8 1 0.6
v -0.8 1 0.5
v -0.7 1 0.5
v -0.7 1 0.4
v -0.6 1 0.4
v -0.7 1 0.3
v -0.6 1 0.3
v -0.7 1 -0.4
v -0.6 1 -0.4
v 0.8 1 -0.4
v -0.8 1 -0.5
v -0.7 1 -0.5
v -0.6 1 -0.5
v 0.8 1 -0.5
v -0.7 1 -0.6
v 0.8 1 -0.6
v -0.7 1.1 0.6
v 0.8 1.1 0.6
v -0.8 1.1 0.5
v -0.7 1.1 0.5
v -0.8 1.1 -0.5
v -0.7 1.1 -0.5
v -0.7 1.1 -0.6
v 0.8 1.1 -0.6

# faces
f 3/2/1 2/2/1 1/2/1
f 4/2/1 2/2/1 3/2/1
f 9/1/1 6/1/1 5/1/1
f 10/1/1 6/1/1 9/1/1
f 11/1/1 8/1/1 7/1/1
f 12/1/1 8/1/1 11/1/1
f 15/3/1 10/3/1 9/3/1
f 16/2/1 11/2/1 10/2/1
f 16/3/1 10/3/1 15/3/1
f 17/3/1 12/3/1 11/3/1
f 17/2/1 11/2/1 16/2/1
f 18/3/1 12/3/1 17/3/1
f 20/2/1 14/2/1 13/2/1
f 21/2/1 14/2/1 20/2/1
f 22/2/1 19/2/1 18/2/1
f 23/2/1 19/2/1 22/2/1
f 24/1/2 25/1/2 28/1/2
f 28/1/2 25/1/2 29/1/2
f 26/1/2 27/1/2 30/1/2
f 30/1/2 27/1/2 31/1/2
f 28/3/2 29/3/2 32/3/2
f 29/2/2 30/2/2 33/2/2
f 32/3/2 29/3/2 33/3/2
f 33/2/2 30/2/2 34/2/2
f 35/2/2 36/2/2 38/2/2
f 38/2/2 36/2/2 39/2/2
f 37/2/2 38/2/2 41/2/2
f 39/2/2 40/2/2 41/2/2
f 38/2/2 39/2/2 41/2/2
f 41/2/2 40/2/2 42/2/2
f 45/2/3 44/2/3 43/2/3
f 46/2/3 44/2/3 45/2/3
f 49/2/3 48/2/3 47/2/3
f 50/2/3 48/2/3 49/2/3
f 54/1/3 52/1/3 51/1/3
f 55/3/3 53/3/3 52/3/3
f 55/1/3 52/1/3 54/1/3
f 56/3/3 53/3/3 55/3/3
f 59/1/3 58/1/3 57/1/3
f 60/1/3 58/1/3 59/1/3
f 62/2/3 61/2/3 60/2/3
f 63/2/3 61/2/3 62/2/3
f 64/1/4 65/1/4 66/1/4
f 66/1/4 65/1/4 67/1/4
f 68/2/4 69/2/4 72/2/4
f 72/2/4 69/2/4 73/2/4
f 70/1/4 71/1/4 74/1/4
f 71/3/4 72/3/4 75/3/4
f 74/1/4 71/1/4 75/1/4
f 75/3/4 72/3/4 76/3/4
f 75/2/4 76/2/4 77/2/4
f 77/2/4 76/2/4 78/2/4
f 79/2/4 80/2/4 81/2/4
f 81/2/4 80/2/4 82/2/4
f 85/1/5 84/1/5 83/1/5
f 86/1/5 84/1/5 85/1/5
f 89/1/5 88/1/5 87/1/5
f 90/1/5 88/1/5 89/1/5
f 93/2/5 92/2/5 91/2/5
f 94/2/5 92/2/5 93/2/5
f 96/2/5 95/2/5 94/2/5
f 97/2/5 95/2/5 96/2/5
f 101/2/5 99/2/5 98/2/5
f 102/2/5 99/2/5 101/2/5
f 102/2/5 101/2/5 100/2/5
f 103/2/5 99/2/5 102/2/5
f 104/2/5 102/2/5 100/2/5
f 105/2/5 99/2/5 103/2/5
f 106/2/5 104/2/5 100/2/5
f 107/2/5 99/2/5 105/2/5
f 108/2/5 99/2/5 107/2/5
f 109/2/5 106/2/5 100/2/5
f 110/2/5 106/2/5 109/2/5
f 113/2/5 112/2/5 111/2/5
f 113/2/5 111/2/5 110/2/5
f 114/2/5 112/2/5 113/2/5
f 115/2/6 116/2/6 118/2/6
f 117/2/6 118/2/6 119/2/6
f 118/2/6 116/2/6 120/2/6
f 119/2/6 118/2/6 120/2/6
f 120/2/6 116/2/6 121/2/6
f 121/2/6 116/2/6 122/2/6
