# MagicaVoxel @ Ephtracy

# group
o 

# material
mtllib Office_Misc_Coffee_Machine_04.mtl
usemtl palette

# normals
vn -1 0 0
vn 1 0 0
vn 0 0 1
vn 0 0 -1
vn 0 -1 0
vn 0 1 0

# texcoords
vt 0.763672 0.5
vt 0.771484 0.5
vt 0.775391 0.5
vt 0.779297 0.5
vt 0.802734 0.5
vt 0.806641 0.5

# verts
v -0.7 0 0.1
v -0.7 0 -0.7
v -0.7 1.3 -0.6
v -0.7 1.3 -0.7
v -0.7 1.4 0.1
v -0.7 1.4 -0.6
v -0.6 0 0.4
v -0.6 0 0.1
v -0.6 0.1 0.4
v -0.6 0.1 0.1
v -0.6 0.2 0.4
v -0.6 0.2 0.1
v -0.6 0.9 0.2
v -0.6 0.9 0.1
v -0.6 1.3 -0.6
v -0.6 1.3 -0.7
v -0.6 1.4 0.2
v -0.6 1.4 0.1
v -0.6 1.4 -0.6
v -0.6 1.4 -0.7
v -0.6 1.5 0.1
v -0.6 1.5 -0.6
v -0.5 0 0.5
v -0.5 0 0.4
v -0.5 0.1 0.5
v -0.5 0.1 0.4
v -0.5 0.2 0.5
v -0.5 0.2 0.4
v -0.5 0.9 0.3
v -0.5 0.9 0.2
v -0.5 1.4 0.3
v -0.5 1.4 0.2
v -0.5 1.4 0.1
v -0.5 1.5 0.2
v -0.5 1.5 0.1
v -0.4 0.8 0.1
v -0.4 0.8 0
v -0.4 0.9 0.1
v -0.4 0.9 0
v -0.2 0.2 -0.1
v -0.2 0.2 -0.2
v -0.2 0.9 -0.1
v -0.2 0.9 -0.2
v 0.3 0.8 0.1
v 0.3 0.8 0
v 0.3 0.9 0.1
v 0.3 0.9 0
v 0.5 0.2 -0.1
v 0.5 0.2 -0.2
v 0.5 0.9 -0.1
v 0.5 0.9 -0.2
v 0.6 0.2 0.1
v 0.6 0.2 -0.1
v 0.6 0.9 0.1
v 0.6 0.9 -0.1
v -0.6 0.2 0.1
v -0.6 0.2 -0.1
v -0.6 0.9 0.1
v -0.6 0.9 -0.1
v -0.5 0.2 -0.1
v -0.5 0.2 -0.2
v -0.5 0.9 -0.1
v -0.5 0.9 -0.2
v -0.3 0.8 0.1
v -0.3 0.8 0
v -0.3 0.9 0.1
v -0.3 0.9 0
v 0.2 0.2 -0.1
v 0.2 0.2 -0.2
v 0.2 0.9 -0.1
v 0.2 0.9 -0.2
v 0.4 0.8 0.1
v 0.4 0.8 0
v 0.4 0.9 0.1
v 0.4 0.9 0
v 0.5 0 0.5
v 0.5 0 0.4
v 0.5 0.1 0.5
v 0.5 0.1 0.4
v 0.5 0.2 0.5
v 0.5 0.2 0.4
v 0.5 0.9 0.3
v 0.5 0.9 0.2
v 0.5 1.4 0.3
v 0.5 1.4 0.2
v 0.5 1.4 0.1
v 0.5 1.5 0.2
v 0.5 1.5 0.1
v 0.6 0 0.4
v 0.6 0 0.1
v 0.6 0.1 0.4
v 0.6 0.1 0.1
v 0.6 0.2 0.4
v 0.6 0.2 0.1
v 0.6 0.9 0.2
v 0.6 0.9 0.1
v 0.6 1.3 -0.6
v 0.6 1.3 -0.7
v 0.6 1.4 0.2
v 0.6 1.4 0.1
v 0.6 1.4 -0.6
v 0.6 1.4 -0.7
v 0.6 1.5 0.1
v 0.6 1.5 -0.6
v 0.7 0 0.1
v 0.7 0 -0.7
v 0.7 1.3 -0.6
v 0.7 1.3 -0.7
v 0.7 1.4 0.1
v 0.7 1.4 -0.6
v -0.5 0 0.5
v -0.5 0.1 0.5
v -0.5 0.2 0.5
v 0.5 0 0.5
v 0.5 0.1 0.5
v 0.5 0.2 0.5
v -0.6 0 0.4
v -0.6 0.1 0.4
v -0.6 0.2 0.4
v -0.5 0 0.4
v -0.5 0.1 0.4
v -0.5 0.2 0.4
v 0.5 0 0.4
v 0.5 0.1 0.4
v 0.5 0.2 0.4
v 0.6 0 0.4
v 0.6 0.1 0.4
v 0.6 0.2 0.4
v -0.5 0.9 0.3
v -0.5 1.4 0.3
v -0.4 1 0.3
v -0.4 1.1 0.3
v -0.4 1.3 0.3
v -0.1 1 0.3
v -0.1 1.1 0.3
v -0.1 1.2 0.3
v -0.1 1.3 0.3
v 0 1 0.3
v 0 1.1 0.3
v 0 1.2 0.3
v 0 1.3 0.3
v 0.1 1.1 0.3
v 0.1 1.2 0.3
v 0.2 1 0.3
v 0.2 1.1 0.3
v 0.2 1.2 0.3
v 0.2 1.3 0.3
v 0.3 1 0.3
v 0.3 1.1 0.3
v 0.3 1.2 0.3
v 0.3 1.3 0.3
v 0.4 1.1 0.3
v 0.4 1.2 0.3
v 0.5 0.9 0.3
v 0.5 1.4 0.3
v -0.6 0.9 0.2
v -0.6 1.4 0.2
v -0.5 0.9 0.2
v -0.5 1.4 0.2
v -0.5 1.5 0.2
v 0.5 0.9 0.2
v 0.5 1.4 0.2
v 0.5 1.5 0.2
v 0.6 0.9 0.2
v 0.6 1.4 0.2
v -0.7 0 0.1
v -0.7 1.4 0.1
v -0.6 0 0.1
v -0.6 0.1 0.1
v -0.6 0.2 0.1
v -0.6 0.9 0.1
v -0.6 1.4 0.1
v -0.6 1.5 0.1
v -0.5 1.4 0.1
v -0.5 1.5 0.1
v -0.4 0.8 0.1
v -0.4 0.9 0.1
v -0.3 0.8 0.1
v -0.3 0.9 0.1
v 0.3 0.8 0.1
v 0.3 0.9 0.1
v 0.4 0.8 0.1
v 0.4 0.9 0.1
v 0.5 1.4 0.1
v 0.5 1.5 0.1
v 0.6 0 0.1
v 0.6 0.1 0.1
v 0.6 0.2 0.1
v 0.6 0.9 0.1
v 0.6 1.4 0.1
v 0.6 1.5 0.1
v 0.7 0 0.1
v 0.7 1.4 0.1
v -0.6 0.2 -0.1
v -0.6 0.9 -0.1
v -0.5 0.2 -0.1
v -0.5 0.9 -0.1
v -0.2 0.2 -0.1
v -0.2 0.9 -0.1
v 0.2 0.2 -0.1
v 0.2 0.9 -0.1
v 0.5 0.2 -0.1
v 0.5 0.9 -0.1
v 0.6 0.2 -0.1
v 0.6 0.9 -0.1
v -0.5 0.2 -0.2
v -0.5 0.9 -0.2
v -0.2 0.2 -0.2
v -0.2 0.9 -0.2
v 0.2 0.2 -0.2
v 0.2 0.9 -0.2
v 0.5 0.2 -0.2
v 0.5 0.9 -0.2
v -0.4 0.8 0
v -0.4 0.9 0
v -0.3 0.8 0
v -0.3 0.9 0
v 0.3 0.8 0
v 0.3 0.9 0
v 0.4 0.8 0
v 0.4 0.9 0
v -0.7 1.3 -0.6
v -0.7 1.4 -0.6
v -0.6 1.3 -0.6
v -0.6 1.4 -0.6
v -0.6 1.5 -0.6
v 0.6 1.3 -0.6
v 0.6 1.4 -0.6
v 0.6 1.5 -0.6
v 0.7 1.3 -0.6
v 0.7 1.4 -0.6
v -0.7 0 -0.7
v -0.7 1.3 -0.7
v -0.6 1.3 -0.7
v -0.6 1.4 -0.7
v 0.6 1.3 -0.7
v 0.6 1.4 -0.7
v 0.7 0 -0.7
v 0.7 1.3 -0.7
v -0.5 0 0.5
v 0.5 0 0.5
v -0.6 0 0.4
v -0.5 0 0.4
v 0.5 0 0.4
v 0.6 0 0.4
v -0.7 0 0.1
v -0.6 0 0.1
v 0.6 0 0.1
v 0.7 0 0.1
v -0.7 0 -0.7
v 0.7 0 -0.7
v -0.4 0.8 0.1
v -0.3 0.8 0.1
v 0.3 0.8 0.1
v 0.4 0.8 0.1
v -0.4 0.8 0
v -0.3 0.8 0
v 0.3 0.8 0
v 0.4 0.8 0
v -0.5 0.9 0.3
v 0.5 0.9 0.3
v -0.6 0.9 0.2
v -0.5 0.9 0.2
v -0.2 0.9 0.2
v 0.2 0.9 0.2
v 0.5 0.9 0.2
v 0.6 0.9 0.2
v -0.6 0.9 0.1
v -0.4 0.9 0.1
v -0.3 0.9 0.1
v 0.3 0.9 0.1
v 0.4 0.9 0.1
v 0.6 0.9 0.1
v -0.4 0.9 0
v -0.3 0.9 0
v 0.3 0.9 0
v 0.4 0.9 0
v -0.6 0.9 -0.1
v -0.5 0.9 -0.1
v -0.2 0.9 -0.1
v 0.2 0.9 -0.1
v 0.5 0.9 -0.1
v 0.6 0.9 -0.1
v -0.5 0.9 -0.2
v -0.2 0.9 -0.2
v 0.2 0.9 -0.2
v 0.5 0.9 -0.2
v -0.5 0.2 0.5
v 0.5 0.2 0.5
v -0.6 0.2 0.4
v -0.5 0.2 0.4
v 0.5 0.2 0.4
v 0.6 0.2 0.4
v -0.6 0.2 0.1
v 0.6 0.2 0.1
v -0.6 0.2 -0.1
v -0.5 0.2 -0.1
v -0.2 0.2 -0.1
v 0.2 0.2 -0.1
v 0.5 0.2 -0.1
v 0.6 0.2 -0.1
v -0.5 0.2 -0.2
v -0.2 0.2 -0.2
v 0.2 0.2 -0.2
v 0.5 0.2 -0.2
v -0.7 1.3 -0.6
v -0.6 1.3 -0.6
v 0.6 1.3 -0.6
v 0.7 1.3 -0.6
v -0.7 1.3 -0.7
v -0.6 1.3 -0.7
v 0.6 1.3 -0.7
v 0.7 1.3 -0.7
v -0.5 1.4 0.3
v 0.5 1.4 0.3
v -0.6 1.4 0.2
v -0.5 1.4 0.2
v 0.5 1.4 0.2
v 0.6 1.4 0.2
v -0.7 1.4 0.1
v -0.6 1.4 0.1
v -0.5 1.4 0.1
v 0.5 1.4 0.1
v 0.6 1.4 0.1
v 0.7 1.4 0.1
v -0.7 1.4 -0.6
v -0.6 1.4 -0.6
v 0.6 1.4 -0.6
v 0.7 1.4 -0.6
v -0.6 1.4 -0.7
v 0.6 1.4 -0.7
v -0.5 1.5 0.2
v 0.5 1.5 0.2
v -0.6 1.5 0.1
v -0.5 1.5 0.1
v 0.5 1.5 0.1
v 0.6 1.5 0.1
v -0.6 1.5 -0.6
v 0.6 1.5 -0.6

# faces
f 3/3/1 2/3/1 1/3/1
f 4/3/1 2/3/1 3/3/1
f 5/3/1 3/3/1 1/3/1
f 6/3/1 3/3/1 5/3/1
f 9/3/1 8/3/1 7/3/1
f 10/3/1 8/3/1 9/3/1
f 11/5/1 10/5/1 9/5/1
f 12/5/1 10/5/1 11/5/1
f 17/3/1 14/3/1 13/3/1
f 18/3/1 14/3/1 17/3/1
f 19/3/1 16/3/1 15/3/1
f 20/3/1 16/3/1 19/3/1
f 21/3/1 19/3/1 18/3/1
f 22/3/1 19/3/1 21/3/1
f 25/3/1 24/3/1 23/3/1
f 26/3/1 24/3/1 25/3/1
f 27/5/1 26/5/1 25/5/1
f 28/5/1 26/5/1 27/5/1
f 31/3/1 30/3/1 29/3/1
f 32/3/1 30/3/1 31/3/1
f 34/3/1 33/3/1 32/3/1
f 35/3/1 33/3/1 34/3/1
f 38/6/1 37/6/1 36/6/1
f 39/6/1 37/6/1 38/6/1
f 42/1/1 41/1/1 40/1/1
f 43/1/1 41/1/1 42/1/1
f 46/6/1 45/6/1 44/6/1
f 47/6/1 45/6/1 46/6/1
f 50/1/1 49/1/1 48/1/1
f 51/1/1 49/1/1 50/1/1
f 54/3/1 53/3/1 52/3/1
f 55/3/1 53/3/1 54/3/1
f 56/3/2 57/3/2 58/3/2
f 58/3/2 57/3/2 59/3/2
f 60/1/2 61/1/2 62/1/2
f 62/1/2 61/1/2 63/1/2
f 64/6/2 65/6/2 66/6/2
f 66/6/2 65/6/2 67/6/2
f 68/1/2 69/1/2 70/1/2
f 70/1/2 69/1/2 71/1/2
f 72/6/2 73/6/2 74/6/2
f 74/6/2 73/6/2 75/6/2
f 76/3/2 77/3/2 78/3/2
f 78/3/2 77/3/2 79/3/2
f 78/5/2 79/5/2 80/5/2
f 80/5/2 79/5/2 81/5/2
f 82/3/2 83/3/2 84/3/2
f 84/3/2 83/3/2 85/3/2
f 85/3/2 86/3/2 87/3/2
f 87/3/2 86/3/2 88/3/2
f 89/3/2 90/3/2 91/3/2
f 91/3/2 90/3/2 92/3/2
f 91/5/2 92/5/2 93/5/2
f 93/5/2 92/5/2 94/5/2
f 95/3/2 96/3/2 99/3/2
f 99/3/2 96/3/2 100/3/2
f 97/3/2 98/3/2 101/3/2
f 101/3/2 98/3/2 102/3/2
f 100/3/2 101/3/2 103/3/2
f 103/3/2 101/3/2 104/3/2
f 105/3/2 106/3/2 107/3/2
f 107/3/2 106/3/2 108/3/2
f 105/3/2 107/3/2 109/3/2
f 109/3/2 107/3/2 110/3/2
f 114/3/3 112/3/3 111/3/3
f 115/5/3 113/5/3 112/5/3
f 115/3/3 112/3/3 114/3/3
f 116/5/3 113/5/3 115/5/3
f 120/3/3 118/3/3 117/3/3
f 121/5/3 119/5/3 118/5/3
f 121/3/3 118/3/3 120/3/3
f 122/5/3 119/5/3 121/5/3
f 126/3/3 124/3/3 123/3/3
f 127/5/3 125/5/3 124/5/3
f 127/3/3 124/3/3 126/3/3
f 128/5/3 125/5/3 127/5/3
f 131/3/3 130/3/3 129/3/3
f 132/3/3 130/3/3 131/3/3
f 133/3/3 130/3/3 132/3/3
f 134/3/3 131/3/3 129/3/3
f 134/2/3 132/2/3 131/2/3
f 135/4/3 133/4/3 132/4/3
f 135/2/3 132/2/3 134/2/3
f 136/4/3 133/4/3 135/4/3
f 137/3/3 130/3/3 133/3/3
f 137/4/3 133/4/3 136/4/3
f 138/3/3 134/3/3 129/3/3
f 138/5/3 135/5/3 134/5/3
f 139/6/3 136/6/3 135/6/3
f 139/5/3 135/5/3 138/5/3
f 140/5/3 137/5/3 136/5/3
f 140/6/3 136/6/3 139/6/3
f 141/3/3 130/3/3 137/3/3
f 141/5/3 137/5/3 140/5/3
f 142/3/3 140/3/3 139/3/3
f 142/3/3 139/3/3 138/3/3
f 142/3/3 141/3/3 140/3/3
f 143/3/3 141/3/3 142/3/3
f 144/3/3 138/3/3 129/3/3
f 144/3/3 142/3/3 138/3/3
f 145/5/3 143/5/3 142/5/3
f 145/3/3 142/3/3 144/3/3
f 146/3/3 141/3/3 143/3/3
f 146/5/3 143/5/3 145/5/3
f 147/3/3 130/3/3 141/3/3
f 147/3/3 141/3/3 146/3/3
f 148/5/3 145/5/3 144/5/3
f 148/3/3 144/3/3 129/3/3
f 149/1/3 146/1/3 145/1/3
f 149/5/3 145/5/3 148/5/3
f 150/5/3 147/5/3 146/5/3
f 150/1/3 146/1/3 149/1/3
f 151/3/3 130/3/3 147/3/3
f 151/5/3 147/5/3 150/5/3
f 152/5/3 150/5/3 149/5/3
f 152/3/3 149/3/3 148/3/3
f 153/3/3 151/3/3 150/3/3
f 153/5/3 150/5/3 152/5/3
f 154/3/3 148/3/3 129/3/3
f 154/3/3 152/3/3 148/3/3
f 154/3/3 153/3/3 152/3/3
f 155/3/3 130/3/3 151/3/3
f 155/3/3 153/3/3 154/3/3
f 155/3/3 151/3/3 153/3/3
f 158/3/3 157/3/3 156/3/3
f 159/3/3 157/3/3 158/3/3
f 162/3/3 160/3/3 159/3/3
f 163/3/3 160/3/3 162/3/3
f 164/3/3 162/3/3 161/3/3
f 165/3/3 162/3/3 164/3/3
f 168/3/3 167/3/3 166/3/3
f 169/3/3 167/3/3 168/3/3
f 170/3/3 167/3/3 169/3/3
f 171/3/3 167/3/3 170/3/3
f 172/3/3 167/3/3 171/3/3
f 174/3/3 173/3/3 172/3/3
f 175/3/3 173/3/3 174/3/3
f 178/6/3 177/6/3 176/6/3
f 179/6/3 177/6/3 178/6/3
f 182/6/3 181/6/3 180/6/3
f 183/6/3 181/6/3 182/6/3
f 190/3/3 185/3/3 184/3/3
f 191/3/3 185/3/3 190/3/3
f 192/3/3 189/3/3 188/3/3
f 192/3/3 187/3/3 186/3/3
f 192/3/3 190/3/3 189/3/3
f 192/3/3 188/3/3 187/3/3
f 193/3/3 190/3/3 192/3/3
f 196/1/3 195/1/3 194/1/3
f 197/1/3 195/1/3 196/1/3
f 200/1/3 199/1/3 198/1/3
f 201/1/3 199/1/3 200/1/3
f 204/1/3 203/1/3 202/1/3
f 205/1/3 203/1/3 204/1/3
f 208/1/3 207/1/3 206/1/3
f 209/1/3 207/1/3 208/1/3
f 212/1/3 211/1/3 210/1/3
f 213/1/3 211/1/3 212/1/3
f 214/6/4 215/6/4 216/6/4
f 216/6/4 215/6/4 217/6/4
f 218/6/4 219/6/4 220/6/4
f 220/6/4 219/6/4 221/6/4
f 222/3/4 223/3/4 224/3/4
f 224/3/4 223/3/4 225/3/4
f 225/3/4 226/3/4 228/3/4
f 228/3/4 226/3/4 229/3/4
f 227/3/4 228/3/4 230/3/4
f 230/3/4 228/3/4 231/3/4
f 232/3/4 233/3/4 234/3/4
f 232/3/4 234/3/4 236/3/4
f 234/3/4 235/3/4 236/3/4
f 236/3/4 235/3/4 237/3/4
f 232/3/4 236/3/4 238/3/4
f 238/3/4 236/3/4 239/3/4
f 243/3/5 241/3/5 240/3/5
f 244/3/5 241/3/5 243/3/5
f 247/3/5 243/3/5 242/3/5
f 247/3/5 245/3/5 244/3/5
f 247/3/5 244/3/5 243/3/5
f 248/3/5 245/3/5 247/3/5
f 250/3/5 247/3/5 246/3/5
f 250/3/5 249/3/5 248/3/5
f 250/3/5 248/3/5 247/3/5
f 251/3/5 249/3/5 250/3/5
f 256/6/5 253/6/5 252/6/5
f 257/6/5 253/6/5 256/6/5
f 258/6/5 255/6/5 254/6/5
f 259/6/5 255/6/5 258/6/5
f 263/3/5 261/3/5 260/3/5
f 264/3/5 261/3/5 263/3/5
f 265/3/5 261/3/5 264/3/5
f 266/3/5 261/3/5 265/3/5
f 268/3/5 263/3/5 262/3/5
f 269/2/5 264/2/5 263/2/5
f 270/2/5 264/2/5 269/2/5
f 271/2/5 266/2/5 265/2/5
f 272/2/5 266/2/5 271/2/5
f 273/3/5 267/3/5 266/3/5
f 274/2/5 269/2/5 263/2/5
f 275/2/5 264/2/5 270/2/5
f 276/2/5 271/2/5 265/2/5
f 277/2/5 266/2/5 272/2/5
f 278/3/5 263/3/5 268/3/5
f 279/2/5 274/2/5 263/2/5
f 279/3/5 263/3/5 278/3/5
f 279/2/5 275/2/5 274/2/5
f 280/3/5 265/3/5 264/3/5
f 280/2/5 275/2/5 279/2/5
f 280/2/5 264/2/5 275/2/5
f 281/2/5 276/2/5 265/2/5
f 281/3/5 265/3/5 280/3/5
f 281/2/5 277/2/5 276/2/5
f 282/3/5 273/3/5 266/3/5
f 282/2/5 277/2/5 281/2/5
f 282/2/5 266/2/5 277/2/5
f 283/3/5 273/3/5 282/3/5
f 284/2/5 280/2/5 279/2/5
f 285/2/5 280/2/5 284/2/5
f 286/2/5 282/2/5 281/2/5
f 287/2/5 282/2/5 286/2/5
f 288/5/6 289/5/6 291/5/6
f 291/5/6 289/5/6 292/5/6
f 290/5/6 291/5/6 294/5/6
f 292/5/6 293/5/6 294/5/6
f 291/5/6 292/5/6 294/5/6
f 294/5/6 293/5/6 295/5/6
f 294/5/6 295/5/6 296/5/6
f 296/5/6 295/5/6 297/5/6
f 297/5/6 295/5/6 298/5/6
f 298/5/6 295/5/6 299/5/6
f 299/5/6 295/5/6 300/5/6
f 300/5/6 295/5/6 301/5/6
f 297/5/6 298/5/6 302/5/6
f 302/5/6 298/5/6 303/5/6
f 299/5/6 300/5/6 304/5/6
f 304/5/6 300/5/6 305/5/6
f 306/3/6 307/3/6 310/3/6
f 310/3/6 307/3/6 311/3/6
f 308/3/6 309/3/6 312/3/6
f 312/3/6 309/3/6 313/3/6
f 314/3/6 315/3/6 317/3/6
f 317/3/6 315/3/6 318/3/6
f 316/3/6 317/3/6 321/3/6
f 321/3/6 317/3/6 322/3/6
f 318/3/6 319/3/6 323/3/6
f 323/3/6 319/3/6 324/3/6
f 320/3/6 321/3/6 326/3/6
f 326/3/6 321/3/6 327/3/6
f 324/3/6 325/3/6 328/3/6
f 328/3/6 325/3/6 329/3/6
f 327/3/6 328/3/6 330/3/6
f 330/3/6 328/3/6 331/3/6
f 332/3/6 333/3/6 335/3/6
f 335/3/6 333/3/6 336/3/6
f 334/3/6 335/3/6 338/3/6
f 336/3/6 337/3/6 338/3/6
f 335/3/6 336/3/6 338/3/6
f 338/3/6 337/3/6 339/3/6
