# MagicaVoxel @ Ephtracy

# group
o 

# material
mtllib Office_Misc_Coffee_Machine_03.mtl
usemtl palette

# normals
vn -1 0 0
vn 1 0 0
vn 0 0 1
vn 0 0 -1
vn 0 -1 0
vn 0 1 0

# texcoords
vt 0.771484 0.5
vt 0.775391 0.5
vt 0.779297 0.5
vt 0.818359 0.5

# verts
v -0.5 0 0.1
v -0.5 0 -0.5
v -0.5 0.1 0.1
v -0.5 0.1 -0.5
v -0.4 0 0.3
v -0.4 0 0.1
v -0.4 0 -0.5
v -0.4 0 -0.6
v -0.4 0.1 0.3
v -0.4 0.1 0.1
v -0.4 0.1 0
v -0.4 0.1 -0.4
v -0.4 0.1 -0.5
v -0.4 0.1 -0.6
v -0.4 0.3 0
v -0.4 0.3 -0.1
v -0.4 0.4 -0.1
v -0.4 0.4 -0.2
v -0.4 0.4 -0.3
v -0.4 0.4 -0.4
v -0.4 0.5 -0.2
v -0.4 0.5 -0.3
v -0.3 0 -0.6
v -0.3 0 -0.7
v -0.3 0.1 0.1
v -0.3 0.1 0
v -0.3 0.1 -0.4
v -0.3 0.1 -0.5
v -0.3 0.1 -0.6
v -0.3 0.1 -0.7
v -0.3 0.3 0.1
v -0.3 0.3 0
v -0.3 0.3 -0.1
v -0.3 0.4 -0.1
v -0.3 0.4 -0.2
v -0.3 0.4 -0.3
v -0.3 0.4 -0.4
v -0.3 0.4 -0.5
v -0.3 0.5 0
v -0.3 0.5 -0.1
v -0.3 0.5 -0.2
v -0.3 0.5 -0.3
v -0.3 0.8 0.1
v -0.3 0.8 -0.1
v -0.3 0.8 -0.2
v -0.3 0.8 -0.3
v -0.3 0.8 -0.4
v -0.3 1 0.1
v -0.3 1 -0.3
v -0.2 0 0.4
v -0.2 0 0.3
v -0.2 0.1 0.4
v -0.2 0.1 0.3
v -0.2 0.1 -0.5
v -0.2 0.1 -0.6
v -0.2 0.3 -0.5
v -0.2 0.3 -0.6
v -0.2 0.4 -0.4
v -0.2 0.4 -0.5
v -0.2 0.8 0.2
v -0.2 0.8 0.1
v -0.2 0.8 -0.3
v -0.2 0.8 -0.4
v -0.2 0.8 -0.5
v -0.2 1 0.2
v -0.2 1 0.1
v -0.2 1 0
v -0.2 1 -0.2
v -0.2 1 -0.3
v -0.2 1 -0.4
v -0.2 1.1 0
v -0.2 1.1 -0.2
v -0.1 0.1 -0.6
v -0.1 0.1 -0.7
v -0.1 0.3 -0.5
v -0.1 0.3 -0.6
v -0.1 0.3 -0.7
v -0.1 0.6 -0.5
v -0.1 0.6 -0.6
v -0.1 0.8 0.3
v -0.1 0.8 0.2
v -0.1 0.8 -0.4
v -0.1 0.8 -0.5
v -0.1 0.9 0.3
v -0.1 0.9 0.2
v -0.1 0.9 -0.4
v -0.1 0.9 -0.5
v -0.1 1 0.3
v -0.1 1 0.2
v -0.1 1 0
v -0.1 1 -0.2
v -0.1 1 -0.3
v -0.1 1.1 0.2
v -0.1 1.1 0
v -0.1 1.1 -0.2
v -0.1 1.1 -0.3
v 0 0.3 -0.6
v 0 0.3 -0.7
v 0 0.4 -0.6
v 0 0.4 -0.7
v 0 0.6 -0.5
v 0 0.6 -0.6
v 0 0.7 -0.5
v 0 0.7 -0.6
v 0 0.9 -0.4
v 0 0.9 -0.5
v 0 1 -0.3
v 0 1 -0.4
v 0 1 -0.5
v 0 1.1 -0.3
v 0 1.1 -0.4
v 0.2 0.1 -0.1
v 0.2 0.1 -0.2
v 0.2 0.8 -0.1
v 0.2 0.8 -0.2
v 0.3 0.1 0.1
v 0.3 0.1 -0.1
v 0.3 0.3 0.1
v 0.3 0.3 0
v 0.3 0.5 0
v 0.3 0.5 -0.1
v -0.2 0.1 0.1
v -0.2 0.1 -0.1
v -0.2 0.3 0.1
v -0.2 0.3 0
v -0.2 0.5 0
v -0.2 0.5 -0.1
v -0.1 0.1 -0.1
v -0.1 0.1 -0.2
v -0.1 0.8 -0.1
v -0.1 0.8 -0.2
v 0.1 0.3 -0.6
v 0.1 0.3 -0.7
v 0.1 0.4 -0.6
v 0.1 0.4 -0.7
v 0.1 0.6 -0.5
v 0.1 0.6 -0.6
v 0.1 0.7 -0.5
v 0.1 0.7 -0.6
v 0.1 0.9 -0.4
v 0.1 0.9 -0.5
v 0.1 1 -0.3
v 0.1 1 -0.4
v 0.1 1 -0.5
v 0.1 1.1 -0.3
v 0.1 1.1 -0.4
v 0.2 0.1 -0.6
v 0.2 0.1 -0.7
v 0.2 0.3 -0.5
v 0.2 0.3 -0.6
v 0.2 0.3 -0.7
v 0.2 0.6 -0.5
v 0.2 0.6 -0.6
v 0.2 0.8 0.3
v 0.2 0.8 0.2
v 0.2 0.8 -0.4
v 0.2 0.8 -0.5
v 0.2 0.9 0.3
v 0.2 0.9 0.2
v 0.2 0.9 -0.4
v 0.2 0.9 -0.5
v 0.2 1 0.3
v 0.2 1 0.2
v 0.2 1 0
v 0.2 1 -0.2
v 0.2 1 -0.3
v 0.2 1.1 0.2
v 0.2 1.1 0
v 0.2 1.1 -0.2
v 0.2 1.1 -0.3
v 0.3 0 0.4
v 0.3 0 0.3
v 0.3 0 -0.6
v 0.3 0 -0.7
v 0.3 0.1 0.4
v 0.3 0.1 0.3
v 0.3 0.1 -0.5
v 0.3 0.1 -0.6
v 0.3 0.1 -0.7
v 0.3 0.3 -0.5
v 0.3 0.3 -0.6
v 0.3 0.4 -0.4
v 0.3 0.4 -0.5
v 0.3 0.8 0.2
v 0.3 0.8 0.1
v 0.3 0.8 -0.3
v 0.3 0.8 -0.4
v 0.3 0.8 -0.5
v 0.3 1 0.2
v 0.3 1 0.1
v 0.3 1 0
v 0.3 1 -0.2
v 0.3 1 -0.3
v 0.3 1 -0.4
v 0.3 1.1 0
v 0.3 1.1 -0.2
v 0.4 0 -0.5
v 0.4 0 -0.6
v 0.4 0.1 0.1
v 0.4 0.1 0
v 0.4 0.1 -0.4
v 0.4 0.1 -0.5
v 0.4 0.1 -0.6
v 0.4 0.3 0.1
v 0.4 0.3 0
v 0.4 0.3 -0.1
v 0.4 0.4 -0.1
v 0.4 0.4 -0.2
v 0.4 0.4 -0.3
v 0.4 0.4 -0.4
v 0.4 0.4 -0.5
v 0.4 0.5 0
v 0.4 0.5 -0.1
v 0.4 0.5 -0.2
v 0.4 0.5 -0.3
v 0.4 0.8 0.1
v 0.4 0.8 -0.1
v 0.4 0.8 -0.2
v 0.4 0.8 -0.3
v 0.4 0.8 -0.4
v 0.4 1 0.1
v 0.4 1 -0.3
v 0.5 0 0.3
v 0.5 0 0.1
v 0.5 0.1 0.3
v 0.5 0.1 0.1
v 0.5 0.1 0
v 0.5 0.1 -0.4
v 0.5 0.3 0
v 0.5 0.3 -0.1
v 0.5 0.4 -0.1
v 0.5 0.4 -0.2
v 0.5 0.4 -0.3
v 0.5 0.4 -0.4
v 0.5 0.5 -0.2
v 0.5 0.5 -0.3
v 0.6 0 0.1
v 0.6 0 -0.5
v 0.6 0.1 0.1
v 0.6 0.1 -0.5
v -0.2 0 0.4
v -0.2 0.1 0.4
v 0.3 0 0.4
v 0.3 0.1 0.4
v -0.4 0 0.3
v -0.4 0.1 0.3
v -0.2 0 0.3
v -0.2 0.1 0.3
v -0.1 0.8 0.3
v -0.1 0.9 0.3
v -0.1 1 0.3
v 0.2 0.8 0.3
v 0.2 0.9 0.3
v 0.2 1 0.3
v 0.3 0 0.3
v 0.3 0.1 0.3
v 0.5 0 0.3
v 0.5 0.1 0.3
v -0.2 0.8 0.2
v -0.2 1 0.2
v -0.1 0.8 0.2
v -0.1 0.9 0.2
v -0.1 1 0.2
v -0.1 1.1 0.2
v 0.2 0.8 0.2
v 0.2 0.9 0.2
v 0.2 1 0.2
v 0.2 1.1 0.2
v 0.3 0.8 0.2
v 0.3 1 0.2
v -0.5 0 0.1
v -0.5 0.1 0.1
v -0.4 0 0.1
v -0.4 0.1 0.1
v -0.3 0.1 0.1
v -0.3 0.3 0.1
v -0.3 0.8 0.1
v -0.3 1 0.1
v -0.2 0.1 0.1
v -0.2 0.3 0.1
v -0.2 0.8 0.1
v -0.2 1 0.1
v 0.3 0.1 0.1
v 0.3 0.3 0.1
v 0.3 0.8 0.1
v 0.3 1 0.1
v 0.4 0.1 0.1
v 0.4 0.3 0.1
v 0.4 0.8 0.1
v 0.4 1 0.1
v 0.5 0 0.1
v 0.5 0.1 0.1
v 0.6 0 0.1
v 0.6 0.1 0.1
v -0.4 0.1 0
v -0.4 0.3 0
v -0.3 0.1 0
v -0.3 0.3 0
v -0.3 0.5 0
v -0.2 0.3 0
v -0.2 0.5 0
v -0.2 1 0
v -0.2 1.1 0
v -0.1 1 0
v -0.1 1.1 0
v 0.2 1 0
v 0.2 1.1 0
v 0.3 0.3 0
v 0.3 0.5 0
v 0.3 1 0
v 0.3 1.1 0
v 0.4 0.1 0
v 0.4 0.3 0
v 0.4 0.5 0
v 0.5 0.1 0
v 0.5 0.3 0
v -0.4 0.3 -0.1
v -0.4 0.4 -0.1
v -0.3 0.3 -0.1
v -0.3 0.4 -0.1
v -0.3 0.5 -0.1
v -0.3 0.8 -0.1
v -0.2 0.1 -0.1
v -0.2 0.5 -0.1
v -0.2 0.8 -0.1
v -0.1 0.1 -0.1
v -0.1 0.8 -0.1
v 0.2 0.1 -0.1
v 0.2 0.8 -0.1
v 0.3 0.1 -0.1
v 0.3 0.5 -0.1
v 0.3 0.8 -0.1
v 0.4 0.3 -0.1
v 0.4 0.4 -0.1
v 0.4 0.5 -0.1
v 0.4 0.8 -0.1
v 0.5 0.3 -0.1
v 0.5 0.4 -0.1
v -0.4 0.4 -0.2
v -0.4 0.5 -0.2
v -0.3 0.4 -0.2
v -0.3 0.5 -0.2
v -0.1 0.1 -0.2
v -0.1 0.8 -0.2
v 0.2 0.1 -0.2
v 0.2 0.8 -0.2
v 0.4 0.4 -0.2
v 0.4 0.5 -0.2
v 0.5 0.4 -0.2
v 0.5 0.5 -0.2
v -0.2 1 -0.2
v -0.2 1.1 -0.2
v -0.1 1 -0.2
v -0.1 1.1 -0.2
v 0.2 1 -0.2
v 0.2 1.1 -0.2
v 0.3 1 -0.2
v 0.3 1.1 -0.2
v -0.4 0.4 -0.3
v -0.4 0.5 -0.3
v -0.3 0.4 -0.3
v -0.3 0.5 -0.3
v -0.3 0.8 -0.3
v -0.3 1 -0.3
v -0.2 0.8 -0.3
v -0.2 1 -0.3
v -0.1 1 -0.3
v -0.1 1.1 -0.3
v 0 1 -0.3
v 0 1.1 -0.3
v 0.1 1 -0.3
v 0.1 1.1 -0.3
v 0.2 1 -0.3
v 0.2 1.1 -0.3
v 0.3 0.8 -0.3
v 0.3 1 -0.3
v 0.4 0.4 -0.3
v 0.4 0.5 -0.3
v 0.4 0.8 -0.3
v 0.4 1 -0.3
v 0.5 0.4 -0.3
v 0.5 0.5 -0.3
v -0.4 0.1 -0.4
v -0.4 0.4 -0.4
v -0.3 0.1 -0.4
v -0.3 0.4 -0.4
v -0.3 0.8 -0.4
v -0.2 0.4 -0.4
v -0.2 0.8 -0.4
v -0.2 1 -0.4
v -0.1 0.8 -0.4
v -0.1 0.9 -0.4
v -0.1 1 -0.4
v 0 0.9 -0.4
v 0 1 -0.4
v 0 1.1 -0.4
v 0.1 0.9 -0.4
v 0.1 1 -0.4
v 0.1 1.1 -0.4
v 0.2 0.8 -0.4
v 0.2 0.9 -0.4
v 0.2 1 -0.4
v 0.3 0.4 -0.4
v 0.3 0.8 -0.4
v 0.3 1 -0.4
v 0.4 0.1 -0.4
v 0.4 0.4 -0.4
v 0.4 0.8 -0.4
v 0.5 0.1 -0.4
v 0.5 0.4 -0.4
v -0.5 0 -0.5
v -0.5 0.1 -0.5
v -0.4 0 -0.5
v -0.4 0.1 -0.5
v -0.3 0.1 -0.5
v -0.3 0.4 -0.5
v -0.2 0.1 -0.5
v -0.2 0.3 -0.5
v -0.2 0.4 -0.5
v -0.2 0.8 -0.5
v -0.1 0.3 -0.5
v -0.1 0.6 -0.5
v -0.1 0.8 -0.5
v -0.1 0.9 -0.5
v 0 0.6 -0.5
v 0 0.7 -0.5
v 0 0.9 -0.5
v 0 1 -0.5
v 0.1 0.6 -0.5
v 0.1 0.7 -0.5
v 0.1 0.9 -0.5
v 0.1 1 -0.5
v 0.2 0.3 -0.5
v 0.2 0.6 -0.5
v 0.2 0.8 -0.5
v 0.2 0.9 -0.5
v 0.3 0.1 -0.5
v 0.3 0.3 -0.5
v 0.3 0.4 -0.5
v 0.3 0.8 -0.5
v 0.4 0 -0.5
v 0.4 0.1 -0.5
v 0.4 0.4 -0.5
v 0.6 0 -0.5
v 0.6 0.1 -0.5
v -0.4 0 -0.6
v -0.4 0.1 -0.6
v -0.3 0 -0.6
v -0.3 0.1 -0.6
v -0.2 0.1 -0.6
v -0.2 0.3 -0.6
v -0.1 0.1 -0.6
v -0.1 0.3 -0.6
v -0.1 0.6 -0.6
v 0 0.3 -0.6
v 0 0.4 -0.6
v 0 0.6 -0.6
v 0 0.7 -0.6
v 0.1 0.3 -0.6
v 0.1 0.4 -0.6
v 0.1 0.6 -0.6
v 0.1 0.7 -0.6
v 0.2 0.1 -0.6
v 0.2 0.3 -0.6
v 0.2 0.6 -0.6
v 0.3 0 -0.6
v 0.3 0.1 -0.6
v 0.3 0.3 -0.6
v 0.4 0 -0.6
v 0.4 0.1 -0.6
v -0.3 0 -0.7
v -0.3 0.1 -0.7
v -0.1 0.1 -0.7
v -0.1 0.3 -0.7
v 0 0.3 -0.7
v 0 0.4 -0.7
v 0.1 0.3 -0.7
v 0.1 0.4 -0.7
v 0.2 0.1 -0.7
v 0.2 0.3 -0.7
v 0.3 0 -0.7
v 0.3 0.1 -0.7
v -0.2 0 0.4
v 0.3 0 0.4
v -0.4 0 0.3
v -0.2 0 0.3
v 0.3 0 0.3
v 0.5 0 0.3
v -0.5 0 0.1
v -0.4 0 0.1
v 0.5 0 0.1
v 0.6 0 0.1
v -0.5 0 -0.5
v -0.4 0 -0.5
v 0.4 0 -0.5
v 0.6 0 -0.5
v -0.4 0 -0.6
v -0.3 0 -0.6
v 0.3 0 -0.6
v 0.4 0 -0.6
v -0.3 0 -0.7
v 0.3 0 -0.7
v -0.1 0.8 0.3
v 0.2 0.8 0.3
v -0.2 0.8 0.2
v -0.1 0.8 0.2
v 0.2 0.8 0.2
v 0.3 0.8 0.2
v -0.3 0.8 0.1
v -0.2 0.8 0.1
v -0.1 0.8 0.1
v 0 0.8 0.1
v 0.1 0.8 0.1
v 0.2 0.8 0.1
v 0.3 0.8 0.1
v 0.4 0.8 0.1
v 0 0.8 0
v 0.1 0.8 0
v -0.3 0.8 -0.1
v -0.2 0.8 -0.1
v -0.1 0.8 -0.1
v 0.2 0.8 -0.1
v 0.3 0.8 -0.1
v 0.4 0.8 -0.1
v -0.1 0.8 -0.2
v 0.2 0.8 -0.2
v -0.2 0.1 0.4
v 0.3 0.1 0.4
v -0.4 0.1 0.3
v -0.2 0.1 0.3
v 0.3 0.1 0.3
v 0.5 0.1 0.3
v -0.5 0.1 0.1
v -0.4 0.1 0.1
v -0.3 0.1 0.1
v -0.2 0.1 0.1
v 0.3 0.1 0.1
v 0.4 0.1 0.1
v 0.5 0.1 0.1
v 0.6 0.1 0.1
v -0.4 0.1 0
v -0.3 0.1 0
v 0.4 0.1 0
v 0.5 0.1 0
v -0.2 0.1 -0.1
v -0.1 0.1 -0.1
v 0.2 0.1 -0.1
v 0.3 0.1 -0.1
v -0.1 0.1 -0.2
v 0.2 0.1 -0.2
v -0.4 0.1 -0.4
v -0.3 0.1 -0.4
v 0.4 0.1 -0.4
v 0.5 0.1 -0.4
v -0.5 0.1 -0.5
v -0.4 0.1 -0.5
v -0.3 0.1 -0.5
v -0.2 0.1 -0.5
v 0.3 0.1 -0.5
v 0.4 0.1 -0.5
v 0.6 0.1 -0.5
v -0.4 0.1 -0.6
v -0.3 0.1 -0.6
v -0.2 0.1 -0.6
v -0.1 0.1 -0.6
v 0.2 0.1 -0.6
v 0.3 0.1 -0.6
v 0.4 0.1 -0.6
v -0.3 0.1 -0.7
v -0.1 0.1 -0.7
v 0.2 0.1 -0.7
v 0.3 0.1 -0.7
v -0.3 0.3 0.1
v -0.2 0.3 0.1
v 0.3 0.3 0.1
v 0.4 0.3 0.1
v -0.4 0.3 0
v -0.3 0.3 0
v -0.2 0.3 0
v 0.3 0.3 0
v 0.4 0.3 0
v 0.5 0.3 0
v -0.4 0.3 -0.1
v -0.3 0.3 -0.1
v 0.4 0.3 -0.1
v 0.5 0.3 -0.1
v -0.2 0.3 -0.5
v -0.1 0.3 -0.5
v 0.2 0.3 -0.5
v 0.3 0.3 -0.5
v -0.2 0.3 -0.6
v -0.1 0.3 -0.6
v 0 0.3 -0.6
v 0.1 0.3 -0.6
v 0.2 0.3 -0.6
v 0.3 0.3 -0.6
v -0.1 0.3 -0.7
v 0 0.3 -0.7
v 0.1 0.3 -0.7
v 0.2 0.3 -0.7
v -0.4 0.4 -0.1
v -0.3 0.4 -0.1
v 0.4 0.4 -0.1
v 0.5 0.4 -0.1
v -0.4 0.4 -0.2
v -0.3 0.4 -0.2
v 0.4 0.4 -0.2
v 0.5 0.4 -0.2
v -0.4 0.4 -0.3
v -0.3 0.4 -0.3
v 0.4 0.4 -0.3
v 0.5 0.4 -0.3
v -0.4 0.4 -0.4
v -0.3 0.4 -0.4
v -0.2 0.4 -0.4
v 0.3 0.4 -0.4
v 0.4 0.4 -0.4
v 0.5 0.4 -0.4
v -0.3 0.4 -0.5
v -0.2 0.4 -0.5
v 0.3 0.4 -0.5
v 0.4 0.4 -0.5
v 0 0.4 -0.6
v 0.1 0.4 -0.6
v 0 0.4 -0.7
v 0.1 0.4 -0.7
v -0.3 0.5 0
v -0.2 0.5 0
v 0.3 0.5 0
v 0.4 0.5 0
v -0.3 0.5 -0.1
v -0.2 0.5 -0.1
v 0.3 0.5 -0.1
v 0.4 0.5 -0.1
v -0.4 0.5 -0.2
v -0.3 0.5 -0.2
v 0.4 0.5 -0.2
v 0.5 0.5 -0.2
v -0.4 0.5 -0.3
v -0.3 0.5 -0.3
v 0.4 0.5 -0.3
v 0.5 0.5 -0.3
v -0.1 0.6 -0.5
v 0 0.6 -0.5
v 0.1 0.6 -0.5
v 0.2 0.6 -0.5
v -0.1 0.6 -0.6
v 0 0.6 -0.6
v 0.1 0.6 -0.6
v 0.2 0.6 -0.6
v 0 0.7 -0.5
v 0.1 0.7 -0.5
v 0 0.7 -0.6
v 0.1 0.7 -0.6
v -0.3 0.8 -0.3
v -0.2 0.8 -0.3
v 0.3 0.8 -0.3
v 0.4 0.8 -0.3
v -0.3 0.8 -0.4
v -0.2 0.8 -0.4
v -0.1 0.8 -0.4
v 0.2 0.8 -0.4
v 0.3 0.8 -0.4
v 0.4 0.8 -0.4
v -0.2 0.8 -0.5
v -0.1 0.8 -0.5
v 0.2 0.8 -0.5
v 0.3 0.8 -0.5
v -0.1 0.9 -0.4
v 0 0.9 -0.4
v 0.1 0.9 -0.4
v 0.2 0.9 -0.4
v -0.1 0.9 -0.5
v 0 0.9 -0.5
v 0.1 0.9 -0.5
v 0.2 0.9 -0.5
v -0.1 1 0.3
v 0.2 1 0.3
v -0.2 1 0.2
v -0.1 1 0.2
v 0.2 1 0.2
v 0.3 1 0.2
v -0.3 1 0.1
v -0.2 1 0.1
v 0.3 1 0.1
v 0.4 1 0.1
v -0.2 1 0
v -0.1 1 0
v 0.2 1 0
v 0.3 1 0
v -0.2 1 -0.2
v -0.1 1 -0.2
v 0.2 1 -0.2
v 0.3 1 -0.2
v -0.3 1 -0.3
v -0.2 1 -0.3
v -0.1 1 -0.3
v 0 1 -0.3
v 0.1 1 -0.3
v 0.2 1 -0.3
v 0.3 1 -0.3
v 0.4 1 -0.3
v -0.2 1 -0.4
v -0.1 1 -0.4
v 0 1 -0.4
v 0.1 1 -0.4
v 0.2 1 -0.4
v 0.3 1 -0.4
v 0 1 -0.5
v 0.1 1 -0.5
v -0.1 1.1 0.2
v 0.2 1.1 0.2
v 0 1.1 0.1
v 0.1 1.1 0.1
v -0.2 1.1 0
v -0.1 1.1 0
v 0.2 1.1 0
v 0.3 1.1 0
v -0.2 1.1 -0.2
v -0.1 1.1 -0.2
v 0.2 1.1 -0.2
v 0.3 1.1 -0.2
v -0.1 1.1 -0.3
v 0 1.1 -0.3
v 0.1 1.1 -0.3
v 0.2 1.1 -0.3
v 0 1.1 -0.4
v 0.1 1.1 -0.4

# faces
f 3/3/1 2/3/1 1/3/1
f 4/3/1 2/3/1 3/3/1
f 9/3/1 6/3/1 5/3/1
f 10/3/1 6/3/1 9/3/1
f 13/3/1 8/3/1 7/3/1
f 14/3/1 8/3/1 13/3/1
f 15/2/1 12/2/1 11/2/1
f 16/2/1 12/2/1 15/2/1
f 17/2/1 12/2/1 16/2/1
f 18/2/1 12/2/1 17/2/1
f 19/2/1 12/2/1 18/2/1
f 20/2/1 12/2/1 19/2/1
f 21/2/1 19/2/1 18/2/1
f 22/2/1 19/2/1 21/2/1
f 29/3/1 24/3/1 23/3/1
f 30/3/1 24/3/1 29/3/1
f 31/3/1 26/3/1 25/3/1
f 32/3/1 26/3/1 31/3/1
f 34/3/1 33/3/1 32/3/1
f 37/2/1 28/2/1 27/2/1
f 38/2/1 28/2/1 37/2/1
f 39/3/1 34/3/1 32/3/1
f 40/2/1 35/2/1 34/2/1
f 40/3/1 34/3/1 39/3/1
f 41/2/1 35/2/1 40/2/1
f 42/2/1 37/2/1 36/2/1
f 44/3/1 41/3/1 40/3/1
f 45/2/1 42/2/1 41/2/1
f 45/3/1 41/3/1 44/3/1
f 46/2/1 37/2/1 42/2/1
f 46/2/1 42/2/1 45/2/1
f 47/2/1 37/2/1 46/2/1
f 48/2/1 45/2/1 44/2/1
f 48/2/1 44/2/1 43/2/1
f 48/2/1 46/2/1 45/2/1
f 49/2/1 46/2/1 48/2/1
f 52/3/1 51/3/1 50/3/1
f 53/3/1 51/3/1 52/3/1
f 56/4/1 55/4/1 54/4/1
f 57/4/1 55/4/1 56/4/1
f 63/2/1 59/2/1 58/2/1
f 64/2/1 59/2/1 63/2/1
f 65/2/1 61/2/1 60/2/1
f 66/2/1 61/2/1 65/2/1
f 69/2/1 63/2/1 62/2/1
f 70/2/1 63/2/1 69/2/1
f 71/1/1 68/1/1 67/1/1
f 72/1/1 68/1/1 71/1/1
f 76/4/1 74/4/1 73/4/1
f 77/4/1 74/4/1 76/4/1
f 78/4/1 76/4/1 75/4/1
f 79/4/1 76/4/1 78/4/1
f 84/1/1 81/1/1 80/1/1
f 85/1/1 81/1/1 84/1/1
f 86/2/1 83/2/1 82/2/1
f 87/2/1 83/2/1 86/2/1
f 88/2/1 85/2/1 84/2/1
f 89/2/1 85/2/1 88/2/1
f 93/1/1 90/1/1 89/1/1
f 94/1/1 90/1/1 93/1/1
f 95/1/1 92/1/1 91/1/1
f 96/1/1 92/1/1 95/1/1
f 99/4/1 98/4/1 97/4/1
f 100/4/1 98/4/1 99/4/1
f 103/4/1 102/4/1 101/4/1
f 104/4/1 102/4/1 103/4/1
f 108/2/1 106/2/1 105/2/1
f 109/2/1 106/2/1 108/2/1
f 110/2/1 108/2/1 107/2/1
f 111/2/1 108/2/1 110/2/1
f 114/3/1 113/3/1 112/3/1
f 115/3/1 113/3/1 114/3/1
f 118/3/1 117/3/1 116/3/1
f 119/3/1 117/3/1 118/3/1
f 120/3/1 117/3/1 119/3/1
f 121/3/1 117/3/1 120/3/1
f 122/3/2 123/3/2 124/3/2
f 124/3/2 123/3/2 125/3/2
f 125/3/2 123/3/2 126/3/2
f 126/3/2 123/3/2 127/3/2
f 128/3/2 129/3/2 130/3/2
f 130/3/2 129/3/2 131/3/2
f 132/4/2 133/4/2 134/4/2
f 134/4/2 133/4/2 135/4/2
f 136/4/2 137/4/2 138/4/2
f 138/4/2 137/4/2 139/4/2
f 140/2/2 141/2/2 143/2/2
f 143/2/2 141/2/2 144/2/2
f 142/2/2 143/2/2 145/2/2
f 145/2/2 143/2/2 146/2/2
f 147/4/2 148/4/2 150/4/2
f 150/4/2 148/4/2 151/4/2
f 149/4/2 150/4/2 152/4/2
f 152/4/2 150/4/2 153/4/2
f 154/1/2 155/1/2 158/1/2
f 158/1/2 155/1/2 159/1/2
f 156/2/2 157/2/2 160/2/2
f 160/2/2 157/2/2 161/2/2
f 158/2/2 159/2/2 162/2/2
f 162/2/2 159/2/2 163/2/2
f 163/1/2 164/1/2 167/1/2
f 167/1/2 164/1/2 168/1/2
f 165/1/2 166/1/2 169/1/2
f 169/1/2 166/1/2 170/1/2
f 171/3/2 172/3/2 175/3/2
f 175/3/2 172/3/2 176/3/2
f 173/3/2 174/3/2 178/3/2
f 178/3/2 174/3/2 179/3/2
f 177/4/2 178/4/2 180/4/2
f 180/4/2 178/4/2 181/4/2
f 182/2/2 183/2/2 187/2/2
f 187/2/2 183/2/2 188/2/2
f 184/2/2 185/2/2 189/2/2
f 189/2/2 185/2/2 190/2/2
f 186/2/2 187/2/2 193/2/2
f 193/2/2 187/2/2 194/2/2
f 191/1/2 192/1/2 195/1/2
f 195/1/2 192/1/2 196/1/2
f 197/3/2 198/3/2 202/3/2
f 202/3/2 198/3/2 203/3/2
f 199/3/2 200/3/2 204/3/2
f 204/3/2 200/3/2 205/3/2
f 205/3/2 206/3/2 207/3/2
f 201/2/2 202/2/2 210/2/2
f 210/2/2 202/2/2 211/2/2
f 205/3/2 207/3/2 212/3/2
f 207/2/2 208/2/2 213/2/2
f 212/3/2 207/3/2 213/3/2
f 213/2/2 208/2/2 214/2/2
f 209/2/2 210/2/2 215/2/2
f 213/3/2 214/3/2 217/3/2
f 214/2/2 215/2/2 218/2/2
f 217/3/2 214/3/2 218/3/2
f 215/2/2 210/2/2 219/2/2
f 218/2/2 215/2/2 219/2/2
f 219/2/2 210/2/2 220/2/2
f 217/2/2 218/2/2 221/2/2
f 216/2/2 217/2/2 221/2/2
f 218/2/2 219/2/2 221/2/2
f 221/2/2 219/2/2 222/2/2
f 223/3/2 224/3/2 225/3/2
f 225/3/2 224/3/2 226/3/2
f 227/2/2 228/2/2 229/2/2
f 229/2/2 228/2/2 230/2/2
f 230/2/2 228/2/2 231/2/2
f 231/2/2 228/2/2 232/2/2
f 232/2/2 228/2/2 233/2/2
f 233/2/2 228/2/2 234/2/2
f 232/2/2 233/2/2 235/2/2
f 235/2/2 233/2/2 236/2/2
f 237/3/2 238/3/2 239/3/2
f 239/3/2 238/3/2 240/3/2
f 243/3/3 242/3/3 241/3/3
f 244/3/3 242/3/3 243/3/3
f 247/3/3 246/3/3 245/3/3
f 248/3/3 246/3/3 247/3/3
f 252/1/3 250/1/3 249/1/3
f 253/2/3 251/2/3 250/2/3
f 253/1/3 250/1/3 252/1/3
f 254/2/3 251/2/3 253/2/3
f 257/3/3 256/3/3 255/3/3
f 258/3/3 256/3/3 257/3/3
f 261/2/3 260/2/3 259/2/3
f 262/2/3 260/2/3 261/2/3
f 263/2/3 260/2/3 262/2/3
f 267/1/3 264/1/3 263/1/3
f 268/1/3 264/1/3 267/1/3
f 269/2/3 266/2/3 265/2/3
f 269/2/3 267/2/3 266/2/3
f 270/2/3 267/2/3 269/2/3
f 273/3/3 272/3/3 271/3/3
f 274/3/3 272/3/3 273/3/3
f 279/3/3 276/3/3 275/3/3
f 280/3/3 276/3/3 279/3/3
f 281/2/3 278/2/3 277/2/3
f 282/2/3 278/2/3 281/2/3
f 287/3/3 284/3/3 283/3/3
f 288/3/3 284/3/3 287/3/3
f 289/2/3 286/2/3 285/2/3
f 290/2/3 286/2/3 289/2/3
f 293/3/3 292/3/3 291/3/3
f 294/3/3 292/3/3 293/3/3
f 297/2/3 296/2/3 295/2/3
f 298/2/3 296/2/3 297/2/3
f 300/3/3 299/3/3 298/3/3
f 301/3/3 299/3/3 300/3/3
f 304/1/3 303/1/3 302/1/3
f 305/1/3 303/1/3 304/1/3
f 310/1/3 307/1/3 306/1/3
f 311/1/3 307/1/3 310/1/3
f 313/3/3 309/3/3 308/3/3
f 314/3/3 309/3/3 313/3/3
f 315/2/3 313/2/3 312/2/3
f 316/2/3 313/2/3 315/2/3
f 319/2/3 318/2/3 317/2/3
f 320/2/3 318/2/3 319/2/3
f 324/3/3 322/3/3 321/3/3
f 325/3/3 322/3/3 324/3/3
f 326/3/3 324/3/3 323/3/3
f 326/3/3 325/3/3 324/3/3
f 327/3/3 325/3/3 326/3/3
f 330/3/3 329/3/3 328/3/3
f 331/3/3 329/3/3 330/3/3
f 332/3/3 329/3/3 331/3/3
f 335/3/3 332/3/3 331/3/3
f 336/3/3 332/3/3 335/3/3
f 337/2/3 334/2/3 333/2/3
f 338/2/3 334/2/3 337/2/3
f 341/2/3 340/2/3 339/2/3
f 342/2/3 340/2/3 341/2/3
f 345/3/3 344/3/3 343/3/3
f 346/3/3 344/3/3 345/3/3
f 349/2/3 348/2/3 347/2/3
f 350/2/3 348/2/3 349/2/3
f 351/1/4 352/1/4 353/1/4
f 353/1/4 352/1/4 354/1/4
f 355/1/4 356/1/4 357/1/4
f 357/1/4 356/1/4 358/1/4
f 359/2/4 360/2/4 361/2/4
f 361/2/4 360/2/4 362/2/4
f 363/2/4 364/2/4 365/2/4
f 365/2/4 364/2/4 366/2/4
f 367/1/4 368/1/4 369/1/4
f 369/1/4 368/1/4 370/1/4
f 371/1/4 372/1/4 373/1/4
f 373/1/4 372/1/4 374/1/4
f 375/2/4 376/2/4 379/2/4
f 379/2/4 376/2/4 380/2/4
f 377/2/4 378/2/4 381/2/4
f 381/2/4 378/2/4 382/2/4
f 383/2/4 384/2/4 385/2/4
f 385/2/4 384/2/4 386/2/4
f 386/2/4 387/2/4 388/2/4
f 388/2/4 387/2/4 389/2/4
f 389/2/4 390/2/4 391/2/4
f 391/2/4 390/2/4 392/2/4
f 392/2/4 390/2/4 393/2/4
f 392/3/4 393/3/4 394/3/4
f 394/3/4 393/3/4 395/3/4
f 395/2/4 396/2/4 398/2/4
f 398/2/4 396/2/4 399/2/4
f 397/3/4 398/3/4 401/3/4
f 401/3/4 398/3/4 402/3/4
f 400/2/4 401/2/4 404/2/4
f 401/2/4 402/2/4 404/2/4
f 404/2/4 402/2/4 405/2/4
f 403/2/4 404/2/4 407/2/4
f 407/2/4 404/2/4 408/2/4
f 406/2/4 407/2/4 409/2/4
f 409/2/4 407/2/4 410/2/4
f 411/3/4 412/3/4 413/3/4
f 413/3/4 412/3/4 414/3/4
f 415/2/4 416/2/4 417/2/4
f 417/2/4 416/2/4 418/2/4
f 418/2/4 416/2/4 419/2/4
f 419/2/4 420/2/4 421/2/4
f 418/2/4 419/2/4 421/2/4
f 421/2/4 420/2/4 422/2/4
f 422/2/4 420/2/4 423/2/4
f 423/2/4 424/2/4 425/2/4
f 422/2/4 423/2/4 425/2/4
f 425/2/4 424/2/4 426/2/4
f 426/2/4 424/2/4 427/2/4
f 427/2/4 428/2/4 430/2/4
f 426/2/4 427/2/4 430/2/4
f 430/2/4 428/2/4 431/2/4
f 431/2/4 428/2/4 432/2/4
f 429/2/4 430/2/4 434/2/4
f 430/2/4 431/2/4 434/2/4
f 434/2/4 431/2/4 435/2/4
f 435/2/4 431/2/4 436/2/4
f 433/2/4 434/2/4 438/2/4
f 434/2/4 435/2/4 438/2/4
f 438/2/4 435/2/4 439/2/4
f 439/2/4 435/2/4 440/2/4
f 437/2/4 438/2/4 442/2/4
f 438/2/4 439/2/4 442/2/4
f 442/2/4 439/2/4 443/2/4
f 441/3/4 442/3/4 444/3/4
f 444/3/4 442/3/4 445/3/4
f 446/3/4 447/3/4 448/3/4
f 448/3/4 447/3/4 449/3/4
f 450/4/4 451/4/4 452/4/4
f 452/4/4 451/4/4 453/4/4
f 453/4/4 454/4/4 455/4/4
f 455/4/4 454/4/4 456/4/4
f 456/4/4 454/4/4 457/4/4
f 457/4/4 458/4/4 460/4/4
f 456/4/4 457/4/4 460/4/4
f 460/4/4 458/4/4 461/4/4
f 461/4/4 458/4/4 462/4/4
f 459/4/4 460/4/4 464/4/4
f 460/4/4 461/4/4 464/4/4
f 464/4/4 461/4/4 465/4/4
f 463/4/4 464/4/4 467/4/4
f 467/4/4 464/4/4 468/4/4
f 466/3/4 467/3/4 469/3/4
f 469/3/4 467/3/4 470/3/4
f 471/3/4 472/3/4 473/3/4
f 473/4/4 474/4/4 475/4/4
f 473/4/4 475/4/4 477/4/4
f 475/4/4 476/4/4 477/4/4
f 477/4/4 476/4/4 478/4/4
f 471/3/4 473/3/4 479/3/4
f 473/4/4 477/4/4 479/4/4
f 479/4/4 477/4/4 480/4/4
f 471/3/4 479/3/4 481/3/4
f 481/3/4 479/3/4 482/3/4
f 486/3/5 484/3/5 483/3/5
f 487/3/5 484/3/5 486/3/5
f 490/3/5 486/3/5 485/3/5
f 490/3/5 488/3/5 487/3/5
f 490/3/5 487/3/5 486/3/5
f 491/3/5 488/3/5 490/3/5
f 493/3/5 490/3/5 489/3/5
f 493/3/5 492/3/5 491/3/5
f 493/3/5 491/3/5 490/3/5
f 494/3/5 492/3/5 493/3/5
f 495/3/5 492/3/5 494/3/5
f 496/3/5 492/3/5 495/3/5
f 497/3/5 495/3/5 494/3/5
f 498/3/5 495/3/5 497/3/5
f 499/3/5 495/3/5 498/3/5
f 500/3/5 495/3/5 499/3/5
f 501/3/5 499/3/5 498/3/5
f 502/3/5 499/3/5 501/3/5
f 506/1/5 504/1/5 503/1/5
f 507/1/5 504/1/5 506/1/5
f 510/2/5 506/2/5 505/2/5
f 511/1/5 507/1/5 506/1/5
f 511/2/5 506/2/5 510/2/5
f 512/1/5 507/1/5 511/1/5
f 513/1/5 507/1/5 512/1/5
f 514/2/5 508/2/5 507/2/5
f 514/1/5 507/1/5 513/1/5
f 515/2/5 508/2/5 514/2/5
f 517/3/5 513/3/5 512/3/5
f 517/1/5 511/1/5 510/1/5
f 517/1/5 512/1/5 511/1/5
f 518/1/5 515/1/5 514/1/5
f 518/3/5 513/3/5 517/3/5
f 518/1/5 514/1/5 513/1/5
f 519/2/5 510/2/5 509/2/5
f 520/1/5 517/1/5 510/1/5
f 520/2/5 510/2/5 519/2/5
f 520/1/5 518/1/5 517/1/5
f 521/1/5 518/1/5 520/1/5
f 522/1/5 515/1/5 518/1/5
f 522/1/5 518/1/5 521/1/5
f 523/2/5 516/2/5 515/2/5
f 523/1/5 515/1/5 522/1/5
f 524/2/5 516/2/5 523/2/5
f 525/1/5 522/1/5 521/1/5
f 526/1/5 522/1/5 525/1/5
f 527/3/6 528/3/6 530/3/6
f 530/3/6 528/3/6 531/3/6
f 529/3/6 530/3/6 534/3/6
f 531/3/6 532/3/6 534/3/6
f 530/3/6 531/3/6 534/3/6
f 534/3/6 532/3/6 535/3/6
f 535/3/6 532/3/6 536/3/6
f 536/3/6 532/3/6 537/3/6
f 537/3/6 532/3/6 538/3/6
f 538/3/6 532/3/6 539/3/6
f 533/3/6 534/3/6 541/3/6
f 534/3/6 535/3/6 541/3/6
f 541/3/6 535/3/6 542/3/6
f 539/3/6 540/3/6 543/3/6
f 538/3/6 539/3/6 543/3/6
f 543/3/6 540/3/6 544/3/6
f 536/3/6 537/3/6 545/3/6
f 545/3/6 537/3/6 546/3/6
f 546/3/6 537/3/6 547/3/6
f 547/3/6 537/3/6 548/3/6
f 546/3/6 547/3/6 549/3/6
f 549/3/6 547/3/6 550/3/6
f 533/3/6 541/3/6 551/3/6
f 544/3/6 540/3/6 554/3/6
f 551/3/6 552/3/6 555/3/6
f 533/3/6 551/3/6 555/3/6
f 555/3/6 552/3/6 556/3/6
f 556/3/6 552/3/6 557/3/6
f 553/3/6 554/3/6 560/3/6
f 554/3/6 540/3/6 561/3/6
f 560/3/6 554/3/6 561/3/6
f 557/3/6 558/3/6 562/3/6
f 556/3/6 557/3/6 562/3/6
f 562/3/6 558/3/6 563/3/6
f 563/3/6 558/3/6 564/3/6
f 559/3/6 560/3/6 567/3/6
f 567/3/6 560/3/6 568/3/6
f 564/3/6 565/3/6 569/3/6
f 563/3/6 564/3/6 569/3/6
f 569/3/6 565/3/6 570/3/6
f 566/3/6 567/3/6 571/3/6
f 571/3/6 567/3/6 572/3/6
f 573/3/6 574/3/6 578/3/6
f 578/3/6 574/3/6 579/3/6
f 575/3/6 576/3/6 580/3/6
f 580/3/6 576/3/6 581/3/6
f 577/2/6 578/2/6 583/2/6
f 583/2/6 578/2/6 584/2/6
f 581/2/6 582/2/6 585/2/6
f 585/2/6 582/2/6 586/2/6
f 587/4/6 588/4/6 591/4/6
f 591/4/6 588/4/6 592/4/6
f 589/4/6 590/4/6 595/4/6
f 595/4/6 590/4/6 596/4/6
f 592/4/6 593/4/6 597/4/6
f 597/4/6 593/4/6 598/4/6
f 594/4/6 595/4/6 599/4/6
f 599/4/6 595/4/6 600/4/6
f 601/2/6 602/2/6 605/2/6
f 605/2/6 602/2/6 606/2/6
f 603/2/6 604/2/6 607/2/6
f 607/2/6 604/2/6 608/2/6
f 609/2/6 610/2/6 613/2/6
f 613/2/6 610/2/6 614/2/6
f 611/2/6 612/2/6 617/2/6
f 617/2/6 612/2/6 618/2/6
f 614/2/6 615/2/6 619/2/6
f 619/2/6 615/2/6 620/2/6
f 616/2/6 617/2/6 621/2/6
f 621/2/6 617/2/6 622/2/6
f 623/4/6 624/4/6 625/4/6
f 625/4/6 624/4/6 626/4/6
f 627/3/6 628/3/6 631/3/6
f 631/3/6 628/3/6 632/3/6
f 629/3/6 630/3/6 633/3/6
f 633/3/6 630/3/6 634/3/6
f 635/2/6 636/2/6 639/2/6
f 639/2/6 636/2/6 640/2/6
f 637/2/6 638/2/6 641/2/6
f 641/2/6 638/2/6 642/2/6
f 643/4/6 644/4/6 647/4/6
f 647/4/6 644/4/6 648/4/6
f 645/4/6 646/4/6 649/4/6
f 649/4/6 646/4/6 650/4/6
f 651/4/6 652/4/6 653/4/6
f 653/4/6 652/4/6 654/4/6
f 655/2/6 656/2/6 659/2/6
f 659/2/6 656/2/6 660/2/6
f 657/2/6 658/2/6 663/2/6
f 663/2/6 658/2/6 664/2/6
f 660/2/6 661/2/6 665/2/6
f 665/2/6 661/2/6 666/2/6
f 662/2/6 663/2/6 667/2/6
f 667/2/6 663/2/6 668/2/6
f 669/2/6 670/2/6 673/2/6
f 673/2/6 670/2/6 674/2/6
f 671/2/6 672/2/6 675/2/6
f 675/2/6 672/2/6 676/2/6
f 677/2/6 678/2/6 680/2/6
f 680/2/6 678/2/6 681/2/6
f 679/2/6 680/2/6 684/2/6
f 681/2/6 682/2/6 685/2/6
f 683/2/6 684/2/6 687/2/6
f 684/2/6 680/2/6 687/2/6
f 687/2/6 680/2/6 688/2/6
f 685/2/6 686/2/6 689/2/6
f 681/2/6 685/2/6 689/2/6
f 689/2/6 686/2/6 690/2/6
f 683/2/6 687/2/6 691/2/6
f 690/2/6 686/2/6 694/2/6
f 691/2/6 692/2/6 695/2/6
f 683/2/6 691/2/6 695/2/6
f 695/2/6 692/2/6 696/2/6
f 696/2/6 692/2/6 697/2/6
f 693/2/6 694/2/6 700/2/6
f 694/2/6 686/2/6 701/2/6
f 700/2/6 694/2/6 701/2/6
f 701/2/6 686/2/6 702/2/6
f 696/2/6 697/2/6 703/2/6
f 697/3/6 698/3/6 704/3/6
f 703/2/6 697/2/6 704/2/6
f 704/3/6 698/3/6 705/3/6
f 699/3/6 700/3/6 706/3/6
f 700/2/6 701/2/6 707/2/6
f 706/3/6 700/3/6 707/3/6
f 707/2/6 701/2/6 708/2/6
f 705/2/6 706/2/6 709/2/6
f 709/2/6 706/2/6 710/2/6
f 711/1/6 712/1/6 713/1/6
f 713/1/6 712/1/6 714/1/6
f 711/1/6 713/1/6 716/1/6
f 714/1/6 712/1/6 717/1/6
f 715/1/6 716/1/6 719/1/6
f 716/1/6 713/1/6 720/1/6
f 719/1/6 716/1/6 720/1/6
f 717/1/6 718/1/6 721/1/6
f 714/1/6 717/1/6 721/1/6
f 721/1/6 718/1/6 722/1/6
f 720/1/6 713/1/6 723/1/6
f 713/2/6 714/2/6 724/2/6
f 723/1/6 713/1/6 724/1/6
f 714/1/6 721/1/6 725/1/6
f 724/2/6 714/2/6 725/2/6
f 725/1/6 721/1/6 726/1/6
f 724/2/6 725/2/6 727/2/6
f 727/2/6 725/2/6 728/2/6
