# MagicaVoxel @ Ephtracy

# group
o 

# material
mtllib Office_Misc_Coffee_Machine_01.mtl
usemtl palette

# normals
vn -1 0 0
vn 1 0 0
vn 0 0 1
vn 0 0 -1
vn 0 -1 0
vn 0 1 0

# texcoords
vt 0.740234 0.5
vt 0.771484 0.5
vt 0.775391 0.5
vt 0.779297 0.5
vt 0.818359 0.5

# verts
v -0.5 0 0.1
v -0.5 0 -0.5
v -0.5 0.1 0.1
v -0.5 0.1 -0.5
v -0.4 0 0.3
v -0.4 0 0.1
v -0.4 0 -0.5
v -0.4 0 -0.6
v -0.4 0.1 0.3
v -0.4 0.1 0.1
v -0.4 0.1 -0.1
v -0.4 0.1 -0.4
v -0.4 0.1 -0.5
v -0.4 0.1 -0.6
v -0.4 0.4 -0.1
v -0.4 0.4 -0.2
v -0.4 0.4 -0.3
v -0.4 0.4 -0.4
v -0.4 0.5 -0.2
v -0.4 0.5 -0.3
v -0.3 0 -0.6
v -0.3 0 -0.7
v -0.3 0.1 -0.4
v -0.3 0.1 -0.6
v -0.3 0.1 -0.7
v -0.3 0.3 -0.5
v -0.3 0.3 -0.6
v -0.3 0.4 -0.1
v -0.3 0.4 -0.2
v -0.3 0.4 -0.3
v -0.3 0.4 -0.4
v -0.3 0.4 -0.5
v -0.3 0.5 -0.2
v -0.3 0.5 -0.3
v -0.3 0.6 0.1
v -0.3 0.6 -0.1
v -0.3 0.8 0.1
v -0.3 0.8 -0.4
v -0.3 0.9 0.1
v -0.3 0.9 -0.4
v -0.3 1.2 0.1
v -0.3 1.2 -0.4
v -0.3 1.3 0.1
v -0.3 1.3 -0.4
v -0.2 0 0.4
v -0.2 0 0.3
v -0.2 0 -0.7
v -0.2 0 -0.8
v -0.2 0.1 0.4
v -0.2 0.1 0.3
v -0.2 0.1 -0.6
v -0.2 0.1 -0.7
v -0.2 0.1 -0.8
v -0.2 0.3 -0.5
v -0.2 0.3 -0.6
v -0.2 0.3 -0.7
v -0.2 0.4 -0.4
v -0.2 0.4 -0.5
v -0.2 0.5 -0.5
v -0.2 0.5 -0.6
v -0.2 0.6 0.2
v -0.2 0.6 0.1
v -0.2 0.8 0.2
v -0.2 0.8 0.1
v -0.2 0.8 -0.4
v -0.2 0.8 -0.5
v -0.2 0.9 0.2
v -0.2 0.9 0.1
v -0.2 0.9 -0.4
v -0.2 0.9 -0.5
v -0.2 1.2 0.2
v -0.2 1.2 0.1
v -0.2 1.2 -0.4
v -0.2 1.2 -0.5
v -0.2 1.3 0.2
v -0.2 1.3 0.1
v -0.2 1.3 -0.4
v -0.2 1.3 -0.5
v -0.1 0.3 -0.6
v -0.1 0.3 -0.7
v -0.1 0.5 -0.5
v -0.1 0.5 -0.6
v -0.1 0.6 0.3
v -0.1 0.6 0.2
v -0.1 0.7 0.3
v -0.1 0.7 0.2
v -0.1 0.8 0.3
v -0.1 0.8 0.2
v -0.1 0.8 -0.5
v -0.1 0.9 -0.5
v -0.1 1.1 -0.6
v -0.1 1.1 -0.7
v -0.1 1.2 -0.5
v -0.1 1.2 -0.6
v 0.3 0.4 -0.1
v 0.3 0.4 -0.2
v 0.3 0.6 -0.1
v 0.3 0.6 -0.2
v 0.4 0.1 -0.1
v 0.4 0.1 -0.2
v 0.4 0.4 -0.1
v 0.4 0.4 -0.2
v -0.3 0.1 -0.1
v -0.3 0.1 -0.2
v -0.3 0.4 -0.1
v -0.3 0.4 -0.2
v -0.2 0.4 -0.1
v -0.2 0.4 -0.2
v -0.2 0.6 -0.1
v -0.2 0.6 -0.2
v 0.2 0.3 -0.6
v 0.2 0.3 -0.7
v 0.2 0.4 -0.6
v 0.2 0.5 -0.5
v 0.2 0.5 -0.6
v 0.2 0.6 0.3
v 0.2 0.6 0.2
v 0.2 0.7 0.3
v 0.2 0.7 0.2
v 0.2 0.8 0.3
v 0.2 0.8 0.2
v 0.2 0.8 -0.5
v 0.2 0.9 -0.5
v 0.2 1 -0.5
v 0.2 1 -0.6
v 0.2 1.1 -0.6
v 0.2 1.1 -0.7
v 0.2 1.2 -0.5
v 0.2 1.2 -0.6
v 0.3 0 0.4
v 0.3 0 0.3
v 0.3 0 -0.7
v 0.3 0 -0.8
v 0.3 0.1 0.4
v 0.3 0.1 0.3
v 0.3 0.1 -0.6
v 0.3 0.1 -0.7
v 0.3 0.1 -0.8
v 0.3 0.3 -0.5
v 0.3 0.3 -0.6
v 0.3 0.3 -0.7
v 0.3 0.4 -0.4
v 0.3 0.4 -0.5
v 0.3 0.4 -0.6
v 0.3 0.5 -0.5
v 0.3 0.5 -0.6
v 0.3 0.6 0.2
v 0.3 0.6 0.1
v 0.3 0.8 0.2
v 0.3 0.8 0.1
v 0.3 0.8 -0.4
v 0.3 0.8 -0.5
v 0.3 0.9 0.2
v 0.3 0.9 0.1
v 0.3 0.9 -0.4
v 0.3 0.9 -0.5
v 0.3 1.2 0.2
v 0.3 1.2 0.1
v 0.3 1.2 -0.4
v 0.3 1.2 -0.5
v 0.3 1.3 0.2
v 0.3 1.3 0.1
v 0.3 1.3 -0.4
v 0.3 1.3 -0.5
v 0.4 0 -0.6
v 0.4 0 -0.7
v 0.4 0.1 -0.4
v 0.4 0.1 -0.6
v 0.4 0.1 -0.7
v 0.4 0.3 -0.5
v 0.4 0.3 -0.6
v 0.4 0.4 -0.1
v 0.4 0.4 -0.2
v 0.4 0.4 -0.3
v 0.4 0.4 -0.4
v 0.4 0.4 -0.5
v 0.4 0.5 -0.2
v 0.4 0.5 -0.3
v 0.4 0.6 0.1
v 0.4 0.6 -0.1
v 0.4 0.8 0.1
v 0.4 0.8 -0.4
v 0.4 0.9 0.1
v 0.4 0.9 -0.4
v 0.4 1.2 0.1
v 0.4 1.2 -0.4
v 0.4 1.3 0.1
v 0.4 1.3 -0.4
v 0.5 0 0.3
v 0.5 0 0.1
v 0.5 0 -0.5
v 0.5 0 -0.6
v 0.5 0.1 0.3
v 0.5 0.1 0.1
v 0.5 0.1 -0.1
v 0.5 0.1 -0.4
v 0.5 0.1 -0.5
v 0.5 0.1 -0.6
v 0.5 0.4 -0.1
v 0.5 0.4 -0.2
v 0.5 0.4 -0.3
v 0.5 0.4 -0.4
v 0.5 0.5 -0.2
v 0.5 0.5 -0.3
v 0.6 0 0.1
v 0.6 0 -0.5
v 0.6 0.1 0.1
v 0.6 0.1 -0.5
v -0.2 0 0.4
v -0.2 0.1 0.4
v 0.3 0 0.4
v 0.3 0.1 0.4
v -0.4 0 0.3
v -0.4 0.1 0.3
v -0.2 0 0.3
v -0.2 0.1 0.3
v -0.1 0.6 0.3
v -0.1 0.7 0.3
v -0.1 0.8 0.3
v 0.2 0.6 0.3
v 0.2 0.7 0.3
v 0.2 0.8 0.3
v 0.3 0 0.3
v 0.3 0.1 0.3
v 0.5 0 0.3
v 0.5 0.1 0.3
v -0.2 0.6 0.2
v -0.2 0.8 0.2
v -0.2 0.9 0.2
v -0.2 1.2 0.2
v -0.2 1.3 0.2
v -0.1 0.6 0.2
v -0.1 0.7 0.2
v -0.1 0.8 0.2
v 0.2 0.6 0.2
v 0.2 0.7 0.2
v 0.2 0.8 0.2
v 0.3 0.6 0.2
v 0.3 0.8 0.2
v 0.3 0.9 0.2
v 0.3 1.2 0.2
v 0.3 1.3 0.2
v -0.5 0 0.1
v -0.5 0.1 0.1
v -0.4 0 0.1
v -0.4 0.1 0.1
v -0.3 0.6 0.1
v -0.3 0.8 0.1
v -0.3 0.9 0.1
v -0.3 1.2 0.1
v -0.3 1.3 0.1
v -0.2 0.6 0.1
v -0.2 0.8 0.1
v -0.2 0.9 0.1
v -0.2 1.2 0.1
v -0.2 1.3 0.1
v 0.3 0.6 0.1
v 0.3 0.8 0.1
v 0.3 0.9 0.1
v 0.3 1.2 0.1
v 0.3 1.3 0.1
v 0.4 0.6 0.1
v 0.4 0.8 0.1
v 0.4 0.9 0.1
v 0.4 1.2 0.1
v 0.4 1.3 0.1
v 0.5 0 0.1
v 0.5 0.1 0.1
v 0.6 0 0.1
v 0.6 0.1 0.1
v -0.4 0.1 -0.1
v -0.4 0.4 -0.1
v -0.3 0.1 -0.1
v -0.3 0.4 -0.1
v -0.3 0.6 -0.1
v -0.2 0.4 -0.1
v -0.2 0.6 -0.1
v 0.3 0.4 -0.1
v 0.3 0.6 -0.1
v 0.4 0.1 -0.1
v 0.4 0.4 -0.1
v 0.4 0.6 -0.1
v 0.5 0.1 -0.1
v 0.5 0.4 -0.1
v -0.4 0.4 -0.2
v -0.4 0.5 -0.2
v -0.3 0.1 -0.2
v -0.3 0.4 -0.2
v -0.3 0.5 -0.2
v -0.2 0.4 -0.2
v -0.2 0.6 -0.2
v -0.1 0.6 -0.2
v 0.2 0.6 -0.2
v 0.3 0.4 -0.2
v 0.3 0.6 -0.2
v 0.4 0.1 -0.2
v 0.4 0.4 -0.2
v 0.4 0.5 -0.2
v 0.5 0.4 -0.2
v 0.5 0.5 -0.2
v -0.4 0.4 -0.3
v -0.4 0.5 -0.3
v -0.3 0.4 -0.3
v -0.3 0.5 -0.3
v 0.4 0.4 -0.3
v 0.4 0.5 -0.3
v 0.5 0.4 -0.3
v 0.5 0.5 -0.3
v -0.4 0.1 -0.4
v -0.4 0.4 -0.4
v -0.3 0.1 -0.4
v -0.3 0.4 -0.4
v -0.3 0.8 -0.4
v -0.3 0.9 -0.4
v -0.3 1.2 -0.4
v -0.3 1.3 -0.4
v -0.2 0.4 -0.4
v -0.2 0.8 -0.4
v -0.2 0.9 -0.4
v -0.2 1.2 -0.4
v -0.2 1.3 -0.4
v 0.3 0.4 -0.4
v 0.3 0.8 -0.4
v 0.3 0.9 -0.4
v 0.3 1.2 -0.4
v 0.3 1.3 -0.4
v 0.4 0.1 -0.4
v 0.4 0.4 -0.4
v 0.4 0.8 -0.4
v 0.4 0.9 -0.4
v 0.4 1.2 -0.4
v 0.4 1.3 -0.4
v 0.5 0.1 -0.4
v 0.5 0.4 -0.4
v -0.5 0 -0.5
v -0.5 0.1 -0.5
v -0.4 0 -0.5
v -0.4 0.1 -0.5
v -0.3 0.3 -0.5
v -0.3 0.4 -0.5
v -0.2 0.3 -0.5
v -0.2 0.4 -0.5
v -0.2 0.5 -0.5
v -0.2 0.8 -0.5
v -0.2 0.9 -0.5
v -0.2 1.2 -0.5
v -0.2 1.3 -0.5
v -0.1 0.5 -0.5
v -0.1 0.8 -0.5
v -0.1 0.9 -0.5
v -0.1 1.2 -0.5
v 0.2 0.5 -0.5
v 0.2 0.8 -0.5
v 0.2 0.9 -0.5
v 0.2 1 -0.5
v 0.2 1.2 -0.5
v 0.3 0.3 -0.5
v 0.3 0.4 -0.5
v 0.3 0.5 -0.5
v 0.3 0.8 -0.5
v 0.3 0.9 -0.5
v 0.3 1.2 -0.5
v 0.3 1.3 -0.5
v 0.4 0.3 -0.5
v 0.4 0.4 -0.5
v 0.5 0 -0.5
v 0.5 0.1 -0.5
v 0.6 0 -0.5
v 0.6 0.1 -0.5
v -0.4 0 -0.6
v -0.4 0.1 -0.6
v -0.3 0 -0.6
v -0.3 0.1 -0.6
v -0.3 0.3 -0.6
v -0.2 0.1 -0.6
v -0.2 0.3 -0.6
v -0.2 0.5 -0.6
v -0.1 0.3 -0.6
v -0.1 0.5 -0.6
v -0.1 1.1 -0.6
v -0.1 1.2 -0.6
v 0.2 0.3 -0.6
v 0.2 0.4 -0.6
v 0.2 0.5 -0.6
v 0.2 1.1 -0.6
v 0.2 1.2 -0.6
v 0.3 0.1 -0.6
v 0.3 0.3 -0.6
v 0.3 0.4 -0.6
v 0.3 0.5 -0.6
v 0.4 0 -0.6
v 0.4 0.1 -0.6
v 0.4 0.3 -0.6
v 0.5 0 -0.6
v 0.5 0.1 -0.6
v -0.3 0 -0.7
v -0.3 0.1 -0.7
v -0.2 0 -0.7
v -0.2 0.1 -0.7
v -0.2 0.3 -0.7
v -0.1 0.3 -0.7
v -0.1 1.1 -0.7
v 0.2 0.3 -0.7
v 0.2 1.1 -0.7
v 0.3 0 -0.7
v 0.3 0.1 -0.7
v 0.3 0.3 -0.7
v 0.4 0 -0.7
v 0.4 0.1 -0.7
v -0.2 0 -0.8
v -0.2 0.1 -0.8
v 0.3 0 -0.8
v 0.3 0.1 -0.8
v -0.2 0 0.4
v 0.3 0 0.4
v -0.4 0 0.3
v -0.2 0 0.3
v 0.3 0 0.3
v 0.5 0 0.3
v -0.5 0 0.1
v -0.4 0 0.1
v 0.5 0 0.1
v 0.6 0 0.1
v -0.5 0 -0.5
v -0.4 0 -0.5
v 0.5 0 -0.5
v 0.6 0 -0.5
v -0.4 0 -0.6
v -0.3 0 -0.6
v 0.4 0 -0.6
v 0.5 0 -0.6
v -0.3 0 -0.7
v -0.2 0 -0.7
v 0.3 0 -0.7
v 0.4 0 -0.7
v -0.2 0 -0.8
v 0.3 0 -0.8
v -0.3 0.4 -0.1
v -0.2 0.4 -0.1
v 0.3 0.4 -0.1
v 0.4 0.4 -0.1
v -0.3 0.4 -0.2
v -0.2 0.4 -0.2
v 0.3 0.4 -0.2
v 0.4 0.4 -0.2
v -0.1 0.6 0.3
v 0.2 0.6 0.3
v -0.2 0.6 0.2
v -0.1 0.6 0.2
v 0.2 0.6 0.2
v 0.3 0.6 0.2
v -0.3 0.6 0.1
v -0.2 0.6 0.1
v -0.1 0.6 0.1
v 0 0.6 0.1
v 0.1 0.6 0.1
v 0.2 0.6 0.1
v 0.3 0.6 0.1
v 0.4 0.6 0.1
v 0 0.6 0
v 0.1 0.6 0
v -0.3 0.6 -0.1
v -0.2 0.6 -0.1
v -0.1 0.6 -0.1
v 0.2 0.6 -0.1
v 0.3 0.6 -0.1
v 0.4 0.6 -0.1
v -0.2 0.6 -0.2
v -0.1 0.6 -0.2
v 0.2 0.6 -0.2
v 0.3 0.6 -0.2
v -0.2 0.1 0.4
v 0.3 0.1 0.4
v -0.4 0.1 0.3
v -0.2 0.1 0.3
v 0.3 0.1 0.3
v 0.5 0.1 0.3
v -0.5 0.1 0.1
v -0.4 0.1 0.1
v 0.5 0.1 0.1
v 0.6 0.1 0.1
v -0.4 0.1 -0.1
v -0.3 0.1 -0.1
v 0.4 0.1 -0.1
v 0.5 0.1 -0.1
v -0.3 0.1 -0.2
v 0.4 0.1 -0.2
v -0.4 0.1 -0.4
v -0.3 0.1 -0.4
v 0.4 0.1 -0.4
v 0.5 0.1 -0.4
v -0.5 0.1 -0.5
v -0.4 0.1 -0.5
v 0.5 0.1 -0.5
v 0.6 0.1 -0.5
v -0.4 0.1 -0.6
v -0.3 0.1 -0.6
v -0.2 0.1 -0.6
v 0.3 0.1 -0.6
v 0.4 0.1 -0.6
v 0.5 0.1 -0.6
v -0.3 0.1 -0.7
v -0.2 0.1 -0.7
v 0.3 0.1 -0.7
v 0.4 0.1 -0.7
v -0.2 0.1 -0.8
v 0.3 0.1 -0.8
v -0.3 0.3 -0.5
v -0.2 0.3 -0.5
v 0.3 0.3 -0.5
v 0.4 0.3 -0.5
v -0.3 0.3 -0.6
v -0.2 0.3 -0.6
v -0.1 0.3 -0.6
v 0.2 0.3 -0.6
v 0.3 0.3 -0.6
v 0.4 0.3 -0.6
v -0.2 0.3 -0.7
v -0.1 0.3 -0.7
v 0.2 0.3 -0.7
v 0.3 0.3 -0.7
v -0.4 0.4 -0.1
v -0.3 0.4 -0.1
v 0.4 0.4 -0.1
v 0.5 0.4 -0.1
v -0.4 0.4 -0.2
v -0.3 0.4 -0.2
v 0.4 0.4 -0.2
v 0.5 0.4 -0.2
v -0.4 0.4 -0.3
v -0.3 0.4 -0.3
v 0.4 0.4 -0.3
v 0.5 0.4 -0.3
v -0.4 0.4 -0.4
v -0.3 0.4 -0.4
v -0.2 0.4 -0.4
v 0.3 0.4 -0.4
v 0.4 0.4 -0.4
v 0.5 0.4 -0.4
v -0.3 0.4 -0.5
v -0.2 0.4 -0.5
v 0.3 0.4 -0.5
v 0.4 0.4 -0.5
v -0.4 0.5 -0.2
v -0.3 0.5 -0.2
v 0.4 0.5 -0.2
v 0.5 0.5 -0.2
v -0.4 0.5 -0.3
v -0.3 0.5 -0.3
v 0.4 0.5 -0.3
v 0.5 0.5 -0.3
v -0.2 0.5 -0.5
v -0.1 0.5 -0.5
v 0.2 0.5 -0.5
v 0.3 0.5 -0.5
v -0.2 0.5 -0.6
v -0.1 0.5 -0.6
v 0.2 0.5 -0.6
v 0.3 0.5 -0.6
v -0.1 0.8 0.3
v 0.2 0.8 0.3
v -0.1 0.8 0.2
v 0.2 0.8 0.2
v -0.1 1.1 -0.6
v 0.2 1.1 -0.6
v -0.1 1.1 -0.7
v 0.2 1.1 -0.7
v -0.1 1.2 -0.5
v 0.2 1.2 -0.5
v -0.1 1.2 -0.6
v 0.2 1.2 -0.6
v -0.2 1.3 0.2
v 0.3 1.3 0.2
v -0.3 1.3 0.1
v -0.2 1.3 0.1
v -0.1 1.3 0.1
v 0.2 1.3 0.1
v 0.3 1.3 0.1
v 0.4 1.3 0.1
v -0.2 1.3 0
v -0.1 1.3 0
v 0.2 1.3 0
v 0.3 1.3 0
v -0.2 1.3 -0.3
v -0.1 1.3 -0.3
v 0.2 1.3 -0.3
v 0.3 1.3 -0.3
v -0.3 1.3 -0.4
v -0.2 1.3 -0.4
v -0.1 1.3 -0.4
v 0.2 1.3 -0.4
v 0.3 1.3 -0.4
v 0.4 1.3 -0.4
v -0.2 1.3 -0.5
v 0.3 1.3 -0.5

# faces
f 3/4/1 2/4/1 1/4/1
f 4/4/1 2/4/1 3/4/1
f 9/4/1 6/4/1 5/4/1
f 10/4/1 6/4/1 9/4/1
f 13/4/1 8/4/1 7/4/1
f 14/4/1 8/4/1 13/4/1
f 15/3/1 12/3/1 11/3/1
f 16/3/1 12/3/1 15/3/1
f 17/3/1 12/3/1 16/3/1
f 18/3/1 12/3/1 17/3/1
f 19/3/1 17/3/1 16/3/1
f 20/3/1 17/3/1 19/3/1
f 24/4/1 22/4/1 21/4/1
f 25/4/1 22/4/1 24/4/1
f 26/3/1 24/3/1 23/3/1
f 27/3/1 24/3/1 26/3/1
f 31/3/1 26/3/1 23/3/1
f 32/3/1 26/3/1 31/3/1
f 33/3/1 29/3/1 28/3/1
f 34/3/1 31/3/1 30/3/1
f 36/3/1 33/3/1 28/3/1
f 36/3/1 34/3/1 33/3/1
f 37/3/1 36/3/1 35/3/1
f 38/3/1 31/3/1 34/3/1
f 38/3/1 36/3/1 37/3/1
f 38/3/1 34/3/1 36/3/1
f 39/2/1 38/2/1 37/2/1
f 40/2/1 38/2/1 39/2/1
f 41/3/1 40/3/1 39/3/1
f 42/3/1 40/3/1 41/3/1
f 43/2/1 42/2/1 41/2/1
f 44/2/1 42/2/1 43/2/1
f 49/4/1 46/4/1 45/4/1
f 50/4/1 46/4/1 49/4/1
f 52/4/1 48/4/1 47/4/1
f 53/4/1 48/4/1 52/4/1
f 55/3/1 52/3/1 51/3/1
f 56/3/1 52/3/1 55/3/1
f 58/3/1 55/3/1 54/3/1
f 59/3/1 55/3/1 58/3/1
f 59/3/1 58/3/1 57/3/1
f 60/3/1 55/3/1 59/3/1
f 63/3/1 62/3/1 61/3/1
f 64/3/1 62/3/1 63/3/1
f 65/3/1 59/3/1 57/3/1
f 66/3/1 59/3/1 65/3/1
f 67/2/1 64/2/1 63/2/1
f 68/2/1 64/2/1 67/2/1
f 69/2/1 66/2/1 65/2/1
f 70/2/1 66/2/1 69/2/1
f 71/3/1 68/3/1 67/3/1
f 72/3/1 68/3/1 71/3/1
f 73/3/1 70/3/1 69/3/1
f 74/3/1 70/3/1 73/3/1
f 75/2/1 72/2/1 71/2/1
f 76/2/1 72/2/1 75/2/1
f 77/2/1 74/2/1 73/2/1
f 78/2/1 74/2/1 77/2/1
f 82/3/1 80/3/1 79/3/1
f 85/2/1 84/2/1 83/2/1
f 86/2/1 84/2/1 85/2/1
f 87/3/1 86/3/1 85/3/1
f 88/3/1 86/3/1 87/3/1
f 89/3/1 82/3/1 81/3/1
f 90/3/1 82/3/1 89/3/1
f 91/3/1 80/3/1 82/3/1
f 91/3/1 82/3/1 90/3/1
f 92/3/1 80/3/1 91/3/1
f 93/3/1 91/3/1 90/3/1
f 94/3/1 91/3/1 93/3/1
f 97/3/1 96/3/1 95/3/1
f 98/3/1 96/3/1 97/3/1
f 101/3/1 100/3/1 99/3/1
f 102/3/1 100/3/1 101/3/1
f 103/3/2 104/3/2 105/3/2
f 105/3/2 104/3/2 106/3/2
f 107/3/2 108/3/2 109/3/2
f 109/3/2 108/3/2 110/3/2
f 111/3/2 112/3/2 113/3/2
f 113/3/2 112/3/2 115/3/2
f 116/2/2 117/2/2 118/2/2
f 118/2/2 117/2/2 119/2/2
f 118/3/2 119/3/2 120/3/2
f 120/3/2 119/3/2 121/3/2
f 114/5/2 115/5/2 122/5/2
f 122/5/2 115/5/2 123/5/2
f 123/5/2 115/5/2 124/5/2
f 115/3/2 112/3/2 125/3/2
f 124/5/2 115/5/2 125/5/2
f 124/3/2 125/3/2 126/3/2
f 125/3/2 112/3/2 126/3/2
f 126/3/2 112/3/2 127/3/2
f 124/3/2 126/3/2 128/3/2
f 128/3/2 126/3/2 129/3/2
f 130/4/2 131/4/2 134/4/2
f 134/4/2 131/4/2 135/4/2
f 132/4/2 133/4/2 137/4/2
f 137/4/2 133/4/2 138/4/2
f 136/3/2 137/3/2 140/3/2
f 140/3/2 137/3/2 141/3/2
f 139/1/2 140/1/2 143/1/2
f 143/1/2 140/1/2 144/1/2
f 142/3/2 143/3/2 145/3/2
f 143/3/2 144/3/2 145/3/2
f 145/3/2 144/3/2 146/3/2
f 147/3/2 148/3/2 149/3/2
f 149/3/2 148/3/2 150/3/2
f 142/3/2 145/3/2 151/3/2
f 151/3/2 145/3/2 152/3/2
f 149/2/2 150/2/2 153/2/2
f 153/2/2 150/2/2 154/2/2
f 151/2/2 152/2/2 155/2/2
f 155/2/2 152/2/2 156/2/2
f 153/3/2 154/3/2 157/3/2
f 157/3/2 154/3/2 158/3/2
f 155/3/2 156/3/2 159/3/2
f 159/3/2 156/3/2 160/3/2
f 157/2/2 158/2/2 161/2/2
f 161/2/2 158/2/2 162/2/2
f 159/2/2 160/2/2 163/2/2
f 163/2/2 160/2/2 164/2/2
f 165/4/2 166/4/2 168/4/2
f 168/4/2 166/4/2 169/4/2
f 167/3/2 168/3/2 170/3/2
f 170/3/2 168/3/2 171/3/2
f 167/3/2 170/3/2 175/3/2
f 175/3/2 170/3/2 176/3/2
f 172/3/2 173/3/2 177/3/2
f 174/3/2 175/3/2 178/3/2
f 172/3/2 177/3/2 180/3/2
f 177/3/2 178/3/2 180/3/2
f 179/3/2 180/3/2 181/3/2
f 178/3/2 175/3/2 182/3/2
f 181/3/2 180/3/2 182/3/2
f 180/3/2 178/3/2 182/3/2
f 181/2/2 182/2/2 183/2/2
f 183/2/2 182/2/2 184/2/2
f 183/3/2 184/3/2 185/3/2
f 185/3/2 184/3/2 186/3/2
f 185/2/2 186/2/2 187/2/2
f 187/2/2 186/2/2 188/2/2
f 189/4/2 190/4/2 193/4/2
f 193/4/2 190/4/2 194/4/2
f 191/4/2 192/4/2 197/4/2
f 197/4/2 192/4/2 198/4/2
f 195/3/2 196/3/2 199/3/2
f 199/3/2 196/3/2 200/3/2
f 200/3/2 196/3/2 201/3/2
f 201/3/2 196/3/2 202/3/2
f 200/3/2 201/3/2 203/3/2
f 203/3/2 201/3/2 204/3/2
f 205/4/2 206/4/2 207/4/2
f 207/4/2 206/4/2 208/4/2
f 211/4/3 210/4/3 209/4/3
f 212/4/3 210/4/3 211/4/3
f 215/4/3 214/4/3 213/4/3
f 216/4/3 214/4/3 215/4/3
f 220/2/3 218/2/3 217/2/3
f 221/3/3 219/3/3 218/3/3
f 221/2/3 218/2/3 220/2/3
f 222/3/3 219/3/3 221/3/3
f 225/4/3 224/4/3 223/4/3
f 226/4/3 224/4/3 225/4/3
f 232/3/3 228/3/3 227/3/3
f 233/3/3 228/3/3 232/3/3
f 234/2/3 229/2/3 228/2/3
f 234/3/3 228/3/3 233/3/3
f 237/2/3 229/2/3 234/2/3
f 238/3/3 236/3/3 235/3/3
f 238/3/3 237/3/3 236/3/3
f 239/2/3 229/2/3 237/2/3
f 239/3/3 237/3/3 238/3/3
f 240/3/3 230/3/3 229/3/3
f 240/2/3 229/2/3 239/2/3
f 241/2/3 231/2/3 230/2/3
f 241/3/3 230/3/3 240/3/3
f 242/2/3 231/2/3 241/2/3
f 245/4/3 244/4/3 243/4/3
f 246/4/3 244/4/3 245/4/3
f 252/3/3 248/3/3 247/3/3
f 253/2/3 249/2/3 248/2/3
f 253/3/3 248/3/3 252/3/3
f 254/3/3 250/3/3 249/3/3
f 254/2/3 249/2/3 253/2/3
f 255/2/3 251/2/3 250/2/3
f 255/3/3 250/3/3 254/3/3
f 256/2/3 251/2/3 255/2/3
f 262/3/3 258/3/3 257/3/3
f 263/2/3 259/2/3 258/2/3
f 263/3/3 258/3/3 262/3/3
f 264/3/3 260/3/3 259/3/3
f 264/2/3 259/2/3 263/2/3
f 265/2/3 261/2/3 260/2/3
f 265/3/3 260/3/3 264/3/3
f 266/2/3 261/2/3 265/2/3
f 269/4/3 268/4/3 267/4/3
f 270/4/3 268/4/3 269/4/3
f 273/3/3 272/3/3 271/3/3
f 274/3/3 272/3/3 273/3/3
f 276/3/3 275/3/3 274/3/3
f 277/3/3 275/3/3 276/3/3
f 281/3/3 279/3/3 278/3/3
f 282/3/3 279/3/3 281/3/3
f 283/3/3 281/3/3 280/3/3
f 284/3/3 281/3/3 283/3/3
f 288/3/3 286/3/3 285/3/3
f 289/3/3 286/3/3 288/3/3
f 290/3/3 288/3/3 287/3/3
f 292/3/3 291/3/3 290/3/3
f 293/3/3 292/3/3 290/3/3
f 294/3/3 290/3/3 287/3/3
f 294/3/3 293/3/3 290/3/3
f 295/3/3 293/3/3 294/3/3
f 296/3/3 294/3/3 287/3/3
f 297/3/3 294/3/3 296/3/3
f 299/3/3 298/3/3 297/3/3
f 300/3/3 298/3/3 299/3/3
f 301/3/4 302/3/4 303/3/4
f 303/3/4 302/3/4 304/3/4
f 305/3/4 306/3/4 307/3/4
f 307/3/4 306/3/4 308/3/4
f 309/3/4 310/3/4 311/3/4
f 311/3/4 310/3/4 312/3/4
f 312/3/4 313/3/4 317/3/4
f 313/2/4 314/2/4 318/2/4
f 317/3/4 313/3/4 318/3/4
f 314/3/4 315/3/4 319/3/4
f 318/2/4 314/2/4 319/2/4
f 315/2/4 316/2/4 320/2/4
f 319/3/4 315/3/4 320/3/4
f 320/2/4 316/2/4 321/2/4
f 322/3/4 323/3/4 328/3/4
f 323/2/4 324/2/4 329/2/4
f 328/3/4 323/3/4 329/3/4
f 324/3/4 325/3/4 330/3/4
f 329/2/4 324/2/4 330/2/4
f 325/2/4 326/2/4 331/2/4
f 330/3/4 325/3/4 331/3/4
f 331/2/4 326/2/4 332/2/4
f 327/3/4 328/3/4 333/3/4
f 333/3/4 328/3/4 334/3/4
f 335/4/4 336/4/4 337/4/4
f 337/4/4 336/4/4 338/4/4
f 339/3/4 340/3/4 341/3/4
f 341/3/4 340/3/4 342/3/4
f 343/3/4 344/3/4 348/3/4
f 344/2/4 345/2/4 349/2/4
f 348/3/4 344/3/4 349/3/4
f 345/3/4 346/3/4 350/3/4
f 349/2/4 345/2/4 350/2/4
f 346/2/4 347/2/4 351/2/4
f 350/3/4 346/3/4 351/3/4
f 351/2/4 347/2/4 356/2/4
f 352/3/4 353/3/4 359/3/4
f 353/2/4 354/2/4 360/2/4
f 359/3/4 353/3/4 360/3/4
f 354/3/4 355/3/4 361/3/4
f 360/2/4 354/2/4 361/2/4
f 355/3/4 356/3/4 361/3/4
f 356/2/4 347/2/4 362/2/4
f 361/3/4 356/3/4 362/3/4
f 362/2/4 347/2/4 363/2/4
f 357/3/4 358/3/4 364/3/4
f 364/3/4 358/3/4 365/3/4
f 366/4/4 367/4/4 368/4/4
f 368/4/4 367/4/4 369/4/4
f 370/4/4 371/4/4 372/4/4
f 372/4/4 371/4/4 373/4/4
f 373/3/4 374/3/4 375/3/4
f 375/3/4 374/3/4 376/3/4
f 376/3/4 377/3/4 378/3/4
f 378/3/4 377/3/4 379/3/4
f 380/3/4 381/3/4 385/3/4
f 385/3/4 381/3/4 386/3/4
f 382/1/4 383/1/4 388/1/4
f 383/3/4 384/3/4 389/3/4
f 388/1/4 383/1/4 389/1/4
f 389/3/4 384/3/4 390/3/4
f 387/3/4 388/3/4 392/3/4
f 392/3/4 388/3/4 393/3/4
f 391/4/4 392/4/4 394/4/4
f 394/4/4 392/4/4 395/4/4
f 396/4/4 397/4/4 398/4/4
f 398/4/4 397/4/4 399/4/4
f 399/3/4 400/3/4 401/3/4
f 399/3/4 401/3/4 403/3/4
f 401/3/4 402/3/4 403/3/4
f 403/3/4 402/3/4 404/3/4
f 399/3/4 403/3/4 406/3/4
f 406/3/4 403/3/4 407/3/4
f 405/4/4 406/4/4 408/4/4
f 408/4/4 406/4/4 409/4/4
f 410/4/4 411/4/4 412/4/4
f 412/4/4 411/4/4 413/4/4
f 417/4/5 415/4/5 414/4/5
f 418/4/5 415/4/5 417/4/5
f 421/4/5 417/4/5 416/4/5
f 421/4/5 419/4/5 418/4/5
f 421/4/5 418/4/5 417/4/5
f 422/4/5 419/4/5 421/4/5
f 424/4/5 421/4/5 420/4/5
f 424/4/5 423/4/5 422/4/5
f 424/4/5 422/4/5 421/4/5
f 425/4/5 423/4/5 424/4/5
f 426/4/5 423/4/5 425/4/5
f 427/4/5 423/4/5 426/4/5
f 428/4/5 426/4/5 425/4/5
f 429/4/5 426/4/5 428/4/5
f 430/4/5 426/4/5 429/4/5
f 431/4/5 426/4/5 430/4/5
f 432/4/5 430/4/5 429/4/5
f 433/4/5 430/4/5 432/4/5
f 434/4/5 430/4/5 433/4/5
f 435/4/5 430/4/5 434/4/5
f 436/4/5 434/4/5 433/4/5
f 437/4/5 434/4/5 436/4/5
f 442/3/5 439/3/5 438/3/5
f 443/3/5 439/3/5 442/3/5
f 444/3/5 441/3/5 440/3/5
f 445/3/5 441/3/5 444/3/5
f 449/2/5 447/2/5 446/2/5
f 450/2/5 447/2/5 449/2/5
f 453/3/5 449/3/5 448/3/5
f 454/2/5 450/2/5 449/2/5
f 454/3/5 449/3/5 453/3/5
f 455/2/5 450/2/5 454/2/5
f 456/2/5 450/2/5 455/2/5
f 457/3/5 451/3/5 450/3/5
f 457/2/5 450/2/5 456/2/5
f 458/3/5 451/3/5 457/3/5
f 460/4/5 456/4/5 455/4/5
f 460/2/5 454/2/5 453/2/5
f 460/2/5 455/2/5 454/2/5
f 461/2/5 458/2/5 457/2/5
f 461/4/5 456/4/5 460/4/5
f 461/2/5 457/2/5 456/2/5
f 462/3/5 453/3/5 452/3/5
f 463/2/5 460/2/5 453/2/5
f 463/3/5 453/3/5 462/3/5
f 463/2/5 461/2/5 460/2/5
f 464/2/5 461/2/5 463/2/5
f 465/2/5 458/2/5 461/2/5
f 465/2/5 461/2/5 464/2/5
f 466/3/5 459/3/5 458/3/5
f 466/2/5 458/2/5 465/2/5
f 467/3/5 459/3/5 466/3/5
f 468/3/5 464/3/5 463/3/5
f 469/2/5 465/2/5 464/2/5
f 469/3/5 464/3/5 468/3/5
f 470/3/5 466/3/5 465/3/5
f 470/2/5 465/2/5 469/2/5
f 471/3/5 466/3/5 470/3/5
f 472/4/6 473/4/6 475/4/6
f 475/4/6 473/4/6 476/4/6
f 474/4/6 475/4/6 479/4/6
f 476/4/6 477/4/6 479/4/6
f 475/4/6 476/4/6 479/4/6
f 479/4/6 477/4/6 480/4/6
f 478/4/6 479/4/6 482/4/6
f 480/4/6 481/4/6 482/4/6
f 479/4/6 480/4/6 482/4/6
f 482/4/6 481/4/6 483/4/6
f 483/4/6 481/4/6 484/4/6
f 484/4/6 481/4/6 485/4/6
f 483/4/6 484/4/6 486/4/6
f 486/4/6 484/4/6 487/4/6
f 478/4/6 482/4/6 488/4/6
f 485/4/6 481/4/6 491/4/6
f 488/4/6 489/4/6 492/4/6
f 478/4/6 488/4/6 492/4/6
f 492/4/6 489/4/6 493/4/6
f 490/4/6 491/4/6 494/4/6
f 491/4/6 481/4/6 494/4/6
f 494/4/6 481/4/6 495/4/6
f 493/4/6 489/4/6 496/4/6
f 496/4/6 489/4/6 497/4/6
f 490/4/6 494/4/6 500/4/6
f 500/4/6 494/4/6 501/4/6
f 497/4/6 498/4/6 502/4/6
f 502/4/6 498/4/6 503/4/6
f 499/4/6 500/4/6 504/4/6
f 504/4/6 500/4/6 505/4/6
f 503/4/6 504/4/6 506/4/6
f 506/4/6 504/4/6 507/4/6
f 508/3/6 509/3/6 512/3/6
f 512/3/6 509/3/6 513/3/6
f 510/3/6 511/3/6 516/3/6
f 516/3/6 511/3/6 517/3/6
f 513/3/6 514/3/6 518/3/6
f 518/3/6 514/3/6 519/3/6
f 515/3/6 516/3/6 520/3/6
f 520/3/6 516/3/6 521/3/6
f 522/3/6 523/3/6 526/3/6
f 526/3/6 523/3/6 527/3/6
f 524/3/6 525/3/6 528/3/6
f 528/3/6 525/3/6 529/3/6
f 530/3/6 531/3/6 534/3/6
f 534/3/6 531/3/6 535/3/6
f 532/3/6 533/3/6 538/3/6
f 538/3/6 533/3/6 539/3/6
f 535/3/6 536/3/6 540/3/6
f 540/3/6 536/3/6 541/3/6
f 537/3/6 538/3/6 542/3/6
f 542/3/6 538/3/6 543/3/6
f 544/3/6 545/3/6 548/3/6
f 548/3/6 545/3/6 549/3/6
f 546/3/6 547/3/6 550/3/6
f 550/3/6 547/3/6 551/3/6
f 552/3/6 553/3/6 556/3/6
f 556/3/6 553/3/6 557/3/6
f 554/3/6 555/3/6 558/3/6
f 558/3/6 555/3/6 559/3/6
f 560/3/6 561/3/6 562/3/6
f 562/3/6 561/3/6 563/3/6
f 564/3/6 565/3/6 566/3/6
f 566/3/6 565/3/6 567/3/6
f 568/3/6 569/3/6 570/3/6
f 570/3/6 569/3/6 571/3/6
f 572/2/6 573/2/6 575/2/6
f 575/2/6 573/2/6 576/2/6
f 576/2/6 573/2/6 577/2/6
f 577/2/6 573/2/6 578/2/6
f 574/2/6 575/2/6 580/2/6
f 575/2/6 576/2/6 580/2/6
f 576/3/6 577/3/6 581/3/6
f 580/2/6 576/2/6 581/2/6
f 578/2/6 579/2/6 582/2/6
f 581/3/6 577/3/6 582/3/6
f 577/2/6 578/2/6 582/2/6
f 582/2/6 579/2/6 583/2/6
f 580/3/6 581/3/6 584/3/6
f 574/2/6 580/2/6 584/2/6
f 581/2/6 582/2/6 585/2/6
f 584/3/6 581/3/6 585/3/6
f 582/3/6 583/3/6 586/3/6
f 585/2/6 582/2/6 586/2/6
f 583/2/6 579/2/6 587/2/6
f 586/3/6 583/3/6 587/3/6
f 584/2/6 585/2/6 588/2/6
f 574/2/6 584/2/6 588/2/6
f 588/2/6 585/2/6 589/2/6
f 585/3/6 586/3/6 590/3/6
f 589/2/6 585/2/6 590/2/6
f 586/2/6 587/2/6 591/2/6
f 590/3/6 586/3/6 591/3/6
f 587/2/6 579/2/6 592/2/6
f 591/2/6 587/2/6 592/2/6
f 592/2/6 579/2/6 593/2/6
f 590/2/6 591/2/6 594/2/6
f 591/2/6 592/2/6 594/2/6
f 589/2/6 590/2/6 594/2/6
f 594/2/6 592/2/6 595/2/6
