# MagicaVoxel @ Ephtracy

# group
o 

# material
mtllib Office_Misc_Coffee_Pot_02.mtl
usemtl palette

# normals
vn -1 0 0
vn 1 0 0
vn 0 0 1
vn 0 0 -1
vn 0 -1 0
vn 0 1 0

# texcoords
vt 0.771484 0.5
vt 0.775391 0.5
vt 0.791016 0.5
vt 0.794922 0.5
vt 0.810547 0.5

# verts
v -0.2 0 0.1
v -0.2 0 -0.2
v -0.2 0.1 0.2
v -0.2 0.1 0.1
v -0.2 0.1 -0.2
v -0.2 0.1 -0.3
v -0.2 0.2 0.2
v -0.2 0.2 -0.3
v -0.2 0.3 0.2
v -0.2 0.3 0.1
v -0.2 0.3 -0.2
v -0.2 0.3 -0.3
v -0.2 0.4 0.1
v -0.2 0.4 -0.2
v -0.2 0.5 0.1
v -0.2 0.5 -0.2
v -0.1 0 0.2
v -0.1 0 0.1
v -0.1 0 -0.2
v -0.1 0 -0.3
v -0.1 0.1 0.2
v -0.1 0.1 0.1
v -0.1 0.1 -0.2
v -0.1 0.1 -0.3
v -0.1 0.3 0.2
v -0.1 0.3 0.1
v -0.1 0.3 -0.2
v -0.1 0.3 -0.3
v -0.1 0.4 0.2
v -0.1 0.4 0.1
v -0.1 0.4 -0.2
v -0.1 0.4 -0.3
v -0.1 0.5 0.2
v -0.1 0.5 0.1
v -0.1 0.5 -0.2
v -0.1 0.5 -0.3
v 0 0.1 0.3
v 0 0.1 0.2
v 0 0.2 0.2
v 0 0.2 -0.3
v 0 0.2 -0.4
v 0 0.3 0.2
v 0 0.3 -0.3
v 0 0.3 -0.4
v 0 0.4 0.2
v 0 0.4 -0.3
v 0 0.4 -0.4
v 0 0.5 0.3
v 0 0.5 0.2
v 0 0.5 -0.3
v 0 0.5 -0.4
v 0.1 0.1 0.3
v 0.1 0.1 0.2
v 0.1 0.2 0.2
v 0.1 0.2 -0.3
v 0.1 0.2 -0.4
v 0.1 0.3 0.2
v 0.1 0.3 -0.3
v 0.1 0.3 -0.4
v 0.1 0.4 0.2
v 0.1 0.4 -0.3
v 0.1 0.4 -0.4
v 0.1 0.5 0.3
v 0.1 0.5 0.2
v 0.1 0.5 -0.3
v 0.1 0.5 -0.4
v 0.2 0 0.2
v 0.2 0 0.1
v 0.2 0 -0.2
v 0.2 0 -0.3
v 0.2 0.1 0.2
v 0.2 0.1 0.1
v 0.2 0.1 -0.2
v 0.2 0.1 -0.3
v 0.2 0.3 0.2
v 0.2 0.3 0.1
v 0.2 0.3 -0.2
v 0.2 0.3 -0.3
v 0.2 0.4 0.2
v 0.2 0.4 0.1
v 0.2 0.4 -0.2
v 0.2 0.4 -0.3
v 0.2 0.5 0.2
v 0.2 0.5 0.1
v 0.2 0.5 -0.2
v 0.2 0.5 -0.3
v 0.3 0 0.1
v 0.3 0 -0.2
v 0.3 0.1 0.2
v 0.3 0.1 0.1
v 0.3 0.1 -0.2
v 0.3 0.1 -0.3
v 0.3 0.2 0.2
v 0.3 0.2 -0.3
v 0.3 0.3 0.2
v 0.3 0.3 0.1
v 0.3 0.3 -0.2
v 0.3 0.3 -0.3
v 0.3 0.4 0.1
v 0.3 0.4 -0.2
v 0.3 0.5 0.1
v 0.3 0.5 -0.2
v 0 0.1 0.3
v 0 0.5 0.3
v 0.1 0.1 0.3
v 0.1 0.5 0.3
v -0.2 0.1 0.2
v -0.2 0.2 0.2
v -0.2 0.3 0.2
v -0.1 0 0.2
v -0.1 0.1 0.2
v -0.1 0.3 0.2
v -0.1 0.4 0.2
v -0.1 0.5 0.2
v 0 0.1 0.2
v 0 0.2 0.2
v 0 0.3 0.2
v 0 0.4 0.2
v 0 0.5 0.2
v 0.1 0.1 0.2
v 0.1 0.2 0.2
v 0.1 0.3 0.2
v 0.1 0.4 0.2
v 0.1 0.5 0.2
v 0.2 0 0.2
v 0.2 0.1 0.2
v 0.2 0.3 0.2
v 0.2 0.4 0.2
v 0.2 0.5 0.2
v 0.3 0.1 0.2
v 0.3 0.2 0.2
v 0.3 0.3 0.2
v -0.2 0 0.1
v -0.2 0.1 0.1
v -0.2 0.3 0.1
v -0.2 0.4 0.1
v -0.2 0.5 0.1
v -0.1 0 0.1
v -0.1 0.1 0.1
v -0.1 0.3 0.1
v -0.1 0.4 0.1
v -0.1 0.5 0.1
v 0.2 0 0.1
v 0.2 0.1 0.1
v 0.2 0.3 0.1
v 0.2 0.4 0.1
v 0.2 0.5 0.1
v 0.3 0 0.1
v 0.3 0.1 0.1
v 0.3 0.3 0.1
v 0.3 0.4 0.1
v 0.3 0.5 0.1
v -0.2 0 -0.2
v -0.2 0.1 -0.2
v -0.2 0.3 -0.2
v -0.2 0.4 -0.2
v -0.2 0.5 -0.2
v -0.1 0 -0.2
v -0.1 0.1 -0.2
v -0.1 0.3 -0.2
v -0.1 0.4 -0.2
v -0.1 0.5 -0.2
v 0.2 0 -0.2
v 0.2 0.1 -0.2
v 0.2 0.3 -0.2
v 0.2 0.4 -0.2
v 0.2 0.5 -0.2
v 0.3 0 -0.2
v 0.3 0.1 -0.2
v 0.3 0.3 -0.2
v 0.3 0.4 -0.2
v 0.3 0.5 -0.2
v -0.2 0.1 -0.3
v -0.2 0.2 -0.3
v -0.2 0.3 -0.3
v -0.1 0 -0.3
v -0.1 0.1 -0.3
v -0.1 0.3 -0.3
v -0.1 0.4 -0.3
v -0.1 0.5 -0.3
v 0 0.2 -0.3
v 0 0.3 -0.3
v 0 0.4 -0.3
v 0 0.5 -0.3
v 0.1 0.2 -0.3
v 0.1 0.3 -0.3
v 0.1 0.4 -0.3
v 0.1 0.5 -0.3
v 0.2 0 -0.3
v 0.2 0.1 -0.3
v 0.2 0.3 -0.3
v 0.2 0.4 -0.3
v 0.2 0.5 -0.3
v 0.3 0.1 -0.3
v 0.3 0.2 -0.3
v 0.3 0.3 -0.3
v 0 0.2 -0.4
v 0 0.3 -0.4
v 0 0.4 -0.4
v 0 0.5 -0.4
v 0.1 0.2 -0.4
v 0.1 0.3 -0.4
v 0.1 0.4 -0.4
v 0.1 0.5 -0.4
v -0.1 0 0.2
v 0.2 0 0.2
v -0.2 0 0.1
v -0.1 0 0.1
v 0.2 0 0.1
v 0.3 0 0.1
v -0.2 0 -0.2
v -0.1 0 -0.2
v 0.2 0 -0.2
v 0.3 0 -0.2
v -0.1 0 -0.3
v 0.2 0 -0.3
v 0 0.1 0.3
v 0.1 0.1 0.3
v -0.2 0.1 0.2
v -0.1 0.1 0.2
v 0 0.1 0.2
v 0.1 0.1 0.2
v 0.2 0.1 0.2
v 0.3 0.1 0.2
v -0.2 0.1 0.1
v -0.1 0.1 0.1
v 0.2 0.1 0.1
v 0.3 0.1 0.1
v -0.2 0.1 -0.2
v -0.1 0.1 -0.2
v 0.2 0.1 -0.2
v 0.3 0.1 -0.2
v -0.2 0.1 -0.3
v -0.1 0.1 -0.3
v 0.2 0.1 -0.3
v 0.3 0.1 -0.3
v 0 0.2 -0.3
v 0.1 0.2 -0.3
v 0 0.2 -0.4
v 0.1 0.2 -0.4
v -0.2 0.3 0.2
v -0.1 0.3 0.2
v 0.2 0.3 0.2
v 0.3 0.3 0.2
v -0.2 0.3 0.1
v -0.1 0.3 0.1
v 0.2 0.3 0.1
v 0.3 0.3 0.1
v -0.2 0.3 -0.2
v -0.1 0.3 -0.2
v 0.2 0.3 -0.2
v 0.3 0.3 -0.2
v -0.2 0.3 -0.3
v -0.1 0.3 -0.3
v 0.2 0.3 -0.3
v 0.3 0.3 -0.3
v 0 0.5 0.3
v 0.1 0.5 0.3
v -0.1 0.5 0.2
v 0 0.5 0.2
v 0.1 0.5 0.2
v 0.2 0.5 0.2
v -0.2 0.5 0.1
v -0.1 0.5 0.1
v 0.2 0.5 0.1
v 0.3 0.5 0.1
v 0 0.5 0
v 0.1 0.5 0
v 0 0.5 -0.1
v 0.1 0.5 -0.1
v -0.2 0.5 -0.2
v -0.1 0.5 -0.2
v 0.2 0.5 -0.2
v 0.3 0.5 -0.2
v -0.1 0.5 -0.3
v 0 0.5 -0.3
v 0.1 0.5 -0.3
v 0.2 0.5 -0.3
v 0 0.5 -0.4
v 0.1 0.5 -0.4

# faces
f 4/4/1 2/4/1 1/4/1
f 5/4/1 2/4/1 4/4/1
f 7/4/1 4/4/1 3/4/1
f 7/4/1 6/4/1 5/4/1
f 7/4/1 5/4/1 4/4/1
f 8/4/1 6/4/1 7/4/1
f 9/3/1 8/3/1 7/3/1
f 10/3/1 8/3/1 9/3/1
f 11/3/1 8/3/1 10/3/1
f 12/3/1 8/3/1 11/3/1
f 13/5/1 11/5/1 10/5/1
f 14/5/1 11/5/1 13/5/1
f 15/2/1 14/2/1 13/2/1
f 16/2/1 14/2/1 15/2/1
f 21/4/1 18/4/1 17/4/1
f 22/4/1 18/4/1 21/4/1
f 23/4/1 20/4/1 19/4/1
f 24/4/1 20/4/1 23/4/1
f 29/5/1 26/5/1 25/5/1
f 30/5/1 26/5/1 29/5/1
f 31/5/1 28/5/1 27/5/1
f 32/5/1 28/5/1 31/5/1
f 33/2/1 30/2/1 29/2/1
f 34/2/1 30/2/1 33/2/1
f 35/2/1 32/2/1 31/2/1
f 36/2/1 32/2/1 35/2/1
f 39/2/1 38/2/1 37/2/1
f 42/2/1 39/2/1 37/2/1
f 43/3/1 41/3/1 40/3/1
f 44/3/1 41/3/1 43/3/1
f 45/2/1 42/2/1 37/2/1
f 46/5/1 44/5/1 43/5/1
f 47/5/1 44/5/1 46/5/1
f 48/2/1 45/2/1 37/2/1
f 49/2/1 45/2/1 48/2/1
f 50/2/1 47/2/1 46/2/1
f 51/2/1 47/2/1 50/2/1
f 52/2/2 53/2/2 54/2/2
f 52/2/2 54/2/2 57/2/2
f 55/3/2 56/3/2 58/3/2
f 58/3/2 56/3/2 59/3/2
f 52/2/2 57/2/2 60/2/2
f 58/5/2 59/5/2 61/5/2
f 61/5/2 59/5/2 62/5/2
f 52/2/2 60/2/2 63/2/2
f 63/2/2 60/2/2 64/2/2
f 61/2/2 62/2/2 65/2/2
f 65/2/2 62/2/2 66/2/2
f 67/4/2 68/4/2 71/4/2
f 71/4/2 68/4/2 72/4/2
f 69/4/2 70/4/2 73/4/2
f 73/4/2 70/4/2 74/4/2
f 75/5/2 76/5/2 79/5/2
f 79/5/2 76/5/2 80/5/2
f 77/5/2 78/5/2 81/5/2
f 81/5/2 78/5/2 82/5/2
f 79/2/2 80/2/2 83/2/2
f 83/2/2 80/2/2 84/2/2
f 81/2/2 82/2/2 85/2/2
f 85/2/2 82/2/2 86/2/2
f 87/4/2 88/4/2 90/4/2
f 90/4/2 88/4/2 91/4/2
f 89/4/2 90/4/2 93/4/2
f 91/4/2 92/4/2 93/4/2
f 90/4/2 91/4/2 93/4/2
f 93/4/2 92/4/2 94/4/2
f 93/3/2 94/3/2 95/3/2
f 95/3/2 94/3/2 96/3/2
f 96/3/2 94/3/2 97/3/2
f 97/3/2 94/3/2 98/3/2
f 96/5/2 97/5/2 99/5/2
f 99/5/2 97/5/2 100/5/2
f 99/2/2 100/2/2 101/2/2
f 101/2/2 100/2/2 102/2/2
f 105/2/3 104/2/3 103/2/3
f 106/2/3 104/2/3 105/2/3
f 111/4/3 108/4/3 107/4/3
f 112/3/3 109/3/3 108/3/3
f 115/4/3 111/4/3 110/4/3
f 115/4/3 108/4/3 111/4/3
f 116/3/3 112/3/3 108/3/3
f 116/4/3 108/4/3 115/4/3
f 117/5/3 113/5/3 112/5/3
f 117/3/3 112/3/3 116/3/3
f 118/2/3 114/2/3 113/2/3
f 118/5/3 113/5/3 117/5/3
f 119/2/3 114/2/3 118/2/3
f 120/4/3 115/4/3 110/4/3
f 125/4/3 120/4/3 110/4/3
f 125/4/3 121/4/3 120/4/3
f 126/4/3 121/4/3 125/4/3
f 127/5/3 123/5/3 122/5/3
f 127/3/3 122/3/3 121/3/3
f 128/2/3 124/2/3 123/2/3
f 128/5/3 123/5/3 127/5/3
f 129/2/3 124/2/3 128/2/3
f 130/4/3 121/4/3 126/4/3
f 131/3/3 127/3/3 121/3/3
f 131/4/3 121/4/3 130/4/3
f 132/3/3 127/3/3 131/3/3
f 138/4/3 134/4/3 133/4/3
f 139/4/3 134/4/3 138/4/3
f 140/5/3 136/5/3 135/5/3
f 141/2/3 137/2/3 136/2/3
f 141/5/3 136/5/3 140/5/3
f 142/2/3 137/2/3 141/2/3
f 148/4/3 144/4/3 143/4/3
f 149/4/3 144/4/3 148/4/3
f 150/5/3 146/5/3 145/5/3
f 151/2/3 147/2/3 146/2/3
f 151/5/3 146/5/3 150/5/3
f 152/2/3 147/2/3 151/2/3
f 153/4/4 154/4/4 158/4/4
f 158/4/4 154/4/4 159/4/4
f 155/5/4 156/5/4 160/5/4
f 156/2/4 157/2/4 161/2/4
f 160/5/4 156/5/4 161/5/4
f 161/2/4 157/2/4 162/2/4
f 163/4/4 164/4/4 168/4/4
f 168/4/4 164/4/4 169/4/4
f 165/5/4 166/5/4 170/5/4
f 166/2/4 167/2/4 171/2/4
f 170/5/4 166/5/4 171/5/4
f 171/2/4 167/2/4 172/2/4
f 173/4/4 174/4/4 177/4/4
f 174/3/4 175/3/4 178/3/4
f 176/4/4 177/4/4 181/4/4
f 177/4/4 174/4/4 181/4/4
f 174/3/4 178/3/4 181/3/4
f 178/5/4 179/5/4 182/5/4
f 181/3/4 178/3/4 182/3/4
f 179/2/4 180/2/4 183/2/4
f 182/5/4 179/5/4 183/5/4
f 183/2/4 180/2/4 184/2/4
f 176/4/4 181/4/4 185/4/4
f 176/4/4 185/4/4 189/4/4
f 189/4/4 185/4/4 190/4/4
f 185/3/4 186/3/4 191/3/4
f 186/5/4 187/5/4 191/5/4
f 187/2/4 188/2/4 192/2/4
f 191/5/4 187/5/4 192/5/4
f 192/2/4 188/2/4 193/2/4
f 190/4/4 185/4/4 194/4/4
f 185/3/4 191/3/4 195/3/4
f 194/4/4 185/4/4 195/4/4
f 195/3/4 191/3/4 196/3/4
f 197/3/4 198/3/4 201/3/4
f 198/5/4 199/5/4 202/5/4
f 201/3/4 198/3/4 202/3/4
f 199/2/4 200/2/4 203/2/4
f 202/5/4 199/5/4 203/5/4
f 203/2/4 200/2/4 204/2/4
f 208/4/5 206/4/5 205/4/5
f 209/4/5 206/4/5 208/4/5
f 211/4/5 208/4/5 207/4/5
f 211/4/5 210/4/5 209/4/5
f 211/4/5 209/4/5 208/4/5
f 212/4/5 210/4/5 211/4/5
f 213/4/5 210/4/5 212/4/5
f 214/4/5 210/4/5 213/4/5
f 215/4/5 213/4/5 212/4/5
f 216/4/5 213/4/5 215/4/5
f 221/2/5 218/2/5 217/2/5
f 222/2/5 218/2/5 221/2/5
f 225/4/5 220/4/5 219/4/5
f 226/4/5 220/4/5 225/4/5
f 227/4/5 224/4/5 223/4/5
f 228/4/5 224/4/5 227/4/5
f 233/4/5 230/4/5 229/4/5
f 234/4/5 230/4/5 233/4/5
f 235/4/5 232/4/5 231/4/5
f 236/4/5 232/4/5 235/4/5
f 239/3/5 238/3/5 237/3/5
f 240/3/5 238/3/5 239/3/5
f 241/3/6 242/3/6 245/3/6
f 245/3/6 242/3/6 246/3/6
f 243/3/6 244/3/6 247/3/6
f 247/3/6 244/3/6 248/3/6
f 249/3/6 250/3/6 253/3/6
f 253/3/6 250/3/6 254/3/6
f 251/3/6 252/3/6 255/3/6
f 255/3/6 252/3/6 256/3/6
f 257/2/6 258/2/6 260/2/6
f 260/2/6 258/2/6 261/2/6
f 259/2/6 260/2/6 264/2/6
f 261/2/6 262/2/6 264/2/6
f 260/2/6 261/2/6 264/2/6
f 264/2/6 262/2/6 265/2/6
f 263/2/6 264/2/6 267/2/6
f 265/2/6 266/2/6 267/2/6
f 264/2/6 265/2/6 267/2/6
f 267/2/6 266/2/6 268/2/6
f 263/2/6 267/2/6 269/2/6
f 267/1/6 268/1/6 269/1/6
f 268/2/6 266/2/6 270/2/6
f 269/1/6 268/1/6 270/1/6
f 263/2/6 269/2/6 271/2/6
f 269/2/6 270/2/6 271/2/6
f 271/2/6 270/2/6 272/2/6
f 270/2/6 266/2/6 273/2/6
f 272/2/6 270/2/6 273/2/6
f 273/2/6 266/2/6 274/2/6
f 272/2/6 273/2/6 275/2/6
f 275/2/6 273/2/6 276/2/6
f 276/2/6 273/2/6 277/2/6
f 277/2/6 273/2/6 278/2/6
f 276/2/6 277/2/6 279/2/6
f 279/2/6 277/2/6 280/2/6
