# MagicaVoxel @ Ephtracy

# group
o 

# material
mtllib Office_Misc_Coffee_Pot_01.mtl
usemtl palette

# normals
vn -1 0 0
vn 1 0 0
vn 0 0 1
vn 0 0 -1
vn 0 -1 0
vn 0 1 0

# texcoords
vt 0.771484 0.5
vt 0.775391 0.5
vt 0.810547 0.5

# verts
v -0.2 0 0.1
v -0.2 0 -0.2
v -0.2 0.1 0.2
v -0.2 0.1 0.1
v -0.2 0.1 -0.2
v -0.2 0.1 -0.3
v -0.2 0.3 0.2
v -0.2 0.3 0.1
v -0.2 0.3 -0.2
v -0.2 0.3 -0.3
v -0.2 0.4 0.1
v -0.2 0.4 -0.2
v -0.2 0.5 0.1
v -0.2 0.5 -0.2
v -0.1 0 0.2
v -0.1 0 0.1
v -0.1 0 -0.2
v -0.1 0 -0.3
v -0.1 0.1 0.2
v -0.1 0.1 0.1
v -0.1 0.1 -0.2
v -0.1 0.1 -0.3
v -0.1 0.3 0.2
v -0.1 0.3 0.1
v -0.1 0.3 -0.2
v -0.1 0.3 -0.3
v -0.1 0.4 0.2
v -0.1 0.4 0.1
v -0.1 0.4 -0.2
v -0.1 0.4 -0.3
v -0.1 0.5 0.2
v -0.1 0.5 0.1
v -0.1 0.5 -0.2
v -0.1 0.5 -0.3
v 0 0.1 0.3
v 0 0.1 0.2
v 0 0.2 -0.3
v 0 0.2 -0.4
v 0 0.4 0.2
v 0 0.4 -0.3
v 0 0.4 -0.4
v 0 0.5 0.3
v 0 0.5 0.2
v 0 0.5 -0.3
v 0 0.5 -0.4
v 0.1 0.1 0.3
v 0.1 0.1 0.2
v 0.1 0.2 -0.3
v 0.1 0.2 -0.4
v 0.1 0.4 0.2
v 0.1 0.4 -0.3
v 0.1 0.4 -0.4
v 0.1 0.5 0.3
v 0.1 0.5 0.2
v 0.1 0.5 -0.3
v 0.1 0.5 -0.4
v 0.2 0 0.2
v 0.2 0 0.1
v 0.2 0 -0.2
v 0.2 0 -0.3
v 0.2 0.1 0.2
v 0.2 0.1 0.1
v 0.2 0.1 -0.2
v 0.2 0.1 -0.3
v 0.2 0.3 0.2
v 0.2 0.3 0.1
v 0.2 0.3 -0.2
v 0.2 0.3 -0.3
v 0.2 0.4 0.2
v 0.2 0.4 0.1
v 0.2 0.4 -0.2
v 0.2 0.4 -0.3
v 0.2 0.5 0.2
v 0.2 0.5 0.1
v 0.2 0.5 -0.2
v 0.2 0.5 -0.3
v 0.3 0 0.1
v 0.3 0 -0.2
v 0.3 0.1 0.2
v 0.3 0.1 0.1
v 0.3 0.1 -0.2
v 0.3 0.1 -0.3
v 0.3 0.3 0.2
v 0.3 0.3 0.1
v 0.3 0.3 -0.2
v 0.3 0.3 -0.3
v 0.3 0.4 0.1
v 0.3 0.4 -0.2
v 0.3 0.5 0.1
v 0.3 0.5 -0.2
v 0 0.1 0.3
v 0 0.5 0.3
v 0.1 0.1 0.3
v 0.1 0.5 0.3
v -0.2 0.1 0.2
v -0.2 0.3 0.2
v -0.1 0 0.2
v -0.1 0.1 0.2
v -0.1 0.3 0.2
v -0.1 0.4 0.2
v -0.1 0.5 0.2
v 0 0.1 0.2
v 0 0.4 0.2
v 0 0.5 0.2
v 0.1 0.1 0.2
v 0.1 0.4 0.2
v 0.1 0.5 0.2
v 0.2 0 0.2
v 0.2 0.1 0.2
v 0.2 0.3 0.2
v 0.2 0.4 0.2
v 0.2 0.5 0.2
v 0.3 0.1 0.2
v 0.3 0.3 0.2
v -0.2 0 0.1
v -0.2 0.1 0.1
v -0.2 0.3 0.1
v -0.2 0.4 0.1
v -0.2 0.5 0.1
v -0.1 0 0.1
v -0.1 0.1 0.1
v -0.1 0.3 0.1
v -0.1 0.4 0.1
v -0.1 0.5 0.1
v 0.2 0 0.1
v 0.2 0.1 0.1
v 0.2 0.3 0.1
v 0.2 0.4 0.1
v 0.2 0.5 0.1
v 0.3 0 0.1
v 0.3 0.1 0.1
v 0.3 0.3 0.1
v 0.3 0.4 0.1
v 0.3 0.5 0.1
v -0.2 0 -0.2
v -0.2 0.1 -0.2
v -0.2 0.3 -0.2
v -0.2 0.4 -0.2
v -0.2 0.5 -0.2
v -0.1 0 -0.2
v -0.1 0.1 -0.2
v -0.1 0.3 -0.2
v -0.1 0.4 -0.2
v -0.1 0.5 -0.2
v 0.2 0 -0.2
v 0.2 0.1 -0.2
v 0.2 0.3 -0.2
v 0.2 0.4 -0.2
v 0.2 0.5 -0.2
v 0.3 0 -0.2
v 0.3 0.1 -0.2
v 0.3 0.3 -0.2
v 0.3 0.4 -0.2
v 0.3 0.5 -0.2
v -0.2 0.1 -0.3
v -0.2 0.3 -0.3
v -0.1 0 -0.3
v -0.1 0.1 -0.3
v -0.1 0.3 -0.3
v -0.1 0.4 -0.3
v -0.1 0.5 -0.3
v 0 0.2 -0.3
v 0 0.4 -0.3
v 0 0.5 -0.3
v 0.1 0.2 -0.3
v 0.1 0.4 -0.3
v 0.1 0.5 -0.3
v 0.2 0 -0.3
v 0.2 0.1 -0.3
v 0.2 0.3 -0.3
v 0.2 0.4 -0.3
v 0.2 0.5 -0.3
v 0.3 0.1 -0.3
v 0.3 0.3 -0.3
v 0 0.2 -0.4
v 0 0.4 -0.4
v 0 0.5 -0.4
v 0.1 0.2 -0.4
v 0.1 0.4 -0.4
v 0.1 0.5 -0.4
v -0.1 0 0.2
v 0.2 0 0.2
v -0.2 0 0.1
v -0.1 0 0.1
v 0.2 0 0.1
v 0.3 0 0.1
v -0.2 0 -0.2
v -0.1 0 -0.2
v 0.2 0 -0.2
v 0.3 0 -0.2
v -0.1 0 -0.3
v 0.2 0 -0.3
v 0 0.1 0.3
v 0.1 0.1 0.3
v -0.2 0.1 0.2
v -0.1 0.1 0.2
v 0 0.1 0.2
v 0.1 0.1 0.2
v 0.2 0.1 0.2
v 0.3 0.1 0.2
v -0.2 0.1 0.1
v -0.1 0.1 0.1
v 0.2 0.1 0.1
v 0.3 0.1 0.1
v -0.2 0.1 -0.2
v -0.1 0.1 -0.2
v 0.2 0.1 -0.2
v 0.3 0.1 -0.2
v -0.2 0.1 -0.3
v -0.1 0.1 -0.3
v 0.2 0.1 -0.3
v 0.3 0.1 -0.3
v 0 0.2 -0.3
v 0.1 0.2 -0.3
v 0 0.2 -0.4
v 0.1 0.2 -0.4
v -0.2 0.3 0.2
v -0.1 0.3 0.2
v 0.2 0.3 0.2
v 0.3 0.3 0.2
v -0.2 0.3 0.1
v -0.1 0.3 0.1
v 0.2 0.3 0.1
v 0.3 0.3 0.1
v -0.2 0.3 -0.2
v -0.1 0.3 -0.2
v 0.2 0.3 -0.2
v 0.3 0.3 -0.2
v -0.2 0.3 -0.3
v -0.1 0.3 -0.3
v 0.2 0.3 -0.3
v 0.3 0.3 -0.3
v 0 0.5 0.3
v 0.1 0.5 0.3
v -0.1 0.5 0.2
v 0 0.5 0.2
v 0.1 0.5 0.2
v 0.2 0.5 0.2
v -0.2 0.5 0.1
v -0.1 0.5 0.1
v 0.2 0.5 0.1
v 0.3 0.5 0.1
v 0 0.5 0
v 0.1 0.5 0
v 0 0.5 -0.1
v 0.1 0.5 -0.1
v -0.2 0.5 -0.2
v -0.1 0.5 -0.2
v 0.2 0.5 -0.2
v 0.3 0.5 -0.2
v -0.1 0.5 -0.3
v 0 0.5 -0.3
v 0.1 0.5 -0.3
v 0.2 0.5 -0.3
v 0 0.5 -0.4
v 0.1 0.5 -0.4

# faces
f 4/3/1 2/3/1 1/3/1
f 5/3/1 2/3/1 4/3/1
f 7/3/1 4/3/1 3/3/1
f 7/3/1 6/3/1 5/3/1
f 7/3/1 5/3/1 4/3/1
f 8/3/1 6/3/1 7/3/1
f 9/3/1 6/3/1 8/3/1
f 10/3/1 6/3/1 9/3/1
f 11/3/1 9/3/1 8/3/1
f 12/3/1 9/3/1 11/3/1
f 13/2/1 12/2/1 11/2/1
f 14/2/1 12/2/1 13/2/1
f 19/3/1 16/3/1 15/3/1
f 20/3/1 16/3/1 19/3/1
f 21/3/1 18/3/1 17/3/1
f 22/3/1 18/3/1 21/3/1
f 27/3/1 24/3/1 23/3/1
f 28/3/1 24/3/1 27/3/1
f 29/3/1 26/3/1 25/3/1
f 30/3/1 26/3/1 29/3/1
f 31/2/1 28/2/1 27/2/1
f 32/2/1 28/2/1 31/2/1
f 33/2/1 30/2/1 29/2/1
f 34/2/1 30/2/1 33/2/1
f 39/2/1 36/2/1 35/2/1
f 40/3/1 38/3/1 37/3/1
f 41/3/1 38/3/1 40/3/1
f 42/2/1 39/2/1 35/2/1
f 43/2/1 39/2/1 42/2/1
f 44/2/1 41/2/1 40/2/1
f 45/2/1 41/2/1 44/2/1
f 46/2/2 47/2/2 50/2/2
f 48/3/2 49/3/2 51/3/2
f 51/3/2 49/3/2 52/3/2
f 46/2/2 50/2/2 53/2/2
f 53/2/2 50/2/2 54/2/2
f 51/2/2 52/2/2 55/2/2
f 55/2/2 52/2/2 56/2/2
f 57/3/2 58/3/2 61/3/2
f 61/3/2 58/3/2 62/3/2
f 59/3/2 60/3/2 63/3/2
f 63/3/2 60/3/2 64/3/2
f 65/3/2 66/3/2 69/3/2
f 69/3/2 66/3/2 70/3/2
f 67/3/2 68/3/2 71/3/2
f 71/3/2 68/3/2 72/3/2
f 69/2/2 70/2/2 73/2/2
f 73/2/2 70/2/2 74/2/2
f 71/2/2 72/2/2 75/2/2
f 75/2/2 72/2/2 76/2/2
f 77/3/2 78/3/2 80/3/2
f 80/3/2 78/3/2 81/3/2
f 79/3/2 80/3/2 83/3/2
f 81/3/2 82/3/2 83/3/2
f 80/3/2 81/3/2 83/3/2
f 83/3/2 82/3/2 84/3/2
f 84/3/2 82/3/2 85/3/2
f 85/3/2 82/3/2 86/3/2
f 84/3/2 85/3/2 87/3/2
f 87/3/2 85/3/2 88/3/2
f 87/2/2 88/2/2 89/2/2
f 89/2/2 88/2/2 90/2/2
f 93/2/3 92/2/3 91/2/3
f 94/2/3 92/2/3 93/2/3
f 98/3/3 96/3/3 95/3/3
f 99/3/3 96/3/3 98/3/3
f 102/3/3 98/3/3 97/3/3
f 102/3/3 99/3/3 98/3/3
f 102/3/3 100/3/3 99/3/3
f 103/2/3 101/2/3 100/2/3
f 103/3/3 100/3/3 102/3/3
f 104/2/3 101/2/3 103/2/3
f 105/3/3 102/3/3 97/3/3
f 108/3/3 105/3/3 97/3/3
f 108/3/3 106/3/3 105/3/3
f 109/3/3 106/3/3 108/3/3
f 110/3/3 106/3/3 109/3/3
f 111/2/3 107/2/3 106/2/3
f 111/3/3 106/3/3 110/3/3
f 112/2/3 107/2/3 111/2/3
f 113/3/3 110/3/3 109/3/3
f 114/3/3 110/3/3 113/3/3
f 120/3/3 116/3/3 115/3/3
f 121/3/3 116/3/3 120/3/3
f 122/3/3 118/3/3 117/3/3
f 123/2/3 119/2/3 118/2/3
f 123/3/3 118/3/3 122/3/3
f 124/2/3 119/2/3 123/2/3
f 130/3/3 126/3/3 125/3/3
f 131/3/3 126/3/3 130/3/3
f 132/3/3 128/3/3 127/3/3
f 133/2/3 129/2/3 128/2/3
f 133/3/3 128/3/3 132/3/3
f 134/2/3 129/2/3 133/2/3
f 135/3/4 136/3/4 140/3/4
f 140/3/4 136/3/4 141/3/4
f 137/3/4 138/3/4 142/3/4
f 138/2/4 139/2/4 143/2/4
f 142/3/4 138/3/4 143/3/4
f 143/2/4 139/2/4 144/2/4
f 145/3/4 146/3/4 150/3/4
f 150/3/4 146/3/4 151/3/4
f 147/3/4 148/3/4 152/3/4
f 148/2/4 149/2/4 153/2/4
f 152/3/4 148/3/4 153/3/4
f 153/2/4 149/2/4 154/2/4
f 155/3/4 156/3/4 158/3/4
f 158/3/4 156/3/4 159/3/4
f 157/3/4 158/3/4 162/3/4
f 158/3/4 159/3/4 162/3/4
f 159/3/4 160/3/4 162/3/4
f 160/2/4 161/2/4 163/2/4
f 162/3/4 160/3/4 163/3/4
f 163/2/4 161/2/4 164/2/4
f 157/3/4 162/3/4 165/3/4
f 157/3/4 165/3/4 168/3/4
f 165/3/4 166/3/4 168/3/4
f 168/3/4 166/3/4 169/3/4
f 169/3/4 166/3/4 170/3/4
f 166/2/4 167/2/4 171/2/4
f 170/3/4 166/3/4 171/3/4
f 171/2/4 167/2/4 172/2/4
f 169/3/4 170/3/4 173/3/4
f 173/3/4 170/3/4 174/3/4
f 175/3/4 176/3/4 178/3/4
f 176/2/4 177/2/4 179/2/4
f 178/3/4 176/3/4 179/3/4
f 179/2/4 177/2/4 180/2/4
f 184/3/5 182/3/5 181/3/5
f 185/3/5 182/3/5 184/3/5
f 187/3/5 184/3/5 183/3/5
f 187/3/5 186/3/5 185/3/5
f 187/3/5 185/3/5 184/3/5
f 188/3/5 186/3/5 187/3/5
f 189/3/5 186/3/5 188/3/5
f 190/3/5 186/3/5 189/3/5
f 191/3/5 189/3/5 188/3/5
f 192/3/5 189/3/5 191/3/5
f 197/2/5 194/2/5 193/2/5
f 198/2/5 194/2/5 197/2/5
f 201/3/5 196/3/5 195/3/5
f 202/3/5 196/3/5 201/3/5
f 203/3/5 200/3/5 199/3/5
f 204/3/5 200/3/5 203/3/5
f 209/3/5 206/3/5 205/3/5
f 210/3/5 206/3/5 209/3/5
f 211/3/5 208/3/5 207/3/5
f 212/3/5 208/3/5 211/3/5
f 215/3/5 214/3/5 213/3/5
f 216/3/5 214/3/5 215/3/5
f 217/3/6 218/3/6 221/3/6
f 221/3/6 218/3/6 222/3/6
f 219/3/6 220/3/6 223/3/6
f 223/3/6 220/3/6 224/3/6
f 225/3/6 226/3/6 229/3/6
f 229/3/6 226/3/6 230/3/6
f 227/3/6 228/3/6 231/3/6
f 231/3/6 228/3/6 232/3/6
f 233/2/6 234/2/6 236/2/6
f 236/2/6 234/2/6 237/2/6
f 235/2/6 236/2/6 240/2/6
f 237/2/6 238/2/6 240/2/6
f 236/2/6 237/2/6 240/2/6
f 240/2/6 238/2/6 241/2/6
f 239/2/6 240/2/6 243/2/6
f 241/2/6 242/2/6 243/2/6
f 240/2/6 241/2/6 243/2/6
f 243/2/6 242/2/6 244/2/6
f 239/2/6 243/2/6 245/2/6
f 243/1/6 244/1/6 245/1/6
f 244/2/6 242/2/6 246/2/6
f 245/1/6 244/1/6 246/1/6
f 239/2/6 245/2/6 247/2/6
f 245/2/6 246/2/6 247/2/6
f 247/2/6 246/2/6 248/2/6
f 246/2/6 242/2/6 249/2/6
f 248/2/6 246/2/6 249/2/6
f 249/2/6 242/2/6 250/2/6
f 248/2/6 249/2/6 251/2/6
f 251/2/6 249/2/6 252/2/6
f 252/2/6 249/2/6 253/2/6
f 253/2/6 249/2/6 254/2/6
f 252/2/6 253/2/6 255/2/6
f 255/2/6 253/2/6 256/2/6
