# MagicaVoxel @ Ephtracy

# group
o 

# material
mtllib Office_Cubicle_Piece_White_Corner_03.mtl
usemtl palette

# normals
vn -1 0 0
vn 1 0 0
vn 0 0 1
vn 0 0 -1
vn 0 -1 0
vn 0 1 0

# texcoords
vt 0.888672 0.5
vt 0.904297 0.5

# verts
v -0.8 0 -0.5
v -0.8 0 -0.8
v -0.8 0.1 -0.5
v -0.8 0.1 -0.8
v -0.8 1.2 -0.5
v -0.8 1.2 -0.7
v -0.8 2.3 -0.5
v -0.8 2.3 -0.7
v -0.8 2.4 -0.5
v -0.8 2.4 -0.8
v 0.6 1.2 -0.6
v 0.6 1.2 -0.7
v 0.6 2.3 -0.6
v 0.6 2.3 -0.7
v 0.7 0 0.8
v 0.7 0 -0.5
v 0.7 0.1 0.8
v 0.7 0.1 -0.5
v 0.7 1.2 -0.5
v 0.7 1.2 -0.6
v 0.7 2.3 -0.5
v 0.7 2.3 -0.6
v 0.7 2.4 0.8
v 0.7 2.4 -0.5
v 0.8 0 0.8
v 0.8 0 -0.8
v 0.8 0.1 0.8
v 0.8 0.1 -0.8
v 0.8 2.4 0.8
v 0.8 2.4 -0.8
v 0.7 0 0.8
v 0.7 0.1 0.8
v 0.7 2.4 0.8
v 0.8 0 0.8
v 0.8 0.1 0.8
v 0.8 2.4 0.8
v -0.8 0 -0.5
v -0.8 0.1 -0.5
v -0.8 1.2 -0.5
v -0.8 2.3 -0.5
v -0.8 2.4 -0.5
v 0.7 0 -0.5
v 0.7 0.1 -0.5
v 0.7 1.2 -0.5
v 0.7 2.3 -0.5
v 0.7 2.4 -0.5
v 0.6 1.2 -0.6
v 0.6 2.3 -0.6
v 0.7 1.2 -0.6
v 0.7 2.3 -0.6
v -0.8 1.2 -0.7
v -0.8 2.3 -0.7
v 0.6 1.2 -0.7
v 0.6 2.3 -0.7
v -0.8 0 -0.8
v -0.8 0.1 -0.8
v -0.8 2.4 -0.8
v 0.8 0 -0.8
v 0.8 0.1 -0.8
v 0.8 2.4 -0.8
v 0.7 0 0.8
v 0.8 0 0.8
v -0.8 0 -0.5
v 0.7 0 -0.5
v -0.8 0 -0.8
v 0.8 0 -0.8
v -0.8 2.3 -0.5
v 0.7 2.3 -0.5
v 0.6 2.3 -0.6
v 0.7 2.3 -0.6
v -0.8 2.3 -0.7
v 0.6 2.3 -0.7
v -0.8 1.2 -0.5
v 0.7 1.2 -0.5
v 0.6 1.2 -0.6
v 0.7 1.2 -0.6
v -0.8 1.2 -0.7
v 0.6 1.2 -0.7
v 0.7 2.4 0.8
v 0.8 2.4 0.8
v -0.8 2.4 -0.5
v 0.7 2.4 -0.5
v -0.8 2.4 -0.8
v 0.8 2.4 -0.8

# faces
f 3/2/1 2/2/1 1/2/1
f 4/2/1 2/2/1 3/2/1
f 5/1/1 4/1/1 3/1/1
f 6/1/1 4/1/1 5/1/1
f 8/1/1 4/1/1 6/1/1
f 9/1/1 8/1/1 7/1/1
f 10/1/1 4/1/1 8/1/1
f 10/1/1 8/1/1 9/1/1
f 13/1/1 12/1/1 11/1/1
f 14/1/1 12/1/1 13/1/1
f 17/2/1 16/2/1 15/2/1
f 18/2/1 16/2/1 17/2/1
f 19/1/1 18/1/1 17/1/1
f 21/1/1 19/1/1 17/1/1
f 21/1/1 20/1/1 19/1/1
f 22/1/1 20/1/1 21/1/1
f 23/1/1 21/1/1 17/1/1
f 24/1/1 21/1/1 23/1/1
f 25/2/2 26/2/2 27/2/2
f 27/2/2 26/2/2 28/2/2
f 27/1/2 28/1/2 29/1/2
f 29/1/2 28/1/2 30/1/2
f 34/2/3 32/2/3 31/2/3
f 35/1/3 33/1/3 32/1/3
f 35/2/3 32/2/3 34/2/3
f 36/1/3 33/1/3 35/1/3
f 42/2/3 38/2/3 37/2/3
f 43/1/3 39/1/3 38/1/3
f 43/2/3 38/2/3 42/2/3
f 44/1/3 39/1/3 43/1/3
f 45/1/3 41/1/3 40/1/3
f 46/1/3 41/1/3 45/1/3
f 49/1/3 48/1/3 47/1/3
f 50/1/3 48/1/3 49/1/3
f 53/1/3 52/1/3 51/1/3
f 54/1/3 52/1/3 53/1/3
f 55/2/4 56/2/4 58/2/4
f 56/1/4 57/1/4 59/1/4
f 58/2/4 56/2/4 59/2/4
f 59/1/4 57/1/4 60/1/4
f 64/2/5 62/2/5 61/2/5
f 65/2/5 64/2/5 63/2/5
f 66/2/5 62/2/5 64/2/5
f 66/2/5 64/2/5 65/2/5
f 69/1/5 68/1/5 67/1/5
f 70/1/5 68/1/5 69/1/5
f 71/1/5 69/1/5 67/1/5
f 72/1/5 69/1/5 71/1/5
f 73/1/6 74/1/6 75/1/6
f 75/1/6 74/1/6 76/1/6
f 73/1/6 75/1/6 77/1/6
f 77/1/6 75/1/6 78/1/6
f 79/1/6 80/1/6 82/1/6
f 81/1/6 82/1/6 83/1/6
f 82/1/6 80/1/6 84/1/6
f 83/1/6 82/1/6 84/1/6
