# MagicaVoxel @ Ephtracy

# group
o 

# material
mtllib Office_Cubicle_Piece_White_Corner_01.mtl
usemtl palette

# normals
vn -1 0 0
vn 1 0 0
vn 0 0 1
vn 0 0 -1
vn 0 -1 0
vn 0 1 0

# texcoords
vt 0.888672 0.5
vt 0.904297 0.5

# verts
v -0.8 0 0.8
v -0.8 0 -0.8
v -0.8 0.1 0.8
v -0.8 0.1 -0.8
v -0.8 2.4 0.8
v -0.8 2.4 -0.8
v -0.7 1.2 0.8
v -0.7 1.2 -0.6
v -0.7 2.3 0.8
v -0.7 2.3 -0.6
v -0.6 1.2 -0.6
v -0.6 1.2 -0.7
v -0.6 2.3 -0.6
v -0.6 2.3 -0.7
v -0.5 0 0.8
v -0.5 0 -0.5
v -0.5 0.1 0.8
v -0.5 0.1 -0.5
v -0.5 1.2 0.8
v -0.5 1.2 -0.5
v -0.5 2.3 0.8
v -0.5 2.3 -0.5
v -0.5 2.4 0.8
v -0.5 2.4 -0.5
v 0.8 0 -0.5
v 0.8 0 -0.8
v 0.8 0.1 -0.5
v 0.8 0.1 -0.8
v 0.8 1.2 -0.5
v 0.8 1.2 -0.7
v 0.8 2.3 -0.5
v 0.8 2.3 -0.7
v 0.8 2.4 -0.5
v 0.8 2.4 -0.8
v -0.8 0 0.8
v -0.8 0.1 0.8
v -0.8 2.4 0.8
v -0.7 1.2 0.8
v -0.7 2.3 0.8
v -0.5 0 0.8
v -0.5 0.1 0.8
v -0.5 1.2 0.8
v -0.5 2.3 0.8
v -0.5 2.4 0.8
v -0.5 0 -0.5
v -0.5 0.1 -0.5
v -0.5 1.2 -0.5
v -0.5 2.3 -0.5
v -0.5 2.4 -0.5
v 0.8 0 -0.5
v 0.8 0.1 -0.5
v 0.8 1.2 -0.5
v 0.8 2.3 -0.5
v 0.8 2.4 -0.5
v -0.7 1.2 -0.6
v -0.7 2.3 -0.6
v -0.6 1.2 -0.6
v -0.6 2.3 -0.6
v -0.6 1.2 -0.7
v -0.6 2.3 -0.7
v 0.8 1.2 -0.7
v 0.8 2.3 -0.7
v -0.8 0 -0.8
v -0.8 0.1 -0.8
v -0.8 2.4 -0.8
v 0.8 0 -0.8
v 0.8 0.1 -0.8
v 0.8 2.4 -0.8
v -0.8 0 0.8
v -0.5 0 0.8
v -0.5 0 -0.5
v 0.8 0 -0.5
v -0.8 0 -0.8
v 0.8 0 -0.8
v -0.7 2.3 0.8
v -0.5 2.3 0.8
v -0.5 2.3 -0.5
v 0.8 2.3 -0.5
v -0.7 2.3 -0.6
v -0.6 2.3 -0.6
v -0.6 2.3 -0.7
v 0.8 2.3 -0.7
v -0.7 1.2 0.8
v -0.5 1.2 0.8
v -0.5 1.2 -0.5
v 0.8 1.2 -0.5
v -0.7 1.2 -0.6
v -0.6 1.2 -0.6
v -0.6 1.2 -0.7
v 0.8 1.2 -0.7
v -0.8 2.4 0.8
v -0.5 2.4 0.8
v -0.5 2.4 -0.5
v 0.8 2.4 -0.5
v -0.8 2.4 -0.8
v 0.8 2.4 -0.8

# faces
f 3/2/1 2/2/1 1/2/1
f 4/2/1 2/2/1 3/2/1
f 5/1/1 4/1/1 3/1/1
f 6/1/1 4/1/1 5/1/1
f 7/1/2 8/1/2 9/1/2
f 9/1/2 8/1/2 10/1/2
f 11/1/2 12/1/2 13/1/2
f 13/1/2 12/1/2 14/1/2
f 15/2/2 16/2/2 17/2/2
f 17/2/2 16/2/2 18/2/2
f 17/1/2 18/1/2 19/1/2
f 19/1/2 18/1/2 20/1/2
f 21/1/2 22/1/2 23/1/2
f 23/1/2 22/1/2 24/1/2
f 25/2/2 26/2/2 27/2/2
f 27/2/2 26/2/2 28/2/2
f 27/1/2 28/1/2 29/1/2
f 29/1/2 28/1/2 30/1/2
f 30/1/2 28/1/2 32/1/2
f 31/1/2 32/1/2 33/1/2
f 32/1/2 28/1/2 34/1/2
f 33/1/2 32/1/2 34/1/2
f 38/1/3 37/1/3 36/1/3
f 39/1/3 37/1/3 38/1/3
f 40/2/3 36/2/3 35/2/3
f 41/1/3 38/1/3 36/1/3
f 41/2/3 36/2/3 40/2/3
f 42/1/3 38/1/3 41/1/3
f 43/1/3 37/1/3 39/1/3
f 44/1/3 37/1/3 43/1/3
f 50/2/3 46/2/3 45/2/3
f 51/1/3 47/1/3 46/1/3
f 51/2/3 46/2/3 50/2/3
f 52/1/3 47/1/3 51/1/3
f 53/1/3 49/1/3 48/1/3
f 54/1/3 49/1/3 53/1/3
f 57/1/3 56/1/3 55/1/3
f 58/1/3 56/1/3 57/1/3
f 61/1/3 60/1/3 59/1/3
f 62/1/3 60/1/3 61/1/3
f 63/2/4 64/2/4 66/2/4
f 64/1/4 65/1/4 67/1/4
f 66/2/4 64/2/4 67/2/4
f 67/1/4 65/1/4 68/1/4
f 71/2/5 70/2/5 69/2/5
f 73/2/5 71/2/5 69/2/5
f 73/2/5 72/2/5 71/2/5
f 74/2/5 72/2/5 73/2/5
f 77/1/5 76/1/5 75/1/5
f 79/1/5 77/1/5 75/1/5
f 79/1/5 78/1/5 77/1/5
f 80/1/5 78/1/5 79/1/5
f 81/1/5 78/1/5 80/1/5
f 82/1/5 78/1/5 81/1/5
f 83/1/6 84/1/6 85/1/6
f 83/1/6 85/1/6 87/1/6
f 85/1/6 86/1/6 87/1/6
f 87/1/6 86/1/6 88/1/6
f 88/1/6 86/1/6 89/1/6
f 89/1/6 86/1/6 90/1/6
f 91/1/6 92/1/6 93/1/6
f 91/1/6 93/1/6 95/1/6
f 93/1/6 94/1/6 95/1/6
f 95/1/6 94/1/6 96/1/6
