# MagicaVoxel @ Ephtracy

# group
o 

# material
mtllib Office_Misc_Console_GameQoob.mtl
usemtl palette

# normals
vn -1 0 0
vn 1 0 0
vn 0 0 1
vn 0 0 -1
vn 0 -1 0
vn 0 1 0

# texcoords
vt 0.712891 0.5
vt 0.716797 0.5
vt 0.744141 0.5
vt 0.748047 0.5
vt 0.763672 0.5
vt 0.775391 0.5

# verts
v -0.4 0 0.4
v -0.4 0 -0.3
v -0.4 0.1 0.2
v -0.4 0.1 0.1
v -0.4 0.1 0
v -0.4 0.1 -0.1
v -0.4 0.2 0.2
v -0.4 0.2 0.1
v -0.4 0.2 0
v -0.4 0.2 -0.1
v -0.4 0.3 0.2
v -0.4 0.3 0.1
v -0.4 0.3 0
v -0.4 0.3 -0.1
v -0.4 0.4 0.2
v -0.4 0.4 0.1
v -0.4 0.4 0
v -0.4 0.4 -0.1
v -0.4 0.5 0.4
v -0.4 0.5 -0.3
v -0.3 0.3 -0.3
v -0.3 0.3 -0.4
v -0.3 0.4 -0.3
v -0.3 0.4 -0.4
v 0.2 0.3 -0.3
v 0.2 0.3 -0.4
v 0.2 0.4 -0.3
v 0.2 0.4 -0.4
v 0.3 0 0.4
v 0.3 0 -0.3
v 0.3 0.1 0.2
v 0.3 0.1 0.1
v 0.3 0.1 0
v 0.3 0.1 -0.1
v 0.3 0.2 0.2
v 0.3 0.2 0.1
v 0.3 0.2 0
v 0.3 0.2 -0.1
v 0.3 0.3 0.2
v 0.3 0.3 0.1
v 0.3 0.3 0
v 0.3 0.3 -0.1
v 0.3 0.4 0.2
v 0.3 0.4 0.1
v 0.3 0.4 0
v 0.3 0.4 -0.1
v 0.3 0.5 0.4
v 0.3 0.5 -0.3
v -0.4 0 0.4
v -0.4 0.5 0.4
v -0.3 0.1 0.4
v -0.3 0.4 0.4
v -0.2 0.2 0.4
v -0.2 0.3 0.4
v -0.1 0.2 0.4
v -0.1 0.3 0.4
v 0 0.2 0.4
v 0 0.3 0.4
v 0.1 0.2 0.4
v 0.1 0.3 0.4
v 0.2 0.1 0.4
v 0.2 0.4 0.4
v 0.3 0 0.4
v 0.3 0.5 0.4
v -0.4 0 -0.3
v -0.4 0.5 -0.3
v -0.3 0.1 -0.3
v -0.3 0.2 -0.3
v -0.3 0.3 -0.3
v -0.3 0.4 -0.3
v -0.3 0.5 -0.3
v -0.2 0.4 -0.3
v -0.2 0.5 -0.3
v -0.1 0.1 -0.3
v -0.1 0.2 -0.3
v 0.1 0.4 -0.3
v 0.1 0.5 -0.3
v 0.2 0.3 -0.3
v 0.2 0.4 -0.3
v 0.2 0.5 -0.3
v 0.3 0 -0.3
v 0.3 0.5 -0.3
v -0.3 0.3 -0.4
v -0.3 0.4 -0.4
v 0.2 0.3 -0.4
v 0.2 0.4 -0.4
v -0.4 0 0.4
v 0.3 0 0.4
v -0.4 0 -0.3
v 0.3 0 -0.3
v -0.3 0.3 -0.3
v 0.2 0.3 -0.3
v -0.3 0.3 -0.4
v 0.2 0.3 -0.4
v -0.3 0.4 -0.3
v -0.2 0.4 -0.3
v 0.1 0.4 -0.3
v 0.2 0.4 -0.3
v -0.3 0.4 -0.4
v 0.2 0.4 -0.4
v -0.4 0.5 0.4
v 0.3 0.5 0.4
v -0.3 0.5 0.3
v -0.2 0.5 0.3
v 0.1 0.5 0.3
v 0.2 0.5 0.3
v -0.3 0.5 0.2
v -0.2 0.5 0.2
v 0.1 0.5 0.2
v 0.2 0.5 0.2
v -0.1 0.5 0.1
v 0 0.5 0.1
v -0.1 0.5 0
v 0 0.5 0
v -0.3 0.5 -0.1
v -0.2 0.5 -0.1
v 0.1 0.5 -0.1
v -0.3 0.5 -0.2
v -0.2 0.5 -0.2
v -0.4 0.5 -0.3
v -0.3 0.5 -0.3
v -0.2 0.5 -0.3
v 0.1 0.5 -0.3
v 0.2 0.5 -0.3
v 0.3 0.5 -0.3

# faces
f 3/1/1 2/1/1 1/1/1
f 4/1/1 2/1/1 3/1/1
f 5/1/1 2/1/1 4/1/1
f 6/1/1 2/1/1 5/1/1
f 7/1/1 3/1/1 1/1/1
f 7/5/1 4/5/1 3/5/1
f 8/3/1 5/3/1 4/3/1
f 8/5/1 4/5/1 7/5/1
f 9/5/1 6/5/1 5/5/1
f 9/3/1 5/3/1 8/3/1
f 10/1/1 2/1/1 6/1/1
f 10/5/1 6/5/1 9/5/1
f 11/3/1 8/3/1 7/3/1
f 11/1/1 7/1/1 1/1/1
f 12/5/1 9/5/1 8/5/1
f 12/3/1 8/3/1 11/3/1
f 13/3/1 10/3/1 9/3/1
f 13/5/1 9/5/1 12/5/1
f 14/1/1 2/1/1 10/1/1
f 14/3/1 10/3/1 13/3/1
f 15/1/1 11/1/1 1/1/1
f 15/5/1 12/5/1 11/5/1
f 16/3/1 13/3/1 12/3/1
f 16/5/1 12/5/1 15/5/1
f 17/5/1 14/5/1 13/5/1
f 17/3/1 13/3/1 16/3/1
f 18/1/1 2/1/1 14/1/1
f 18/5/1 14/5/1 17/5/1
f 19/1/1 17/1/1 16/1/1
f 19/1/1 15/1/1 1/1/1
f 19/1/1 18/1/1 17/1/1
f 19/1/1 16/1/1 15/1/1
f 20/1/1 2/1/1 18/1/1
f 20/1/1 18/1/1 19/1/1
f 23/5/1 22/5/1 21/5/1
f 24/5/1 22/5/1 23/5/1
f 25/5/2 26/5/2 27/5/2
f 27/5/2 26/5/2 28/5/2
f 29/1/2 30/1/2 31/1/2
f 31/1/2 30/1/2 32/1/2
f 32/1/2 30/1/2 33/1/2
f 33/1/2 30/1/2 34/1/2
f 29/1/2 31/1/2 35/1/2
f 31/5/2 32/5/2 35/5/2
f 32/3/2 33/3/2 36/3/2
f 35/5/2 32/5/2 36/5/2
f 33/5/2 34/5/2 37/5/2
f 36/3/2 33/3/2 37/3/2
f 34/1/2 30/1/2 38/1/2
f 37/5/2 34/5/2 38/5/2
f 35/3/2 36/3/2 39/3/2
f 29/1/2 35/1/2 39/1/2
f 36/5/2 37/5/2 40/5/2
f 39/3/2 36/3/2 40/3/2
f 37/3/2 38/3/2 41/3/2
f 40/5/2 37/5/2 41/5/2
f 38/1/2 30/1/2 42/1/2
f 41/3/2 38/3/2 42/3/2
f 29/1/2 39/1/2 43/1/2
f 39/5/2 40/5/2 43/5/2
f 40/3/2 41/3/2 44/3/2
f 43/5/2 40/5/2 44/5/2
f 41/5/2 42/5/2 45/5/2
f 44/3/2 41/3/2 45/3/2
f 42/1/2 30/1/2 46/1/2
f 45/5/2 42/5/2 46/5/2
f 44/1/2 45/1/2 47/1/2
f 29/1/2 43/1/2 47/1/2
f 45/1/2 46/1/2 47/1/2
f 43/1/2 44/1/2 47/1/2
f 46/1/2 30/1/2 48/1/2
f 47/1/2 46/1/2 48/1/2
f 51/1/3 50/1/3 49/1/3
f 52/1/3 50/1/3 51/1/3
f 53/2/3 52/2/3 51/2/3
f 54/2/3 52/2/3 53/2/3
f 55/2/3 53/2/3 51/2/3
f 55/6/3 54/6/3 53/6/3
f 56/2/3 52/2/3 54/2/3
f 56/6/3 54/6/3 55/6/3
f 57/2/3 55/2/3 51/2/3
f 57/5/3 56/5/3 55/5/3
f 58/2/3 52/2/3 56/2/3
f 58/5/3 56/5/3 57/5/3
f 59/2/3 57/2/3 51/2/3
f 59/6/3 58/6/3 57/6/3
f 60/2/3 52/2/3 58/2/3
f 60/6/3 58/6/3 59/6/3
f 61/1/3 51/1/3 49/1/3
f 61/2/3 59/2/3 51/2/3
f 61/2/3 60/2/3 59/2/3
f 62/2/3 52/2/3 60/2/3
f 62/2/3 60/2/3 61/2/3
f 62/1/3 50/1/3 52/1/3
f 63/1/3 61/1/3 49/1/3
f 63/1/3 62/1/3 61/1/3
f 64/1/3 50/1/3 62/1/3
f 64/1/3 62/1/3 63/1/3
f 65/1/4 66/1/4 67/1/4
f 67/1/4 66/1/4 68/1/4
f 68/1/4 66/1/4 69/1/4
f 69/1/4 66/1/4 70/1/4
f 70/1/4 66/1/4 71/1/4
f 70/3/4 71/3/4 72/3/4
f 72/3/4 71/3/4 73/3/4
f 65/1/4 67/1/4 74/1/4
f 67/5/4 68/5/4 74/5/4
f 68/1/4 69/1/4 75/1/4
f 74/5/4 68/5/4 75/5/4
f 72/4/4 73/4/4 76/4/4
f 76/4/4 73/4/4 77/4/4
f 75/1/4 69/1/4 78/1/4
f 74/1/4 75/1/4 78/1/4
f 76/3/4 77/3/4 79/3/4
f 79/3/4 77/3/4 80/3/4
f 65/1/4 74/1/4 81/1/4
f 74/1/4 78/1/4 81/1/4
f 79/1/4 80/1/4 81/1/4
f 78/1/4 79/1/4 81/1/4
f 81/1/4 80/1/4 82/1/4
f 83/5/4 84/5/4 85/5/4
f 85/5/4 84/5/4 86/5/4
f 89/1/5 88/1/5 87/1/5
f 90/1/5 88/1/5 89/1/5
f 93/5/5 92/5/5 91/5/5
f 94/5/5 92/5/5 93/5/5
f 95/5/6 96/5/6 99/5/6
f 97/5/6 98/5/6 99/5/6
f 96/5/6 97/5/6 99/5/6
f 99/5/6 98/5/6 100/5/6
f 101/1/6 102/1/6 103/1/6
f 103/1/6 102/1/6 104/1/6
f 104/1/6 102/1/6 105/1/6
f 105/1/6 102/1/6 106/1/6
f 101/1/6 103/1/6 107/1/6
f 103/4/6 104/4/6 107/4/6
f 104/3/6 105/3/6 108/3/6
f 107/4/6 104/4/6 108/4/6
f 105/4/6 106/4/6 109/4/6
f 108/3/6 105/3/6 109/3/6
f 106/1/6 102/1/6 110/1/6
f 109/4/6 106/4/6 110/4/6
f 108/6/6 109/6/6 111/6/6
f 111/6/6 109/6/6 112/6/6
f 108/6/6 111/6/6 113/6/6
f 111/5/6 112/5/6 113/5/6
f 112/6/6 109/6/6 114/6/6
f 113/5/6 112/5/6 114/5/6
f 107/3/6 108/3/6 115/3/6
f 101/1/6 107/1/6 115/1/6
f 113/6/6 114/6/6 116/6/6
f 115/3/6 108/3/6 116/3/6
f 108/6/6 113/6/6 116/6/6
f 114/6/6 109/6/6 117/6/6
f 116/6/6 114/6/6 117/6/6
f 109/3/6 110/3/6 117/3/6
f 115/2/6 116/2/6 118/2/6
f 101/1/6 115/1/6 118/1/6
f 116/4/6 117/4/6 119/4/6
f 118/2/6 116/2/6 119/2/6
f 101/1/6 118/1/6 120/1/6
f 118/3/6 119/3/6 121/3/6
f 120/1/6 118/1/6 121/1/6
f 119/4/6 117/4/6 122/4/6
f 121/3/6 119/3/6 122/3/6
f 117/3/6 110/3/6 123/3/6
f 122/4/6 117/4/6 123/4/6
f 110/1/6 102/1/6 124/1/6
f 123/3/6 110/3/6 124/3/6
f 124/1/6 102/1/6 125/1/6
