# MagicaVoxel @ Ephtracy

# group
o 

# material
mtllib Office_Misc_Console_Swotch_01.mtl
usemtl palette

# normals
vn -1 0 0
vn 1 0 0
vn 0 0 1
vn 0 0 -1
vn 0 -1 0
vn 0 1 0

# texcoords
vt 0.689453 0.5
vt 0.732422 0.5
vt 0.763672 0.5
vt 0.775391 0.5
vt 0.931641 0.5

# verts
v -0.5 0.1 0.1
v -0.5 0.1 0
v -0.5 0.7 0.1
v -0.5 0.7 0
v -0.4 0 0.2
v -0.4 0 -0.1
v -0.4 0.1 0.1
v -0.4 0.1 0
v -0.4 0.5 0.2
v -0.4 0.5 0.1
v -0.4 0.5 0
v -0.4 0.5 -0.1
v 0.3 0 0.2
v 0.3 0 -0.1
v 0.3 0.1 0.1
v 0.3 0.1 0
v 0.3 0.5 0.2
v 0.3 0.5 0.1
v 0.3 0.5 0
v 0.3 0.5 -0.1
v 0.4 0.1 0.1
v 0.4 0.1 0
v 0.4 0.7 0.1
v 0.4 0.7 0
v -0.4 0 0.2
v -0.4 0.5 0.2
v -0.2 0.1 0.2
v -0.2 0.3 0.2
v -0.2 0.4 0.2
v -0.1 0.1 0.2
v -0.1 0.3 0.2
v -0.1 0.4 0.2
v 0 0.1 0.2
v 0 0.2 0.2
v 0 0.4 0.2
v 0.1 0.1 0.2
v 0.1 0.2 0.2
v 0.1 0.4 0.2
v 0.3 0 0.2
v 0.3 0.5 0.2
v -0.5 0.1 0.1
v -0.5 0.7 0.1
v -0.4 0.1 0.1
v -0.4 0.5 0.1
v -0.4 0.7 0.1
v -0.3 0.5 0.1
v -0.3 0.6 0.1
v 0.2 0.5 0.1
v 0.2 0.6 0.1
v 0.3 0.1 0.1
v 0.3 0.5 0.1
v 0.3 0.7 0.1
v 0.4 0.1 0.1
v 0.4 0.7 0.1
v -0.5 0.1 0
v -0.5 0.7 0
v -0.4 0.1 0
v -0.4 0.5 0
v -0.4 0.7 0
v -0.3 0.5 0
v -0.3 0.6 0
v 0.2 0.5 0
v 0.2 0.6 0
v 0.3 0.1 0
v 0.3 0.5 0
v 0.3 0.7 0
v 0.4 0.1 0
v 0.4 0.7 0
v -0.4 0 -0.1
v -0.4 0.5 -0.1
v 0.3 0 -0.1
v 0.3 0.5 -0.1
v -0.4 0 0.2
v 0.3 0 0.2
v -0.4 0 -0.1
v 0.3 0 -0.1
v -0.5 0.1 0.1
v -0.4 0.1 0.1
v 0.3 0.1 0.1
v 0.4 0.1 0.1
v -0.5 0.1 0
v -0.4 0.1 0
v 0.3 0.1 0
v 0.4 0.1 0
v -0.4 0.5 0.2
v 0.3 0.5 0.2
v -0.4 0.5 0.1
v -0.3 0.5 0.1
v 0.2 0.5 0.1
v 0.3 0.5 0.1
v -0.4 0.5 0
v -0.3 0.5 0
v 0.2 0.5 0
v 0.3 0.5 0
v -0.4 0.5 -0.1
v 0.3 0.5 -0.1
v -0.5 0.7 0.1
v -0.4 0.7 0.1
v 0.3 0.7 0.1
v 0.4 0.7 0.1
v -0.5 0.7 0
v -0.4 0.7 0
v 0.3 0.7 0
v 0.4 0.7 0

# faces
f 3/1/1 2/1/1 1/1/1
f 4/1/1 2/1/1 3/1/1
f 7/5/1 6/5/1 5/5/1
f 8/5/1 6/5/1 7/5/1
f 9/5/1 7/5/1 5/5/1
f 10/5/1 7/5/1 9/5/1
f 11/5/1 6/5/1 8/5/1
f 12/5/1 6/5/1 11/5/1
f 13/5/2 14/5/2 15/5/2
f 15/5/2 14/5/2 16/5/2
f 13/5/2 15/5/2 17/5/2
f 17/5/2 15/5/2 18/5/2
f 16/5/2 14/5/2 19/5/2
f 19/5/2 14/5/2 20/5/2
f 21/2/2 22/2/2 23/2/2
f 23/2/2 22/2/2 24/2/2
f 27/5/3 26/5/3 25/5/3
f 28/5/3 26/5/3 27/5/3
f 29/5/3 26/5/3 28/5/3
f 30/5/3 27/5/3 25/5/3
f 30/4/3 28/4/3 27/4/3
f 31/3/3 29/3/3 28/3/3
f 31/4/3 28/4/3 30/4/3
f 32/5/3 26/5/3 29/5/3
f 32/3/3 29/3/3 31/3/3
f 33/5/3 31/5/3 30/5/3
f 33/5/3 30/5/3 25/5/3
f 33/5/3 32/5/3 31/5/3
f 34/5/3 32/5/3 33/5/3
f 35/5/3 26/5/3 32/5/3
f 35/5/3 32/5/3 34/5/3
f 36/3/3 34/3/3 33/3/3
f 36/5/3 33/5/3 25/5/3
f 37/4/3 35/4/3 34/4/3
f 37/3/3 34/3/3 36/3/3
f 38/5/3 26/5/3 35/5/3
f 38/4/3 35/4/3 37/4/3
f 39/5/3 37/5/3 36/5/3
f 39/5/3 36/5/3 25/5/3
f 39/5/3 38/5/3 37/5/3
f 40/5/3 26/5/3 38/5/3
f 40/5/3 38/5/3 39/5/3
f 43/1/3 42/1/3 41/1/3
f 44/1/3 42/1/3 43/1/3
f 45/1/3 42/1/3 44/1/3
f 46/4/3 45/4/3 44/4/3
f 47/4/3 45/4/3 46/4/3
f 48/3/3 47/3/3 46/3/3
f 49/4/3 45/4/3 47/4/3
f 49/3/3 47/3/3 48/3/3
f 51/4/3 49/4/3 48/4/3
f 52/4/3 45/4/3 49/4/3
f 52/4/3 49/4/3 51/4/3
f 53/2/3 51/2/3 50/2/3
f 53/2/3 52/2/3 51/2/3
f 54/2/3 52/2/3 53/2/3
f 55/1/4 56/1/4 57/1/4
f 57/1/4 56/1/4 58/1/4
f 58/1/4 56/1/4 59/1/4
f 58/4/4 59/4/4 60/4/4
f 60/4/4 59/4/4 61/4/4
f 60/3/4 61/3/4 62/3/4
f 61/4/4 59/4/4 63/4/4
f 62/3/4 61/3/4 63/3/4
f 62/4/4 63/4/4 65/4/4
f 63/4/4 59/4/4 66/4/4
f 65/4/4 63/4/4 66/4/4
f 64/2/4 65/2/4 67/2/4
f 65/2/4 66/2/4 67/2/4
f 67/2/4 66/2/4 68/2/4
f 69/5/4 70/5/4 71/5/4
f 71/5/4 70/5/4 72/5/4
f 75/5/5 74/5/5 73/5/5
f 76/5/5 74/5/5 75/5/5
f 81/1/5 78/1/5 77/1/5
f 82/1/5 78/1/5 81/1/5
f 83/2/5 80/2/5 79/2/5
f 84/2/5 80/2/5 83/2/5
f 85/5/6 86/5/6 87/5/6
f 87/5/6 86/5/6 88/5/6
f 88/5/6 86/5/6 89/5/6
f 89/5/6 86/5/6 90/5/6
f 91/5/6 92/5/6 95/5/6
f 93/5/6 94/5/6 95/5/6
f 92/5/6 93/5/6 95/5/6
f 95/5/6 94/5/6 96/5/6
f 97/1/6 98/1/6 101/1/6
f 98/4/6 99/4/6 102/4/6
f 101/1/6 98/1/6 102/1/6
f 99/2/6 100/2/6 103/2/6
f 102/4/6 99/4/6 103/4/6
f 103/2/6 100/2/6 104/2/6
