# MagicaVoxel @ Ephtracy

# group
o 

# material
mtllib Office_Misc_TV_Stand_02.mtl
usemtl palette

# normals
vn -1 0 0
vn 1 0 0
vn 0 0 1
vn 0 0 -1
vn 0 -1 0
vn 0 1 0

# texcoords
vt 0.658203 0.5
vt 0.689453 0.5
vt 0.697266 0.5
vt 0.728516 0.5
vt 0.771484 0.5
vt 0.775391 0.5
vt 0.822266 0.5
vt 0.830078 0.5
vt 0.833984 0.5
vt 0.892578 0.5
vt 0.904297 0.5

# verts
v -1.1 0.2 0.1
v -1.1 0.2 -1.49012e-008
v -1.1 0.3 0.1
v -1.1 0.3 -1.49012e-008
v -1.1 1.3 0.1
v -1.1 1.3 -1.49012e-008
v -1.1 1.4 0.1
v -1.1 1.4 -1.49012e-008
v -1 0.3 -1.49012e-008
v -1 0.3 -0.1
v -1 0.4 -1.49012e-008
v -1 0.4 -0.1
v -1 1.2 -1.49012e-008
v -1 1.2 -0.1
v -1 1.3 -1.49012e-008
v -1 1.3 -0.1
v -0.3 0 -0.1
v -0.3 0 -0.2
v -0.3 0.1 -0.1
v -0.3 0.1 -0.2
v -0.2 0 -1.49012e-008
v -0.2 0 -0.1
v -0.2 0 -0.2
v -0.2 0 -0.3
v -0.2 0.1 -1.49012e-008
v -0.2 0.1 -0.1
v -0.2 0.1 -0.2
v -0.2 0.1 -0.3
v -0.2 0.3 -0.1
v -0.2 0.5 -0.1
v -0.2 0.5 -0.2
v -0.1 0 -0.3
v -0.1 0 -0.4
v -0.1 0.1 -0.2
v -0.1 0.1 -0.3
v -0.1 0.1 -0.4
v -0.1 0.5 -0.1
v -0.1 0.5 -0.2
v -0.1 0.5 -0.3
v -0.1 0.6 -0.1
v -0.1 0.6 -0.2
v 0.1 0 -0.3
v 0.1 0 -0.4
v 0.1 0.1 -0.2
v 0.1 0.1 -0.3
v 0.1 0.1 -0.4
v 0.1 0.5 -0.1
v 0.1 0.5 -0.2
v 0.1 0.5 -0.3
v 0.1 0.6 -0.1
v 0.1 0.6 -0.2
v 0.2 0 -1.49012e-008
v 0.2 0 -0.1
v 0.2 0 -0.2
v 0.2 0 -0.3
v 0.2 0.1 -1.49012e-008
v 0.2 0.1 -0.1
v 0.2 0.1 -0.2
v 0.2 0.1 -0.3
v 0.2 0.3 -0.1
v 0.2 0.5 -0.1
v 0.2 0.5 -0.2
v 0.3 0 -0.1
v 0.3 0 -0.2
v 0.3 0.1 -0.1
v 0.3 0.1 -0.2
v 1 0.3 -1.49012e-008
v 1 0.3 -0.1
v 1 0.4 -1.49012e-008
v 1 0.4 -0.1
v 1 1.2 -1.49012e-008
v 1 1.2 -0.1
v 1 1.3 -1.49012e-008
v 1 1.3 -0.1
v 1.1 0.2 0.1
v 1.1 0.2 -1.49012e-008
v 1.1 0.3 0.1
v 1.1 0.3 -1.49012e-008
v 1.1 1.3 0.1
v 1.1 1.3 -1.49012e-008
v 1.1 1.4 0.1
v 1.1 1.4 -1.49012e-008
v -1.1 0.2 0.1
v -1.1 0.3 0.1
v -1.1 1.3 0.1
v -1.1 1.4 0.1
v -1 0.2 0.1
v -1 0.3 0.1
v -1 0.7 0.1
v -1 1.3 0.1
v -1 1.4 0.1
v -0.8 0.3 0.1
v -0.8 0.4 0.1
v -0.8 0.5 0.1
v -0.8 0.6 0.1
v -0.8 0.7 0.1
v -0.8 1 0.1
v -0.7 0.3 0.1
v -0.7 0.4 0.1
v -0.7 0.5 0.1
v -0.7 0.6 0.1
v -0.6 0.3 0.1
v -0.6 0.4 0.1
v -0.6 0.5 0.1
v -0.6 0.6 0.1
v -0.6 0.7 0.1
v -0.6 1 0.1
v -0.6 1.2 0.1
v -0.5 0.3 0.1
v -0.5 0.4 0.1
v -0.5 0.6 0.1
v -0.5 0.7 0.1
v -0.5 0.9 0.1
v -0.5 1 0.1
v -0.4 0.3 0.1
v -0.4 0.4 0.1
v -0.4 0.5 0.1
v -0.4 0.6 0.1
v -0.4 0.7 0.1
v -0.3 0.4 0.1
v -0.3 0.5 0.1
v -0.3 0.6 0.1
v -0.3 0.7 0.1
v -0.3 0.9 0.1
v -0.3 1 0.1
v -0.3 1.2 0.1
v -0.2 0.4 0.1
v -0.2 0.5 0.1
v -0.2 0.6 0.1
v -0.2 0.7 0.1
v -0.2 0.9 0.1
v -0.2 1 0.1
v -0.2 1.2 0.1
v -0.1 0.5 0.1
v -0.1 0.6 0.1
v -0.1 0.7 0.1
v -0.1 0.8 0.1
v 0 0.6 0.1
v 0 0.7 0.1
v 0 0.8 0.1
v 0 0.9 0.1
v 0.1 0.4 0.1
v 0.1 0.6 0.1
v 0.1 0.7 0.1
v 0.1 0.8 0.1
v 0.1 0.9 0.1
v 0.1 1 0.1
v 0.1 1.2 0.1
v 0.2 0.4 0.1
v 0.2 0.5 0.1
v 0.2 0.6 0.1
v 0.2 0.7 0.1
v 0.2 0.8 0.1
v 0.2 0.9 0.1
v 0.2 1 0.1
v 0.2 1.2 0.1
v 0.3 0.5 0.1
v 0.3 0.6 0.1
v 0.3 0.7 0.1
v 0.3 0.8 0.1
v 0.4 0.6 0.1
v 0.4 0.7 0.1
v 0.4 0.8 0.1
v 0.4 0.9 0.1
v 0.5 0.4 0.1
v 0.5 0.6 0.1
v 0.5 0.7 0.1
v 0.5 0.8 0.1
v 0.5 0.9 0.1
v 0.5 1 0.1
v 0.5 1.2 0.1
v 0.6 0.4 0.1
v 0.6 0.6 0.1
v 0.6 0.7 0.1
v 0.6 0.8 0.1
v 0.6 0.9 0.1
v 0.6 1 0.1
v 0.6 1.2 0.1
v 0.8 0.9 0.1
v 0.8 1 0.1
v 0.8 1.2 0.1
v 0.9 0.4 0.1
v 0.9 0.6 0.1
v 0.9 0.7 0.1
v 0.9 0.9 0.1
v 0.9 1 0.1
v 0.9 1.2 0.1
v 1 0.2 0.1
v 1 0.3 0.1
v 1 1.3 0.1
v 1 1.4 0.1
v 1.1 0.2 0.1
v 1.1 0.3 0.1
v 1.1 1.3 0.1
v 1.1 1.4 0.1
v -0.2 0 -1.49012e-008
v -0.2 0.1 -1.49012e-008
v 0.2 0 -1.49012e-008
v 0.2 0.1 -1.49012e-008
v -0.3 0 -0.1
v -0.3 0.1 -0.1
v -0.2 0 -0.1
v -0.2 0.1 -0.1
v -0.2 0.3 -0.1
v 0.2 0 -0.1
v 0.2 0.1 -0.1
v 0.2 0.3 -0.1
v 0.3 0 -0.1
v 0.3 0.1 -0.1
v -1.1 0.2 -1.49012e-008
v -1.1 0.3 -1.49012e-008
v -1.1 1.3 -1.49012e-008
v -1.1 1.4 -1.49012e-008
v -1 0.2 -1.49012e-008
v -1 0.3 -1.49012e-008
v -1 0.4 -1.49012e-008
v -1 1.2 -1.49012e-008
v -1 1.3 -1.49012e-008
v -1 1.4 -1.49012e-008
v -0.9 0.3 -1.49012e-008
v -0.9 1.3 -1.49012e-008
v 0.9 0.3 -1.49012e-008
v 0.9 1.3 -1.49012e-008
v 1 0.2 -1.49012e-008
v 1 0.3 -1.49012e-008
v 1 0.4 -1.49012e-008
v 1 1.2 -1.49012e-008
v 1 1.3 -1.49012e-008
v 1 1.4 -1.49012e-008
v 1.1 0.2 -1.49012e-008
v 1.1 0.3 -1.49012e-008
v 1.1 1.3 -1.49012e-008
v 1.1 1.4 -1.49012e-008
v -1 0.3 -0.1
v -1 0.4 -0.1
v -1 1.2 -0.1
v -1 1.3 -0.1
v -0.9 0.3 -0.1
v -0.9 0.4 -0.1
v -0.9 1.2 -0.1
v -0.9 1.3 -0.1
v -0.2 0.3 -0.1
v -0.2 0.5 -0.1
v -0.1 0.5 -0.1
v -0.1 0.6 -0.1
v 0.1 0.5 -0.1
v 0.1 0.6 -0.1
v 0.2 0.3 -0.1
v 0.2 0.5 -0.1
v 0.9 0.3 -0.1
v 0.9 0.4 -0.1
v 0.9 1.2 -0.1
v 0.9 1.3 -0.1
v 1 0.3 -0.1
v 1 0.4 -0.1
v 1 1.2 -0.1
v 1 1.3 -0.1
v -0.3 0 -0.2
v -0.3 0.1 -0.2
v -0.2 0 -0.2
v -0.2 0.1 -0.2
v -0.2 0.5 -0.2
v -0.1 0.1 -0.2
v -0.1 0.5 -0.2
v -0.1 0.6 -0.2
v 0.1 0.1 -0.2
v 0.1 0.5 -0.2
v 0.1 0.6 -0.2
v 0.2 0 -0.2
v 0.2 0.1 -0.2
v 0.2 0.5 -0.2
v 0.3 0 -0.2
v 0.3 0.1 -0.2
v -0.2 0 -0.3
v -0.2 0.1 -0.3
v -0.1 0 -0.3
v -0.1 0.1 -0.3
v -0.1 0.5 -0.3
v 0.1 0 -0.3
v 0.1 0.1 -0.3
v 0.1 0.5 -0.3
v 0.2 0 -0.3
v 0.2 0.1 -0.3
v -0.1 0 -0.4
v -0.1 0.1 -0.4
v 0.1 0 -0.4
v 0.1 0.1 -0.4
v -0.2 0 -1.49012e-008
v 0.2 0 -1.49012e-008
v -0.3 0 -0.1
v -0.2 0 -0.1
v 0.2 0 -0.1
v 0.3 0 -0.1
v -0.3 0 -0.2
v -0.2 0 -0.2
v 0.2 0 -0.2
v 0.3 0 -0.2
v -0.2 0 -0.3
v -0.1 0 -0.3
v 0.1 0 -0.3
v 0.2 0 -0.3
v -0.1 0 -0.4
v 0.1 0 -0.4
v -1.1 0.2 0.1
v -1 0.2 0.1
v 1 0.2 0.1
v 1.1 0.2 0.1
v -1.1 0.2 -1.49012e-008
v -1 0.2 -1.49012e-008
v 1 0.2 -1.49012e-008
v 1.1 0.2 -1.49012e-008
v -1 0.3 -1.49012e-008
v -0.9 0.3 -1.49012e-008
v 0.9 0.3 -1.49012e-008
v 1 0.3 -1.49012e-008
v -1 0.3 -0.1
v -0.9 0.3 -0.1
v -0.2 0.3 -0.1
v 0.2 0.3 -0.1
v 0.9 0.3 -0.1
v 1 0.3 -0.1
v -0.2 0.1 -1.49012e-008
v 0.2 0.1 -1.49012e-008
v -0.3 0.1 -0.1
v -0.2 0.1 -0.1
v 0.2 0.1 -0.1
v 0.3 0.1 -0.1
v -0.3 0.1 -0.2
v -0.2 0.1 -0.2
v -0.1 0.1 -0.2
v 0.1 0.1 -0.2
v 0.2 0.1 -0.2
v 0.3 0.1 -0.2
v -0.2 0.1 -0.3
v -0.1 0.1 -0.3
v 0.1 0.1 -0.3
v 0.2 0.1 -0.3
v -0.1 0.1 -0.4
v 0.1 0.1 -0.4
v -0.2 0.5 -0.1
v -0.1 0.5 -0.1
v 0.1 0.5 -0.1
v 0.2 0.5 -0.1
v -0.2 0.5 -0.2
v -0.1 0.5 -0.2
v 0.1 0.5 -0.2
v 0.2 0.5 -0.2
v -0.1 0.5 -0.3
v 0.1 0.5 -0.3
v -0.1 0.6 -0.1
v 0.1 0.6 -0.1
v -0.1 0.6 -0.2
v 0.1 0.6 -0.2
v -1 1.3 -1.49012e-008
v -0.9 1.3 -1.49012e-008
v 0.9 1.3 -1.49012e-008
v 1 1.3 -1.49012e-008
v -1 1.3 -0.1
v -0.9 1.3 -0.1
v 0.9 1.3 -0.1
v 1 1.3 -0.1
v -1.1 1.4 0.1
v -1 1.4 0.1
v 1 1.4 0.1
v 1.1 1.4 0.1
v -1.1 1.4 -1.49012e-008
v -1 1.4 -1.49012e-008
v 1 1.4 -1.49012e-008
v 1.1 1.4 -1.49012e-008

# faces
f 3/6/1 2/6/1 1/6/1
f 4/6/1 2/6/1 3/6/1
f 5/5/1 4/5/1 3/5/1
f 6/5/1 4/5/1 5/5/1
f 7/6/1 6/6/1 5/6/1
f 8/6/1 6/6/1 7/6/1
f 11/6/1 10/6/1 9/6/1
f 12/6/1 10/6/1 11/6/1
f 13/5/1 12/5/1 11/5/1
f 14/5/1 12/5/1 13/5/1
f 15/6/1 14/6/1 13/6/1
f 16/6/1 14/6/1 15/6/1
f 19/5/1 18/5/1 17/5/1
f 20/5/1 18/5/1 19/5/1
f 25/5/1 22/5/1 21/5/1
f 26/5/1 22/5/1 25/5/1
f 27/5/1 24/5/1 23/5/1
f 28/5/1 24/5/1 27/5/1
f 29/5/1 27/5/1 26/5/1
f 30/5/1 27/5/1 29/5/1
f 31/5/1 27/5/1 30/5/1
f 35/5/1 33/5/1 32/5/1
f 36/5/1 33/5/1 35/5/1
f 38/5/1 35/5/1 34/5/1
f 39/5/1 35/5/1 38/5/1
f 40/5/1 38/5/1 37/5/1
f 41/5/1 38/5/1 40/5/1
f 42/5/2 43/5/2 45/5/2
f 45/5/2 43/5/2 46/5/2
f 44/5/2 45/5/2 48/5/2
f 48/5/2 45/5/2 49/5/2
f 47/5/2 48/5/2 50/5/2
f 50/5/2 48/5/2 51/5/2
f 52/5/2 53/5/2 56/5/2
f 56/5/2 53/5/2 57/5/2
f 54/5/2 55/5/2 58/5/2
f 58/5/2 55/5/2 59/5/2
f 57/5/2 58/5/2 60/5/2
f 60/5/2 58/5/2 61/5/2
f 61/5/2 58/5/2 62/5/2
f 63/5/2 64/5/2 65/5/2
f 65/5/2 64/5/2 66/5/2
f 67/6/2 68/6/2 69/6/2
f 69/6/2 68/6/2 70/6/2
f 69/5/2 70/5/2 71/5/2
f 71/5/2 70/5/2 72/5/2
f 71/6/2 72/6/2 73/6/2
f 73/6/2 72/6/2 74/6/2
f 75/6/2 76/6/2 77/6/2
f 77/6/2 76/6/2 78/6/2
f 77/5/2 78/5/2 79/5/2
f 79/5/2 78/5/2 80/5/2
f 79/6/2 80/6/2 81/6/2
f 81/6/2 80/6/2 82/6/2
f 87/6/3 84/6/3 83/6/3
f 88/5/3 85/5/3 84/5/3
f 88/6/3 84/6/3 87/6/3
f 89/5/3 85/5/3 88/5/3
f 90/6/3 86/6/3 85/6/3
f 90/5/3 85/5/3 89/5/3
f 91/6/3 86/6/3 90/6/3
f 92/11/3 89/11/3 88/11/3
f 92/5/3 88/5/3 87/5/3
f 93/11/3 89/11/3 92/11/3
f 94/11/3 89/11/3 93/11/3
f 95/11/3 89/11/3 94/11/3
f 96/1/3 90/1/3 89/1/3
f 96/11/3 89/11/3 95/11/3
f 97/1/3 90/1/3 96/1/3
f 98/5/3 92/5/3 87/5/3
f 98/9/3 93/9/3 92/9/3
f 99/11/3 94/11/3 93/11/3
f 99/9/3 93/9/3 98/9/3
f 100/10/3 95/10/3 94/10/3
f 100/11/3 94/11/3 99/11/3
f 101/8/3 96/8/3 95/8/3
f 101/10/3 95/10/3 100/10/3
f 102/11/3 99/11/3 98/11/3
f 102/5/3 98/5/3 87/5/3
f 102/11/3 100/11/3 99/11/3
f 103/11/3 100/11/3 102/11/3
f 104/3/3 101/3/3 100/3/3
f 104/11/3 100/11/3 103/11/3
f 105/8/3 96/8/3 101/8/3
f 105/3/3 101/3/3 104/3/3
f 106/9/3 97/9/3 96/9/3
f 106/8/3 96/8/3 105/8/3
f 107/1/3 90/1/3 97/1/3
f 107/9/3 97/9/3 106/9/3
f 108/1/3 90/1/3 107/1/3
f 109/9/3 103/9/3 102/9/3
f 109/5/3 102/5/3 87/5/3
f 110/11/3 104/11/3 103/11/3
f 110/9/3 103/9/3 109/9/3
f 110/11/3 106/11/3 105/11/3
f 110/11/3 105/11/3 104/11/3
f 111/11/3 106/11/3 110/11/3
f 112/9/3 107/9/3 106/9/3
f 112/11/3 106/11/3 111/11/3
f 113/9/3 107/9/3 112/9/3
f 114/2/3 108/2/3 107/2/3
f 114/9/3 107/9/3 113/9/3
f 115/5/3 109/5/3 87/5/3
f 115/11/3 111/11/3 110/11/3
f 115/11/3 110/11/3 109/11/3
f 116/11/3 111/11/3 115/11/3
f 117/11/3 111/11/3 116/11/3
f 118/3/3 112/3/3 111/3/3
f 118/11/3 111/11/3 117/11/3
f 119/2/3 113/2/3 112/2/3
f 119/3/3 112/3/3 118/3/3
f 120/2/3 117/2/3 116/2/3
f 120/1/3 116/1/3 115/1/3
f 121/7/3 118/7/3 117/7/3
f 121/2/3 117/2/3 120/2/3
f 122/4/3 119/4/3 118/4/3
f 122/7/3 118/7/3 121/7/3
f 123/2/3 113/2/3 119/2/3
f 123/4/3 119/4/3 122/4/3
f 124/3/3 114/3/3 113/3/3
f 124/2/3 113/2/3 123/2/3
f 125/2/3 108/2/3 114/2/3
f 125/3/3 114/3/3 124/3/3
f 126/1/3 90/1/3 108/1/3
f 126/2/3 108/2/3 125/2/3
f 127/1/3 120/1/3 115/1/3
f 127/7/3 121/7/3 120/7/3
f 128/4/3 122/4/3 121/4/3
f 128/7/3 121/7/3 127/7/3
f 129/3/3 124/3/3 123/3/3
f 129/4/3 122/4/3 128/4/3
f 129/3/3 123/3/3 122/3/3
f 129/3/3 126/3/3 125/3/3
f 129/3/3 125/3/3 124/3/3
f 130/3/3 126/3/3 129/3/3
f 131/3/3 126/3/3 130/3/3
f 132/3/3 126/3/3 131/3/3
f 133/1/3 90/1/3 126/1/3
f 133/3/3 126/3/3 132/3/3
f 134/2/3 128/2/3 127/2/3
f 134/7/3 129/7/3 128/7/3
f 135/4/3 130/4/3 129/4/3
f 135/7/3 129/7/3 134/7/3
f 136/2/3 131/2/3 130/2/3
f 136/4/3 130/4/3 135/4/3
f 137/2/3 131/2/3 136/2/3
f 138/2/3 135/2/3 134/2/3
f 138/7/3 136/7/3 135/7/3
f 139/4/3 137/4/3 136/4/3
f 139/7/3 136/7/3 138/7/3
f 140/2/3 131/2/3 137/2/3
f 140/4/3 137/4/3 139/4/3
f 141/3/3 132/3/3 131/3/3
f 141/2/3 131/2/3 140/2/3
f 142/1/3 127/1/3 115/1/3
f 142/2/3 134/2/3 127/2/3
f 142/2/3 138/2/3 134/2/3
f 143/3/3 139/3/3 138/3/3
f 143/2/3 138/2/3 142/2/3
f 144/7/3 140/7/3 139/7/3
f 144/3/3 139/3/3 143/3/3
f 145/4/3 141/4/3 140/4/3
f 145/7/3 140/7/3 144/7/3
f 146/3/3 132/3/3 141/3/3
f 146/4/3 141/4/3 145/4/3
f 147/2/3 133/2/3 132/2/3
f 147/3/3 132/3/3 146/3/3
f 148/1/3 90/1/3 133/1/3
f 148/2/3 133/2/3 147/2/3
f 149/3/3 143/3/3 142/3/3
f 149/1/3 142/1/3 115/1/3
f 150/3/3 143/3/3 149/3/3
f 151/7/3 144/7/3 143/7/3
f 151/3/3 143/3/3 150/3/3
f 152/4/3 145/4/3 144/4/3
f 152/7/3 144/7/3 151/7/3
f 153/3/3 147/3/3 146/3/3
f 153/4/3 145/4/3 152/4/3
f 153/3/3 146/3/3 145/3/3
f 153/3/3 148/3/3 147/3/3
f 154/3/3 148/3/3 153/3/3
f 155/3/3 148/3/3 154/3/3
f 156/1/3 90/1/3 148/1/3
f 156/3/3 148/3/3 155/3/3
f 157/7/3 151/7/3 150/7/3
f 157/2/3 150/2/3 149/2/3
f 158/4/3 152/4/3 151/4/3
f 158/7/3 151/7/3 157/7/3
f 159/2/3 153/2/3 152/2/3
f 159/4/3 152/4/3 158/4/3
f 159/2/3 154/2/3 153/2/3
f 160/2/3 154/2/3 159/2/3
f 161/2/3 158/2/3 157/2/3
f 161/7/3 159/7/3 158/7/3
f 162/4/3 160/4/3 159/4/3
f 162/7/3 159/7/3 161/7/3
f 163/2/3 154/2/3 160/2/3
f 163/4/3 160/4/3 162/4/3
f 164/3/3 155/3/3 154/3/3
f 164/2/3 154/2/3 163/2/3
f 165/2/3 157/2/3 149/2/3
f 165/1/3 149/1/3 115/1/3
f 165/2/3 161/2/3 157/2/3
f 166/3/3 162/3/3 161/3/3
f 166/2/3 161/2/3 165/2/3
f 167/7/3 163/7/3 162/7/3
f 167/3/3 162/3/3 166/3/3
f 168/4/3 164/4/3 163/4/3
f 168/7/3 163/7/3 167/7/3
f 169/3/3 155/3/3 164/3/3
f 169/4/3 164/4/3 168/4/3
f 170/2/3 156/2/3 155/2/3
f 170/3/3 155/3/3 169/3/3
f 171/1/3 90/1/3 156/1/3
f 171/2/3 156/2/3 170/2/3
f 172/3/3 168/3/3 167/3/3
f 172/3/3 166/3/3 165/3/3
f 172/3/3 167/3/3 166/3/3
f 172/1/3 165/1/3 115/1/3
f 173/3/3 168/3/3 172/3/3
f 174/3/3 168/3/3 173/3/3
f 175/7/3 169/7/3 168/7/3
f 175/3/3 168/3/3 174/3/3
f 176/4/3 170/4/3 169/4/3
f 176/7/3 169/7/3 175/7/3
f 177/3/3 171/3/3 170/3/3
f 177/4/3 170/4/3 176/4/3
f 178/1/3 90/1/3 171/1/3
f 178/3/3 171/3/3 177/3/3
f 179/7/3 177/7/3 176/7/3
f 179/2/3 176/2/3 175/2/3
f 179/2/3 175/2/3 174/2/3
f 180/4/3 178/4/3 177/4/3
f 180/7/3 177/7/3 179/7/3
f 181/1/3 90/1/3 178/1/3
f 181/4/3 178/4/3 180/4/3
f 182/2/3 173/2/3 172/2/3
f 182/1/3 172/1/3 115/1/3
f 183/3/3 174/3/3 173/3/3
f 183/2/3 173/2/3 182/2/3
f 184/2/3 179/2/3 174/2/3
f 184/3/3 174/3/3 183/3/3
f 185/3/3 180/3/3 179/3/3
f 185/2/3 179/2/3 184/2/3
f 186/2/3 181/2/3 180/2/3
f 186/3/3 180/3/3 185/3/3
f 187/1/3 90/1/3 181/1/3
f 187/2/3 181/2/3 186/2/3
f 188/5/3 115/5/3 87/5/3
f 189/1/3 184/1/3 183/1/3
f 189/5/3 115/5/3 188/5/3
f 189/1/3 183/1/3 182/1/3
f 189/1/3 187/1/3 186/1/3
f 189/1/3 185/1/3 184/1/3
f 189/1/3 182/1/3 115/1/3
f 189/1/3 186/1/3 185/1/3
f 190/5/3 91/5/3 90/5/3
f 190/1/3 187/1/3 189/1/3
f 190/1/3 90/1/3 187/1/3
f 191/5/3 91/5/3 190/5/3
f 192/6/3 189/6/3 188/6/3
f 193/5/3 190/5/3 189/5/3
f 193/6/3 189/6/3 192/6/3
f 194/6/3 191/6/3 190/6/3
f 194/5/3 190/5/3 193/5/3
f 195/6/3 191/6/3 194/6/3
f 198/5/3 197/5/3 196/5/3
f 199/5/3 197/5/3 198/5/3
f 202/5/3 201/5/3 200/5/3
f 203/5/3 201/5/3 202/5/3
f 206/5/3 204/5/3 203/5/3
f 207/5/3 204/5/3 206/5/3
f 208/5/3 206/5/3 205/5/3
f 209/5/3 206/5/3 208/5/3
f 210/6/4 211/6/4 214/6/4
f 211/5/4 212/5/4 215/5/4
f 214/6/4 211/6/4 215/6/4
f 215/5/4 212/5/4 216/5/4
f 216/5/4 212/5/4 217/5/4
f 212/6/4 213/6/4 218/6/4
f 217/5/4 212/5/4 218/5/4
f 218/6/4 213/6/4 219/6/4
f 214/5/4 215/5/4 220/5/4
f 218/5/4 219/5/4 221/5/4
f 214/5/4 220/5/4 222/5/4
f 221/5/4 219/5/4 223/5/4
f 214/5/4 222/5/4 224/5/4
f 224/5/4 222/5/4 225/5/4
f 223/5/4 219/5/4 228/5/4
f 228/5/4 219/5/4 229/5/4
f 224/6/4 225/6/4 230/6/4
f 226/5/4 227/5/4 231/5/4
f 230/6/4 225/6/4 231/6/4
f 225/5/4 226/5/4 231/5/4
f 227/5/4 228/5/4 231/5/4
f 228/6/4 229/6/4 232/6/4
f 231/5/4 228/5/4 232/5/4
f 232/6/4 229/6/4 233/6/4
f 234/6/4 235/6/4 238/6/4
f 235/5/4 236/5/4 239/5/4
f 238/6/4 235/6/4 239/6/4
f 236/6/4 237/6/4 240/6/4
f 239/5/4 236/5/4 240/5/4
f 240/6/4 237/6/4 241/6/4
f 238/5/4 239/5/4 242/5/4
f 239/5/4 240/5/4 242/5/4
f 240/5/4 241/5/4 242/5/4
f 242/5/4 241/5/4 243/5/4
f 243/5/4 241/5/4 244/5/4
f 244/5/4 241/5/4 245/5/4
f 245/5/4 241/5/4 247/5/4
f 246/5/4 247/5/4 249/5/4
f 248/5/4 249/5/4 250/5/4
f 250/5/4 249/5/4 251/5/4
f 247/5/4 241/5/4 252/5/4
f 251/5/4 249/5/4 252/5/4
f 249/5/4 247/5/4 252/5/4
f 252/5/4 241/5/4 253/5/4
f 250/6/4 251/6/4 254/6/4
f 251/5/4 252/5/4 255/5/4
f 254/6/4 251/6/4 255/6/4
f 252/6/4 253/6/4 256/6/4
f 255/5/4 252/5/4 256/5/4
f 256/6/4 253/6/4 257/6/4
f 258/5/4 259/5/4 260/5/4
f 260/5/4 259/5/4 261/5/4
f 261/5/4 262/5/4 263/5/4
f 263/5/4 262/5/4 264/5/4
f 264/5/4 265/5/4 267/5/4
f 267/5/4 265/5/4 268/5/4
f 266/5/4 267/5/4 270/5/4
f 270/5/4 267/5/4 271/5/4
f 269/5/4 270/5/4 272/5/4
f 272/5/4 270/5/4 273/5/4
f 274/5/4 275/5/4 276/5/4
f 276/5/4 275/5/4 277/5/4
f 277/5/4 278/5/4 280/5/4
f 280/5/4 278/5/4 281/5/4
f 279/5/4 280/5/4 282/5/4
f 282/5/4 280/5/4 283/5/4
f 284/5/4 285/5/4 286/5/4
f 286/5/4 285/5/4 287/5/4
f 291/5/5 289/5/5 288/5/5
f 292/5/5 289/5/5 291/5/5
f 294/5/5 291/5/5 290/5/5
f 294/5/5 293/5/5 292/5/5
f 294/5/5 292/5/5 291/5/5
f 295/5/5 293/5/5 294/5/5
f 296/5/5 293/5/5 295/5/5
f 297/5/5 293/5/5 296/5/5
f 298/5/5 296/5/5 295/5/5
f 299/5/5 296/5/5 298/5/5
f 300/5/5 296/5/5 299/5/5
f 301/5/5 296/5/5 300/5/5
f 302/5/5 300/5/5 299/5/5
f 303/5/5 300/5/5 302/5/5
f 308/6/5 305/6/5 304/6/5
f 309/5/5 306/5/5 305/5/5
f 309/6/5 305/6/5 308/6/5
f 310/6/5 307/6/5 306/6/5
f 310/5/5 306/5/5 309/5/5
f 311/6/5 307/6/5 310/6/5
f 316/6/5 313/6/5 312/6/5
f 317/5/5 314/5/5 313/5/5
f 317/6/5 313/6/5 316/6/5
f 318/5/5 314/5/5 317/5/5
f 319/5/5 314/5/5 318/5/5
f 320/6/5 315/6/5 314/6/5
f 320/5/5 314/5/5 319/5/5
f 321/6/5 315/6/5 320/6/5
f 322/5/6 323/5/6 325/5/6
f 325/5/6 323/5/6 326/5/6
f 324/5/6 325/5/6 328/5/6
f 328/5/6 325/5/6 329/5/6
f 326/5/6 327/5/6 332/5/6
f 332/5/6 327/5/6 333/5/6
f 329/5/6 330/5/6 334/5/6
f 334/5/6 330/5/6 335/5/6
f 331/5/6 332/5/6 336/5/6
f 336/5/6 332/5/6 337/5/6
f 335/5/6 336/5/6 338/5/6
f 338/5/6 336/5/6 339/5/6
f 340/5/6 341/5/6 344/5/6
f 344/5/6 341/5/6 345/5/6
f 342/5/6 343/5/6 346/5/6
f 346/5/6 343/5/6 347/5/6
f 345/5/6 346/5/6 348/5/6
f 348/5/6 346/5/6 349/5/6
f 350/5/6 351/5/6 352/5/6
f 352/5/6 351/5/6 353/5/6
f 354/6/6 355/6/6 358/6/6
f 355/5/6 356/5/6 359/5/6
f 358/6/6 355/6/6 359/6/6
f 356/6/6 357/6/6 360/6/6
f 359/5/6 356/5/6 360/5/6
f 360/6/6 357/6/6 361/6/6
f 362/6/6 363/6/6 366/6/6
f 363/5/6 364/5/6 367/5/6
f 366/6/6 363/6/6 367/6/6
f 364/6/6 365/6/6 368/6/6
f 367/5/6 364/5/6 368/5/6
f 368/6/6 365/6/6 369/6/6
