# MagicaVoxel @ Ephtracy

# group
o 

# material
mtllib Office_Misc_TV_Wall_02.mtl
usemtl palette

# normals
vn -1 0 0
vn 1 0 0
vn 0 0 1
vn 0 0 -1
vn 0 -1 0
vn 0 1 0

# texcoords
vt 0.658203 0.5
vt 0.689453 0.5
vt 0.697266 0.5
vt 0.728516 0.5
vt 0.771484 0.5
vt 0.775391 0.5
vt 0.822266 0.5
vt 0.830078 0.5
vt 0.833984 0.5
vt 0.892578 0.5
vt 0.904297 0.5

# verts
v -1.1 0.2 -0.5
v -1.1 0.2 -0.6
v -1.1 0.3 -0.5
v -1.1 0.3 -0.6
v -1.1 1.3 -0.5
v -1.1 1.3 -0.6
v -1.1 1.4 -0.5
v -1.1 1.4 -0.6
v -1 0.3 -0.6
v -1 0.3 -0.7
v -1 0.4 -0.6
v -1 0.4 -0.7
v -1 1.2 -0.6
v -1 1.2 -0.7
v -1 1.3 -0.6
v -1 1.3 -0.7
v -0.2 0.6 -0.7
v -0.2 0.6 -0.8
v -0.2 1 -0.7
v -0.2 1 -0.8
v -0.1 0.5 -0.7
v -0.1 0.5 -0.8
v -0.1 0.6 -0.7
v -0.1 0.6 -0.8
v -0.1 1 -0.7
v -0.1 1 -0.8
v -0.1 1.1 -0.7
v -0.1 1.1 -0.8
v 0.1 0.6 -0.7
v 0.1 0.6 -0.8
v 0.1 1 -0.7
v 0.1 1 -0.8
v -0.1 0.6 -0.7
v -0.1 0.6 -0.8
v -0.1 1 -0.7
v -0.1 1 -0.8
v 0.1 0.5 -0.7
v 0.1 0.5 -0.8
v 0.1 0.6 -0.7
v 0.1 0.6 -0.8
v 0.1 1 -0.7
v 0.1 1 -0.8
v 0.1 1.1 -0.7
v 0.1 1.1 -0.8
v 0.2 0.6 -0.7
v 0.2 0.6 -0.8
v 0.2 1 -0.7
v 0.2 1 -0.8
v 1 0.3 -0.6
v 1 0.3 -0.7
v 1 0.4 -0.6
v 1 0.4 -0.7
v 1 1.2 -0.6
v 1 1.2 -0.7
v 1 1.3 -0.6
v 1 1.3 -0.7
v 1.1 0.2 -0.5
v 1.1 0.2 -0.6
v 1.1 0.3 -0.5
v 1.1 0.3 -0.6
v 1.1 1.3 -0.5
v 1.1 1.3 -0.6
v 1.1 1.4 -0.5
v 1.1 1.4 -0.6
v -1.1 0.2 -0.5
v -1.1 0.3 -0.5
v -1.1 1.3 -0.5
v -1.1 1.4 -0.5
v -1 0.2 -0.5
v -1 0.3 -0.5
v -1 0.7 -0.5
v -1 1.3 -0.5
v -1 1.4 -0.5
v -0.8 0.3 -0.5
v -0.8 0.4 -0.5
v -0.8 0.5 -0.5
v -0.8 0.6 -0.5
v -0.8 0.7 -0.5
v -0.8 1 -0.5
v -0.7 0.3 -0.5
v -0.7 0.4 -0.5
v -0.7 0.5 -0.5
v -0.7 0.6 -0.5
v -0.6 0.3 -0.5
v -0.6 0.4 -0.5
v -0.6 0.5 -0.5
v -0.6 0.6 -0.5
v -0.6 0.7 -0.5
v -0.6 1 -0.5
v -0.6 1.2 -0.5
v -0.5 0.3 -0.5
v -0.5 0.4 -0.5
v -0.5 0.6 -0.5
v -0.5 0.7 -0.5
v -0.5 0.9 -0.5
v -0.5 1 -0.5
v -0.4 0.3 -0.5
v -0.4 0.4 -0.5
v -0.4 0.5 -0.5
v -0.4 0.6 -0.5
v -0.4 0.7 -0.5
v -0.3 0.4 -0.5
v -0.3 0.5 -0.5
v -0.3 0.6 -0.5
v -0.3 0.7 -0.5
v -0.3 0.9 -0.5
v -0.3 1 -0.5
v -0.3 1.2 -0.5
v -0.2 0.4 -0.5
v -0.2 0.5 -0.5
v -0.2 0.6 -0.5
v -0.2 0.7 -0.5
v -0.2 0.9 -0.5
v -0.2 1 -0.5
v -0.2 1.2 -0.5
v -0.1 0.5 -0.5
v -0.1 0.6 -0.5
v -0.1 0.7 -0.5
v -0.1 0.8 -0.5
v 0 0.6 -0.5
v 0 0.7 -0.5
v 0 0.8 -0.5
v 0 0.9 -0.5
v 0.1 0.4 -0.5
v 0.1 0.6 -0.5
v 0.1 0.7 -0.5
v 0.1 0.8 -0.5
v 0.1 0.9 -0.5
v 0.1 1 -0.5
v 0.1 1.2 -0.5
v 0.2 0.4 -0.5
v 0.2 0.5 -0.5
v 0.2 0.6 -0.5
v 0.2 0.7 -0.5
v 0.2 0.8 -0.5
v 0.2 0.9 -0.5
v 0.2 1 -0.5
v 0.2 1.2 -0.5
v 0.3 0.5 -0.5
v 0.3 0.6 -0.5
v 0.3 0.7 -0.5
v 0.3 0.8 -0.5
v 0.4 0.6 -0.5
v 0.4 0.7 -0.5
v 0.4 0.8 -0.5
v 0.4 0.9 -0.5
v 0.5 0.4 -0.5
v 0.5 0.6 -0.5
v 0.5 0.7 -0.5
v 0.5 0.8 -0.5
v 0.5 0.9 -0.5
v 0.5 1 -0.5
v 0.5 1.2 -0.5
v 0.6 0.4 -0.5
v 0.6 0.6 -0.5
v 0.6 0.7 -0.5
v 0.6 0.8 -0.5
v 0.6 0.9 -0.5
v 0.6 1 -0.5
v 0.6 1.2 -0.5
v 0.8 0.9 -0.5
v 0.8 1 -0.5
v 0.8 1.2 -0.5
v 0.9 0.4 -0.5
v 0.9 0.6 -0.5
v 0.9 0.7 -0.5
v 0.9 0.9 -0.5
v 0.9 1 -0.5
v 0.9 1.2 -0.5
v 1 0.2 -0.5
v 1 0.3 -0.5
v 1 1.3 -0.5
v 1 1.4 -0.5
v 1.1 0.2 -0.5
v 1.1 0.3 -0.5
v 1.1 1.3 -0.5
v 1.1 1.4 -0.5
v -1.1 0.2 -0.6
v -1.1 0.3 -0.6
v -1.1 1.3 -0.6
v -1.1 1.4 -0.6
v -1 0.2 -0.6
v -1 0.3 -0.6
v -1 0.4 -0.6
v -1 1.2 -0.6
v -1 1.3 -0.6
v -1 1.4 -0.6
v -0.9 0.3 -0.6
v -0.9 1.3 -0.6
v 0.9 0.3 -0.6
v 0.9 1.3 -0.6
v 1 0.2 -0.6
v 1 0.3 -0.6
v 1 0.4 -0.6
v 1 1.2 -0.6
v 1 1.3 -0.6
v 1 1.4 -0.6
v 1.1 0.2 -0.6
v 1.1 0.3 -0.6
v 1.1 1.3 -0.6
v 1.1 1.4 -0.6
v -1 0.3 -0.7
v -1 0.4 -0.7
v -1 1.2 -0.7
v -1 1.3 -0.7
v -0.9 0.3 -0.7
v -0.9 0.4 -0.7
v -0.9 1.2 -0.7
v -0.9 1.3 -0.7
v -0.2 0.6 -0.7
v -0.2 1 -0.7
v -0.1 0.5 -0.7
v -0.1 0.6 -0.7
v -0.1 1 -0.7
v -0.1 1.1 -0.7
v 0.1 0.5 -0.7
v 0.1 0.6 -0.7
v 0.1 1 -0.7
v 0.1 1.1 -0.7
v 0.2 0.6 -0.7
v 0.2 1 -0.7
v 0.9 0.3 -0.7
v 0.9 0.4 -0.7
v 0.9 1.2 -0.7
v 0.9 1.3 -0.7
v 1 0.3 -0.7
v 1 0.4 -0.7
v 1 1.2 -0.7
v 1 1.3 -0.7
v -0.2 0.6 -0.8
v -0.2 1 -0.8
v -0.1 0.5 -0.8
v -0.1 0.6 -0.8
v -0.1 1 -0.8
v -0.1 1.1 -0.8
v 0.1 0.5 -0.8
v 0.1 0.6 -0.8
v 0.1 1 -0.8
v 0.1 1.1 -0.8
v 0.2 0.6 -0.8
v 0.2 1 -0.8
v -1.1 0.2 -0.5
v -1 0.2 -0.5
v 1 0.2 -0.5
v 1.1 0.2 -0.5
v -1.1 0.2 -0.6
v -1 0.2 -0.6
v 1 0.2 -0.6
v 1.1 0.2 -0.6
v -1 0.3 -0.6
v -0.9 0.3 -0.6
v 0.9 0.3 -0.6
v 1 0.3 -0.6
v -1 0.3 -0.7
v -0.9 0.3 -0.7
v 0.9 0.3 -0.7
v 1 0.3 -0.7
v -0.1 0.5 -0.7
v 0.1 0.5 -0.7
v -0.1 0.5 -0.8
v 0.1 0.5 -0.8
v -0.2 0.6 -0.7
v -0.1 0.6 -0.7
v 0.1 0.6 -0.7
v 0.2 0.6 -0.7
v -0.2 0.6 -0.8
v -0.1 0.6 -0.8
v 0.1 0.6 -0.8
v 0.2 0.6 -0.8
v -0.1 1 -0.7
v 0.1 1 -0.7
v -0.1 1 -0.8
v 0.1 1 -0.8
v -0.1 0.6 -0.7
v 0.1 0.6 -0.7
v -0.1 0.6 -0.8
v 0.1 0.6 -0.8
v -0.2 1 -0.7
v -0.1 1 -0.7
v 0.1 1 -0.7
v 0.2 1 -0.7
v -0.2 1 -0.8
v -0.1 1 -0.8
v 0.1 1 -0.8
v 0.2 1 -0.8
v -0.1 1.1 -0.7
v 0.1 1.1 -0.7
v -0.1 1.1 -0.8
v 0.1 1.1 -0.8
v -1 1.3 -0.6
v -0.9 1.3 -0.6
v 0.9 1.3 -0.6
v 1 1.3 -0.6
v -1 1.3 -0.7
v -0.9 1.3 -0.7
v 0.9 1.3 -0.7
v 1 1.3 -0.7
v -1.1 1.4 -0.5
v -1 1.4 -0.5
v 1 1.4 -0.5
v 1.1 1.4 -0.5
v -1.1 1.4 -0.6
v -1 1.4 -0.6
v 1 1.4 -0.6
v 1.1 1.4 -0.6

# faces
f 3/6/1 2/6/1 1/6/1
f 4/6/1 2/6/1 3/6/1
f 5/5/1 4/5/1 3/5/1
f 6/5/1 4/5/1 5/5/1
f 7/6/1 6/6/1 5/6/1
f 8/6/1 6/6/1 7/6/1
f 11/6/1 10/6/1 9/6/1
f 12/6/1 10/6/1 11/6/1
f 13/5/1 12/5/1 11/5/1
f 14/5/1 12/5/1 13/5/1
f 15/6/1 14/6/1 13/6/1
f 16/6/1 14/6/1 15/6/1
f 19/5/1 18/5/1 17/5/1
f 20/5/1 18/5/1 19/5/1
f 23/5/1 22/5/1 21/5/1
f 24/5/1 22/5/1 23/5/1
f 27/5/1 26/5/1 25/5/1
f 28/5/1 26/5/1 27/5/1
f 31/5/1 30/5/1 29/5/1
f 32/5/1 30/5/1 31/5/1
f 33/5/2 34/5/2 35/5/2
f 35/5/2 34/5/2 36/5/2
f 37/5/2 38/5/2 39/5/2
f 39/5/2 38/5/2 40/5/2
f 41/5/2 42/5/2 43/5/2
f 43/5/2 42/5/2 44/5/2
f 45/5/2 46/5/2 47/5/2
f 47/5/2 46/5/2 48/5/2
f 49/6/2 50/6/2 51/6/2
f 51/6/2 50/6/2 52/6/2
f 51/5/2 52/5/2 53/5/2
f 53/5/2 52/5/2 54/5/2
f 53/6/2 54/6/2 55/6/2
f 55/6/2 54/6/2 56/6/2
f 57/6/2 58/6/2 59/6/2
f 59/6/2 58/6/2 60/6/2
f 59/5/2 60/5/2 61/5/2
f 61/5/2 60/5/2 62/5/2
f 61/6/2 62/6/2 63/6/2
f 63/6/2 62/6/2 64/6/2
f 69/6/3 66/6/3 65/6/3
f 70/5/3 67/5/3 66/5/3
f 70/6/3 66/6/3 69/6/3
f 71/5/3 67/5/3 70/5/3
f 72/6/3 68/6/3 67/6/3
f 72/5/3 67/5/3 71/5/3
f 73/6/3 68/6/3 72/6/3
f 74/11/3 71/11/3 70/11/3
f 74/5/3 70/5/3 69/5/3
f 75/11/3 71/11/3 74/11/3
f 76/11/3 71/11/3 75/11/3
f 77/11/3 71/11/3 76/11/3
f 78/1/3 72/1/3 71/1/3
f 78/11/3 71/11/3 77/11/3
f 79/1/3 72/1/3 78/1/3
f 80/5/3 74/5/3 69/5/3
f 80/9/3 75/9/3 74/9/3
f 81/11/3 76/11/3 75/11/3
f 81/9/3 75/9/3 80/9/3
f 82/10/3 77/10/3 76/10/3
f 82/11/3 76/11/3 81/11/3
f 83/8/3 78/8/3 77/8/3
f 83/10/3 77/10/3 82/10/3
f 84/11/3 81/11/3 80/11/3
f 84/5/3 80/5/3 69/5/3
f 84/11/3 82/11/3 81/11/3
f 85/11/3 82/11/3 84/11/3
f 86/3/3 83/3/3 82/3/3
f 86/11/3 82/11/3 85/11/3
f 87/8/3 78/8/3 83/8/3
f 87/3/3 83/3/3 86/3/3
f 88/9/3 79/9/3 78/9/3
f 88/8/3 78/8/3 87/8/3
f 89/1/3 72/1/3 79/1/3
f 89/9/3 79/9/3 88/9/3
f 90/1/3 72/1/3 89/1/3
f 91/9/3 85/9/3 84/9/3
f 91/5/3 84/5/3 69/5/3
f 92/11/3 86/11/3 85/11/3
f 92/9/3 85/9/3 91/9/3
f 92/11/3 88/11/3 87/11/3
f 92/11/3 87/11/3 86/11/3
f 93/11/3 88/11/3 92/11/3
f 94/9/3 89/9/3 88/9/3
f 94/11/3 88/11/3 93/11/3
f 95/9/3 89/9/3 94/9/3
f 96/2/3 90/2/3 89/2/3
f 96/9/3 89/9/3 95/9/3
f 97/5/3 91/5/3 69/5/3
f 97/11/3 93/11/3 92/11/3
f 97/11/3 92/11/3 91/11/3
f 98/11/3 93/11/3 97/11/3
f 99/11/3 93/11/3 98/11/3
f 100/3/3 94/3/3 93/3/3
f 100/11/3 93/11/3 99/11/3
f 101/2/3 95/2/3 94/2/3
f 101/3/3 94/3/3 100/3/3
f 102/2/3 99/2/3 98/2/3
f 102/1/3 98/1/3 97/1/3
f 103/7/3 100/7/3 99/7/3
f 103/2/3 99/2/3 102/2/3
f 104/4/3 101/4/3 100/4/3
f 104/7/3 100/7/3 103/7/3
f 105/2/3 95/2/3 101/2/3
f 105/4/3 101/4/3 104/4/3
f 106/3/3 96/3/3 95/3/3
f 106/2/3 95/2/3 105/2/3
f 107/2/3 90/2/3 96/2/3
f 107/3/3 96/3/3 106/3/3
f 108/1/3 72/1/3 90/1/3
f 108/2/3 90/2/3 107/2/3
f 109/1/3 102/1/3 97/1/3
f 109/7/3 103/7/3 102/7/3
f 110/4/3 104/4/3 103/4/3
f 110/7/3 103/7/3 109/7/3
f 111/3/3 106/3/3 105/3/3
f 111/4/3 104/4/3 110/4/3
f 111/3/3 105/3/3 104/3/3
f 111/3/3 108/3/3 107/3/3
f 111/3/3 107/3/3 106/3/3
f 112/3/3 108/3/3 111/3/3
f 113/3/3 108/3/3 112/3/3
f 114/3/3 108/3/3 113/3/3
f 115/1/3 72/1/3 108/1/3
f 115/3/3 108/3/3 114/3/3
f 116/2/3 110/2/3 109/2/3
f 116/7/3 111/7/3 110/7/3
f 117/4/3 112/4/3 111/4/3
f 117/7/3 111/7/3 116/7/3
f 118/2/3 113/2/3 112/2/3
f 118/4/3 112/4/3 117/4/3
f 119/2/3 113/2/3 118/2/3
f 120/2/3 117/2/3 116/2/3
f 120/7/3 118/7/3 117/7/3
f 121/4/3 119/4/3 118/4/3
f 121/7/3 118/7/3 120/7/3
f 122/2/3 113/2/3 119/2/3
f 122/4/3 119/4/3 121/4/3
f 123/3/3 114/3/3 113/3/3
f 123/2/3 113/2/3 122/2/3
f 124/1/3 109/1/3 97/1/3
f 124/2/3 116/2/3 109/2/3
f 124/2/3 120/2/3 116/2/3
f 125/3/3 121/3/3 120/3/3
f 125/2/3 120/2/3 124/2/3
f 126/7/3 122/7/3 121/7/3
f 126/3/3 121/3/3 125/3/3
f 127/4/3 123/4/3 122/4/3
f 127/7/3 122/7/3 126/7/3
f 128/3/3 114/3/3 123/3/3
f 128/4/3 123/4/3 127/4/3
f 129/2/3 115/2/3 114/2/3
f 129/3/3 114/3/3 128/3/3
f 130/1/3 72/1/3 115/1/3
f 130/2/3 115/2/3 129/2/3
f 131/3/3 125/3/3 124/3/3
f 131/1/3 124/1/3 97/1/3
f 132/3/3 125/3/3 131/3/3
f 133/7/3 126/7/3 125/7/3
f 133/3/3 125/3/3 132/3/3
f 134/4/3 127/4/3 126/4/3
f 134/7/3 126/7/3 133/7/3
f 135/3/3 129/3/3 128/3/3
f 135/4/3 127/4/3 134/4/3
f 135/3/3 128/3/3 127/3/3
f 135/3/3 130/3/3 129/3/3
f 136/3/3 130/3/3 135/3/3
f 137/3/3 130/3/3 136/3/3
f 138/1/3 72/1/3 130/1/3
f 138/3/3 130/3/3 137/3/3
f 139/7/3 133/7/3 132/7/3
f 139/2/3 132/2/3 131/2/3
f 140/4/3 134/4/3 133/4/3
f 140/7/3 133/7/3 139/7/3
f 141/2/3 135/2/3 134/2/3
f 141/4/3 134/4/3 140/4/3
f 141/2/3 136/2/3 135/2/3
f 142/2/3 136/2/3 141/2/3
f 143/2/3 140/2/3 139/2/3
f 143/7/3 141/7/3 140/7/3
f 144/4/3 142/4/3 141/4/3
f 144/7/3 141/7/3 143/7/3
f 145/2/3 136/2/3 142/2/3
f 145/4/3 142/4/3 144/4/3
f 146/3/3 137/3/3 136/3/3
f 146/2/3 136/2/3 145/2/3
f 147/2/3 139/2/3 131/2/3
f 147/1/3 131/1/3 97/1/3
f 147/2/3 143/2/3 139/2/3
f 148/3/3 144/3/3 143/3/3
f 148/2/3 143/2/3 147/2/3
f 149/7/3 145/7/3 144/7/3
f 149/3/3 144/3/3 148/3/3
f 150/4/3 146/4/3 145/4/3
f 150/7/3 145/7/3 149/7/3
f 151/3/3 137/3/3 146/3/3
f 151/4/3 146/4/3 150/4/3
f 152/2/3 138/2/3 137/2/3
f 152/3/3 137/3/3 151/3/3
f 153/1/3 72/1/3 138/1/3
f 153/2/3 138/2/3 152/2/3
f 154/3/3 150/3/3 149/3/3
f 154/3/3 148/3/3 147/3/3
f 154/3/3 149/3/3 148/3/3
f 154/1/3 147/1/3 97/1/3
f 155/3/3 150/3/3 154/3/3
f 156/3/3 150/3/3 155/3/3
f 157/7/3 151/7/3 150/7/3
f 157/3/3 150/3/3 156/3/3
f 158/4/3 152/4/3 151/4/3
f 158/7/3 151/7/3 157/7/3
f 159/3/3 153/3/3 152/3/3
f 159/4/3 152/4/3 158/4/3
f 160/1/3 72/1/3 153/1/3
f 160/3/3 153/3/3 159/3/3
f 161/7/3 159/7/3 158/7/3
f 161/2/3 158/2/3 157/2/3
f 161/2/3 157/2/3 156/2/3
f 162/4/3 160/4/3 159/4/3
f 162/7/3 159/7/3 161/7/3
f 163/1/3 72/1/3 160/1/3
f 163/4/3 160/4/3 162/4/3
f 164/2/3 155/2/3 154/2/3
f 164/1/3 154/1/3 97/1/3
f 165/3/3 156/3/3 155/3/3
f 165/2/3 155/2/3 164/2/3
f 166/2/3 161/2/3 156/2/3
f 166/3/3 156/3/3 165/3/3
f 167/3/3 162/3/3 161/3/3
f 167/2/3 161/2/3 166/2/3
f 168/2/3 163/2/3 162/2/3
f 168/3/3 162/3/3 167/3/3
f 169/1/3 72/1/3 163/1/3
f 169/2/3 163/2/3 168/2/3
f 170/5/3 97/5/3 69/5/3
f 171/1/3 166/1/3 165/1/3
f 171/5/3 97/5/3 170/5/3
f 171/1/3 165/1/3 164/1/3
f 171/1/3 169/1/3 168/1/3
f 171/1/3 167/1/3 166/1/3
f 171/1/3 164/1/3 97/1/3
f 171/1/3 168/1/3 167/1/3
f 172/5/3 73/5/3 72/5/3
f 172/1/3 169/1/3 171/1/3
f 172/1/3 72/1/3 169/1/3
f 173/5/3 73/5/3 172/5/3
f 174/6/3 171/6/3 170/6/3
f 175/5/3 172/5/3 171/5/3
f 175/6/3 171/6/3 174/6/3
f 176/6/3 173/6/3 172/6/3
f 176/5/3 172/5/3 175/5/3
f 177/6/3 173/6/3 176/6/3
f 178/6/4 179/6/4 182/6/4
f 179/5/4 180/5/4 183/5/4
f 182/6/4 179/6/4 183/6/4
f 183/5/4 180/5/4 184/5/4
f 184/5/4 180/5/4 185/5/4
f 180/6/4 181/6/4 186/6/4
f 185/5/4 180/5/4 186/5/4
f 186/6/4 181/6/4 187/6/4
f 182/5/4 183/5/4 188/5/4
f 186/5/4 187/5/4 189/5/4
f 182/5/4 188/5/4 190/5/4
f 189/5/4 187/5/4 191/5/4
f 182/5/4 190/5/4 192/5/4
f 192/5/4 190/5/4 193/5/4
f 191/5/4 187/5/4 196/5/4
f 196/5/4 187/5/4 197/5/4
f 192/6/4 193/6/4 198/6/4
f 194/5/4 195/5/4 199/5/4
f 198/6/4 193/6/4 199/6/4
f 193/5/4 194/5/4 199/5/4
f 195/5/4 196/5/4 199/5/4
f 196/6/4 197/6/4 200/6/4
f 199/5/4 196/5/4 200/5/4
f 200/6/4 197/6/4 201/6/4
f 202/6/4 203/6/4 206/6/4
f 203/5/4 204/5/4 207/5/4
f 206/6/4 203/6/4 207/6/4
f 204/6/4 205/6/4 208/6/4
f 207/5/4 204/5/4 208/5/4
f 208/6/4 205/6/4 209/6/4
f 206/5/4 207/5/4 210/5/4
f 207/5/4 208/5/4 210/5/4
f 208/5/4 209/5/4 210/5/4
f 210/5/4 209/5/4 211/5/4
f 206/5/4 210/5/4 212/5/4
f 212/5/4 210/5/4 213/5/4
f 211/5/4 209/5/4 214/5/4
f 214/5/4 209/5/4 215/5/4
f 206/5/4 212/5/4 216/5/4
f 213/5/4 214/5/4 217/5/4
f 217/5/4 214/5/4 218/5/4
f 215/5/4 209/5/4 219/5/4
f 216/5/4 217/5/4 220/5/4
f 218/5/4 219/5/4 221/5/4
f 216/5/4 220/5/4 222/5/4
f 220/5/4 221/5/4 222/5/4
f 206/5/4 216/5/4 222/5/4
f 222/5/4 221/5/4 223/5/4
f 221/5/4 219/5/4 224/5/4
f 223/5/4 221/5/4 224/5/4
f 219/5/4 209/5/4 224/5/4
f 224/5/4 209/5/4 225/5/4
f 222/6/4 223/6/4 226/6/4
f 223/5/4 224/5/4 227/5/4
f 226/6/4 223/6/4 227/6/4
f 224/6/4 225/6/4 228/6/4
f 227/5/4 224/5/4 228/5/4
f 228/6/4 225/6/4 229/6/4
f 230/5/4 231/5/4 233/5/4
f 233/5/4 231/5/4 234/5/4
f 232/5/4 233/5/4 236/5/4
f 236/5/4 233/5/4 237/5/4
f 234/5/4 235/5/4 238/5/4
f 238/5/4 235/5/4 239/5/4
f 237/5/4 238/5/4 240/5/4
f 240/5/4 238/5/4 241/5/4
f 246/6/5 243/6/5 242/6/5
f 247/5/5 244/5/5 243/5/5
f 247/6/5 243/6/5 246/6/5
f 248/6/5 245/6/5 244/6/5
f 248/5/5 244/5/5 247/5/5
f 249/6/5 245/6/5 248/6/5
f 254/6/5 251/6/5 250/6/5
f 255/5/5 252/5/5 251/5/5
f 255/6/5 251/6/5 254/6/5
f 256/6/5 253/6/5 252/6/5
f 256/5/5 252/5/5 255/5/5
f 257/6/5 253/6/5 256/6/5
f 260/5/5 259/5/5 258/5/5
f 261/5/5 259/5/5 260/5/5
f 266/5/5 263/5/5 262/5/5
f 267/5/5 263/5/5 266/5/5
f 268/5/5 265/5/5 264/5/5
f 269/5/5 265/5/5 268/5/5
f 272/5/5 271/5/5 270/5/5
f 273/5/5 271/5/5 272/5/5
f 274/5/6 275/5/6 276/5/6
f 276/5/6 275/5/6 277/5/6
f 278/5/6 279/5/6 282/5/6
f 282/5/6 279/5/6 283/5/6
f 280/5/6 281/5/6 284/5/6
f 284/5/6 281/5/6 285/5/6
f 286/5/6 287/5/6 288/5/6
f 288/5/6 287/5/6 289/5/6
f 290/6/6 291/6/6 294/6/6
f 291/5/6 292/5/6 295/5/6
f 294/6/6 291/6/6 295/6/6
f 292/6/6 293/6/6 296/6/6
f 295/5/6 292/5/6 296/5/6
f 296/6/6 293/6/6 297/6/6
f 298/6/6 299/6/6 302/6/6
f 299/5/6 300/5/6 303/5/6
f 302/6/6 299/6/6 303/6/6
f 300/6/6 301/6/6 304/6/6
f 303/5/6 300/5/6 304/5/6
f 304/6/6 301/6/6 305/6/6
