# MagicaVoxel @ Ephtracy

# group
o 

# material
mtllib Office_Misc_Console_Woo_01.mtl
usemtl palette

# normals
vn -1 0 0
vn 1 0 0
vn 0 0 1
vn 0 0 -1
vn 0 -1 0
vn 0 1 0

# texcoords
vt 0.892578 0.5
vt 0.896484 0.5
vt 0.927734 0.5

# verts
v -0.4 0 0.3
v -0.4 0 -0.5
v -0.4 0.2 0.3
v -0.4 0.2 -0.5
v -0.3 0.2 0.3
v -0.3 0.2 0.2
v -0.3 0.2 -0.4
v -0.3 0.5 0.3
v -0.3 0.5 0.2
v -0.3 0.6 0.3
v -0.3 0.6 0.2
v -0.3 0.7 0.3
v -0.3 0.7 0.2
v -0.3 0.8 0.3
v -0.3 0.8 -0.4
v 0.1 0 0.5
v 0.1 0 0.3
v 0.1 0 0.2
v 0.1 0 -0.2
v 0.1 0.1 0.5
v 0.1 0.1 0.3
v 0.1 0.1 0.2
v 0.1 0.1 -0.2
v 0.3 0 0.6
v 0.3 0 0.4
v 0.3 0 0.3
v 0.3 0 -0.1
v 0.3 0.1 0.6
v 0.3 0.1 0.4
v 0.3 0.1 0.3
v 0.3 0.1 -0.1
v -0.1 0.2 0.3
v -0.1 0.2 -0.4
v -0.1 0.8 0.3
v -0.1 0.8 -0.4
v 0 0 0.3
v 0 0 -0.5
v 0 0.2 0.3
v 0 0.2 -0.5
v 0.2 0 0.5
v 0.2 0 0.3
v 0.2 0 0.2
v 0.2 0 -0.2
v 0.2 0.1 0.5
v 0.2 0.1 0.3
v 0.2 0.1 0.2
v 0.2 0.1 -0.2
v 0.4 0 0.6
v 0.4 0 0.4
v 0.4 0 0.3
v 0.4 0 -0.1
v 0.4 0.1 0.6
v 0.4 0.1 0.4
v 0.4 0.1 0.3
v 0.4 0.1 -0.1
v 0.3 0 0.6
v 0.3 0.1 0.6
v 0.4 0 0.6
v 0.4 0.1 0.6
v 0.1 0 0.5
v 0.1 0.1 0.5
v 0.2 0 0.5
v 0.2 0.1 0.5
v -0.4 0 0.3
v -0.4 0.2 0.3
v -0.3 0.1 0.3
v -0.3 0.2 0.3
v -0.3 0.5 0.3
v -0.3 0.6 0.3
v -0.3 0.7 0.3
v -0.3 0.8 0.3
v -0.2 0.2 0.3
v -0.2 0.5 0.3
v -0.2 0.6 0.3
v -0.2 0.7 0.3
v -0.1 0.1 0.3
v -0.1 0.2 0.3
v -0.1 0.8 0.3
v 0 0 0.3
v 0 0.2 0.3
v 0.3 0 -0.1
v 0.3 0.1 -0.1
v 0.4 0 -0.1
v 0.4 0.1 -0.1
v 0.1 0 -0.2
v 0.1 0.1 -0.2
v 0.2 0 -0.2
v 0.2 0.1 -0.2
v -0.3 0.2 -0.4
v -0.3 0.8 -0.4
v -0.1 0.2 -0.4
v -0.1 0.8 -0.4
v -0.4 0 -0.5
v -0.4 0.2 -0.5
v 0 0 -0.5
v 0 0.2 -0.5
v 0.3 0 0.6
v 0.4 0 0.6
v 0.1 0 0.5
v 0.2 0 0.5
v 0.3 0 0.4
v 0.4 0 0.4
v -0.4 0 0.3
v 0 0 0.3
v 0.1 0 0.3
v 0.2 0 0.3
v 0.3 0 0.3
v 0.4 0 0.3
v 0.1 0 0.2
v 0.2 0 0.2
v 0.3 0 -0.1
v 0.4 0 -0.1
v 0.1 0 -0.2
v 0.2 0 -0.2
v -0.4 0 -0.5
v 0 0 -0.5
v 0.3 0.1 0.6
v 0.4 0.1 0.6
v 0.1 0.1 0.5
v 0.2 0.1 0.5
v 0.3 0.1 0.4
v 0.4 0.1 0.4
v 0.1 0.1 0.3
v 0.2 0.1 0.3
v 0.3 0.1 0.3
v 0.4 0.1 0.3
v 0.1 0.1 0.2
v 0.2 0.1 0.2
v 0.3 0.1 -0.1
v 0.4 0.1 -0.1
v 0.1 0.1 -0.2
v 0.2 0.1 -0.2
v -0.4 0.2 0.3
v -0.3 0.2 0.3
v -0.1 0.2 0.3
v 0 0.2 0.3
v -0.3 0.2 0.2
v -0.3 0.2 -0.4
v -0.1 0.2 -0.4
v -0.4 0.2 -0.5
v 0 0.2 -0.5
v -0.3 0.8 0.3
v -0.1 0.8 0.3
v -0.3 0.8 -0.4
v -0.1 0.8 -0.4

# faces
f 3/3/1 2/3/1 1/3/1
f 4/3/1 2/3/1 3/3/1
f 8/1/1 6/1/1 5/1/1
f 9/2/1 7/2/1 6/2/1
f 9/1/1 6/1/1 8/1/1
f 10/2/1 9/2/1 8/2/1
f 11/2/1 7/2/1 9/2/1
f 11/2/1 9/2/1 10/2/1
f 12/1/1 11/1/1 10/1/1
f 13/2/1 7/2/1 11/2/1
f 13/1/1 11/1/1 12/1/1
f 14/2/1 13/2/1 12/2/1
f 15/2/1 7/2/1 13/2/1
f 15/2/1 13/2/1 14/2/1
f 20/1/1 17/1/1 16/1/1
f 21/3/1 18/3/1 17/3/1
f 21/1/1 17/1/1 20/1/1
f 22/2/1 19/2/1 18/2/1
f 22/3/1 18/3/1 21/3/1
f 23/2/1 19/2/1 22/2/1
f 28/1/1 25/1/1 24/1/1
f 29/3/1 26/3/1 25/3/1
f 29/1/1 25/1/1 28/1/1
f 30/2/1 27/2/1 26/2/1
f 30/3/1 26/3/1 29/3/1
f 31/2/1 27/2/1 30/2/1
f 32/2/2 33/2/2 34/2/2
f 34/2/2 33/2/2 35/2/2
f 36/3/2 37/3/2 38/3/2
f 38/3/2 37/3/2 39/3/2
f 40/1/2 41/1/2 44/1/2
f 41/3/2 42/3/2 45/3/2
f 44/1/2 41/1/2 45/1/2
f 42/2/2 43/2/2 46/2/2
f 45/3/2 42/3/2 46/3/2
f 46/2/2 43/2/2 47/2/2
f 48/1/2 49/1/2 52/1/2
f 49/3/2 50/3/2 53/3/2
f 52/1/2 49/1/2 53/1/2
f 50/2/2 51/2/2 54/2/2
f 53/3/2 50/3/2 54/3/2
f 54/2/2 51/2/2 55/2/2
f 58/1/3 57/1/3 56/1/3
f 59/1/3 57/1/3 58/1/3
f 62/1/3 61/1/3 60/1/3
f 63/1/3 61/1/3 62/1/3
f 66/3/3 65/3/3 64/3/3
f 67/3/3 65/3/3 66/3/3
f 72/2/3 67/2/3 66/2/3
f 72/1/3 68/1/3 67/1/3
f 73/2/3 69/2/3 68/2/3
f 73/1/3 68/1/3 72/1/3
f 74/1/3 70/1/3 69/1/3
f 74/2/3 69/2/3 73/2/3
f 75/2/3 71/2/3 70/2/3
f 75/1/3 70/1/3 74/1/3
f 76/3/3 66/3/3 64/3/3
f 76/2/3 74/2/3 73/2/3
f 76/2/3 75/2/3 74/2/3
f 76/2/3 72/2/3 66/2/3
f 76/2/3 73/2/3 72/2/3
f 77/2/3 75/2/3 76/2/3
f 78/2/3 71/2/3 75/2/3
f 78/2/3 75/2/3 77/2/3
f 79/3/3 77/3/3 76/3/3
f 79/3/3 76/3/3 64/3/3
f 80/3/3 77/3/3 79/3/3
f 81/2/4 82/2/4 83/2/4
f 83/2/4 82/2/4 84/2/4
f 85/2/4 86/2/4 87/2/4
f 87/2/4 86/2/4 88/2/4
f 89/2/4 90/2/4 91/2/4
f 91/2/4 90/2/4 92/2/4
f 93/3/4 94/3/4 95/3/4
f 95/3/4 94/3/4 96/3/4
f 101/1/5 98/1/5 97/1/5
f 102/1/5 98/1/5 101/1/5
f 105/1/5 100/1/5 99/1/5
f 106/1/5 100/1/5 105/1/5
f 107/3/5 102/3/5 101/3/5
f 108/3/5 102/3/5 107/3/5
f 109/3/5 106/3/5 105/3/5
f 110/3/5 106/3/5 109/3/5
f 111/2/5 108/2/5 107/2/5
f 112/2/5 108/2/5 111/2/5
f 113/2/5 110/2/5 109/2/5
f 114/2/5 110/2/5 113/2/5
f 115/3/5 104/3/5 103/3/5
f 116/3/5 104/3/5 115/3/5
f 117/1/6 118/1/6 121/1/6
f 121/1/6 118/1/6 122/1/6
f 119/1/6 120/1/6 123/1/6
f 123/1/6 120/1/6 124/1/6
f 121/3/6 122/3/6 125/3/6
f 125/3/6 122/3/6 126/3/6
f 123/3/6 124/3/6 127/3/6
f 127/3/6 124/3/6 128/3/6
f 125/2/6 126/2/6 129/2/6
f 129/2/6 126/2/6 130/2/6
f 127/2/6 128/2/6 131/2/6
f 131/2/6 128/2/6 132/2/6
f 133/3/6 134/3/6 137/3/6
f 133/3/6 137/3/6 138/3/6
f 135/3/6 136/3/6 139/3/6
f 133/3/6 138/3/6 140/3/6
f 138/3/6 139/3/6 140/3/6
f 139/3/6 136/3/6 141/3/6
f 140/3/6 139/3/6 141/3/6
f 142/2/6 143/2/6 144/2/6
f 144/2/6 143/2/6 145/2/6
