# MagicaVoxel @ Ephtracy

# group
o 

# material
mtllib Office_Misc_Console_Swotch_04.mtl
usemtl palette

# normals
vn -1 0 0
vn 1 0 0
vn 0 0 1
vn 0 0 -1
vn 0 -1 0
vn 0 1 0

# texcoords
vt 0.763672 0.5
vt 0.775391 0.5
vt 0.931641 0.5

# verts
v -0.4 0 0.2
v -0.4 0 -0.1
v -0.4 0.1 0.1
v -0.4 0.1 0
v -0.4 0.5 0.2
v -0.4 0.5 0.1
v -0.4 0.5 0
v -0.4 0.5 -0.1
v -0.4 0.7 0.1
v -0.4 0.7 0
v 0.3 0 0.2
v 0.3 0 -0.1
v 0.3 0.1 0.1
v 0.3 0.1 0
v 0.3 0.5 0.2
v 0.3 0.5 0.1
v 0.3 0.5 0
v 0.3 0.5 -0.1
v 0.3 0.7 0.1
v 0.3 0.7 0
v -0.4 0 0.2
v -0.4 0.5 0.2
v -0.2 0.1 0.2
v -0.2 0.3 0.2
v -0.2 0.4 0.2
v -0.1 0.1 0.2
v -0.1 0.3 0.2
v -0.1 0.4 0.2
v 0 0.1 0.2
v 0 0.2 0.2
v 0 0.4 0.2
v 0.1 0.1 0.2
v 0.1 0.2 0.2
v 0.1 0.4 0.2
v 0.3 0 0.2
v 0.3 0.5 0.2
v -0.4 0.5 0.1
v -0.4 0.7 0.1
v -0.3 0.5 0.1
v -0.3 0.6 0.1
v 0.2 0.5 0.1
v 0.2 0.6 0.1
v 0.3 0.5 0.1
v 0.3 0.7 0.1
v -0.4 0.5 0
v -0.4 0.7 0
v -0.3 0.5 0
v -0.3 0.6 0
v 0.2 0.5 0
v 0.2 0.6 0
v 0.3 0.5 0
v 0.3 0.7 0
v -0.4 0 -0.1
v -0.4 0.5 -0.1
v 0.3 0 -0.1
v 0.3 0.5 -0.1
v -0.4 0 0.2
v 0.3 0 0.2
v -0.4 0 -0.1
v 0.3 0 -0.1
v -0.4 0.5 0.2
v 0.3 0.5 0.2
v -0.4 0.5 0.1
v -0.3 0.5 0.1
v 0.2 0.5 0.1
v 0.3 0.5 0.1
v -0.4 0.5 0
v -0.3 0.5 0
v 0.2 0.5 0
v 0.3 0.5 0
v -0.4 0.5 -0.1
v 0.3 0.5 -0.1
v -0.4 0.7 0.1
v 0.3 0.7 0.1
v -0.4 0.7 0
v 0.3 0.7 0

# faces
f 3/3/1 2/3/1 1/3/1
f 4/3/1 2/3/1 3/3/1
f 5/3/1 3/3/1 1/3/1
f 6/2/1 4/2/1 3/2/1
f 6/3/1 3/3/1 5/3/1
f 7/3/1 2/3/1 4/3/1
f 7/2/1 4/2/1 6/2/1
f 8/3/1 2/3/1 7/3/1
f 9/2/1 7/2/1 6/2/1
f 10/2/1 7/2/1 9/2/1
f 11/3/2 12/3/2 13/3/2
f 13/3/2 12/3/2 14/3/2
f 11/3/2 13/3/2 15/3/2
f 13/2/2 14/2/2 16/2/2
f 15/3/2 13/3/2 16/3/2
f 14/3/2 12/3/2 17/3/2
f 16/2/2 14/2/2 17/2/2
f 17/3/2 12/3/2 18/3/2
f 16/2/2 17/2/2 19/2/2
f 19/2/2 17/2/2 20/2/2
f 23/3/3 22/3/3 21/3/3
f 24/3/3 22/3/3 23/3/3
f 25/3/3 22/3/3 24/3/3
f 26/3/3 23/3/3 21/3/3
f 26/2/3 24/2/3 23/2/3
f 27/1/3 25/1/3 24/1/3
f 27/2/3 24/2/3 26/2/3
f 28/3/3 22/3/3 25/3/3
f 28/1/3 25/1/3 27/1/3
f 29/3/3 27/3/3 26/3/3
f 29/3/3 26/3/3 21/3/3
f 29/3/3 28/3/3 27/3/3
f 30/3/3 28/3/3 29/3/3
f 31/3/3 22/3/3 28/3/3
f 31/3/3 28/3/3 30/3/3
f 32/1/3 30/1/3 29/1/3
f 32/3/3 29/3/3 21/3/3
f 33/2/3 31/2/3 30/2/3
f 33/1/3 30/1/3 32/1/3
f 34/3/3 22/3/3 31/3/3
f 34/2/3 31/2/3 33/2/3
f 35/3/3 33/3/3 32/3/3
f 35/3/3 32/3/3 21/3/3
f 35/3/3 34/3/3 33/3/3
f 36/3/3 22/3/3 34/3/3
f 36/3/3 34/3/3 35/3/3
f 39/2/3 38/2/3 37/2/3
f 40/2/3 38/2/3 39/2/3
f 41/1/3 40/1/3 39/1/3
f 42/2/3 38/2/3 40/2/3
f 42/1/3 40/1/3 41/1/3
f 43/2/3 42/2/3 41/2/3
f 44/2/3 38/2/3 42/2/3
f 44/2/3 42/2/3 43/2/3
f 45/2/4 46/2/4 47/2/4
f 47/2/4 46/2/4 48/2/4
f 47/1/4 48/1/4 49/1/4
f 48/2/4 46/2/4 50/2/4
f 49/1/4 48/1/4 50/1/4
f 49/2/4 50/2/4 51/2/4
f 50/2/4 46/2/4 52/2/4
f 51/2/4 50/2/4 52/2/4
f 53/3/4 54/3/4 55/3/4
f 55/3/4 54/3/4 56/3/4
f 59/3/5 58/3/5 57/3/5
f 60/3/5 58/3/5 59/3/5
f 61/3/6 62/3/6 63/3/6
f 63/3/6 62/3/6 64/3/6
f 64/3/6 62/3/6 65/3/6
f 65/3/6 62/3/6 66/3/6
f 67/3/6 68/3/6 71/3/6
f 69/3/6 70/3/6 71/3/6
f 68/3/6 69/3/6 71/3/6
f 71/3/6 70/3/6 72/3/6
f 73/2/6 74/2/6 75/2/6
f 75/2/6 74/2/6 76/2/6
