# MagicaVoxel @ Ephtracy

# group
o 

# material
mtllib Office_Misc_TV_Wall_03.mtl
usemtl palette

# normals
vn -1 0 0
vn 1 0 0
vn 0 0 1
vn 0 0 -1
vn 0 -1 0
vn 0 1 0

# texcoords
vt 0.658203 0.5
vt 0.740234 0.5
vt 0.771484 0.5
vt 0.775391 0.5
vt 0.783203 0.5
vt 0.787109 0.5
vt 0.794922 0.5
vt 0.810547 0.5
vt 0.822266 0.5
vt 0.826172 0.5

# verts
v -1.1 0.2 -0.5
v -1.1 0.2 -0.6
v -1.1 0.3 -0.5
v -1.1 0.3 -0.6
v -1.1 1.3 -0.5
v -1.1 1.3 -0.6
v -1.1 1.4 -0.5
v -1.1 1.4 -0.6
v -1 0.3 -0.6
v -1 0.3 -0.7
v -1 0.4 -0.6
v -1 0.4 -0.7
v -1 1.2 -0.6
v -1 1.2 -0.7
v -1 1.3 -0.6
v -1 1.3 -0.7
v -0.2 0.6 -0.7
v -0.2 0.6 -0.8
v -0.2 1 -0.7
v -0.2 1 -0.8
v -0.1 0.5 -0.7
v -0.1 0.5 -0.8
v -0.1 0.6 -0.7
v -0.1 0.6 -0.8
v -0.1 1 -0.7
v -0.1 1 -0.8
v -0.1 1.1 -0.7
v -0.1 1.1 -0.8
v 0.1 0.6 -0.7
v 0.1 0.6 -0.8
v 0.1 1 -0.7
v 0.1 1 -0.8
v -0.1 0.6 -0.7
v -0.1 0.6 -0.8
v -0.1 1 -0.7
v -0.1 1 -0.8
v 0.1 0.5 -0.7
v 0.1 0.5 -0.8
v 0.1 0.6 -0.7
v 0.1 0.6 -0.8
v 0.1 1 -0.7
v 0.1 1 -0.8
v 0.1 1.1 -0.7
v 0.1 1.1 -0.8
v 0.2 0.6 -0.7
v 0.2 0.6 -0.8
v 0.2 1 -0.7
v 0.2 1 -0.8
v 1 0.3 -0.6
v 1 0.3 -0.7
v 1 0.4 -0.6
v 1 0.4 -0.7
v 1 1.2 -0.6
v 1 1.2 -0.7
v 1 1.3 -0.6
v 1 1.3 -0.7
v 1.1 0.2 -0.5
v 1.1 0.2 -0.6
v 1.1 0.3 -0.5
v 1.1 0.3 -0.6
v 1.1 1.3 -0.5
v 1.1 1.3 -0.6
v 1.1 1.4 -0.5
v 1.1 1.4 -0.6
v -1.1 0.2 -0.5
v -1.1 0.3 -0.5
v -1.1 1.3 -0.5
v -1.1 1.4 -0.5
v -1 0.2 -0.5
v -1 0.3 -0.5
v -1 0.4 -0.5
v -1 0.5 -0.5
v -1 0.7 -0.5
v -1 1.3 -0.5
v -1 1.4 -0.5
v -0.9 0.5 -0.5
v -0.9 0.7 -0.5
v -0.9 0.9 -0.5
v -0.9 1 -0.5
v -0.8 1 -0.5
v -0.8 1.1 -0.5
v -0.7 0.6 -0.5
v -0.7 0.7 -0.5
v -0.6 0.3 -0.5
v -0.6 0.4 -0.5
v -0.6 0.5 -0.5
v -0.6 0.6 -0.5
v -0.6 0.7 -0.5
v -0.6 1 -0.5
v -0.6 1.1 -0.5
v -0.5 0.3 -0.5
v -0.5 0.5 -0.5
v -0.5 0.6 -0.5
v -0.5 0.9 -0.5
v -0.5 1 -0.5
v -0.4 0.8 -0.5
v -0.4 0.9 -0.5
v -0.3 0.8 -0.5
v -0.3 0.9 -0.5
v -0.2 0.8 -0.5
v -0.2 0.9 -0.5
v -0.1 0.3 -0.5
v -0.1 0.5 -0.5
v -0.1 0.6 -0.5
v -0.1 1.1 -0.5
v -0.1 1.2 -0.5
v 0 0.7 -0.5
v 0 0.8 -0.5
v 0.2 0.7 -0.5
v 0.2 0.8 -0.5
v 0.2 1.1 -0.5
v 0.2 1.2 -0.5
v 0.3 0.9 -0.5
v 0.3 1 -0.5
v 0.5 0.9 -0.5
v 0.5 1 -0.5
v 0.7 0.3 -0.5
v 0.7 0.7 -0.5
v 0.7 0.8 -0.5
v 0.8 0.8 -0.5
v 0.8 0.9 -0.5
v 0.9 0.8 -0.5
v 0.9 0.9 -0.5
v 1 0.2 -0.5
v 1 0.3 -0.5
v 1 0.7 -0.5
v 1 0.8 -0.5
v 1 1.3 -0.5
v 1 1.4 -0.5
v 1.1 0.2 -0.5
v 1.1 0.3 -0.5
v 1.1 1.3 -0.5
v 1.1 1.4 -0.5
v -1.1 0.2 -0.6
v -1.1 0.3 -0.6
v -1.1 1.3 -0.6
v -1.1 1.4 -0.6
v -1 0.2 -0.6
v -1 0.3 -0.6
v -1 0.4 -0.6
v -1 1.2 -0.6
v -1 1.3 -0.6
v -1 1.4 -0.6
v -0.9 0.3 -0.6
v -0.9 1.3 -0.6
v 0.9 0.3 -0.6
v 0.9 1.3 -0.6
v 1 0.2 -0.6
v 1 0.3 -0.6
v 1 0.4 -0.6
v 1 1.2 -0.6
v 1 1.3 -0.6
v 1 1.4 -0.6
v 1.1 0.2 -0.6
v 1.1 0.3 -0.6
v 1.1 1.3 -0.6
v 1.1 1.4 -0.6
v -1 0.3 -0.7
v -1 0.4 -0.7
v -1 1.2 -0.7
v -1 1.3 -0.7
v -0.9 0.3 -0.7
v -0.9 0.4 -0.7
v -0.9 1.2 -0.7
v -0.9 1.3 -0.7
v -0.2 0.6 -0.7
v -0.2 1 -0.7
v -0.1 0.5 -0.7
v -0.1 0.6 -0.7
v -0.1 1 -0.7
v -0.1 1.1 -0.7
v 0.1 0.5 -0.7
v 0.1 0.6 -0.7
v 0.1 1 -0.7
v 0.1 1.1 -0.7
v 0.2 0.6 -0.7
v 0.2 1 -0.7
v 0.9 0.3 -0.7
v 0.9 0.4 -0.7
v 0.9 1.2 -0.7
v 0.9 1.3 -0.7
v 1 0.3 -0.7
v 1 0.4 -0.7
v 1 1.2 -0.7
v 1 1.3 -0.7
v -0.2 0.6 -0.8
v -0.2 1 -0.8
v -0.1 0.5 -0.8
v -0.1 0.6 -0.8
v -0.1 1 -0.8
v -0.1 1.1 -0.8
v 0.1 0.5 -0.8
v 0.1 0.6 -0.8
v 0.1 1 -0.8
v 0.1 1.1 -0.8
v 0.2 0.6 -0.8
v 0.2 1 -0.8
v -1.1 0.2 -0.5
v -1 0.2 -0.5
v 1 0.2 -0.5
v 1.1 0.2 -0.5
v -1.1 0.2 -0.6
v -1 0.2 -0.6
v 1 0.2 -0.6
v 1.1 0.2 -0.6
v -1 0.3 -0.6
v -0.9 0.3 -0.6
v 0.9 0.3 -0.6
v 1 0.3 -0.6
v -1 0.3 -0.7
v -0.9 0.3 -0.7
v 0.9 0.3 -0.7
v 1 0.3 -0.7
v -0.1 0.5 -0.7
v 0.1 0.5 -0.7
v -0.1 0.5 -0.8
v 0.1 0.5 -0.8
v -0.2 0.6 -0.7
v -0.1 0.6 -0.7
v 0.1 0.6 -0.7
v 0.2 0.6 -0.7
v -0.2 0.6 -0.8
v -0.1 0.6 -0.8
v 0.1 0.6 -0.8
v 0.2 0.6 -0.8
v -0.1 1 -0.7
v 0.1 1 -0.7
v -0.1 1 -0.8
v 0.1 1 -0.8
v -0.1 0.6 -0.7
v 0.1 0.6 -0.7
v -0.1 0.6 -0.8
v 0.1 0.6 -0.8
v -0.2 1 -0.7
v -0.1 1 -0.7
v 0.1 1 -0.7
v 0.2 1 -0.7
v -0.2 1 -0.8
v -0.1 1 -0.8
v 0.1 1 -0.8
v 0.2 1 -0.8
v -0.1 1.1 -0.7
v 0.1 1.1 -0.7
v -0.1 1.1 -0.8
v 0.1 1.1 -0.8
v -1 1.3 -0.6
v -0.9 1.3 -0.6
v 0.9 1.3 -0.6
v 1 1.3 -0.6
v -1 1.3 -0.7
v -0.9 1.3 -0.7
v 0.9 1.3 -0.7
v 1 1.3 -0.7
v -1.1 1.4 -0.5
v -1 1.4 -0.5
v 1 1.4 -0.5
v 1.1 1.4 -0.5
v -1.1 1.4 -0.6
v -1 1.4 -0.6
v 1 1.4 -0.6
v 1.1 1.4 -0.6

# faces
f 3/4/1 2/4/1 1/4/1
f 4/4/1 2/4/1 3/4/1
f 5/3/1 4/3/1 3/3/1
f 6/3/1 4/3/1 5/3/1
f 7/4/1 6/4/1 5/4/1
f 8/4/1 6/4/1 7/4/1
f 11/4/1 10/4/1 9/4/1
f 12/4/1 10/4/1 11/4/1
f 13/3/1 12/3/1 11/3/1
f 14/3/1 12/3/1 13/3/1
f 15/4/1 14/4/1 13/4/1
f 16/4/1 14/4/1 15/4/1
f 19/3/1 18/3/1 17/3/1
f 20/3/1 18/3/1 19/3/1
f 23/3/1 22/3/1 21/3/1
f 24/3/1 22/3/1 23/3/1
f 27/3/1 26/3/1 25/3/1
f 28/3/1 26/3/1 27/3/1
f 31/3/1 30/3/1 29/3/1
f 32/3/1 30/3/1 31/3/1
f 33/3/2 34/3/2 35/3/2
f 35/3/2 34/3/2 36/3/2
f 37/3/2 38/3/2 39/3/2
f 39/3/2 38/3/2 40/3/2
f 41/3/2 42/3/2 43/3/2
f 43/3/2 42/3/2 44/3/2
f 45/3/2 46/3/2 47/3/2
f 47/3/2 46/3/2 48/3/2
f 49/4/2 50/4/2 51/4/2
f 51/4/2 50/4/2 52/4/2
f 51/3/2 52/3/2 53/3/2
f 53/3/2 52/3/2 54/3/2
f 53/4/2 54/4/2 55/4/2
f 55/4/2 54/4/2 56/4/2
f 57/4/2 58/4/2 59/4/2
f 59/4/2 58/4/2 60/4/2
f 59/3/2 60/3/2 61/3/2
f 61/3/2 60/3/2 62/3/2
f 61/4/2 62/4/2 63/4/2
f 63/4/2 62/4/2 64/4/2
f 69/4/3 66/4/3 65/4/3
f 70/3/3 67/3/3 66/3/3
f 70/4/3 66/4/3 69/4/3
f 71/3/3 67/3/3 70/3/3
f 72/3/3 67/3/3 71/3/3
f 73/3/3 67/3/3 72/3/3
f 74/4/3 68/4/3 67/4/3
f 74/3/3 67/3/3 73/3/3
f 75/4/3 68/4/3 74/4/3
f 76/5/3 73/5/3 72/5/3
f 76/6/3 72/6/3 71/6/3
f 77/1/3 74/1/3 73/1/3
f 77/5/3 73/5/3 76/5/3
f 78/1/3 74/1/3 77/1/3
f 79/1/3 74/1/3 78/1/3
f 80/8/3 79/8/3 78/8/3
f 80/1/3 74/1/3 79/1/3
f 81/1/3 74/1/3 80/1/3
f 82/1/3 77/1/3 76/1/3
f 82/1/3 78/1/3 77/1/3
f 83/1/3 78/1/3 82/1/3
f 84/3/3 70/3/3 69/3/3
f 84/7/3 71/7/3 70/7/3
f 85/6/3 76/6/3 71/6/3
f 85/7/3 71/7/3 84/7/3
f 86/1/3 82/1/3 76/1/3
f 86/6/3 76/6/3 85/6/3
f 87/2/3 83/2/3 82/2/3
f 87/1/3 82/1/3 86/1/3
f 88/1/3 78/1/3 83/1/3
f 88/2/3 83/2/3 87/2/3
f 89/8/3 81/8/3 80/8/3
f 89/8/3 80/8/3 78/8/3
f 90/1/3 74/1/3 81/1/3
f 90/8/3 81/8/3 89/8/3
f 91/1/3 87/1/3 86/1/3
f 91/1/3 86/1/3 85/1/3
f 91/3/3 84/3/3 69/3/3
f 91/1/3 85/1/3 84/1/3
f 91/1/3 88/1/3 87/1/3
f 92/1/3 88/1/3 91/1/3
f 93/1/3 88/1/3 92/1/3
f 94/1/3 78/1/3 88/1/3
f 94/1/3 88/1/3 93/1/3
f 94/8/3 89/8/3 78/8/3
f 95/1/3 90/1/3 89/1/3
f 95/8/3 89/8/3 94/8/3
f 96/1/3 94/1/3 93/1/3
f 96/1/3 95/1/3 94/1/3
f 97/1/3 95/1/3 96/1/3
f 98/1/3 96/1/3 93/1/3
f 98/10/3 97/10/3 96/10/3
f 99/1/3 95/1/3 97/1/3
f 99/10/3 97/10/3 98/10/3
f 100/1/3 98/1/3 93/1/3
f 100/9/3 99/9/3 98/9/3
f 101/1/3 95/1/3 99/1/3
f 101/9/3 99/9/3 100/9/3
f 102/7/3 92/7/3 91/7/3
f 102/3/3 91/3/3 69/3/3
f 103/6/3 93/6/3 92/6/3
f 103/7/3 92/7/3 102/7/3
f 104/1/3 101/1/3 100/1/3
f 104/6/3 93/6/3 103/6/3
f 104/1/3 100/1/3 93/1/3
f 105/1/3 74/1/3 90/1/3
f 105/1/3 101/1/3 104/1/3
f 105/1/3 90/1/3 95/1/3
f 105/1/3 95/1/3 101/1/3
f 106/1/3 74/1/3 105/1/3
f 107/1/3 104/1/3 103/1/3
f 107/1/3 103/1/3 102/1/3
f 107/1/3 105/1/3 104/1/3
f 108/1/3 105/1/3 107/1/3
f 109/1/3 107/1/3 102/1/3
f 109/10/3 108/10/3 107/10/3
f 110/1/3 105/1/3 108/1/3
f 110/10/3 108/10/3 109/10/3
f 111/8/3 106/8/3 105/8/3
f 111/1/3 105/1/3 110/1/3
f 112/1/3 74/1/3 106/1/3
f 112/8/3 106/8/3 111/8/3
f 113/1/3 111/1/3 110/1/3
f 113/1/3 110/1/3 109/1/3
f 113/1/3 112/1/3 111/1/3
f 114/1/3 112/1/3 113/1/3
f 115/1/3 113/1/3 109/1/3
f 115/10/3 114/10/3 113/10/3
f 116/1/3 112/1/3 114/1/3
f 116/10/3 114/10/3 115/10/3
f 117/1/3 109/1/3 102/1/3
f 117/3/3 102/3/3 69/3/3
f 117/1/3 116/1/3 115/1/3
f 117/1/3 115/1/3 109/1/3
f 118/1/3 116/1/3 117/1/3
f 119/1/3 116/1/3 118/1/3
f 120/6/3 119/6/3 118/6/3
f 120/1/3 116/1/3 119/1/3
f 121/1/3 116/1/3 120/1/3
f 122/6/3 120/6/3 118/6/3
f 122/7/3 121/7/3 120/7/3
f 123/1/3 116/1/3 121/1/3
f 123/7/3 121/7/3 122/7/3
f 124/3/3 117/3/3 69/3/3
f 125/7/3 118/7/3 117/7/3
f 125/3/3 117/3/3 124/3/3
f 126/6/3 122/6/3 118/6/3
f 126/7/3 118/7/3 125/7/3
f 127/1/3 123/1/3 122/1/3
f 127/6/3 122/6/3 126/6/3
f 128/1/3 74/1/3 112/1/3
f 128/1/3 123/1/3 127/1/3
f 128/1/3 112/1/3 116/1/3
f 128/3/3 75/3/3 74/3/3
f 128/1/3 116/1/3 123/1/3
f 129/3/3 75/3/3 128/3/3
f 130/4/3 125/4/3 124/4/3
f 131/3/3 127/3/3 126/3/3
f 131/4/3 125/4/3 130/4/3
f 131/3/3 126/3/3 125/3/3
f 131/3/3 128/3/3 127/3/3
f 132/4/3 129/4/3 128/4/3
f 132/3/3 128/3/3 131/3/3
f 133/4/3 129/4/3 132/4/3
f 134/4/4 135/4/4 138/4/4
f 135/3/4 136/3/4 139/3/4
f 138/4/4 135/4/4 139/4/4
f 139/3/4 136/3/4 140/3/4
f 140/3/4 136/3/4 141/3/4
f 136/4/4 137/4/4 142/4/4
f 141/3/4 136/3/4 142/3/4
f 142/4/4 137/4/4 143/4/4
f 138/3/4 139/3/4 144/3/4
f 142/3/4 143/3/4 145/3/4
f 138/3/4 144/3/4 146/3/4
f 145/3/4 143/3/4 147/3/4
f 138/3/4 146/3/4 148/3/4
f 148/3/4 146/3/4 149/3/4
f 147/3/4 143/3/4 152/3/4
f 152/3/4 143/3/4 153/3/4
f 148/4/4 149/4/4 154/4/4
f 150/3/4 151/3/4 155/3/4
f 154/4/4 149/4/4 155/4/4
f 149/3/4 150/3/4 155/3/4
f 151/3/4 152/3/4 155/3/4
f 152/4/4 153/4/4 156/4/4
f 155/3/4 152/3/4 156/3/4
f 156/4/4 153/4/4 157/4/4
f 158/4/4 159/4/4 162/4/4
f 159/3/4 160/3/4 163/3/4
f 162/4/4 159/4/4 163/4/4
f 160/4/4 161/4/4 164/4/4
f 163/3/4 160/3/4 164/3/4
f 164/4/4 161/4/4 165/4/4
f 162/3/4 163/3/4 166/3/4
f 163/3/4 164/3/4 166/3/4
f 164/3/4 165/3/4 166/3/4
f 166/3/4 165/3/4 167/3/4
f 162/3/4 166/3/4 168/3/4
f 168/3/4 166/3/4 169/3/4
f 167/3/4 165/3/4 170/3/4
f 170/3/4 165/3/4 171/3/4
f 162/3/4 168/3/4 172/3/4
f 169/3/4 170/3/4 173/3/4
f 173/3/4 170/3/4 174/3/4
f 171/3/4 165/3/4 175/3/4
f 172/3/4 173/3/4 176/3/4
f 174/3/4 175/3/4 177/3/4
f 172/3/4 176/3/4 178/3/4
f 176/3/4 177/3/4 178/3/4
f 162/3/4 172/3/4 178/3/4
f 178/3/4 177/3/4 179/3/4
f 177/3/4 175/3/4 180/3/4
f 179/3/4 177/3/4 180/3/4
f 175/3/4 165/3/4 180/3/4
f 180/3/4 165/3/4 181/3/4
f 178/4/4 179/4/4 182/4/4
f 179/3/4 180/3/4 183/3/4
f 182/4/4 179/4/4 183/4/4
f 180/4/4 181/4/4 184/4/4
f 183/3/4 180/3/4 184/3/4
f 184/4/4 181/4/4 185/4/4
f 186/3/4 187/3/4 189/3/4
f 189/3/4 187/3/4 190/3/4
f 188/3/4 189/3/4 192/3/4
f 192/3/4 189/3/4 193/3/4
f 190/3/4 191/3/4 194/3/4
f 194/3/4 191/3/4 195/3/4
f 193/3/4 194/3/4 196/3/4
f 196/3/4 194/3/4 197/3/4
f 202/4/5 199/4/5 198/4/5
f 203/3/5 200/3/5 199/3/5
f 203/4/5 199/4/5 202/4/5
f 204/4/5 201/4/5 200/4/5
f 204/3/5 200/3/5 203/3/5
f 205/4/5 201/4/5 204/4/5
f 210/4/5 207/4/5 206/4/5
f 211/3/5 208/3/5 207/3/5
f 211/4/5 207/4/5 210/4/5
f 212/4/5 209/4/5 208/4/5
f 212/3/5 208/3/5 211/3/5
f 213/4/5 209/4/5 212/4/5
f 216/3/5 215/3/5 214/3/5
f 217/3/5 215/3/5 216/3/5
f 222/3/5 219/3/5 218/3/5
f 223/3/5 219/3/5 222/3/5
f 224/3/5 221/3/5 220/3/5
f 225/3/5 221/3/5 224/3/5
f 228/3/5 227/3/5 226/3/5
f 229/3/5 227/3/5 228/3/5
f 230/3/6 231/3/6 232/3/6
f 232/3/6 231/3/6 233/3/6
f 234/3/6 235/3/6 238/3/6
f 238/3/6 235/3/6 239/3/6
f 236/3/6 237/3/6 240/3/6
f 240/3/6 237/3/6 241/3/6
f 242/3/6 243/3/6 244/3/6
f 244/3/6 243/3/6 245/3/6
f 246/4/6 247/4/6 250/4/6
f 247/3/6 248/3/6 251/3/6
f 250/4/6 247/4/6 251/4/6
f 248/4/6 249/4/6 252/4/6
f 251/3/6 248/3/6 252/3/6
f 252/4/6 249/4/6 253/4/6
f 254/4/6 255/4/6 258/4/6
f 255/3/6 256/3/6 259/3/6
f 258/4/6 255/4/6 259/4/6
f 256/4/6 257/4/6 260/4/6
f 259/3/6 256/3/6 260/3/6
f 260/4/6 257/4/6 261/4/6
