# MagicaVoxel @ Ephtracy

# group
o 

# material
mtllib Office_Misc_Fax.mtl
usemtl palette

# normals
vn -1 0 0
vn 1 0 0
vn 0 0 1
vn 0 0 -1
vn 0 -1 0
vn 0 1 0

# texcoords
vt 0.763672 0.5
vt 0.775391 0.5
vt 0.791016 0.5
vt 0.814453 0.5

# verts
v -0.6 0 0.2
v -0.6 0 -0.5
v -0.6 0.3 0.2
v -0.6 0.3 0
v -0.6 0.3 -0.4
v -0.6 0.3 -0.5
v -0.6 0.4 0
v -0.6 0.4 -0.4
v -0.5 0 0.3
v -0.5 0 0.2
v -0.5 0 -0.5
v -0.5 0 -0.6
v -0.5 0.3 0.3
v -0.5 0.3 0.2
v -0.5 0.3 0.1
v -0.5 0.3 0
v -0.5 0.3 -0.4
v -0.5 0.3 -0.5
v -0.5 0.3 -0.6
v -0.5 0.4 0.1
v -0.5 0.4 0
v -0.5 0.4 -0.4
v -0.5 0.4 -0.5
v -0.4 0 0.6
v -0.4 0 0.3
v -0.4 0.1 0.6
v -0.4 0.1 0.3
v -0.4 0.2 0.6
v -0.4 0.2 0.3
v -0.4 0.3 -0.5
v -0.4 0.3 -0.6
v -0.4 0.4 -0.3
v -0.4 0.4 -0.4
v -0.4 0.4 -0.5
v -0.4 0.4 -0.6
v -0.4 0.5 -0.3
v -0.4 0.5 -0.4
v -0.4 0.5 -0.5
v -0.4 0.5 -0.6
v -0.4 0.6 -0.4
v -0.4 0.6 -0.5
v -0.4 0.6 -0.6
v -0.4 0.7 -0.5
v -0.4 0.7 -0.6
v 0.4 0.4 0.1
v 0.4 0.4 -0.3
v 0.4 0.5 0.1
v 0.4 0.5 -0.3
v 0.3 0 0.6
v 0.3 0 0.3
v 0.3 0.1 0.6
v 0.3 0.1 0.3
v 0.3 0.2 0.6
v 0.3 0.2 0.3
v 0.3 0.4 -0.3
v 0.3 0.4 -0.4
v 0.3 0.4 -0.5
v 0.3 0.5 -0.3
v 0.3 0.5 -0.4
v 0.3 0.5 -0.5
v 0.3 0.5 -0.6
v 0.3 0.6 -0.4
v 0.3 0.6 -0.5
v 0.3 0.6 -0.6
v 0.3 0.7 -0.5
v 0.3 0.7 -0.6
v 0.4 0.3 -0.5
v 0.4 0.3 -0.6
v 0.4 0.4 -0.5
v 0.4 0.4 -0.6
v 0.5 0 0.3
v 0.5 0 0.2
v 0.5 0 -0.5
v 0.5 0 -0.6
v 0.5 0.3 0.3
v 0.5 0.3 0.2
v 0.5 0.3 0.1
v 0.5 0.3 0
v 0.5 0.3 -0.4
v 0.5 0.3 -0.5
v 0.5 0.3 -0.6
v 0.5 0.4 0
v 0.5 0.4 -0.3
v 0.5 0.4 -0.4
v 0.5 0.4 -0.5
v 0.5 0.5 0.1
v 0.5 0.5 -0.3
v 0.6 0 0.2
v 0.6 0 -0.5
v 0.6 0.3 0.2
v 0.6 0.3 0
v 0.6 0.3 -0.4
v 0.6 0.3 -0.5
v 0.6 0.4 0
v 0.6 0.4 -0.4
v -0.4 0 0.6
v -0.4 0.1 0.6
v -0.4 0.2 0.6
v 0.3 0 0.6
v 0.3 0.1 0.6
v 0.3 0.2 0.6
v -0.5 0 0.3
v -0.5 0.3 0.3
v -0.4 0 0.3
v -0.4 0.1 0.3
v -0.4 0.2 0.3
v 0.3 0 0.3
v 0.3 0.1 0.3
v 0.3 0.2 0.3
v 0.5 0 0.3
v 0.5 0.3 0.3
v -0.6 0 0.2
v -0.6 0.3 0.2
v -0.5 0 0.2
v -0.5 0.3 0.2
v 0.5 0 0.2
v 0.5 0.3 0.2
v 0.6 0 0.2
v 0.6 0.3 0.2
v -0.5 0.3 0.1
v -0.5 0.4 0.1
v 0.4 0.3 0.1
v 0.4 0.4 0.1
v 0.4 0.5 0.1
v 0.5 0.3 0.1
v 0.5 0.5 0.1
v -0.6 0.3 0
v -0.6 0.4 0
v -0.5 0.3 0
v -0.5 0.4 0
v 0.5 0.3 0
v 0.5 0.4 0
v 0.6 0.3 0
v 0.6 0.4 0
v -0.4 0.4 -0.3
v -0.4 0.5 -0.3
v 0.3 0.4 -0.3
v 0.3 0.5 -0.3
v -0.4 0.5 -0.4
v -0.4 0.6 -0.4
v 0.3 0.5 -0.4
v 0.3 0.6 -0.4
v -0.4 0.6 -0.5
v -0.4 0.7 -0.5
v 0.3 0.6 -0.5
v 0.3 0.7 -0.5
v 0.4 0.4 -0.3
v 0.4 0.5 -0.3
v 0.5 0.4 -0.3
v 0.5 0.5 -0.3
v -0.6 0.3 -0.4
v -0.6 0.4 -0.4
v -0.5 0.3 -0.4
v -0.5 0.4 -0.4
v 0.5 0.3 -0.4
v 0.5 0.4 -0.4
v 0.6 0.3 -0.4
v 0.6 0.4 -0.4
v -0.6 0 -0.5
v -0.6 0.3 -0.5
v -0.5 0 -0.5
v -0.5 0.3 -0.5
v -0.5 0.4 -0.5
v -0.4 0.3 -0.5
v -0.4 0.4 -0.5
v -0.4 0.5 -0.5
v 0.3 0.4 -0.5
v 0.3 0.5 -0.5
v 0.4 0.3 -0.5
v 0.4 0.4 -0.5
v 0.5 0 -0.5
v 0.5 0.3 -0.5
v 0.5 0.4 -0.5
v 0.6 0 -0.5
v 0.6 0.3 -0.5
v -0.5 0 -0.6
v -0.5 0.3 -0.6
v -0.4 0.3 -0.6
v -0.4 0.4 -0.6
v -0.4 0.5 -0.6
v -0.4 0.6 -0.6
v -0.4 0.7 -0.6
v 0.3 0.5 -0.6
v 0.3 0.6 -0.6
v 0.3 0.7 -0.6
v 0.4 0.3 -0.6
v 0.4 0.4 -0.6
v 0.5 0 -0.6
v 0.5 0.3 -0.6
v -0.4 0 0.6
v 0.3 0 0.6
v -0.5 0 0.3
v -0.4 0 0.3
v 0.3 0 0.3
v 0.5 0 0.3
v -0.6 0 0.2
v -0.5 0 0.2
v 0.5 0 0.2
v 0.6 0 0.2
v -0.6 0 -0.5
v -0.5 0 -0.5
v 0.5 0 -0.5
v 0.6 0 -0.5
v -0.5 0 -0.6
v 0.5 0 -0.6
v -0.4 0.5 -0.5
v 0.3 0.5 -0.5
v -0.4 0.5 -0.6
v 0.3 0.5 -0.6
v -0.4 0.2 0.6
v 0.3 0.2 0.6
v -0.4 0.2 0.3
v 0.3 0.2 0.3
v -0.5 0.3 0.3
v 0.5 0.3 0.3
v -0.6 0.3 0.2
v -0.5 0.3 0.2
v 0.5 0.3 0.2
v 0.6 0.3 0.2
v -0.5 0.3 0.1
v 0.4 0.3 0.1
v 0.5 0.3 0.1
v -0.6 0.3 0
v -0.5 0.3 0
v 0.5 0.3 0
v 0.6 0.3 0
v -0.6 0.3 -0.4
v -0.5 0.3 -0.4
v 0.5 0.3 -0.4
v 0.6 0.3 -0.4
v -0.6 0.3 -0.5
v -0.5 0.3 -0.5
v -0.4 0.3 -0.5
v 0.4 0.3 -0.5
v 0.5 0.3 -0.5
v 0.6 0.3 -0.5
v -0.5 0.3 -0.6
v -0.4 0.3 -0.6
v 0.4 0.3 -0.6
v 0.5 0.3 -0.6
v -0.5 0.4 0.1
v 0.4 0.4 0.1
v -0.6 0.4 0
v -0.5 0.4 0
v -0.3 0.4 0
v 0.2 0.4 0
v 0.5 0.4 0
v 0.6 0.4 0
v -0.3 0.4 -0.2
v 0.2 0.4 -0.2
v -0.4 0.4 -0.3
v 0.3 0.4 -0.3
v 0.4 0.4 -0.3
v 0.5 0.4 -0.3
v -0.6 0.4 -0.4
v -0.5 0.4 -0.4
v -0.4 0.4 -0.4
v 0.3 0.4 -0.4
v 0.5 0.4 -0.4
v 0.6 0.4 -0.4
v -0.5 0.4 -0.5
v -0.4 0.4 -0.5
v 0.3 0.4 -0.5
v 0.4 0.4 -0.5
v 0.5 0.4 -0.5
v -0.4 0.4 -0.6
v 0.4 0.4 -0.6
v 0.4 0.5 0.1
v 0.5 0.5 0.1
v -0.4 0.5 -0.3
v 0.3 0.5 -0.3
v 0.4 0.5 -0.3
v 0.5 0.5 -0.3
v -0.4 0.5 -0.4
v 0.3 0.5 -0.4
v -0.4 0.6 -0.4
v 0.3 0.6 -0.4
v -0.4 0.6 -0.5
v 0.3 0.6 -0.5
v -0.4 0.7 -0.5
v 0.3 0.7 -0.5
v -0.4 0.7 -0.6
v 0.3 0.7 -0.6

# faces
f 3/1/1 2/1/1 1/1/1
f 4/1/1 2/1/1 3/1/1
f 5/1/1 2/1/1 4/1/1
f 6/1/1 2/1/1 5/1/1
f 7/1/1 5/1/1 4/1/1
f 8/1/1 5/1/1 7/1/1
f 13/1/1 10/1/1 9/1/1
f 14/1/1 10/1/1 13/1/1
f 18/1/1 12/1/1 11/1/1
f 19/1/1 12/1/1 18/1/1
f 20/1/1 16/1/1 15/1/1
f 21/1/1 16/1/1 20/1/1
f 22/1/1 18/1/1 17/1/1
f 23/1/1 18/1/1 22/1/1
f 26/1/1 25/1/1 24/1/1
f 27/1/1 25/1/1 26/1/1
f 28/3/1 27/3/1 26/3/1
f 29/3/1 27/3/1 28/3/1
f 34/1/1 31/1/1 30/1/1
f 35/1/1 31/1/1 34/1/1
f 36/3/1 33/3/1 32/3/1
f 37/1/1 34/1/1 33/1/1
f 37/3/1 33/3/1 36/3/1
f 38/1/1 34/1/1 37/1/1
f 40/3/1 38/3/1 37/3/1
f 41/1/1 39/1/1 38/1/1
f 41/3/1 38/3/1 40/3/1
f 42/1/1 39/1/1 41/1/1
f 43/3/1 42/3/1 41/3/1
f 44/3/1 42/3/1 43/3/1
f 47/2/1 46/2/1 45/2/1
f 48/2/1 46/2/1 47/2/1
f 49/1/2 50/1/2 51/1/2
f 51/1/2 50/1/2 52/1/2
f 51/3/2 52/3/2 53/3/2
f 53/3/2 52/3/2 54/3/2
f 55/3/2 56/3/2 58/3/2
f 56/1/2 57/1/2 59/1/2
f 58/3/2 56/3/2 59/3/2
f 59/1/2 57/1/2 60/1/2
f 59/3/2 60/3/2 62/3/2
f 60/1/2 61/1/2 63/1/2
f 62/3/2 60/3/2 63/3/2
f 63/1/2 61/1/2 64/1/2
f 63/3/2 64/3/2 65/3/2
f 65/3/2 64/3/2 66/3/2
f 67/1/2 68/1/2 69/1/2
f 69/1/2 68/1/2 70/1/2
f 71/1/2 72/1/2 75/1/2
f 75/1/2 72/1/2 76/1/2
f 73/1/2 74/1/2 80/1/2
f 80/1/2 74/1/2 81/1/2
f 77/2/2 78/2/2 82/2/2
f 79/1/2 80/1/2 84/1/2
f 84/1/2 80/1/2 85/1/2
f 82/2/2 83/2/2 86/2/2
f 77/2/2 82/2/2 86/2/2
f 86/2/2 83/2/2 87/2/2
f 88/1/2 89/1/2 90/1/2
f 90/1/2 89/1/2 91/1/2
f 91/1/2 89/1/2 92/1/2
f 92/1/2 89/1/2 93/1/2
f 91/1/2 92/1/2 94/1/2
f 94/1/2 92/1/2 95/1/2
f 99/1/3 97/1/3 96/1/3
f 100/3/3 98/3/3 97/3/3
f 100/1/3 97/1/3 99/1/3
f 101/3/3 98/3/3 100/3/3
f 104/1/3 103/1/3 102/1/3
f 105/1/3 103/1/3 104/1/3
f 106/1/3 103/1/3 105/1/3
f 109/1/3 103/1/3 106/1/3
f 110/1/3 108/1/3 107/1/3
f 110/1/3 109/1/3 108/1/3
f 111/1/3 103/1/3 109/1/3
f 111/1/3 109/1/3 110/1/3
f 114/1/3 113/1/3 112/1/3
f 115/1/3 113/1/3 114/1/3
f 118/1/3 117/1/3 116/1/3
f 119/1/3 117/1/3 118/1/3
f 122/1/3 121/1/3 120/1/3
f 123/1/3 121/1/3 122/1/3
f 125/2/3 123/2/3 122/2/3
f 125/2/3 124/2/3 123/2/3
f 126/2/3 124/2/3 125/2/3
f 129/1/3 128/1/3 127/1/3
f 130/1/3 128/1/3 129/1/3
f 133/1/3 132/1/3 131/1/3
f 134/1/3 132/1/3 133/1/3
f 137/3/3 136/3/3 135/3/3
f 138/3/3 136/3/3 137/3/3
f 141/3/3 140/3/3 139/3/3
f 142/3/3 140/3/3 141/3/3
f 145/3/3 144/3/3 143/3/3
f 146/3/3 144/3/3 145/3/3
f 147/2/4 148/2/4 149/2/4
f 149/2/4 148/2/4 150/2/4
f 151/1/4 152/1/4 153/1/4
f 153/1/4 152/1/4 154/1/4
f 155/1/4 156/1/4 157/1/4
f 157/1/4 156/1/4 158/1/4
f 159/1/4 160/1/4 161/1/4
f 161/1/4 160/1/4 162/1/4
f 162/1/4 163/1/4 164/1/4
f 164/1/4 163/1/4 165/1/4
f 165/1/4 166/1/4 167/1/4
f 167/1/4 166/1/4 168/1/4
f 169/1/4 170/1/4 172/1/4
f 172/1/4 170/1/4 173/1/4
f 171/1/4 172/1/4 174/1/4
f 174/1/4 172/1/4 175/1/4
f 176/1/4 177/1/4 178/1/4
f 180/1/4 181/1/4 183/1/4
f 181/3/4 182/3/4 184/3/4
f 183/1/4 181/1/4 184/1/4
f 184/3/4 182/3/4 185/3/4
f 176/1/4 178/1/4 186/1/4
f 178/1/4 179/1/4 186/1/4
f 186/1/4 179/1/4 187/1/4
f 176/1/4 186/1/4 188/1/4
f 188/1/4 186/1/4 189/1/4
f 193/1/5 191/1/5 190/1/5
f 194/1/5 191/1/5 193/1/5
f 197/1/5 193/1/5 192/1/5
f 197/1/5 195/1/5 194/1/5
f 197/1/5 194/1/5 193/1/5
f 198/1/5 195/1/5 197/1/5
f 200/1/5 197/1/5 196/1/5
f 200/1/5 199/1/5 198/1/5
f 200/1/5 198/1/5 197/1/5
f 201/1/5 199/1/5 200/1/5
f 202/1/5 199/1/5 201/1/5
f 203/1/5 199/1/5 202/1/5
f 204/1/5 202/1/5 201/1/5
f 205/1/5 202/1/5 204/1/5
f 208/1/5 207/1/5 206/1/5
f 209/1/5 207/1/5 208/1/5
f 210/3/6 211/3/6 212/3/6
f 212/3/6 211/3/6 213/3/6
f 214/1/6 215/1/6 217/1/6
f 217/1/6 215/1/6 218/1/6
f 216/1/6 217/1/6 220/1/6
f 218/1/6 219/1/6 220/1/6
f 217/1/6 218/1/6 220/1/6
f 220/1/6 219/1/6 221/1/6
f 221/1/6 219/1/6 222/1/6
f 216/1/6 220/1/6 223/1/6
f 223/1/6 220/1/6 224/1/6
f 222/1/6 219/1/6 225/1/6
f 225/1/6 219/1/6 226/1/6
f 227/1/6 228/1/6 231/1/6
f 231/1/6 228/1/6 232/1/6
f 229/1/6 230/1/6 235/1/6
f 235/1/6 230/1/6 236/1/6
f 232/1/6 233/1/6 237/1/6
f 237/1/6 233/1/6 238/1/6
f 234/1/6 235/1/6 239/1/6
f 239/1/6 235/1/6 240/1/6
f 241/1/6 242/1/6 244/1/6
f 244/1/6 242/1/6 245/1/6
f 245/1/6 242/1/6 246/1/6
f 243/1/6 244/1/6 249/1/6
f 244/1/6 245/1/6 249/1/6
f 245/4/6 246/4/6 249/4/6
f 246/1/6 242/1/6 250/1/6
f 249/4/6 246/4/6 250/4/6
f 243/1/6 249/1/6 251/1/6
f 249/1/6 250/1/6 251/1/6
f 250/1/6 242/1/6 252/1/6
f 251/1/6 250/1/6 252/1/6
f 252/1/6 242/1/6 253/1/6
f 247/1/6 248/1/6 254/1/6
f 243/1/6 251/1/6 255/1/6
f 255/1/6 251/1/6 256/1/6
f 256/1/6 251/1/6 257/1/6
f 252/1/6 253/1/6 258/1/6
f 253/1/6 254/1/6 258/1/6
f 254/1/6 248/1/6 259/1/6
f 258/1/6 254/1/6 259/1/6
f 259/1/6 248/1/6 260/1/6
f 256/1/6 257/1/6 261/1/6
f 261/1/6 257/1/6 262/1/6
f 258/1/6 259/1/6 263/1/6
f 263/1/6 259/1/6 264/1/6
f 264/1/6 259/1/6 265/1/6
f 262/1/6 263/1/6 266/1/6
f 263/1/6 264/1/6 266/1/6
f 266/1/6 264/1/6 267/1/6
f 268/2/6 269/2/6 272/2/6
f 272/2/6 269/2/6 273/2/6
f 270/3/6 271/3/6 274/3/6
f 274/3/6 271/3/6 275/3/6
f 276/3/6 277/3/6 278/3/6
f 278/3/6 277/3/6 279/3/6
f 280/3/6 281/3/6 282/3/6
f 282/3/6 281/3/6 283/3/6
