# MagicaVoxel @ Ephtracy

# group
o 

# material
mtllib Office_Misc_Console_Woo_02.mtl
usemtl palette

# normals
vn -1 0 0
vn 1 0 0
vn 0 0 1
vn 0 0 -1
vn 0 -1 0
vn 0 1 0

# texcoords
vt 0.892578 0.5
vt 0.896484 0.5
vt 0.927734 0.5

# verts
v -0.2 0 0.4
v -0.2 0 -0.4
v -0.2 0.2 0.4
v -0.2 0.2 -0.4
v -0.1 0.2 0.4
v -0.1 0.2 0.3
v -0.1 0.2 -0.3
v -0.1 0.5 0.4
v -0.1 0.5 0.3
v -0.1 0.6 0.4
v -0.1 0.6 0.3
v -0.1 0.7 0.4
v -0.1 0.7 0.3
v -0.1 0.8 0.4
v -0.1 0.8 -0.3
v 0.1 0.2 0.4
v 0.1 0.2 -0.3
v 0.1 0.8 0.4
v 0.1 0.8 -0.3
v 0.2 0 0.4
v 0.2 0 -0.4
v 0.2 0.2 0.4
v 0.2 0.2 -0.4
v -0.2 0 0.4
v -0.2 0.2 0.4
v -0.1 0.1 0.4
v -0.1 0.2 0.4
v -0.1 0.5 0.4
v -0.1 0.6 0.4
v -0.1 0.7 0.4
v -0.1 0.8 0.4
v 0 0.2 0.4
v 0 0.5 0.4
v 0 0.6 0.4
v 0 0.7 0.4
v 0.1 0.1 0.4
v 0.1 0.2 0.4
v 0.1 0.8 0.4
v 0.2 0 0.4
v 0.2 0.2 0.4
v -0.1 0.2 -0.3
v -0.1 0.8 -0.3
v 0.1 0.2 -0.3
v 0.1 0.8 -0.3
v -0.2 0 -0.4
v -0.2 0.2 -0.4
v 0.2 0 -0.4
v 0.2 0.2 -0.4
v -0.2 0 0.4
v 0.2 0 0.4
v -0.2 0 -0.4
v 0.2 0 -0.4
v -0.2 0.2 0.4
v -0.1 0.2 0.4
v 0.1 0.2 0.4
v 0.2 0.2 0.4
v -0.1 0.2 0.3
v -0.1 0.2 -0.3
v 0.1 0.2 -0.3
v -0.2 0.2 -0.4
v 0.2 0.2 -0.4
v -0.1 0.8 0.4
v 0.1 0.8 0.4
v -0.1 0.8 -0.3
v 0.1 0.8 -0.3

# faces
f 3/3/1 2/3/1 1/3/1
f 4/3/1 2/3/1 3/3/1
f 8/1/1 6/1/1 5/1/1
f 9/2/1 7/2/1 6/2/1
f 9/1/1 6/1/1 8/1/1
f 10/2/1 9/2/1 8/2/1
f 11/2/1 7/2/1 9/2/1
f 11/2/1 9/2/1 10/2/1
f 12/1/1 11/1/1 10/1/1
f 13/2/1 7/2/1 11/2/1
f 13/1/1 11/1/1 12/1/1
f 14/2/1 13/2/1 12/2/1
f 15/2/1 7/2/1 13/2/1
f 15/2/1 13/2/1 14/2/1
f 16/2/2 17/2/2 18/2/2
f 18/2/2 17/2/2 19/2/2
f 20/3/2 21/3/2 22/3/2
f 22/3/2 21/3/2 23/3/2
f 26/3/3 25/3/3 24/3/3
f 27/3/3 25/3/3 26/3/3
f 32/2/3 27/2/3 26/2/3
f 32/1/3 28/1/3 27/1/3
f 33/2/3 29/2/3 28/2/3
f 33/1/3 28/1/3 32/1/3
f 34/1/3 30/1/3 29/1/3
f 34/2/3 29/2/3 33/2/3
f 35/2/3 31/2/3 30/2/3
f 35/1/3 30/1/3 34/1/3
f 36/3/3 26/3/3 24/3/3
f 36/2/3 34/2/3 33/2/3
f 36/2/3 35/2/3 34/2/3
f 36/2/3 32/2/3 26/2/3
f 36/2/3 33/2/3 32/2/3
f 37/2/3 35/2/3 36/2/3
f 38/2/3 31/2/3 35/2/3
f 38/2/3 35/2/3 37/2/3
f 39/3/3 37/3/3 36/3/3
f 39/3/3 36/3/3 24/3/3
f 40/3/3 37/3/3 39/3/3
f 41/2/4 42/2/4 43/2/4
f 43/2/4 42/2/4 44/2/4
f 45/3/4 46/3/4 47/3/4
f 47/3/4 46/3/4 48/3/4
f 51/3/5 50/3/5 49/3/5
f 52/3/5 50/3/5 51/3/5
f 53/3/6 54/3/6 57/3/6
f 53/3/6 57/3/6 58/3/6
f 55/3/6 56/3/6 59/3/6
f 53/3/6 58/3/6 60/3/6
f 58/3/6 59/3/6 60/3/6
f 59/3/6 56/3/6 61/3/6
f 60/3/6 59/3/6 61/3/6
f 62/2/6 63/2/6 64/2/6
f 64/2/6 63/2/6 65/2/6
