# MagicaVoxel @ Ephtracy

# group
o 

# material
mtllib Office_Misc_Console_Swotch_03.mtl
usemtl palette

# normals
vn -1 0 0
vn 1 0 0
vn 0 0 1
vn 0 0 -1
vn 0 -1 0
vn 0 1 0

# texcoords
vt 0.763672 0.5
vt 0.775391 0.5
vt 0.931641 0.5

# verts
v -0.4 0 0.2
v -0.4 0 -0.1
v -0.4 0.1 0.1
v -0.4 0.1 0
v -0.4 0.5 0.2
v -0.4 0.5 0.1
v -0.4 0.5 0
v -0.4 0.5 -0.1
v 0.3 0 0.2
v 0.3 0 -0.1
v 0.3 0.1 0.1
v 0.3 0.1 0
v 0.3 0.5 0.2
v 0.3 0.5 0.1
v 0.3 0.5 0
v 0.3 0.5 -0.1
v -0.4 0 0.2
v -0.4 0.5 0.2
v -0.2 0.1 0.2
v -0.2 0.3 0.2
v -0.2 0.4 0.2
v -0.1 0.1 0.2
v -0.1 0.3 0.2
v -0.1 0.4 0.2
v 0 0.1 0.2
v 0 0.2 0.2
v 0 0.4 0.2
v 0.1 0.1 0.2
v 0.1 0.2 0.2
v 0.1 0.4 0.2
v 0.3 0 0.2
v 0.3 0.5 0.2
v -0.4 0.1 0
v -0.4 0.5 0
v 0.3 0.1 0
v 0.3 0.5 0
v -0.4 0.1 0.1
v -0.4 0.5 0.1
v -0.2 0.1 0.1
v -0.2 0.3 0.1
v -0.2 0.4 0.1
v -0.1 0.1 0.1
v -0.1 0.3 0.1
v -0.1 0.4 0.1
v 0 0.1 0.1
v 0 0.2 0.1
v 0 0.4 0.1
v 0.1 0.1 0.1
v 0.1 0.2 0.1
v 0.1 0.4 0.1
v 0.3 0.1 0.1
v 0.3 0.5 0.1
v -0.4 0 -0.1
v -0.4 0.5 -0.1
v 0.3 0 -0.1
v 0.3 0.5 -0.1
v -0.4 0 0.2
v 0.3 0 0.2
v -0.4 0 -0.1
v 0.3 0 -0.1
v -0.4 0.1 0.1
v -0.2 0.1 0.1
v -0.1 0.1 0.1
v 0 0.1 0.1
v 0.1 0.1 0.1
v 0.3 0.1 0.1
v -0.4 0.1 0
v 0.3 0.1 0
v -0.4 0.5 0.2
v 0.3 0.5 0.2
v -0.4 0.5 0.1
v 0.3 0.5 0.1
v -0.4 0.5 0
v 0.3 0.5 0
v -0.4 0.5 -0.1
v 0.3 0.5 -0.1

# faces
f 3/3/1 2/3/1 1/3/1
f 4/3/1 2/3/1 3/3/1
f 5/3/1 3/3/1 1/3/1
f 6/3/1 3/3/1 5/3/1
f 7/3/1 2/3/1 4/3/1
f 8/3/1 2/3/1 7/3/1
f 9/3/2 10/3/2 11/3/2
f 11/3/2 10/3/2 12/3/2
f 9/3/2 11/3/2 13/3/2
f 13/3/2 11/3/2 14/3/2
f 12/3/2 10/3/2 15/3/2
f 15/3/2 10/3/2 16/3/2
f 19/3/3 18/3/3 17/3/3
f 20/3/3 18/3/3 19/3/3
f 21/3/3 18/3/3 20/3/3
f 22/3/3 19/3/3 17/3/3
f 22/2/3 20/2/3 19/2/3
f 23/1/3 21/1/3 20/1/3
f 23/2/3 20/2/3 22/2/3
f 24/3/3 18/3/3 21/3/3
f 24/1/3 21/1/3 23/1/3
f 25/3/3 23/3/3 22/3/3
f 25/3/3 22/3/3 17/3/3
f 25/3/3 24/3/3 23/3/3
f 26/3/3 24/3/3 25/3/3
f 27/3/3 18/3/3 24/3/3
f 27/3/3 24/3/3 26/3/3
f 28/1/3 26/1/3 25/1/3
f 28/3/3 25/3/3 17/3/3
f 29/2/3 27/2/3 26/2/3
f 29/1/3 26/1/3 28/1/3
f 30/3/3 18/3/3 27/3/3
f 30/2/3 27/2/3 29/2/3
f 31/3/3 29/3/3 28/3/3
f 31/3/3 28/3/3 17/3/3
f 31/3/3 30/3/3 29/3/3
f 32/3/3 18/3/3 30/3/3
f 32/3/3 30/3/3 31/3/3
f 35/3/3 34/3/3 33/3/3
f 36/3/3 34/3/3 35/3/3
f 37/3/4 38/3/4 39/3/4
f 39/3/4 38/3/4 40/3/4
f 40/3/4 38/3/4 41/3/4
f 39/2/4 40/2/4 42/2/4
f 40/1/4 41/1/4 43/1/4
f 42/2/4 40/2/4 43/2/4
f 41/3/4 38/3/4 44/3/4
f 43/1/4 41/1/4 44/1/4
f 42/3/4 43/3/4 45/3/4
f 43/3/4 44/3/4 45/3/4
f 45/3/4 44/3/4 46/3/4
f 44/3/4 38/3/4 47/3/4
f 46/3/4 44/3/4 47/3/4
f 45/1/4 46/1/4 48/1/4
f 46/2/4 47/2/4 49/2/4
f 48/1/4 46/1/4 49/1/4
f 47/3/4 38/3/4 50/3/4
f 49/2/4 47/2/4 50/2/4
f 48/3/4 49/3/4 51/3/4
f 49/3/4 50/3/4 51/3/4
f 50/3/4 38/3/4 52/3/4
f 51/3/4 50/3/4 52/3/4
f 53/3/4 54/3/4 55/3/4
f 55/3/4 54/3/4 56/3/4
f 59/3/5 58/3/5 57/3/5
f 60/3/5 58/3/5 59/3/5
f 61/3/6 62/3/6 67/3/6
f 65/3/6 66/3/6 67/3/6
f 64/3/6 65/3/6 67/3/6
f 63/3/6 64/3/6 67/3/6
f 62/3/6 63/3/6 67/3/6
f 67/3/6 66/3/6 68/3/6
f 69/3/6 70/3/6 71/3/6
f 71/3/6 70/3/6 72/3/6
f 73/3/6 74/3/6 75/3/6
f 75/3/6 74/3/6 76/3/6
