# MagicaVoxel @ Ephtracy

# group
o 

# material
mtllib Office_Misc_Console_Woo_03.mtl
usemtl palette

# normals
vn -1 0 0
vn 1 0 0
vn 0 0 1
vn 0 0 -1
vn 0 -1 0
vn 0 1 0

# texcoords
vt 0.892578 0.5
vt 0.896484 0.5

# verts
v -0.4 0 0.4
v -0.4 0 -0.3
v -0.4 0.2 0.4
v -0.4 0.2 -0.3
v 0.3 0 0.4
v 0.3 0 -0.3
v 0.3 0.2 0.4
v 0.3 0.2 -0.3
v -0.4 0 0.4
v -0.4 0.2 0.4
v -0.3 0 0.4
v -0.3 0.1 0.4
v -0.2 0 0.4
v -0.2 0.1 0.4
v -0.1 0 0.4
v -0.1 0.1 0.4
v 0.2 0 0.4
v 0.2 0.1 0.4
v 0.3 0 0.4
v 0.3 0.2 0.4
v -0.4 0 -0.3
v -0.4 0.2 -0.3
v 0.3 0 -0.3
v 0.3 0.2 -0.3
v -0.4 0 0.4
v -0.3 0 0.4
v -0.2 0 0.4
v -0.1 0 0.4
v 0.2 0 0.4
v 0.3 0 0.4
v -0.3 0 0.3
v -0.2 0 0.3
v -0.1 0 0.3
v 0.2 0 0.3
v -0.4 0 -0.3
v 0.3 0 -0.3
v -0.4 0.2 0.4
v 0.3 0.2 0.4
v -0.4 0.2 -0.3
v 0.3 0.2 -0.3

# faces
f 3/2/1 2/2/1 1/2/1
f 4/2/1 2/2/1 3/2/1
f 5/2/2 6/2/2 7/2/2
f 7/2/2 6/2/2 8/2/2
f 11/2/3 10/2/3 9/2/3
f 12/2/3 10/2/3 11/2/3
f 13/1/3 12/1/3 11/1/3
f 14/2/3 10/2/3 12/2/3
f 14/1/3 12/1/3 13/1/3
f 15/2/3 14/2/3 13/2/3
f 16/2/3 10/2/3 14/2/3
f 16/2/3 14/2/3 15/2/3
f 17/1/3 16/1/3 15/1/3
f 18/2/3 10/2/3 16/2/3
f 18/1/3 16/1/3 17/1/3
f 19/2/3 18/2/3 17/2/3
f 20/2/3 10/2/3 18/2/3
f 20/2/3 18/2/3 19/2/3
f 21/2/4 22/2/4 23/2/4
f 23/2/4 22/2/4 24/2/4
f 31/2/5 26/2/5 25/2/5
f 31/1/5 27/1/5 26/1/5
f 32/2/5 28/2/5 27/2/5
f 32/1/5 27/1/5 31/1/5
f 33/1/5 29/1/5 28/1/5
f 33/2/5 28/2/5 32/2/5
f 34/2/5 30/2/5 29/2/5
f 34/1/5 29/1/5 33/1/5
f 35/2/5 33/2/5 32/2/5
f 35/2/5 32/2/5 31/2/5
f 35/2/5 34/2/5 33/2/5
f 35/2/5 31/2/5 25/2/5
f 36/2/5 30/2/5 34/2/5
f 36/2/5 34/2/5 35/2/5
f 37/2/6 38/2/6 39/2/6
f 39/2/6 38/2/6 40/2/6
