# MagicaVoxel @ Ephtracy

# group
o 

# material
mtllib Office_Cubicle_Regular_04.mtl
usemtl palette

# normals
vn -1 0 0
vn 1 0 0
vn 0 0 1
vn 0 0 -1
vn 0 -1 0
vn 0 1 0

# texcoords
vt 0.904297 0.5
vt 0.916016 0.5

# verts
v -1.6 0 1.6
v -1.6 0 -1.6
v -1.6 0.1 1.6
v -1.6 0.1 -1.6
v -1.6 2.4 1.6
v -1.6 2.4 -1.6
v 1.3 0 1.6
v 1.3 0 -1.3
v 1.3 0.1 1.6
v 1.3 0.1 -1.3
v 1.3 1.2 1.5
v 1.3 1.2 -1.3
v 1.3 2.3 1.5
v 1.3 2.3 -1.3
v 1.3 2.4 1.6
v 1.3 2.4 -1.3
v 1.4 1.2 -1.4
v 1.4 1.2 -1.5
v 1.4 2.3 -1.4
v 1.4 2.3 -1.5
v 1.5 1.2 1.5
v 1.5 1.2 -1.4
v 1.5 2.3 1.5
v 1.5 2.3 -1.4
v -1.5 1.2 1.5
v -1.5 1.2 -1.4
v -1.5 2.3 1.5
v -1.5 2.3 -1.4
v -1.4 1.2 -1.4
v -1.4 1.2 -1.5
v -1.4 2.3 -1.4
v -1.4 2.3 -1.5
v -1.3 0 1.6
v -1.3 0 -1.3
v -1.3 0.1 1.6
v -1.3 0.1 -1.3
v -1.3 1.2 1.5
v -1.3 1.2 -1.3
v -1.3 2.3 1.5
v -1.3 2.3 -1.3
v -1.3 2.4 1.6
v -1.3 2.4 -1.3
v 1.6 0 1.6
v 1.6 0 -1.6
v 1.6 0.1 1.6
v 1.6 0.1 -1.6
v 1.6 2.4 1.6
v 1.6 2.4 -1.6
v -1.6 0 1.6
v -1.6 0.1 1.6
v -1.6 2.4 1.6
v -1.3 0 1.6
v -1.3 0.1 1.6
v -1.3 2.4 1.6
v 1.3 0 1.6
v 1.3 0.1 1.6
v 1.3 2.4 1.6
v 1.6 0 1.6
v 1.6 0.1 1.6
v 1.6 2.4 1.6
v -1.3 0 -1.3
v -1.3 0.1 -1.3
v -1.3 1.2 -1.3
v -1.3 2.3 -1.3
v -1.3 2.4 -1.3
v 1.3 0 -1.3
v 1.3 0.1 -1.3
v 1.3 1.2 -1.3
v 1.3 2.3 -1.3
v 1.3 2.4 -1.3
v -1.5 1.2 -1.4
v -1.5 2.3 -1.4
v -1.4 1.2 -1.4
v -1.4 2.3 -1.4
v 1.4 1.2 -1.4
v 1.4 2.3 -1.4
v 1.5 1.2 -1.4
v 1.5 2.3 -1.4
v -1.4 1.2 -1.5
v -1.4 2.3 -1.5
v 1.4 1.2 -1.5
v 1.4 2.3 -1.5
v -1.5 1.2 1.5
v -1.5 2.3 1.5
v -1.3 1.2 1.5
v -1.3 2.3 1.5
v 1.3 1.2 1.5
v 1.3 2.3 1.5
v 1.5 1.2 1.5
v 1.5 2.3 1.5
v -1.6 0 -1.6
v -1.6 0.1 -1.6
v -1.6 2.4 -1.6
v 1.6 0 -1.6
v 1.6 0.1 -1.6
v 1.6 2.4 -1.6
v -1.6 0 1.6
v -1.3 0 1.6
v 1.3 0 1.6
v 1.6 0 1.6
v -1.3 0 -1.3
v 1.3 0 -1.3
v -1.6 0 -1.6
v 1.6 0 -1.6
v -1.5 2.3 1.5
v -1.3 2.3 1.5
v 1.3 2.3 1.5
v 1.5 2.3 1.5
v -1.3 2.3 -1.3
v 1.3 2.3 -1.3
v -1.5 2.3 -1.4
v -1.4 2.3 -1.4
v 1.4 2.3 -1.4
v 1.5 2.3 -1.4
v -1.4 2.3 -1.5
v 1.4 2.3 -1.5
v -1.5 1.2 1.5
v -1.3 1.2 1.5
v 1.3 1.2 1.5
v 1.5 1.2 1.5
v -1.3 1.2 -1.3
v 1.3 1.2 -1.3
v -1.5 1.2 -1.4
v -1.4 1.2 -1.4
v 1.4 1.2 -1.4
v 1.5 1.2 -1.4
v -1.4 1.2 -1.5
v 1.4 1.2 -1.5
v -1.6 2.4 1.6
v -1.3 2.4 1.6
v 1.3 2.4 1.6
v 1.6 2.4 1.6
v -1.3 2.4 -1.3
v 1.3 2.4 -1.3
v -1.6 2.4 -1.6
v 1.6 2.4 -1.6

# faces
f 3/1/1 2/1/1 1/1/1
f 4/1/1 2/1/1 3/1/1
f 5/2/1 4/2/1 3/2/1
f 6/2/1 4/2/1 5/2/1
f 9/1/1 8/1/1 7/1/1
f 10/1/1 8/1/1 9/1/1
f 11/2/1 10/2/1 9/2/1
f 12/2/1 10/2/1 11/2/1
f 13/2/1 11/2/1 9/2/1
f 15/2/1 13/2/1 9/2/1
f 15/2/1 14/2/1 13/2/1
f 16/2/1 14/2/1 15/2/1
f 19/2/1 18/2/1 17/2/1
f 20/2/1 18/2/1 19/2/1
f 23/2/1 22/2/1 21/2/1
f 24/2/1 22/2/1 23/2/1
f 25/2/2 26/2/2 27/2/2
f 27/2/2 26/2/2 28/2/2
f 29/2/2 30/2/2 31/2/2
f 31/2/2 30/2/2 32/2/2
f 33/1/2 34/1/2 35/1/2
f 35/1/2 34/1/2 36/1/2
f 35/2/2 36/2/2 37/2/2
f 37/2/2 36/2/2 38/2/2
f 35/2/2 37/2/2 39/2/2
f 35/2/2 39/2/2 41/2/2
f 39/2/2 40/2/2 41/2/2
f 41/2/2 40/2/2 42/2/2
f 43/1/2 44/1/2 45/1/2
f 45/1/2 44/1/2 46/1/2
f 45/2/2 46/2/2 47/2/2
f 47/2/2 46/2/2 48/2/2
f 52/1/3 50/1/3 49/1/3
f 53/2/3 51/2/3 50/2/3
f 53/1/3 50/1/3 52/1/3
f 54/2/3 51/2/3 53/2/3
f 58/1/3 56/1/3 55/1/3
f 59/2/3 57/2/3 56/2/3
f 59/1/3 56/1/3 58/1/3
f 60/2/3 57/2/3 59/2/3
f 66/1/3 62/1/3 61/1/3
f 67/2/3 63/2/3 62/2/3
f 67/1/3 62/1/3 66/1/3
f 68/2/3 63/2/3 67/2/3
f 69/2/3 65/2/3 64/2/3
f 70/2/3 65/2/3 69/2/3
f 73/2/3 72/2/3 71/2/3
f 74/2/3 72/2/3 73/2/3
f 77/2/3 76/2/3 75/2/3
f 78/2/3 76/2/3 77/2/3
f 81/2/3 80/2/3 79/2/3
f 82/2/3 80/2/3 81/2/3
f 83/2/4 84/2/4 85/2/4
f 85/2/4 84/2/4 86/2/4
f 87/2/4 88/2/4 89/2/4
f 89/2/4 88/2/4 90/2/4
f 91/1/4 92/1/4 94/1/4
f 92/2/4 93/2/4 95/2/4
f 94/1/4 92/1/4 95/1/4
f 95/2/4 93/2/4 96/2/4
f 101/1/5 98/1/5 97/1/5
f 102/1/5 100/1/5 99/1/5
f 103/1/5 101/1/5 97/1/5
f 103/1/5 102/1/5 101/1/5
f 104/1/5 100/1/5 102/1/5
f 104/1/5 102/1/5 103/1/5
f 109/2/5 106/2/5 105/2/5
f 110/2/5 108/2/5 107/2/5
f 111/2/5 109/2/5 105/2/5
f 111/2/5 110/2/5 109/2/5
f 112/2/5 110/2/5 111/2/5
f 113/2/5 108/2/5 110/2/5
f 113/2/5 110/2/5 112/2/5
f 114/2/5 108/2/5 113/2/5
f 115/2/5 113/2/5 112/2/5
f 116/2/5 113/2/5 115/2/5
f 117/2/6 118/2/6 121/2/6
f 119/2/6 120/2/6 122/2/6
f 117/2/6 121/2/6 123/2/6
f 121/2/6 122/2/6 123/2/6
f 123/2/6 122/2/6 124/2/6
f 122/2/6 120/2/6 125/2/6
f 124/2/6 122/2/6 125/2/6
f 125/2/6 120/2/6 126/2/6
f 124/2/6 125/2/6 127/2/6
f 127/2/6 125/2/6 128/2/6
f 129/2/6 130/2/6 133/2/6
f 131/2/6 132/2/6 134/2/6
f 129/2/6 133/2/6 135/2/6
f 133/2/6 134/2/6 135/2/6
f 134/2/6 132/2/6 136/2/6
f 135/2/6 134/2/6 136/2/6
