# MagicaVoxel @ Ephtracy

# group
o 

# material
mtllib Office_Cubicle_White_05.mtl
usemtl palette

# normals
vn -1 0 0
vn 1 0 0
vn 0 0 1
vn 0 0 -1
vn 0 -1 0
vn 0 1 0

# texcoords
vt 0.888672 0.5
vt 0.904297 0.5

# verts
v -1.6 0 1.6
v -1.6 0 -1.6
v -1.6 0.1 1.6
v -1.6 0.1 -1.6
v -1.6 2.4 1.6
v -1.6 2.4 -1.6
v 1.4 1.2 -1.4
v 1.4 1.2 -1.5
v 1.4 2.3 -1.4
v 1.4 2.3 -1.5
v 1.5 0 1.6
v 1.5 0 -1.3
v 1.5 0.1 1.6
v 1.5 0.1 -1.3
v 1.5 1.2 -1.3
v 1.5 1.2 -1.4
v 1.5 2.3 -1.3
v 1.5 2.3 -1.4
v 1.5 2.4 1.6
v 1.5 2.4 -1.3
v -1.5 1.2 1.4
v -1.5 1.2 -1.4
v -1.5 2.3 1.4
v -1.5 2.3 -1.4
v -1.4 1.2 1.5
v -1.4 1.2 1.4
v -1.4 1.2 -1.4
v -1.4 1.2 -1.5
v -1.4 2.3 1.5
v -1.4 2.3 1.4
v -1.4 2.3 -1.4
v -1.4 2.3 -1.5
v -1.3 0 1.5
v -1.3 0 -1.3
v -1.3 0.1 1.5
v -1.3 0.1 -1.3
v -1.3 1.2 1.5
v -1.3 1.2 -1.3
v -1.3 2.3 1.5
v -1.3 2.3 -1.3
v -1.3 2.4 1.5
v -1.3 2.4 -1.3
v 0 0 1.6
v 0 0 1.5
v 0 0.1 1.6
v 0 0.1 1.5
v 0 2.4 1.6
v 0 2.4 1.5
v 1.6 0 1.6
v 1.6 0 -1.6
v 1.6 0.1 1.6
v 1.6 0.1 -1.6
v 1.6 2.4 1.6
v 1.6 2.4 -1.6
v -1.6 0 1.6
v -1.6 0.1 1.6
v -1.6 2.4 1.6
v 0 0 1.6
v 0 0.1 1.6
v 0 2.4 1.6
v 1.5 0 1.6
v 1.5 0.1 1.6
v 1.5 2.4 1.6
v 1.6 0 1.6
v 1.6 0.1 1.6
v 1.6 2.4 1.6
v -1.3 0 -1.3
v -1.3 0.1 -1.3
v -1.3 1.2 -1.3
v -1.3 2.3 -1.3
v -1.3 2.4 -1.3
v 1.5 0 -1.3
v 1.5 0.1 -1.3
v 1.5 1.2 -1.3
v 1.5 2.3 -1.3
v 1.5 2.4 -1.3
v -1.5 1.2 -1.4
v -1.5 2.3 -1.4
v -1.4 1.2 -1.4
v -1.4 2.3 -1.4
v 1.4 1.2 -1.4
v 1.4 2.3 -1.4
v 1.5 1.2 -1.4
v 1.5 2.3 -1.4
v -1.4 1.2 -1.5
v -1.4 2.3 -1.5
v 1.4 1.2 -1.5
v 1.4 2.3 -1.5
v -1.4 1.2 1.5
v -1.4 2.3 1.5
v -1.3 0 1.5
v -1.3 0.1 1.5
v -1.3 1.2 1.5
v -1.3 2.3 1.5
v -1.3 2.4 1.5
v 0 0 1.5
v 0 0.1 1.5
v 0 2.4 1.5
v -1.5 1.2 1.4
v -1.5 2.3 1.4
v -1.4 1.2 1.4
v -1.4 2.3 1.4
v -1.6 0 -1.6
v -1.6 0.1 -1.6
v -1.6 2.4 -1.6
v 1.6 0 -1.6
v 1.6 0.1 -1.6
v 1.6 2.4 -1.6
v -1.6 0 1.6
v 0 0 1.6
v 1.5 0 1.6
v 1.6 0 1.6
v -1.3 0 1.5
v 0 0 1.5
v -1.3 0 -1.3
v 1.5 0 -1.3
v -1.6 0 -1.6
v 1.6 0 -1.6
v -1.4 2.3 1.5
v -1.3 2.3 1.5
v -1.5 2.3 1.4
v -1.4 2.3 1.4
v -1.3 2.3 -1.3
v 1.5 2.3 -1.3
v -1.5 2.3 -1.4
v -1.4 2.3 -1.4
v 1.4 2.3 -1.4
v 1.5 2.3 -1.4
v -1.4 2.3 -1.5
v 1.4 2.3 -1.5
v -1.4 1.2 1.5
v -1.3 1.2 1.5
v -1.5 1.2 1.4
v -1.4 1.2 1.4
v -1.3 1.2 -1.3
v 1.5 1.2 -1.3
v -1.5 1.2 -1.4
v -1.4 1.2 -1.4
v 1.4 1.2 -1.4
v 1.5 1.2 -1.4
v -1.4 1.2 -1.5
v 1.4 1.2 -1.5
v -1.6 2.4 1.6
v 0 2.4 1.6
v 1.5 2.4 1.6
v 1.6 2.4 1.6
v -1.3 2.4 1.5
v 0 2.4 1.5
v -1.3 2.4 -1.3
v 1.5 2.4 -1.3
v -1.6 2.4 -1.6
v 1.6 2.4 -1.6

# faces
f 3/2/1 2/2/1 1/2/1
f 4/2/1 2/2/1 3/2/1
f 5/1/1 4/1/1 3/1/1
f 6/1/1 4/1/1 5/1/1
f 9/1/1 8/1/1 7/1/1
f 10/1/1 8/1/1 9/1/1
f 13/2/1 12/2/1 11/2/1
f 14/2/1 12/2/1 13/2/1
f 15/1/1 14/1/1 13/1/1
f 17/1/1 15/1/1 13/1/1
f 17/1/1 16/1/1 15/1/1
f 18/1/1 16/1/1 17/1/1
f 19/1/1 17/1/1 13/1/1
f 20/1/1 17/1/1 19/1/1
f 21/1/2 22/1/2 23/1/2
f 23/1/2 22/1/2 24/1/2
f 25/1/2 26/1/2 29/1/2
f 29/1/2 26/1/2 30/1/2
f 27/1/2 28/1/2 31/1/2
f 31/1/2 28/1/2 32/1/2
f 33/2/2 34/2/2 35/2/2
f 35/2/2 34/2/2 36/2/2
f 35/1/2 36/1/2 37/1/2
f 37/1/2 36/1/2 38/1/2
f 39/1/2 40/1/2 41/1/2
f 41/1/2 40/1/2 42/1/2
f 43/2/2 44/2/2 45/2/2
f 45/2/2 44/2/2 46/2/2
f 45/1/2 46/1/2 47/1/2
f 47/1/2 46/1/2 48/1/2
f 49/2/2 50/2/2 51/2/2
f 51/2/2 50/2/2 52/2/2
f 51/1/2 52/1/2 53/1/2
f 53/1/2 52/1/2 54/1/2
f 58/2/3 56/2/3 55/2/3
f 59/1/3 57/1/3 56/1/3
f 59/2/3 56/2/3 58/2/3
f 60/1/3 57/1/3 59/1/3
f 64/2/3 62/2/3 61/2/3
f 65/1/3 63/1/3 62/1/3
f 65/2/3 62/2/3 64/2/3
f 66/1/3 63/1/3 65/1/3
f 72/2/3 68/2/3 67/2/3
f 73/1/3 69/1/3 68/1/3
f 73/2/3 68/2/3 72/2/3
f 74/1/3 69/1/3 73/1/3
f 75/1/3 71/1/3 70/1/3
f 76/1/3 71/1/3 75/1/3
f 79/1/3 78/1/3 77/1/3
f 80/1/3 78/1/3 79/1/3
f 83/1/3 82/1/3 81/1/3
f 84/1/3 82/1/3 83/1/3
f 87/1/3 86/1/3 85/1/3
f 88/1/3 86/1/3 87/1/3
f 89/1/4 90/1/4 93/1/4
f 93/1/4 90/1/4 94/1/4
f 91/2/4 92/2/4 96/2/4
f 94/1/4 95/1/4 97/1/4
f 96/2/4 92/2/4 97/2/4
f 92/1/4 93/1/4 97/1/4
f 93/1/4 94/1/4 97/1/4
f 97/1/4 95/1/4 98/1/4
f 99/1/4 100/1/4 101/1/4
f 101/1/4 100/1/4 102/1/4
f 103/2/4 104/2/4 106/2/4
f 104/1/4 105/1/4 107/1/4
f 106/2/4 104/2/4 107/2/4
f 107/1/4 105/1/4 108/1/4
f 113/2/5 110/2/5 109/2/5
f 114/2/5 110/2/5 113/2/5
f 115/2/5 113/2/5 109/2/5
f 116/2/5 112/2/5 111/2/5
f 117/2/5 115/2/5 109/2/5
f 117/2/5 116/2/5 115/2/5
f 118/2/5 112/2/5 116/2/5
f 118/2/5 116/2/5 117/2/5
f 122/1/5 120/1/5 119/1/5
f 123/1/5 120/1/5 122/1/5
f 123/1/5 122/1/5 121/1/5
f 125/1/5 123/1/5 121/1/5
f 125/1/5 124/1/5 123/1/5
f 126/1/5 124/1/5 125/1/5
f 127/1/5 124/1/5 126/1/5
f 128/1/5 124/1/5 127/1/5
f 129/1/5 127/1/5 126/1/5
f 130/1/5 127/1/5 129/1/5
f 131/1/6 132/1/6 134/1/6
f 134/1/6 132/1/6 135/1/6
f 133/1/6 134/1/6 135/1/6
f 133/1/6 135/1/6 137/1/6
f 135/1/6 136/1/6 137/1/6
f 137/1/6 136/1/6 138/1/6
f 138/1/6 136/1/6 139/1/6
f 139/1/6 136/1/6 140/1/6
f 138/1/6 139/1/6 141/1/6
f 141/1/6 139/1/6 142/1/6
f 143/1/6 144/1/6 147/1/6
f 147/1/6 144/1/6 148/1/6
f 143/1/6 147/1/6 149/1/6
f 145/1/6 146/1/6 150/1/6
f 143/1/6 149/1/6 151/1/6
f 149/1/6 150/1/6 151/1/6
f 150/1/6 146/1/6 152/1/6
f 151/1/6 150/1/6 152/1/6
