# MagicaVoxel @ Ephtracy

# group
o 

# material
mtllib Office_Cubicle_Regular_01.mtl
usemtl palette

# normals
vn -1 0 0
vn 1 0 0
vn 0 0 1
vn 0 0 -1
vn 0 -1 0
vn 0 1 0

# texcoords
vt 0.904297 0.5
vt 0.916016 0.5

# verts
v -1.6 0 1.6
v -1.6 0 -1.6
v -1.6 0.1 1.6
v -1.6 0.1 -1.6
v -1.6 2.4 1.6
v -1.6 2.4 -1.6
v 1.5 1.2 -1.3
v 1.5 1.2 -1.5
v 1.5 2.3 -1.3
v 1.5 2.3 -1.5
v -1.5 1.2 1.5
v -1.5 1.2 -1.4
v -1.5 2.3 1.5
v -1.5 2.3 -1.4
v -1.4 1.2 -1.4
v -1.4 1.2 -1.5
v -1.4 2.3 -1.4
v -1.4 2.3 -1.5
v -1.3 0 1.6
v -1.3 0 -1.3
v -1.3 0.1 1.6
v -1.3 0.1 -1.3
v -1.3 1.2 1.5
v -1.3 1.2 -1.3
v -1.3 2.3 1.5
v -1.3 2.3 -1.3
v -1.3 2.4 1.6
v -1.3 2.4 -1.3
v 1.6 0 -1.3
v 1.6 0 -1.6
v 1.6 0.1 -1.3
v 1.6 0.1 -1.6
v 1.6 2.4 -1.3
v 1.6 2.4 -1.6
v -1.6 0 1.6
v -1.6 0.1 1.6
v -1.6 2.4 1.6
v -1.3 0 1.6
v -1.3 0.1 1.6
v -1.3 2.4 1.6
v -1.3 0 -1.3
v -1.3 0.1 -1.3
v -1.3 1.2 -1.3
v -1.3 2.3 -1.3
v -1.3 2.4 -1.3
v 1.5 1.2 -1.3
v 1.5 2.3 -1.3
v 1.6 0 -1.3
v 1.6 0.1 -1.3
v 1.6 2.4 -1.3
v -1.5 1.2 -1.4
v -1.5 2.3 -1.4
v -1.4 1.2 -1.4
v -1.4 2.3 -1.4
v -1.4 1.2 -1.5
v -1.4 2.3 -1.5
v 1.5 1.2 -1.5
v 1.5 2.3 -1.5
v -1.5 1.2 1.5
v -1.5 2.3 1.5
v -1.3 1.2 1.5
v -1.3 2.3 1.5
v -1.6 0 -1.6
v -1.6 0.1 -1.6
v -1.6 2.4 -1.6
v 1.6 0 -1.6
v 1.6 0.1 -1.6
v 1.6 2.4 -1.6
v -1.6 0 1.6
v -1.3 0 1.6
v -1.3 0 -1.3
v 1.6 0 -1.3
v -1.6 0 -1.6
v 1.6 0 -1.6
v -1.5 2.3 1.5
v -1.3 2.3 1.5
v -1.3 2.3 -1.3
v 1.5 2.3 -1.3
v -1.5 2.3 -1.4
v -1.4 2.3 -1.4
v -1.4 2.3 -1.5
v 1.5 2.3 -1.5
v -1.5 1.2 1.5
v -1.3 1.2 1.5
v -1.3 1.2 -1.3
v 1.5 1.2 -1.3
v -1.5 1.2 -1.4
v -1.4 1.2 -1.4
v -1.4 1.2 -1.5
v 1.5 1.2 -1.5
v -1.6 2.4 1.6
v -1.3 2.4 1.6
v -1.3 2.4 -1.3
v 1.6 2.4 -1.3
v -1.6 2.4 -1.6
v 1.6 2.4 -1.6

# faces
f 3/1/1 2/1/1 1/1/1
f 4/1/1 2/1/1 3/1/1
f 5/2/1 4/2/1 3/2/1
f 6/2/1 4/2/1 5/2/1
f 9/2/1 8/2/1 7/2/1
f 10/2/1 8/2/1 9/2/1
f 11/2/2 12/2/2 13/2/2
f 13/2/2 12/2/2 14/2/2
f 15/2/2 16/2/2 17/2/2
f 17/2/2 16/2/2 18/2/2
f 19/1/2 20/1/2 21/1/2
f 21/1/2 20/1/2 22/1/2
f 21/2/2 22/2/2 23/2/2
f 23/2/2 22/2/2 24/2/2
f 21/2/2 23/2/2 25/2/2
f 21/2/2 25/2/2 27/2/2
f 25/2/2 26/2/2 27/2/2
f 27/2/2 26/2/2 28/2/2
f 29/1/2 30/1/2 31/1/2
f 31/1/2 30/1/2 32/1/2
f 31/2/2 32/2/2 33/2/2
f 33/2/2 32/2/2 34/2/2
f 38/1/3 36/1/3 35/1/3
f 39/2/3 37/2/3 36/2/3
f 39/1/3 36/1/3 38/1/3
f 40/2/3 37/2/3 39/2/3
f 46/2/3 43/2/3 42/2/3
f 47/2/3 45/2/3 44/2/3
f 48/1/3 42/1/3 41/1/3
f 49/2/3 47/2/3 46/2/3
f 49/1/3 42/1/3 48/1/3
f 49/2/3 46/2/3 42/2/3
f 50/2/3 45/2/3 47/2/3
f 50/2/3 47/2/3 49/2/3
f 53/2/3 52/2/3 51/2/3
f 54/2/3 52/2/3 53/2/3
f 57/2/3 56/2/3 55/2/3
f 58/2/3 56/2/3 57/2/3
f 59/2/4 60/2/4 61/2/4
f 61/2/4 60/2/4 62/2/4
f 63/1/4 64/1/4 66/1/4
f 64/2/4 65/2/4 67/2/4
f 66/1/4 64/1/4 67/1/4
f 67/2/4 65/2/4 68/2/4
f 71/1/5 70/1/5 69/1/5
f 73/1/5 71/1/5 69/1/5
f 73/1/5 72/1/5 71/1/5
f 74/1/5 72/1/5 73/1/5
f 77/2/5 76/2/5 75/2/5
f 79/2/5 77/2/5 75/2/5
f 79/2/5 78/2/5 77/2/5
f 80/2/5 78/2/5 79/2/5
f 81/2/5 78/2/5 80/2/5
f 82/2/5 78/2/5 81/2/5
f 83/2/6 84/2/6 85/2/6
f 83/2/6 85/2/6 87/2/6
f 85/2/6 86/2/6 87/2/6
f 87/2/6 86/2/6 88/2/6
f 88/2/6 86/2/6 89/2/6
f 89/2/6 86/2/6 90/2/6
f 91/2/6 92/2/6 93/2/6
f 91/2/6 93/2/6 95/2/6
f 93/2/6 94/2/6 95/2/6
f 95/2/6 94/2/6 96/2/6
