# MagicaVoxel @ Ephtracy

# group
o 

# material
mtllib Office_Misc_Trashcan_Small_03.mtl
usemtl palette

# normals
vn 0 0 -1
vn 0 0 1
vn -1 0 0
vn 1 0 0
vn 0 -1 0
vn 0 1 0

# texcoords
vt 0.767578 0.5
vt 0.880859 0.5
vt 0.884766 0.5
vt 0.888672 0.5
vt 0.904297 0.5
vt 0.935547 0.5

# verts
v -0.3 0.4 -0.3
v 0.1 0.4 -0.3
v -0.3 0.5 -0.3
v -0.2 0.5 -0.3
v 0 0.5 -0.3
v 0.1 0.5 -0.3
v -0.3 0.6 -0.3
v -0.2 0.6 -0.3
v 0 0.6 -0.3
v 0.1 0.6 -0.3
v -0.3 0 -0.2
v 0.1 0 -0.2
v -0.3 0.1 -0.2
v -0.2 0.1 -0.2
v 0 0.1 -0.2
v 0.1 0.1 -0.2
v -0.3 0.2 -0.2
v -0.2 0.2 -0.2
v 0 0.2 -0.2
v 0.1 0.2 -0.2
v -0.4 0.4 -0.2
v -0.3 0.4 -0.2
v 0.1 0.4 -0.2
v 0.2 0.4 -0.2
v -0.4 0.5 -0.2
v -0.3 0.5 -0.2
v 0.1 0.5 -0.2
v 0.2 0.5 -0.2
v -0.4 0.6 -0.2
v -0.3 0.6 -0.2
v 0.1 0.6 -0.2
v 0.2 0.6 -0.2
v -0.3 0.5 0.2
v -0.2 0.5 0.2
v 0 0.5 0.2
v 0.1 0.5 0.2
v -0.3 0.6 0.2
v -0.2 0.6 0.2
v 0 0.6 0.2
v 0.1 0.6 0.2
v -0.3 0.5 -0.2
v -0.2 0.5 -0.2
v 0 0.5 -0.2
v 0.1 0.5 -0.2
v -0.3 0.6 -0.2
v -0.2 0.6 -0.2
v 0 0.6 -0.2
v 0.1 0.6 -0.2
v -0.3 0 0.2
v 0.1 0 0.2
v -0.3 0.1 0.2
v -0.2 0.1 0.2
v 0 0.1 0.2
v 0.1 0.1 0.2
v -0.3 0.2 0.2
v -0.2 0.2 0.2
v 0 0.2 0.2
v 0.1 0.2 0.2
v -0.4 0.4 0.2
v -0.3 0.4 0.2
v 0.1 0.4 0.2
v 0.2 0.4 0.2
v -0.4 0.5 0.2
v -0.3 0.5 0.2
v 0.1 0.5 0.2
v 0.2 0.5 0.2
v -0.4 0.6 0.2
v -0.3 0.6 0.2
v 0.1 0.6 0.2
v 0.2 0.6 0.2
v -0.3 0.4 0.3
v 0.1 0.4 0.3
v -0.3 0.5 0.3
v -0.2 0.5 0.3
v 0 0.5 0.3
v 0.1 0.5 0.3
v -0.3 0.6 0.3
v -0.2 0.6 0.3
v 0 0.6 0.3
v 0.1 0.6 0.3
v -0.4 0.4 -0.2
v -0.4 0.5 -0.2
v -0.4 0.6 -0.2
v -0.4 0.5 -0.1
v -0.4 0.6 -0.1
v -0.4 0.5 0.1
v -0.4 0.6 0.1
v -0.4 0.4 0.2
v -0.4 0.5 0.2
v -0.4 0.6 0.2
v -0.3 0.4 -0.3
v -0.3 0.5 -0.3
v -0.3 0.6 -0.3
v -0.3 0 -0.2
v -0.3 0.1 -0.2
v -0.3 0.2 -0.2
v -0.3 0.4 -0.2
v -0.3 0.5 -0.2
v -0.3 0.6 -0.2
v -0.3 0.1 -0.1
v -0.3 0.2 -0.1
v -0.3 0.1 0.1
v -0.3 0.2 0.1
v -0.3 0 0.2
v -0.3 0.1 0.2
v -0.3 0.2 0.2
v -0.3 0.4 0.2
v -0.3 0.5 0.2
v -0.3 0.6 0.2
v -0.3 0.4 0.3
v -0.3 0.5 0.3
v -0.3 0.6 0.3
v 0.1 0.5 -0.2
v 0.1 0.6 -0.2
v 0.1 0.5 -0.1
v 0.1 0.6 -0.1
v 0.1 0.5 0.1
v 0.1 0.6 0.1
v 0.1 0.5 0.2
v 0.1 0.6 0.2
v -0.3 0.5 -0.2
v -0.3 0.6 -0.2
v -0.3 0.5 -0.1
v -0.3 0.6 -0.1
v -0.3 0.5 0.1
v -0.3 0.6 0.1
v -0.3 0.5 0.2
v -0.3 0.6 0.2
v 0.1 0.4 -0.3
v 0.1 0.5 -0.3
v 0.1 0.6 -0.3
v 0.1 0 -0.2
v 0.1 0.1 -0.2
v 0.1 0.2 -0.2
v 0.1 0.4 -0.2
v 0.1 0.5 -0.2
v 0.1 0.6 -0.2
v 0.1 0.1 -0.1
v 0.1 0.2 -0.1
v 0.1 0.1 0.1
v 0.1 0.2 0.1
v 0.1 0 0.2
v 0.1 0.1 0.2
v 0.1 0.2 0.2
v 0.1 0.4 0.2
v 0.1 0.5 0.2
v 0.1 0.6 0.2
v 0.1 0.4 0.3
v 0.1 0.5 0.3
v 0.1 0.6 0.3
v 0.2 0.4 -0.2
v 0.2 0.5 -0.2
v 0.2 0.6 -0.2
v 0.2 0.5 -0.1
v 0.2 0.6 -0.1
v 0.2 0.5 0.1
v 0.2 0.6 0.1
v 0.2 0.4 0.2
v 0.2 0.5 0.2
v 0.2 0.6 0.2
v -0.3 0 -0.2
v -0.3 0 0.2
v 0.1 0 -0.2
v 0.1 0 0.2
v -0.4 0.4 -0.2
v -0.4 0.4 0.2
v -0.3 0.4 -0.3
v -0.3 0.4 -0.2
v -0.3 0.4 0.2
v -0.3 0.4 0.3
v 0.1 0.4 -0.3
v 0.1 0.4 -0.2
v 0.1 0.4 0.2
v 0.1 0.4 0.3
v 0.2 0.4 -0.2
v 0.2 0.4 0.2
v -0.3 0.5 -0.2
v -0.3 0.5 -0.1
v -0.3 0.5 0.1
v -0.3 0.5 0.2
v -0.2 0.5 -0.2
v -0.2 0.5 0.2
v 0 0.5 -0.2
v 0 0.5 0.2
v 0.1 0.5 -0.2
v 0.1 0.5 -0.1
v 0.1 0.5 0.1
v 0.1 0.5 0.2
v -0.4 0.6 -0.2
v -0.4 0.6 -0.1
v -0.4 0.6 0.1
v -0.4 0.6 0.2
v -0.3 0.6 -0.3
v -0.3 0.6 -0.2
v -0.3 0.6 -0.1
v -0.3 0.6 0.1
v -0.3 0.6 0.2
v -0.3 0.6 0.3
v -0.2 0.6 -0.3
v -0.2 0.6 -0.2
v -0.2 0.6 0.2
v -0.2 0.6 0.3
v 0 0.6 -0.3
v 0 0.6 -0.2
v 0 0.6 0.2
v 0 0.6 0.3
v 0.1 0.6 -0.3
v 0.1 0.6 -0.2
v 0.1 0.6 -0.1
v 0.1 0.6 0.1
v 0.1 0.6 0.2
v 0.1 0.6 0.3
v 0.2 0.6 -0.2
v 0.2 0.6 -0.1
v 0.2 0.6 0.1
v 0.2 0.6 0.2

# faces
f 3/4/1 2/4/1 1/4/1
f 4/4/1 2/4/1 3/4/1
f 5/4/1 2/4/1 4/4/1
f 6/4/1 2/4/1 5/4/1
f 7/3/1 4/3/1 3/3/1
f 8/4/1 5/4/1 4/4/1
f 8/3/1 4/3/1 7/3/1
f 9/3/1 6/3/1 5/3/1
f 9/4/1 5/4/1 8/4/1
f 10/3/1 6/3/1 9/3/1
f 13/5/1 12/5/1 11/5/1
f 14/5/1 12/5/1 13/5/1
f 15/5/1 12/5/1 14/5/1
f 16/5/1 12/5/1 15/5/1
f 17/1/1 14/1/1 13/1/1
f 18/2/1 15/2/1 14/2/1
f 18/1/1 14/1/1 17/1/1
f 19/1/1 16/1/1 15/1/1
f 19/2/1 15/2/1 18/2/1
f 20/1/1 16/1/1 19/1/1
f 22/4/1 18/4/1 17/4/1
f 22/4/1 19/4/1 18/4/1
f 22/4/1 20/4/1 19/4/1
f 23/4/1 20/4/1 22/4/1
f 25/4/1 22/4/1 21/4/1
f 26/4/1 22/4/1 25/4/1
f 27/4/1 24/4/1 23/4/1
f 28/4/1 24/4/1 27/4/1
f 29/3/1 26/3/1 25/3/1
f 30/3/1 26/3/1 29/3/1
f 31/3/1 28/3/1 27/3/1
f 32/3/1 28/3/1 31/3/1
f 37/3/1 34/3/1 33/3/1
f 38/4/1 35/4/1 34/4/1
f 38/3/1 34/3/1 37/3/1
f 39/3/1 36/3/1 35/3/1
f 39/4/1 35/4/1 38/4/1
f 40/3/1 36/3/1 39/3/1
f 41/3/2 42/3/2 45/3/2
f 42/4/2 43/4/2 46/4/2
f 45/3/2 42/3/2 46/3/2
f 43/3/2 44/3/2 47/3/2
f 46/4/2 43/4/2 47/4/2
f 47/3/2 44/3/2 48/3/2
f 49/5/2 50/5/2 51/5/2
f 51/5/2 50/5/2 52/5/2
f 52/5/2 50/5/2 53/5/2
f 53/5/2 50/5/2 54/5/2
f 51/1/2 52/1/2 55/1/2
f 52/2/2 53/2/2 56/2/2
f 55/1/2 52/1/2 56/1/2
f 53/1/2 54/1/2 57/1/2
f 56/2/2 53/2/2 57/2/2
f 57/1/2 54/1/2 58/1/2
f 55/4/2 56/4/2 60/4/2
f 56/4/2 57/4/2 60/4/2
f 57/4/2 58/4/2 60/4/2
f 60/4/2 58/4/2 61/4/2
f 59/4/2 60/4/2 63/4/2
f 63/4/2 60/4/2 64/4/2
f 61/4/2 62/4/2 65/4/2
f 65/4/2 62/4/2 66/4/2
f 63/3/2 64/3/2 67/3/2
f 67/3/2 64/3/2 68/3/2
f 65/3/2 66/3/2 69/3/2
f 69/3/2 66/3/2 70/3/2
f 71/4/2 72/4/2 73/4/2
f 73/4/2 72/4/2 74/4/2
f 74/4/2 72/4/2 75/4/2
f 75/4/2 72/4/2 76/4/2
f 73/3/2 74/3/2 77/3/2
f 74/4/2 75/4/2 78/4/2
f 77/3/2 74/3/2 78/3/2
f 75/3/2 76/3/2 79/3/2
f 78/4/2 75/4/2 79/4/2
f 79/3/2 76/3/2 80/3/2
f 84/4/3 82/4/3 81/4/3
f 84/3/3 83/3/3 82/3/3
f 85/3/3 83/3/3 84/3/3
f 86/4/3 84/4/3 81/4/3
f 86/4/3 85/4/3 84/4/3
f 87/4/3 85/4/3 86/4/3
f 88/4/3 86/4/3 81/4/3
f 89/3/3 87/3/3 86/3/3
f 89/4/3 86/4/3 88/4/3
f 90/3/3 87/3/3 89/3/3
f 97/4/3 92/4/3 91/4/3
f 98/3/3 93/3/3 92/3/3
f 98/4/3 92/4/3 97/4/3
f 99/3/3 93/3/3 98/3/3
f 100/1/3 96/1/3 95/1/3
f 100/5/3 95/5/3 94/5/3
f 101/4/3 97/4/3 96/4/3
f 101/1/3 96/1/3 100/1/3
f 102/5/3 100/5/3 94/5/3
f 102/2/3 101/2/3 100/2/3
f 103/4/3 97/4/3 101/4/3
f 103/2/3 101/2/3 102/2/3
f 104/5/3 102/5/3 94/5/3
f 105/1/3 103/1/3 102/1/3
f 105/5/3 102/5/3 104/5/3
f 106/4/3 97/4/3 103/4/3
f 106/1/3 103/1/3 105/1/3
f 107/4/3 97/4/3 106/4/3
f 110/4/3 108/4/3 107/4/3
f 111/3/3 109/3/3 108/3/3
f 111/4/3 108/4/3 110/4/3
f 112/3/3 109/3/3 111/3/3
f 115/3/3 114/3/3 113/3/3
f 116/3/3 114/3/3 115/3/3
f 117/4/3 116/4/3 115/4/3
f 118/4/3 116/4/3 117/4/3
f 119/3/3 118/3/3 117/3/3
f 120/3/3 118/3/3 119/3/3
f 121/3/4 122/3/4 123/3/4
f 123/3/4 122/3/4 124/3/4
f 123/4/4 124/4/4 125/4/4
f 125/4/4 124/4/4 126/4/4
f 125/3/4 126/3/4 127/3/4
f 127/3/4 126/3/4 128/3/4
f 129/4/4 130/4/4 135/4/4
f 130/3/4 131/3/4 136/3/4
f 135/4/4 130/4/4 136/4/4
f 136/3/4 131/3/4 137/3/4
f 133/1/4 134/1/4 138/1/4
f 132/5/4 133/5/4 138/5/4
f 134/4/4 135/4/4 139/4/4
f 138/1/4 134/1/4 139/1/4
f 132/5/4 138/5/4 140/5/4
f 138/2/4 139/2/4 140/2/4
f 139/4/4 135/4/4 141/4/4
f 140/2/4 139/2/4 141/2/4
f 132/5/4 140/5/4 142/5/4
f 140/1/4 141/1/4 143/1/4
f 142/5/4 140/5/4 143/5/4
f 141/4/4 135/4/4 144/4/4
f 143/1/4 141/1/4 144/1/4
f 144/4/4 135/4/4 145/4/4
f 145/4/4 146/4/4 148/4/4
f 146/3/4 147/3/4 149/3/4
f 148/4/4 146/4/4 149/4/4
f 149/3/4 147/3/4 150/3/4
f 151/4/4 152/4/4 154/4/4
f 152/3/4 153/3/4 154/3/4
f 154/3/4 153/3/4 155/3/4
f 151/4/4 154/4/4 156/4/4
f 154/4/4 155/4/4 156/4/4
f 156/4/4 155/4/4 157/4/4
f 151/4/4 156/4/4 158/4/4
f 156/3/4 157/3/4 159/3/4
f 158/4/4 156/4/4 159/4/4
f 159/3/4 157/3/4 160/3/4
f 163/5/5 162/5/5 161/5/5
f 164/5/5 162/5/5 163/5/5
f 168/4/5 166/4/5 165/4/5
f 169/4/5 166/4/5 168/4/5
f 171/4/5 168/4/5 167/4/5
f 172/4/5 168/4/5 171/4/5
f 173/4/5 170/4/5 169/4/5
f 174/4/5 170/4/5 173/4/5
f 175/4/5 173/4/5 172/4/5
f 176/4/5 173/4/5 175/4/5
f 177/6/6 178/6/6 181/6/6
f 179/6/6 180/6/6 181/6/6
f 178/6/6 179/6/6 181/6/6
f 181/6/6 180/6/6 182/6/6
f 181/6/6 182/6/6 183/6/6
f 183/6/6 182/6/6 184/6/6
f 183/6/6 184/6/6 185/6/6
f 185/6/6 184/6/6 186/6/6
f 186/6/6 184/6/6 187/6/6
f 187/6/6 184/6/6 188/6/6
f 189/3/6 190/3/6 194/3/6
f 190/4/6 191/4/6 195/4/6
f 194/3/6 190/3/6 195/3/6
f 191/3/6 192/3/6 196/3/6
f 195/4/6 191/4/6 196/4/6
f 196/3/6 192/3/6 197/3/6
f 193/3/6 194/3/6 199/3/6
f 199/3/6 194/3/6 200/3/6
f 197/3/6 198/3/6 201/3/6
f 201/3/6 198/3/6 202/3/6
f 199/4/6 200/4/6 203/4/6
f 203/4/6 200/4/6 204/4/6
f 201/4/6 202/4/6 205/4/6
f 205/4/6 202/4/6 206/4/6
f 203/3/6 204/3/6 207/3/6
f 207/3/6 204/3/6 208/3/6
f 205/3/6 206/3/6 211/3/6
f 211/3/6 206/3/6 212/3/6
f 208/3/6 209/3/6 213/3/6
f 209/4/6 210/4/6 214/4/6
f 213/3/6 209/3/6 214/3/6
f 210/3/6 211/3/6 215/3/6
f 214/4/6 210/4/6 215/4/6
f 215/3/6 211/3/6 216/3/6
