# MagicaVoxel @ Ephtracy

# group
o 

# material
mtllib Office_Misc_Trashcan_Big_05.mtl
usemtl palette

# normals
vn 0 0 1
vn 0 0 -1
vn 1 0 0
vn -1 0 0
vn 0 -1 0
vn 0 1 0

# texcoords
vt 0.767578 0.5
vt 0.880859 0.5
vt 0.884766 0.5
vt 0.888672 0.5
vt 0.892578 0.5
vt 0.904297 0.5
vt 0.935547 0.5

# verts
v 0.2 0 0.3
v -0.3 0 0.3
v 0.2 0.1 0.3
v 0.1 0.1 0.3
v -0.2 0.1 0.3
v -0.3 0.1 0.3
v 0.2 0.2 0.3
v 0.1 0.2 0.3
v -0.2 0.2 0.3
v -0.3 0.2 0.3
v 0.2 0.3 0.3
v 0.1 0.3 0.3
v -0.2 0.3 0.3
v -0.3 0.3 0.3
v 0.2 0.8 0.3
v 0.1 0.8 0.3
v -0.2 0.8 0.3
v -0.3 0.8 0.3
v 0.2 0.9 0.3
v 0.1 0.9 0.3
v -0.2 0.9 0.3
v -0.3 0.9 0.3
v 0.2 1 0.3
v 0.1 1 0.3
v -0.2 1 0.3
v -0.3 1 0.3
v 0.2 1.1 0.3
v 0.1 1.1 0.3
v -0.2 1.1 0.3
v -0.3 1.1 0.3
v 0.3 0 0.2
v 0.2 0 0.2
v -0.3 0 0.2
v -0.4 0 0.2
v 0.3 0.1 0.2
v 0.2 0.1 0.2
v -0.3 0.1 0.2
v -0.4 0.1 0.2
v 0.3 0.2 0.2
v 0.2 0.2 0.2
v -0.3 0.2 0.2
v -0.4 0.2 0.2
v 0.3 0.3 0.2
v 0.2 0.3 0.2
v -0.3 0.3 0.2
v -0.4 0.3 0.2
v 0.3 0.8 0.2
v 0.2 0.8 0.2
v -0.3 0.8 0.2
v -0.4 0.8 0.2
v 0.3 0.9 0.2
v 0.2 0.9 0.2
v -0.3 0.9 0.2
v -0.4 0.9 0.2
v 0.3 1 0.2
v 0.2 1 0.2
v -0.3 1 0.2
v -0.4 1 0.2
v 0.2 1.1 0.2
v 0.1 1.1 0.2
v 0 1.1 0.2
v 0.2 1.2 0.2
v 0 1.2 0.2
v 0.2 0.9 -0.1
v 0.1 0.9 -0.1
v -0.1 0.9 -0.1
v 0.2 1 -0.1
v 0.1 1 -0.1
v 0 1 -0.1
v -0.1 1 -0.1
v -0.2 1 -0.1
v -0.3 1 -0.1
v 0.2 1.1 -0.1
v 0.1 1.1 -0.1
v 0 1.1 -0.1
v -0.1 1.1 -0.1
v -0.2 1.1 -0.1
v -0.3 1.1 -0.1
v 0.2 0.9 0.2
v 0.1 0.9 0.2
v -0.1 0.9 0.2
v 0.2 1 0.2
v 0.1 1 0.2
v 0 1 0.2
v -0.1 1 0.2
v -0.2 1 0.2
v -0.3 1 0.2
v 0.2 1.1 0.2
v 0.1 1.1 0.2
v 0 1.1 0.2
v -0.1 1.1 0.2
v -0.2 1.1 0.2
v -0.3 1.1 0.2
v 0.3 0 -0.1
v 0.2 0 -0.1
v -0.3 0 -0.1
v -0.4 0 -0.1
v 0.3 0.1 -0.1
v 0.2 0.1 -0.1
v -0.3 0.1 -0.1
v -0.4 0.1 -0.1
v 0.3 0.2 -0.1
v 0.2 0.2 -0.1
v -0.3 0.2 -0.1
v -0.4 0.2 -0.1
v 0.3 0.3 -0.1
v 0.2 0.3 -0.1
v -0.3 0.3 -0.1
v -0.4 0.3 -0.1
v 0.3 0.8 -0.1
v 0.2 0.8 -0.1
v -0.3 0.8 -0.1
v -0.4 0.8 -0.1
v 0.3 0.9 -0.1
v 0.2 0.9 -0.1
v -0.3 0.9 -0.1
v -0.4 0.9 -0.1
v 0.3 1 -0.1
v 0.2 1 -0.1
v -0.3 1 -0.1
v -0.4 1 -0.1
v 0.2 1.1 -0.1
v 0.1 1.1 -0.1
v 0 1.1 -0.1
v 0.2 1.2 -0.1
v 0 1.2 -0.1
v 0.2 0 -0.2
v -0.3 0 -0.2
v 0.2 0.1 -0.2
v 0.1 0.1 -0.2
v -0.2 0.1 -0.2
v -0.3 0.1 -0.2
v 0.2 0.2 -0.2
v 0.1 0.2 -0.2
v -0.2 0.2 -0.2
v -0.3 0.2 -0.2
v 0.2 0.3 -0.2
v 0.1 0.3 -0.2
v -0.2 0.3 -0.2
v -0.3 0.3 -0.2
v 0.2 0.8 -0.2
v 0.1 0.8 -0.2
v -0.2 0.8 -0.2
v -0.3 0.8 -0.2
v 0.2 0.9 -0.2
v 0.1 0.9 -0.2
v -0.2 0.9 -0.2
v -0.3 0.9 -0.2
v 0.2 1 -0.2
v 0.1 1 -0.2
v -0.2 1 -0.2
v -0.3 1 -0.2
v 0.2 1.1 -0.2
v 0.1 1.1 -0.2
v -0.2 1.1 -0.2
v -0.3 1.1 -0.2
v 0.3 0 0.2
v 0.3 0.1 0.2
v 0.3 0.2 0.2
v 0.3 0.3 0.2
v 0.3 0.8 0.2
v 0.3 0.9 0.2
v 0.3 1 0.2
v 0.3 0.1 0.1
v 0.3 0.2 0.1
v 0.3 0.3 0.1
v 0.3 0.1 0
v 0.3 0.2 0
v 0.3 0.3 0
v 0.3 0 -0.1
v 0.3 0.1 -0.1
v 0.3 0.2 -0.1
v 0.3 0.3 -0.1
v 0.3 0.8 -0.1
v 0.3 0.9 -0.1
v 0.3 1 -0.1
v 0.2 0 0.3
v 0.2 0.1 0.3
v 0.2 0.2 0.3
v 0.2 0.3 0.3
v 0.2 0.8 0.3
v 0.2 0.9 0.3
v 0.2 1 0.3
v 0.2 1.1 0.3
v 0.2 0 0.2
v 0.2 0.1 0.2
v 0.2 0.2 0.2
v 0.2 0.3 0.2
v 0.2 0.8 0.2
v 0.2 0.9 0.2
v 0.2 1 0.2
v 0.2 1.1 0.2
v 0.2 1.2 0.2
v 0.2 0 -0.1
v 0.2 0.1 -0.1
v 0.2 0.2 -0.1
v 0.2 0.3 -0.1
v 0.2 0.8 -0.1
v 0.2 0.9 -0.1
v 0.2 1 -0.1
v 0.2 1.1 -0.1
v 0.2 1.2 -0.1
v 0.2 0 -0.2
v 0.2 0.1 -0.2
v 0.2 0.2 -0.2
v 0.2 0.3 -0.2
v 0.2 0.8 -0.2
v 0.2 0.9 -0.2
v 0.2 1 -0.2
v 0.2 1.1 -0.2
v 0 1 0.2
v 0 1.1 0.2
v 0 1 -0.1
v 0 1.1 -0.1
v -0.1 0.9 0.2
v -0.1 1 0.2
v -0.1 0.9 -0.1
v -0.1 1 -0.1
v 0.2 0.9 0.2
v 0.2 1 0.2
v 0.2 0.9 -0.1
v 0.2 1 -0.1
v 0 1.1 0.2
v 0 1.2 0.2
v 0 1.1 -0.1
v 0 1.2 -0.1
v -0.1 1 0.2
v -0.1 1.1 0.2
v -0.1 1 -0.1
v -0.1 1.1 -0.1
v -0.3 0 0.3
v -0.3 0.1 0.3
v -0.3 0.2 0.3
v -0.3 0.3 0.3
v -0.3 0.8 0.3
v -0.3 0.9 0.3
v -0.3 1 0.3
v -0.3 1.1 0.3
v -0.3 0 0.2
v -0.3 0.1 0.2
v -0.3 0.2 0.2
v -0.3 0.3 0.2
v -0.3 0.8 0.2
v -0.3 0.9 0.2
v -0.3 1 0.2
v -0.3 1.1 0.2
v -0.3 0 -0.1
v -0.3 0.1 -0.1
v -0.3 0.2 -0.1
v -0.3 0.3 -0.1
v -0.3 0.8 -0.1
v -0.3 0.9 -0.1
v -0.3 1 -0.1
v -0.3 1.1 -0.1
v -0.3 0 -0.2
v -0.3 0.1 -0.2
v -0.3 0.2 -0.2
v -0.3 0.3 -0.2
v -0.3 0.8 -0.2
v -0.3 0.9 -0.2
v -0.3 1 -0.2
v -0.3 1.1 -0.2
v -0.4 0 0.2
v -0.4 0.1 0.2
v -0.4 0.2 0.2
v -0.4 0.3 0.2
v -0.4 0.8 0.2
v -0.4 0.9 0.2
v -0.4 1 0.2
v -0.4 0.1 0.1
v -0.4 0.2 0.1
v -0.4 0.3 0.1
v -0.4 0.1 0
v -0.4 0.2 0
v -0.4 0.3 0
v -0.4 0 -0.1
v -0.4 0.1 -0.1
v -0.4 0.2 -0.1
v -0.4 0.3 -0.1
v -0.4 0.8 -0.1
v -0.4 0.9 -0.1
v -0.4 1 -0.1
v 0.3 0 0.2
v 0.3 0 -0.1
v 0.2 0 0.3
v 0.2 0 0.2
v 0.2 0 -0.1
v 0.2 0 -0.2
v -0.3 0 0.3
v -0.3 0 0.2
v -0.3 0 -0.1
v -0.3 0 -0.2
v -0.4 0 0.2
v -0.4 0 -0.1
v 0 1 0.2
v 0 1 -0.1
v -0.1 1 0.2
v -0.1 1 -0.1
v 0.2 1.1 0.2
v 0.2 1.1 -0.1
v 0.1 1.1 0.2
v 0.1 1.1 -0.1
v 0 1.1 0.2
v 0 1.1 -0.1
v 0.2 0.9 0.2
v 0.2 0.9 -0.1
v 0.1 0.9 0.2
v 0.1 0.9 -0.1
v -0.1 0.9 0.2
v -0.1 0.9 -0.1
v 0.3 1 0.2
v 0.3 1 -0.1
v 0.2 1 0.2
v 0.2 1 -0.1
v -0.1 1 0.2
v -0.1 1 -0.1
v -0.2 1 0.2
v -0.2 1 -0.1
v -0.3 1 0.2
v -0.3 1 -0.1
v -0.4 1 0.2
v -0.4 1 -0.1
v 0.2 1.1 0.3
v 0.2 1.1 0.2
v 0.2 1.1 -0.1
v 0.2 1.1 -0.2
v 0.1 1.1 0.3
v 0.1 1.1 0.2
v 0.1 1.1 -0.1
v 0.1 1.1 -0.2
v 0 1.1 0.2
v 0 1.1 -0.1
v -0.1 1.1 0.2
v -0.1 1.1 -0.1
v -0.2 1.1 0.3
v -0.2 1.1 0.2
v -0.2 1.1 -0.1
v -0.2 1.1 -0.2
v -0.3 1.1 0.3
v -0.3 1.1 0.2
v -0.3 1.1 -0.1
v -0.3 1.1 -0.2
v 0.2 1.2 0.2
v 0.2 1.2 -0.1
v 0 1.2 0.2
v 0 1.2 -0.1

# faces
f 3/6/1 2/6/1 1/6/1
f 4/6/1 2/6/1 3/6/1
f 5/6/1 2/6/1 4/6/1
f 6/6/1 2/6/1 5/6/1
f 7/1/1 4/1/1 3/1/1
f 8/2/1 5/2/1 4/2/1
f 8/1/1 4/1/1 7/1/1
f 9/1/1 6/1/1 5/1/1
f 9/2/1 5/2/1 8/2/1
f 10/1/1 6/1/1 9/1/1
f 11/2/1 8/2/1 7/2/1
f 12/4/1 9/4/1 8/4/1
f 12/2/1 8/2/1 11/2/1
f 13/2/1 10/2/1 9/2/1
f 13/4/1 9/4/1 12/4/1
f 14/2/1 10/2/1 13/2/1
f 15/4/1 12/4/1 11/4/1
f 15/4/1 13/4/1 12/4/1
f 15/4/1 14/4/1 13/4/1
f 16/4/1 14/4/1 15/4/1
f 17/4/1 14/4/1 16/4/1
f 18/4/1 14/4/1 17/4/1
f 19/2/1 16/2/1 15/2/1
f 20/3/1 17/3/1 16/3/1
f 20/2/1 16/2/1 19/2/1
f 21/2/1 18/2/1 17/2/1
f 21/3/1 17/3/1 20/3/1
f 22/2/1 18/2/1 21/2/1
f 23/3/1 20/3/1 19/3/1
f 24/4/1 21/4/1 20/4/1
f 24/3/1 20/3/1 23/3/1
f 25/3/1 22/3/1 21/3/1
f 25/4/1 21/4/1 24/4/1
f 26/3/1 22/3/1 25/3/1
f 27/4/1 24/4/1 23/4/1
f 28/5/1 25/5/1 24/5/1
f 28/4/1 24/4/1 27/4/1
f 29/4/1 26/4/1 25/4/1
f 29/5/1 25/5/1 28/5/1
f 30/4/1 26/4/1 29/4/1
f 35/6/1 32/6/1 31/6/1
f 36/6/1 32/6/1 35/6/1
f 37/6/1 34/6/1 33/6/1
f 38/6/1 34/6/1 37/6/1
f 39/1/1 36/1/1 35/1/1
f 40/1/1 36/1/1 39/1/1
f 41/1/1 38/1/1 37/1/1
f 42/1/1 38/1/1 41/1/1
f 43/2/1 40/2/1 39/2/1
f 44/2/1 40/2/1 43/2/1
f 45/2/1 42/2/1 41/2/1
f 46/2/1 42/2/1 45/2/1
f 47/4/1 44/4/1 43/4/1
f 48/4/1 44/4/1 47/4/1
f 49/4/1 46/4/1 45/4/1
f 50/4/1 46/4/1 49/4/1
f 51/2/1 48/2/1 47/2/1
f 52/2/1 48/2/1 51/2/1
f 53/2/1 50/2/1 49/2/1
f 54/2/1 50/2/1 53/2/1
f 55/4/1 52/4/1 51/4/1
f 56/4/1 52/4/1 55/4/1
f 57/4/1 54/4/1 53/4/1
f 58/4/1 54/4/1 57/4/1
f 62/3/1 60/3/1 59/3/1
f 62/3/1 61/3/1 60/3/1
f 63/3/1 61/3/1 62/3/1
f 67/3/1 65/3/1 64/3/1
f 68/4/1 66/4/1 65/4/1
f 68/3/1 65/3/1 67/3/1
f 69/4/1 66/4/1 68/4/1
f 70/4/1 66/4/1 69/4/1
f 73/4/1 68/4/1 67/4/1
f 74/5/1 69/5/1 68/5/1
f 74/4/1 68/4/1 73/4/1
f 75/5/1 69/5/1 74/5/1
f 76/5/1 71/5/1 70/5/1
f 77/4/1 72/4/1 71/4/1
f 77/5/1 71/5/1 76/5/1
f 78/4/1 72/4/1 77/4/1
f 79/3/2 80/3/2 82/3/2
f 80/4/2 81/4/2 83/4/2
f 82/3/2 80/3/2 83/3/2
f 83/4/2 81/4/2 84/4/2
f 84/4/2 81/4/2 85/4/2
f 82/4/2 83/4/2 88/4/2
f 83/5/2 84/5/2 89/5/2
f 88/4/2 83/4/2 89/4/2
f 89/5/2 84/5/2 90/5/2
f 85/5/2 86/5/2 91/5/2
f 86/4/2 87/4/2 92/4/2
f 91/5/2 86/5/2 92/5/2
f 92/4/2 87/4/2 93/4/2
f 94/6/2 95/6/2 98/6/2
f 98/6/2 95/6/2 99/6/2
f 96/6/2 97/6/2 100/6/2
f 100/6/2 97/6/2 101/6/2
f 98/1/2 99/1/2 102/1/2
f 102/1/2 99/1/2 103/1/2
f 100/1/2 101/1/2 104/1/2
f 104/1/2 101/1/2 105/1/2
f 102/2/2 103/2/2 106/2/2
f 106/2/2 103/2/2 107/2/2
f 104/2/2 105/2/2 108/2/2
f 108/2/2 105/2/2 109/2/2
f 106/4/2 107/4/2 110/4/2
f 110/4/2 107/4/2 111/4/2
f 108/4/2 109/4/2 112/4/2
f 112/4/2 109/4/2 113/4/2
f 110/2/2 111/2/2 114/2/2
f 114/2/2 111/2/2 115/2/2
f 112/2/2 113/2/2 116/2/2
f 116/2/2 113/2/2 117/2/2
f 114/4/2 115/4/2 118/4/2
f 118/4/2 115/4/2 119/4/2
f 116/4/2 117/4/2 120/4/2
f 120/4/2 117/4/2 121/4/2
f 122/3/2 123/3/2 125/3/2
f 123/3/2 124/3/2 125/3/2
f 125/3/2 124/3/2 126/3/2
f 127/6/2 128/6/2 129/6/2
f 129/6/2 128/6/2 130/6/2
f 130/6/2 128/6/2 131/6/2
f 131/6/2 128/6/2 132/6/2
f 129/1/2 130/1/2 133/1/2
f 130/2/2 131/2/2 134/2/2
f 133/1/2 130/1/2 134/1/2
f 131/1/2 132/1/2 135/1/2
f 134/2/2 131/2/2 135/2/2
f 135/1/2 132/1/2 136/1/2
f 133/2/2 134/2/2 137/2/2
f 134/4/2 135/4/2 138/4/2
f 137/2/2 134/2/2 138/2/2
f 135/2/2 136/2/2 139/2/2
f 138/4/2 135/4/2 139/4/2
f 139/2/2 136/2/2 140/2/2
f 137/4/2 138/4/2 141/4/2
f 138/4/2 139/4/2 141/4/2
f 139/4/2 140/4/2 141/4/2
f 141/4/2 140/4/2 142/4/2
f 142/4/2 140/4/2 143/4/2
f 143/4/2 140/4/2 144/4/2
f 141/2/2 142/2/2 145/2/2
f 142/3/2 143/3/2 146/3/2
f 145/2/2 142/2/2 146/2/2
f 143/2/2 144/2/2 147/2/2
f 146/3/2 143/3/2 147/3/2
f 147/2/2 144/2/2 148/2/2
f 145/3/2 146/3/2 149/3/2
f 146/4/2 147/4/2 150/4/2
f 149/3/2 146/3/2 150/3/2
f 147/3/2 148/3/2 151/3/2
f 150/4/2 147/4/2 151/4/2
f 151/3/2 148/3/2 152/3/2
f 149/4/2 150/4/2 153/4/2
f 150/5/2 151/5/2 154/5/2
f 153/4/2 150/4/2 154/4/2
f 151/4/2 152/4/2 155/4/2
f 154/5/2 151/5/2 155/5/2
f 155/4/2 152/4/2 156/4/2
f 164/6/3 158/6/3 157/6/3
f 164/1/3 159/1/3 158/1/3
f 165/2/3 160/2/3 159/2/3
f 165/1/3 159/1/3 164/1/3
f 166/4/3 161/4/3 160/4/3
f 166/2/3 160/2/3 165/2/3
f 167/6/3 164/6/3 157/6/3
f 167/2/3 165/2/3 164/2/3
f 168/4/3 166/4/3 165/4/3
f 168/2/3 165/2/3 167/2/3
f 169/4/3 161/4/3 166/4/3
f 169/4/3 166/4/3 168/4/3
f 170/6/3 167/6/3 157/6/3
f 171/1/3 168/1/3 167/1/3
f 171/6/3 167/6/3 170/6/3
f 172/2/3 169/2/3 168/2/3
f 172/1/3 168/1/3 171/1/3
f 173/4/3 161/4/3 169/4/3
f 173/2/3 169/2/3 172/2/3
f 174/2/3 162/2/3 161/2/3
f 174/4/3 161/4/3 173/4/3
f 175/4/3 163/4/3 162/4/3
f 175/2/3 162/2/3 174/2/3
f 176/4/3 163/4/3 175/4/3
f 185/6/3 178/6/3 177/6/3
f 186/1/3 179/1/3 178/1/3
f 186/6/3 178/6/3 185/6/3
f 187/2/3 180/2/3 179/2/3
f 187/1/3 179/1/3 186/1/3
f 188/4/3 181/4/3 180/4/3
f 188/2/3 180/2/3 187/2/3
f 189/2/3 182/2/3 181/2/3
f 189/4/3 181/4/3 188/4/3
f 190/3/3 183/3/3 182/3/3
f 190/2/3 182/2/3 189/2/3
f 191/4/3 184/4/3 183/4/3
f 191/3/3 183/3/3 190/3/3
f 192/4/3 184/4/3 191/4/3
f 201/3/3 193/3/3 192/3/3
f 202/3/3 193/3/3 201/3/3
f 203/6/3 195/6/3 194/6/3
f 204/1/3 196/1/3 195/1/3
f 204/6/3 195/6/3 203/6/3
f 205/2/3 197/2/3 196/2/3
f 205/1/3 196/1/3 204/1/3
f 206/4/3 198/4/3 197/4/3
f 206/2/3 197/2/3 205/2/3
f 207/2/3 199/2/3 198/2/3
f 207/4/3 198/4/3 206/4/3
f 208/3/3 200/3/3 199/3/3
f 208/2/3 199/2/3 207/2/3
f 209/4/3 201/4/3 200/4/3
f 209/3/3 200/3/3 208/3/3
f 210/4/3 201/4/3 209/4/3
f 213/2/3 212/2/3 211/2/3
f 214/2/3 212/2/3 213/2/3
f 217/3/3 216/3/3 215/3/3
f 218/3/3 216/3/3 217/3/3
f 219/4/4 220/4/4 221/4/4
f 221/4/4 220/4/4 222/4/4
f 223/3/4 224/3/4 225/3/4
f 225/3/4 224/3/4 226/3/4
f 227/2/4 228/2/4 229/2/4
f 229/2/4 228/2/4 230/2/4
f 231/6/4 232/6/4 239/6/4
f 232/1/4 233/1/4 240/1/4
f 239/6/4 232/6/4 240/6/4
f 233/2/4 234/2/4 241/2/4
f 240/1/4 233/1/4 241/1/4
f 234/4/4 235/4/4 242/4/4
f 241/2/4 234/2/4 242/2/4
f 235/2/4 236/2/4 243/2/4
f 242/4/4 235/4/4 243/4/4
f 236/3/4 237/3/4 244/3/4
f 243/2/4 236/2/4 244/2/4
f 237/4/4 238/4/4 245/4/4
f 244/3/4 237/3/4 245/3/4
f 245/4/4 238/4/4 246/4/4
f 247/6/4 248/6/4 255/6/4
f 248/1/4 249/1/4 256/1/4
f 255/6/4 248/6/4 256/6/4
f 249/2/4 250/2/4 257/2/4
f 256/1/4 249/1/4 257/1/4
f 250/4/4 251/4/4 258/4/4
f 257/2/4 250/2/4 258/2/4
f 251/2/4 252/2/4 259/2/4
f 258/4/4 251/4/4 259/4/4
f 252/3/4 253/3/4 260/3/4
f 259/2/4 252/2/4 260/2/4
f 253/4/4 254/4/4 261/4/4
f 260/3/4 253/3/4 261/3/4
f 261/4/4 254/4/4 262/4/4
f 263/6/4 264/6/4 270/6/4
f 264/1/4 265/1/4 270/1/4
f 265/2/4 266/2/4 271/2/4
f 270/1/4 265/1/4 271/1/4
f 266/4/4 267/4/4 272/4/4
f 271/2/4 266/2/4 272/2/4
f 263/6/4 270/6/4 273/6/4
f 270/2/4 271/2/4 273/2/4
f 271/4/4 272/4/4 274/4/4
f 273/2/4 271/2/4 274/2/4
f 272/4/4 267/4/4 275/4/4
f 274/4/4 272/4/4 275/4/4
f 263/6/4 273/6/4 276/6/4
f 273/1/4 274/1/4 277/1/4
f 276/6/4 273/6/4 277/6/4
f 274/2/4 275/2/4 278/2/4
f 277/1/4 274/1/4 278/1/4
f 275/4/4 267/4/4 279/4/4
f 278/2/4 275/2/4 279/2/4
f 267/2/4 268/2/4 280/2/4
f 279/4/4 267/4/4 280/4/4
f 268/4/4 269/4/4 281/4/4
f 280/2/4 268/2/4 281/2/4
f 281/4/4 269/4/4 282/4/4
f 286/6/5 284/6/5 283/6/5
f 287/6/5 284/6/5 286/6/5
f 289/6/5 286/6/5 285/6/5
f 289/6/5 288/6/5 287/6/5
f 289/6/5 287/6/5 286/6/5
f 290/6/5 288/6/5 289/6/5
f 291/6/5 288/6/5 290/6/5
f 292/6/5 288/6/5 291/6/5
f 293/6/5 291/6/5 290/6/5
f 294/6/5 291/6/5 293/6/5
f 297/2/5 296/2/5 295/2/5
f 298/2/5 296/2/5 297/2/5
f 301/3/5 300/3/5 299/3/5
f 302/3/5 300/3/5 301/3/5
f 303/3/5 302/3/5 301/3/5
f 304/3/5 302/3/5 303/3/5
f 305/7/6 306/7/6 307/7/6
f 307/7/6 306/7/6 308/7/6
f 307/7/6 308/7/6 309/7/6
f 309/7/6 308/7/6 310/7/6
f 311/4/6 312/4/6 313/4/6
f 313/4/6 312/4/6 314/4/6
f 315/3/6 316/3/6 317/3/6
f 317/3/6 316/3/6 318/3/6
f 317/3/6 318/3/6 319/3/6
f 319/3/6 318/3/6 320/3/6
f 319/4/6 320/4/6 321/4/6
f 321/4/6 320/4/6 322/4/6
f 323/4/6 324/4/6 327/4/6
f 327/4/6 324/4/6 328/4/6
f 325/4/6 326/4/6 329/4/6
f 329/4/6 326/4/6 330/4/6
f 327/5/6 328/5/6 331/5/6
f 329/5/6 330/5/6 332/5/6
f 327/5/6 331/5/6 333/5/6
f 331/2/6 332/2/6 333/2/6
f 332/5/6 330/5/6 334/5/6
f 333/2/6 332/2/6 334/2/6
f 327/5/6 333/5/6 335/5/6
f 335/5/6 333/5/6 336/5/6
f 334/5/6 330/5/6 337/5/6
f 337/5/6 330/5/6 338/5/6
f 335/4/6 336/4/6 339/4/6
f 339/4/6 336/4/6 340/4/6
f 337/4/6 338/4/6 341/4/6
f 341/4/6 338/4/6 342/4/6
f 343/3/6 344/3/6 345/3/6
f 345/3/6 344/3/6 346/3/6
