# MagicaVoxel @ Ephtracy

# group
o 

# material
mtllib Office_Misc_Trashcan_Big_04.mtl
usemtl palette

# normals
vn 0 0 -1
vn 0 0 1
vn -1 0 0
vn 1 0 0
vn 0 -1 0
vn 0 1 0

# texcoords
vt 0.767578 0.5
vt 0.880859 0.5
vt 0.884766 0.5
vt 0.888672 0.5
vt 0.892578 0.5
vt 0.896484 0.5
vt 0.904297 0.5

# verts
v -0.3 0 -0.3
v 0.3 0 -0.3
v -0.3 0.1 -0.3
v -0.2 0.1 -0.3
v -0.1 0.1 -0.3
v 0.1 0.1 -0.3
v 0.2 0.1 -0.3
v 0.3 0.1 -0.3
v -0.3 0.2 -0.3
v -0.2 0.2 -0.3
v -0.1 0.2 -0.3
v 0.1 0.2 -0.3
v 0.2 0.2 -0.3
v 0.3 0.2 -0.3
v -0.2 0.3 -0.3
v -0.1 0.3 -0.3
v 0.1 0.3 -0.3
v 0.2 0.3 -0.3
v -0.2 0.8 -0.3
v -0.1 0.8 -0.3
v 0.1 0.8 -0.3
v 0.2 0.8 -0.3
v -0.3 0.9 -0.3
v -0.2 0.9 -0.3
v -0.1 0.9 -0.3
v 0.1 0.9 -0.3
v 0.2 0.9 -0.3
v 0.3 0.9 -0.3
v -0.3 1 -0.3
v -0.2 1 -0.3
v -0.1 1 -0.3
v 0.1 1 -0.3
v 0.2 1 -0.3
v 0.3 1 -0.3
v -0.3 1.1 -0.3
v -0.2 1.1 -0.3
v 0.2 1.1 -0.3
v 0.3 1.1 -0.3
v -0.3 1.1 -0.2
v -0.2 1.1 -0.2
v 0.2 1.1 -0.2
v 0.3 1.1 -0.2
v -0.3 1.2 -0.2
v -0.2 1.2 -0.2
v 0.2 1.2 -0.2
v 0.3 1.2 -0.2
v -0.3 1.2 -0.1
v -0.2 1.2 -0.1
v 0.2 1.2 -0.1
v 0.3 1.2 -0.1
v -0.3 1.3 -0.1
v -0.2 1.3 -0.1
v 0.2 1.3 -0.1
v 0.3 1.3 -0.1
v -0.3 1.3 0
v -0.2 1.3 0
v 0.2 1.3 0
v 0.3 1.3 0
v -0.3 1.4 0
v -0.2 1.4 0
v 0.2 1.4 0
v 0.3 1.4 0
v -0.3 1.3 0.1
v -0.2 1.3 0.1
v 0.2 1.3 0.1
v 0.3 1.3 0.1
v -0.3 1.4 0.1
v -0.2 1.4 0.1
v 0.2 1.4 0.1
v 0.3 1.4 0.1
v -0.3 1.2 0.2
v -0.2 1.2 0.2
v 0.2 1.2 0.2
v 0.3 1.2 0.2
v -0.3 1.3 0.2
v -0.2 1.3 0.2
v 0.2 1.3 0.2
v 0.3 1.3 0.2
v -0.3 1.1 0.3
v -0.2 1.1 0.3
v 0.2 1.1 0.3
v 0.3 1.1 0.3
v -0.3 1.2 0.3
v -0.2 1.2 0.3
v 0.2 1.2 0.3
v 0.3 1.2 0.3
v -0.3 0 0.4
v 0.3 0 0.4
v -0.3 0.1 0.4
v -0.2 0.1 0.4
v -0.1 0.1 0.4
v 0.1 0.1 0.4
v 0.2 0.1 0.4
v 0.3 0.1 0.4
v -0.3 0.2 0.4
v -0.2 0.2 0.4
v -0.1 0.2 0.4
v 0.1 0.2 0.4
v 0.2 0.2 0.4
v 0.3 0.2 0.4
v -0.2 0.3 0.4
v -0.1 0.3 0.4
v 0.1 0.3 0.4
v 0.2 0.3 0.4
v -0.2 0.8 0.4
v -0.1 0.8 0.4
v 0.1 0.8 0.4
v 0.2 0.8 0.4
v -0.3 0.9 0.4
v -0.2 0.9 0.4
v -0.1 0.9 0.4
v 0.1 0.9 0.4
v 0.2 0.9 0.4
v 0.3 0.9 0.4
v -0.3 1 0.4
v -0.2 1 0.4
v -0.1 1 0.4
v 0.1 1 0.4
v 0.2 1 0.4
v 0.3 1 0.4
v -0.3 1.1 0.4
v -0.2 1.1 0.4
v 0.2 1.1 0.4
v 0.3 1.1 0.4
v -0.3 0 -0.3
v -0.3 0.1 -0.3
v -0.3 0.2 -0.3
v -0.3 0.9 -0.3
v -0.3 1 -0.3
v -0.3 1.1 -0.3
v -0.3 0.1 -0.2
v -0.3 0.2 -0.2
v -0.3 0.3 -0.2
v -0.3 0.8 -0.2
v -0.3 0.9 -0.2
v -0.3 1 -0.2
v -0.3 1.1 -0.2
v -0.3 1.2 -0.2
v -0.3 0.1 -0.1
v -0.3 0.2 -0.1
v -0.3 0.3 -0.1
v -0.3 0.8 -0.1
v -0.3 0.9 -0.1
v -0.3 1 -0.1
v -0.3 1.1 -0.1
v -0.3 1.2 -0.1
v -0.3 1.3 -0.1
v -0.3 1.2 0
v -0.3 1.3 0
v -0.3 1.4 0
v -0.3 1.1 0.1
v -0.3 1.2 0.1
v -0.3 1.3 0.1
v -0.3 1.4 0.1
v -0.3 0.1 0.2
v -0.3 0.2 0.2
v -0.3 0.3 0.2
v -0.3 0.8 0.2
v -0.3 0.9 0.2
v -0.3 1 0.2
v -0.3 1.1 0.2
v -0.3 1.2 0.2
v -0.3 1.3 0.2
v -0.3 0.1 0.3
v -0.3 0.2 0.3
v -0.3 0.3 0.3
v -0.3 0.8 0.3
v -0.3 0.9 0.3
v -0.3 1 0.3
v -0.3 1.1 0.3
v -0.3 1.2 0.3
v -0.3 0 0.4
v -0.3 0.1 0.4
v -0.3 0.2 0.4
v -0.3 0.9 0.4
v -0.3 1 0.4
v -0.3 1.1 0.4
v 0.3 0 -0.3
v 0.3 0.1 -0.3
v 0.3 0.2 -0.3
v 0.3 0.9 -0.3
v 0.3 1 -0.3
v 0.3 1.1 -0.3
v 0.3 0.1 -0.2
v 0.3 0.2 -0.2
v 0.3 0.3 -0.2
v 0.3 0.8 -0.2
v 0.3 0.9 -0.2
v 0.3 1 -0.2
v 0.3 1.1 -0.2
v 0.3 1.2 -0.2
v 0.3 0.1 -0.1
v 0.3 0.2 -0.1
v 0.3 0.3 -0.1
v 0.3 0.8 -0.1
v 0.3 0.9 -0.1
v 0.3 1 -0.1
v 0.3 1.1 -0.1
v 0.3 1.2 -0.1
v 0.3 1.3 -0.1
v 0.3 1.1 0
v 0.3 1.2 0
v 0.3 1.3 0
v 0.3 1.4 0
v 0.3 1.2 0.1
v 0.3 1.3 0.1
v 0.3 1.4 0.1
v 0.3 0.1 0.2
v 0.3 0.2 0.2
v 0.3 0.3 0.2
v 0.3 0.8 0.2
v 0.3 0.9 0.2
v 0.3 1 0.2
v 0.3 1.1 0.2
v 0.3 1.2 0.2
v 0.3 1.3 0.2
v 0.3 0.1 0.3
v 0.3 0.2 0.3
v 0.3 0.3 0.3
v 0.3 0.8 0.3
v 0.3 0.9 0.3
v 0.3 1 0.3
v 0.3 1.1 0.3
v 0.3 1.2 0.3
v 0.3 0 0.4
v 0.3 0.1 0.4
v 0.3 0.2 0.4
v 0.3 0.9 0.4
v 0.3 1 0.4
v 0.3 1.1 0.4
v -0.3 0 -0.3
v -0.3 0 0.4
v 0.3 0 -0.3
v 0.3 0 0.4
v -0.3 1.1 -0.3
v -0.3 1.1 -0.2
v -0.3 1.1 0.3
v -0.3 1.1 0.4
v -0.2 1.1 -0.3
v -0.2 1.1 -0.2
v -0.2 1.1 0.3
v -0.2 1.1 0.4
v 0.2 1.1 -0.3
v 0.2 1.1 -0.2
v 0.2 1.1 0.3
v 0.2 1.1 0.4
v 0.3 1.1 -0.3
v 0.3 1.1 -0.2
v 0.3 1.1 0.3
v 0.3 1.1 0.4
v -0.3 1.2 -0.2
v -0.3 1.2 -0.1
v -0.3 1.2 0.2
v -0.3 1.2 0.3
v -0.2 1.2 -0.2
v -0.2 1.2 -0.1
v -0.2 1.2 0.2
v -0.2 1.2 0.3
v 0.2 1.2 -0.2
v 0.2 1.2 -0.1
v 0.2 1.2 0.2
v 0.2 1.2 0.3
v 0.3 1.2 -0.2
v 0.3 1.2 -0.1
v 0.3 1.2 0.2
v 0.3 1.2 0.3
v -0.3 1.3 -0.1
v -0.3 1.3 0
v -0.3 1.3 0.1
v -0.3 1.3 0.2
v -0.2 1.3 -0.1
v -0.2 1.3 0
v -0.2 1.3 0.1
v -0.2 1.3 0.2
v 0.2 1.3 -0.1
v 0.2 1.3 0
v 0.2 1.3 0.1
v 0.2 1.3 0.2
v 0.3 1.3 -0.1
v 0.3 1.3 0
v 0.3 1.3 0.1
v 0.3 1.3 0.2
v -0.3 1.4 0
v -0.3 1.4 0.1
v -0.2 1.4 0
v -0.2 1.4 0.1
v 0.2 1.4 0
v 0.2 1.4 0.1
v 0.3 1.4 0
v 0.3 1.4 0.1

# faces
f 3/7/1 2/7/1 1/7/1
f 4/7/1 2/7/1 3/7/1
f 5/7/1 2/7/1 4/7/1
f 6/7/1 2/7/1 5/7/1
f 7/7/1 2/7/1 6/7/1
f 8/7/1 2/7/1 7/7/1
f 9/1/1 4/1/1 3/1/1
f 10/2/1 5/2/1 4/2/1
f 10/1/1 4/1/1 9/1/1
f 11/3/1 6/3/1 5/3/1
f 11/2/1 5/2/1 10/2/1
f 12/2/1 7/2/1 6/2/1
f 12/3/1 6/3/1 11/3/1
f 13/1/1 8/1/1 7/1/1
f 13/2/1 7/2/1 12/2/1
f 14/1/1 8/1/1 13/1/1
f 15/2/1 10/2/1 9/2/1
f 15/3/1 11/3/1 10/3/1
f 16/4/1 12/4/1 11/4/1
f 16/3/1 11/3/1 15/3/1
f 17/3/1 13/3/1 12/3/1
f 17/4/1 12/4/1 16/4/1
f 18/2/1 14/2/1 13/2/1
f 18/3/1 13/3/1 17/3/1
f 19/4/1 17/4/1 16/4/1
f 19/2/1 15/2/1 9/2/1
f 19/4/1 18/4/1 17/4/1
f 19/4/1 16/4/1 15/4/1
f 20/4/1 18/4/1 19/4/1
f 21/4/1 18/4/1 20/4/1
f 22/2/1 14/2/1 18/2/1
f 22/4/1 18/4/1 21/4/1
f 23/2/1 19/2/1 9/2/1
f 24/3/1 20/3/1 19/3/1
f 24/2/1 19/2/1 23/2/1
f 25/4/1 21/4/1 20/4/1
f 25/3/1 20/3/1 24/3/1
f 26/3/1 22/3/1 21/3/1
f 26/4/1 21/4/1 25/4/1
f 27/2/1 14/2/1 22/2/1
f 27/3/1 22/3/1 26/3/1
f 28/2/1 14/2/1 27/2/1
f 29/1/1 24/1/1 23/1/1
f 30/2/1 25/2/1 24/2/1
f 30/1/1 24/1/1 29/1/1
f 31/3/1 26/3/1 25/3/1
f 31/2/1 25/2/1 30/2/1
f 32/2/1 27/2/1 26/2/1
f 32/3/1 26/3/1 31/3/1
f 33/1/1 28/1/1 27/1/1
f 33/2/1 27/2/1 32/2/1
f 34/1/1 28/1/1 33/1/1
f 35/2/1 30/2/1 29/2/1
f 36/4/1 31/4/1 30/4/1
f 36/2/1 30/2/1 35/2/1
f 36/4/1 32/4/1 31/4/1
f 36/4/1 33/4/1 32/4/1
f 37/2/1 34/2/1 33/2/1
f 37/4/1 33/4/1 36/4/1
f 38/2/1 34/2/1 37/2/1
f 43/2/1 40/2/1 39/2/1
f 44/3/1 41/3/1 40/3/1
f 44/2/1 40/2/1 43/2/1
f 45/2/1 42/2/1 41/2/1
f 45/3/1 41/3/1 44/3/1
f 46/2/1 42/2/1 45/2/1
f 51/2/1 48/2/1 47/2/1
f 52/3/1 49/3/1 48/3/1
f 52/2/1 48/2/1 51/2/1
f 53/2/1 50/2/1 49/2/1
f 53/3/1 49/3/1 52/3/1
f 54/2/1 50/2/1 53/2/1
f 59/3/1 56/3/1 55/3/1
f 60/4/1 57/4/1 56/4/1
f 60/3/1 56/3/1 59/3/1
f 61/3/1 58/3/1 57/3/1
f 61/4/1 57/4/1 60/4/1
f 62/3/1 58/3/1 61/3/1
f 63/3/2 64/3/2 67/3/2
f 64/4/2 65/4/2 68/4/2
f 67/3/2 64/3/2 68/3/2
f 65/3/2 66/3/2 69/3/2
f 68/4/2 65/4/2 69/4/2
f 69/3/2 66/3/2 70/3/2
f 71/2/2 72/2/2 75/2/2
f 72/3/2 73/3/2 76/3/2
f 75/2/2 72/2/2 76/2/2
f 73/2/2 74/2/2 77/2/2
f 76/3/2 73/3/2 77/3/2
f 77/2/2 74/2/2 78/2/2
f 79/2/2 80/2/2 83/2/2
f 80/3/2 81/3/2 84/3/2
f 83/2/2 80/2/2 84/2/2
f 81/2/2 82/2/2 85/2/2
f 84/3/2 81/3/2 85/3/2
f 85/2/2 82/2/2 86/2/2
f 87/7/2 88/7/2 89/7/2
f 89/7/2 88/7/2 90/7/2
f 90/7/2 88/7/2 91/7/2
f 91/7/2 88/7/2 92/7/2
f 92/7/2 88/7/2 93/7/2
f 93/7/2 88/7/2 94/7/2
f 89/1/2 90/1/2 95/1/2
f 90/2/2 91/2/2 96/2/2
f 95/1/2 90/1/2 96/1/2
f 91/3/2 92/3/2 97/3/2
f 96/2/2 91/2/2 97/2/2
f 92/2/2 93/2/2 98/2/2
f 97/3/2 92/3/2 98/3/2
f 93/1/2 94/1/2 99/1/2
f 98/2/2 93/2/2 99/2/2
f 99/1/2 94/1/2 100/1/2
f 95/2/2 96/2/2 101/2/2
f 96/3/2 97/3/2 101/3/2
f 97/4/2 98/4/2 102/4/2
f 101/3/2 97/3/2 102/3/2
f 98/3/2 99/3/2 103/3/2
f 102/4/2 98/4/2 103/4/2
f 99/2/2 100/2/2 104/2/2
f 103/3/2 99/3/2 104/3/2
f 102/4/2 103/4/2 105/4/2
f 95/2/2 101/2/2 105/2/2
f 103/4/2 104/4/2 105/4/2
f 101/4/2 102/4/2 105/4/2
f 105/4/2 104/4/2 106/4/2
f 106/4/2 104/4/2 107/4/2
f 104/2/2 100/2/2 108/2/2
f 107/4/2 104/4/2 108/4/2
f 95/2/2 105/2/2 109/2/2
f 105/3/2 106/3/2 110/3/2
f 109/2/2 105/2/2 110/2/2
f 106/4/2 107/4/2 111/4/2
f 110/3/2 106/3/2 111/3/2
f 107/3/2 108/3/2 112/3/2
f 111/4/2 107/4/2 112/4/2
f 108/2/2 100/2/2 113/2/2
f 112/3/2 108/3/2 113/3/2
f 113/2/2 100/2/2 114/2/2
f 109/1/2 110/1/2 115/1/2
f 110/2/2 111/2/2 116/2/2
f 115/1/2 110/1/2 116/1/2
f 111/3/2 112/3/2 117/3/2
f 116/2/2 111/2/2 117/2/2
f 112/2/2 113/2/2 118/2/2
f 117/3/2 112/3/2 118/3/2
f 113/1/2 114/1/2 119/1/2
f 118/2/2 113/2/2 119/2/2
f 119/1/2 114/1/2 120/1/2
f 115/2/2 116/2/2 121/2/2
f 116/4/2 117/4/2 122/4/2
f 121/2/2 116/2/2 122/2/2
f 117/4/2 118/4/2 122/4/2
f 118/4/2 119/4/2 122/4/2
f 119/2/2 120/2/2 123/2/2
f 122/4/2 119/4/2 123/4/2
f 123/2/2 120/2/2 124/2/2
f 131/7/3 126/7/3 125/7/3
f 131/1/3 127/1/3 126/1/3
f 132/2/3 128/2/3 127/2/3
f 132/1/3 127/1/3 131/1/3
f 133/2/3 128/2/3 132/2/3
f 134/2/3 128/2/3 133/2/3
f 135/1/3 129/1/3 128/1/3
f 135/2/3 128/2/3 134/2/3
f 136/2/3 130/2/3 129/2/3
f 136/1/3 129/1/3 135/1/3
f 137/2/3 130/2/3 136/2/3
f 139/7/3 131/7/3 125/7/3
f 139/2/3 132/2/3 131/2/3
f 140/3/3 133/3/3 132/3/3
f 140/2/3 132/2/3 139/2/3
f 141/4/3 134/4/3 133/4/3
f 141/3/3 133/3/3 140/3/3
f 142/3/3 135/3/3 134/3/3
f 142/4/3 134/4/3 141/4/3
f 143/2/3 136/2/3 135/2/3
f 143/3/3 135/3/3 142/3/3
f 144/4/3 137/4/3 136/4/3
f 144/2/3 136/2/3 143/2/3
f 145/2/3 138/2/3 137/2/3
f 145/4/3 137/4/3 144/4/3
f 146/2/3 138/2/3 145/2/3
f 148/4/3 145/4/3 144/4/3
f 148/2/3 147/2/3 146/2/3
f 148/4/3 146/4/3 145/4/3
f 149/2/3 147/2/3 148/2/3
f 151/4/3 148/4/3 144/4/3
f 152/5/3 149/5/3 148/5/3
f 152/4/3 148/4/3 151/4/3
f 153/3/3 150/3/3 149/3/3
f 153/5/3 149/5/3 152/5/3
f 154/3/3 150/3/3 153/3/3
f 155/3/3 140/3/3 139/3/3
f 155/7/3 139/7/3 125/7/3
f 156/4/3 141/4/3 140/4/3
f 156/3/3 140/3/3 155/3/3
f 156/4/3 143/4/3 142/4/3
f 156/4/3 142/4/3 141/4/3
f 157/4/3 143/4/3 156/4/3
f 158/4/3 143/4/3 157/4/3
f 159/3/3 144/3/3 143/3/3
f 159/4/3 143/4/3 158/4/3
f 160/4/3 151/4/3 144/4/3
f 160/3/3 144/3/3 159/3/3
f 161/5/3 152/5/3 151/5/3
f 161/4/3 151/4/3 160/4/3
f 162/2/3 153/2/3 152/2/3
f 162/5/3 152/5/3 161/5/3
f 163/2/3 153/2/3 162/2/3
f 164/7/3 155/7/3 125/7/3
f 164/2/3 156/2/3 155/2/3
f 165/3/3 157/3/3 156/3/3
f 165/2/3 156/2/3 164/2/3
f 166/4/3 158/4/3 157/4/3
f 166/3/3 157/3/3 165/3/3
f 167/3/3 159/3/3 158/3/3
f 167/4/3 158/4/3 166/4/3
f 168/2/3 160/2/3 159/2/3
f 168/3/3 159/3/3 167/3/3
f 169/4/3 161/4/3 160/4/3
f 169/2/3 160/2/3 168/2/3
f 170/2/3 162/2/3 161/2/3
f 170/4/3 161/4/3 169/4/3
f 171/2/3 162/2/3 170/2/3
f 172/7/3 164/7/3 125/7/3
f 173/1/3 165/1/3 164/1/3
f 173/7/3 164/7/3 172/7/3
f 174/2/3 166/2/3 165/2/3
f 174/1/3 165/1/3 173/1/3
f 174/2/3 168/2/3 167/2/3
f 174/2/3 167/2/3 166/2/3
f 175/1/3 169/1/3 168/1/3
f 175/2/3 168/2/3 174/2/3
f 176/2/3 170/2/3 169/2/3
f 176/1/3 169/1/3 175/1/3
f 177/2/3 170/2/3 176/2/3
f 178/7/4 179/7/4 184/7/4
f 179/1/4 180/1/4 184/1/4
f 180/2/4 181/2/4 185/2/4
f 184/1/4 180/1/4 185/1/4
f 185/2/4 181/2/4 186/2/4
f 186/2/4 181/2/4 187/2/4
f 181/1/4 182/1/4 188/1/4
f 187/2/4 181/2/4 188/2/4
f 182/2/4 183/2/4 189/2/4
f 188/1/4 182/1/4 189/1/4
f 189/2/4 183/2/4 190/2/4
f 178/7/4 184/7/4 192/7/4
f 184/2/4 185/2/4 192/2/4
f 185/3/4 186/3/4 193/3/4
f 192/2/4 185/2/4 193/2/4
f 186/4/4 187/4/4 194/4/4
f 193/3/4 186/3/4 194/3/4
f 187/3/4 188/3/4 195/3/4
f 194/4/4 187/4/4 195/4/4
f 188/2/4 189/2/4 196/2/4
f 195/3/4 188/3/4 196/3/4
f 189/4/4 190/4/4 197/4/4
f 196/2/4 189/2/4 197/2/4
f 190/2/4 191/2/4 198/2/4
f 197/4/4 190/4/4 198/4/4
f 198/2/4 191/2/4 199/2/4
f 197/4/4 198/4/4 201/4/4
f 198/5/4 199/5/4 201/5/4
f 199/2/4 200/2/4 202/2/4
f 201/5/4 199/5/4 202/5/4
f 202/2/4 200/2/4 203/2/4
f 201/4/4 202/4/4 205/4/4
f 202/5/4 203/5/4 205/5/4
f 203/3/4 204/3/4 206/3/4
f 205/5/4 203/5/4 206/5/4
f 206/3/4 204/3/4 207/3/4
f 192/3/4 193/3/4 208/3/4
f 178/7/4 192/7/4 208/7/4
f 193/4/4 194/4/4 209/4/4
f 208/3/4 193/3/4 209/3/4
f 195/4/4 196/4/4 209/4/4
f 194/4/4 195/4/4 209/4/4
f 209/4/4 196/4/4 210/4/4
f 210/4/4 196/4/4 211/4/4
f 196/3/4 197/3/4 212/3/4
f 211/4/4 196/4/4 212/4/4
f 201/4/4 205/4/4 213/4/4
f 212/3/4 197/3/4 213/3/4
f 197/4/4 201/4/4 213/4/4
f 213/4/4 205/4/4 214/4/4
f 205/2/4 206/2/4 215/2/4
f 214/4/4 205/4/4 215/4/4
f 215/2/4 206/2/4 216/2/4
f 178/7/4 208/7/4 217/7/4
f 208/2/4 209/2/4 217/2/4
f 209/3/4 210/3/4 218/3/4
f 217/2/4 209/2/4 218/2/4
f 210/4/4 211/4/4 219/4/4
f 218/3/4 210/3/4 219/3/4
f 211/3/4 212/3/4 220/3/4
f 219/4/4 211/4/4 220/4/4
f 212/2/4 213/2/4 221/2/4
f 220/3/4 212/3/4 221/3/4
f 213/4/4 214/4/4 222/4/4
f 221/2/4 213/2/4 222/2/4
f 214/2/4 215/2/4 223/2/4
f 222/4/4 214/4/4 223/4/4
f 223/2/4 215/2/4 224/2/4
f 178/7/4 217/7/4 225/7/4
f 217/1/4 218/1/4 226/1/4
f 225/7/4 217/7/4 226/7/4
f 218/2/4 219/2/4 227/2/4
f 226/1/4 218/1/4 227/1/4
f 220/2/4 221/2/4 227/2/4
f 219/2/4 220/2/4 227/2/4
f 221/1/4 222/1/4 228/1/4
f 227/2/4 221/2/4 228/2/4
f 222/2/4 223/2/4 229/2/4
f 228/1/4 222/1/4 229/1/4
f 229/2/4 223/2/4 230/2/4
f 233/7/5 232/7/5 231/7/5
f 234/7/5 232/7/5 233/7/5
f 235/2/6 236/2/6 239/2/6
f 239/2/6 236/2/6 240/2/6
f 237/2/6 238/2/6 241/2/6
f 241/2/6 238/2/6 242/2/6
f 239/4/6 240/4/6 243/4/6
f 243/4/6 240/4/6 244/4/6
f 241/4/6 242/4/6 245/4/6
f 245/4/6 242/4/6 246/4/6
f 243/2/6 244/2/6 247/2/6
f 247/2/6 244/2/6 248/2/6
f 245/2/6 246/2/6 249/2/6
f 249/2/6 246/2/6 250/2/6
f 251/2/6 252/2/6 255/2/6
f 255/2/6 252/2/6 256/2/6
f 253/2/6 254/2/6 257/2/6
f 257/2/6 254/2/6 258/2/6
f 255/3/6 256/3/6 259/3/6
f 259/3/6 256/3/6 260/3/6
f 257/3/6 258/3/6 261/3/6
f 261/3/6 258/3/6 262/3/6
f 259/2/6 260/2/6 263/2/6
f 263/2/6 260/2/6 264/2/6
f 261/2/6 262/2/6 265/2/6
f 265/2/6 262/2/6 266/2/6
f 267/2/6 268/2/6 271/2/6
f 271/2/6 268/2/6 272/2/6
f 269/2/6 270/2/6 273/2/6
f 273/2/6 270/2/6 274/2/6
f 271/3/6 272/3/6 275/3/6
f 275/3/6 272/3/6 276/3/6
f 273/3/6 274/3/6 277/3/6
f 277/3/6 274/3/6 278/3/6
f 275/2/6 276/2/6 279/2/6
f 279/2/6 276/2/6 280/2/6
f 277/2/6 278/2/6 281/2/6
f 281/2/6 278/2/6 282/2/6
f 283/3/6 284/3/6 285/3/6
f 285/3/6 284/3/6 286/3/6
f 285/4/6 286/4/6 287/4/6
f 287/4/6 286/4/6 288/4/6
f 287/3/6 288/3/6 289/3/6
f 289/3/6 288/3/6 290/3/6
